<svg width="150" height="99" viewBox="0 0 150 99" fill="none" xmlns="http://www.w3.org/2000/svg">
<path fill-rule="evenodd" clip-rule="evenodd" d="M66.474 12.2017V0.746094C65.898 0.778648 65.3463 0.80725 64.8112 0.834993C63.7301 0.891049 62.7166 0.943596 61.7061 1.01814C46.6615 2.12928 33.3996 7.65877 22.2218 17.7279C8.26195 30.3011 0.705262 46.1226 0.0269292 64.9464C-0.441677 77.9819 5.2111 88.11 16.5494 94.4228C27.7829 100.677 39.3047 100.1 50.0335 93.0036C70.5014 79.4699 68.4664 48.5088 46.4813 37.6071C44.4591 36.6058 42.2857 35.9084 40.0189 35.181C38.9318 34.8322 37.8232 34.4765 36.6995 34.077C41.9 20.4713 51.7867 13.1325 66.474 12.2017ZM120.193 33.9594C125.206 20.3832 135.237 13.2443 149.993 12.1692V12.166C149.993 11.444 149.995 10.7219 149.996 9.99966C150.001 7.19059 150.005 4.37987 149.938 1.56915C149.931 1.30037 149.105 0.815275 148.673 0.828385C135.558 1.22499 123.401 4.77146 112.59 12.32C94.8617 24.6999 85.1422 41.7308 83.4644 63.3047C82.7107 73.0165 85.6698 81.4304 92.3188 88.5987C102.418 99.4905 120.261 101.785 132.632 93.5578C143.181 86.5436 148.371 76.6023 147.493 63.9504C146.7 52.5309 141.051 43.8154 131.013 38.263C128.775 37.0265 126.329 36.1654 123.796 35.274C122.61 34.8564 121.404 34.4321 120.193 33.9594Z" fill="#EFEFEF"/>
</svg>
