<svg width="42" height="56" viewBox="0 0 42 56" fill="none" xmlns="http://www.w3.org/2000/svg">
<path d="M12.9235 41.8705L11.7492 50.0005C11.6525 50.6701 12.3395 51.1895 12.9835 50.9335L21.0002 47.7469L29.0144 50.9332C29.6585 51.1893 30.3456 50.6698 30.2487 50.0001L29.0733 41.8705M19.1972 23.9045V17.7697H21.9023C23.6454 17.7697 25.0584 19.143 25.0584 20.8371C25.0584 22.5312 23.6454 23.9045 21.9023 23.9045H19.1972ZM19.1972 23.9045H16.9429M19.1972 23.9045V26.5336M19.1972 29.601V26.5336M19.1972 26.5336H16.9429M19.1972 26.5336H21.9024M15.4124 7.52809L13.3328 7.16352C12.0329 6.93566 10.7538 7.6534 10.307 8.86139L9.59197 10.7941C9.31892 11.5322 8.72105 12.1133 7.9616 12.3787L5.973 13.0736C4.73009 13.5079 3.9916 14.7511 4.22605 16.0144L4.60116 18.0357C4.74441 18.8076 4.52558 19.6013 4.0044 20.2002L2.63971 21.7684C1.78676 22.7485 1.78676 24.184 2.63971 25.1641L4.0044 26.7323C4.52558 27.3312 4.74441 28.1249 4.60116 28.8969L4.22605 30.9181C3.9916 32.1814 4.73009 33.4246 5.973 33.8589L7.9616 34.5538C8.72105 34.8192 9.31892 35.4003 9.59197 36.1384L10.307 38.0711C10.7538 39.2791 12.0329 39.9969 13.3328 39.769L15.4124 39.4044C16.2067 39.2652 17.0234 39.4779 17.6396 39.9844L19.2531 41.3108C20.2615 42.1398 21.7385 42.1398 22.7469 41.3108L24.3604 39.9844C24.9766 39.4779 25.7933 39.2652 26.5876 39.4044L28.6672 39.769C29.9671 39.9969 31.2462 39.2791 31.693 38.0711L32.408 36.1384C32.6811 35.4003 33.279 34.8192 34.0384 34.5538L36.027 33.8589C37.2699 33.4246 38.0084 32.1814 37.7739 30.9181L37.3988 28.8969C37.2556 28.1249 37.4744 27.3312 37.9956 26.7323L39.3603 25.1641C40.2132 24.184 40.2132 22.7485 39.3603 21.7684L37.9956 20.2002C37.4744 19.6013 37.2556 18.8076 37.3988 18.0357L37.7739 16.0144C38.0084 14.7511 37.2699 13.5079 36.027 13.0736L34.0384 12.3787C33.279 12.1133 32.6811 11.5322 32.408 10.7941L31.693 8.86139C31.2462 7.6534 29.9671 6.93566 28.6672 7.16352L26.5876 7.52809C25.7933 7.66732 24.9766 7.45463 24.3604 6.9481L22.7469 5.62174C21.7385 4.79275 20.2615 4.79275 19.2531 5.62174L17.6396 6.9481C17.0234 7.45463 16.2067 7.66732 15.4124 7.52809ZM31.8213 23.0281C31.8213 29.0783 26.9767 33.983 21.0006 33.983C15.0246 33.983 10.18 29.0783 10.18 23.0281C10.18 16.9779 15.0246 12.0732 21.0006 12.0732C26.9767 12.0732 31.8213 16.9779 31.8213 23.0281Z" stroke="#797979" stroke-width="1.5" stroke-linejoin="round"/>
</svg>
