<svg width="450" height="284" viewBox="0 0 450 284" fill="none" xmlns="http://www.w3.org/2000/svg">
<rect width="450" height="284" fill="#262626"/>
<path fill-rule="evenodd" clip-rule="evenodd" d="M414.682 122.064C414.682 164.625 380.18 199.127 337.619 199.127C326.959 199.127 316.805 196.963 307.571 193.05L275.936 242.641L255.469 229.884L287.116 180.274C270.844 166.145 260.555 145.306 260.555 122.064C260.555 79.5026 295.058 45 337.619 45C380.18 45 414.682 79.5026 414.682 122.064ZM290.031 180.9L306.626 191.243L326.856 156.919L376.291 150.279L373.588 131.29L339.243 135.903L347.747 121.474L390.072 116.106L387.737 97.247L359.949 100.772L373.688 77.4617L356.737 67.7232L342.104 92.5498L333.82 73.3771L316.167 80.9386L330.033 113.03L321.478 127.544L310.071 104.82L292.927 113.299L309.921 147.153L290.031 180.9Z" fill="#78DA76"/>
</svg>
