<svg width="450" height="284" viewBox="0 0 450 284" fill="none" xmlns="http://www.w3.org/2000/svg">
<g clip-path="url(#clip0_2024_2918)">
<rect width="450" height="284" fill="#78DA76"/>
<g clip-path="url(#clip1_2024_2918)">
<path d="M296.804 101.217C304.026 137.571 317.574 147.81 339.861 160.169C340.553 159.031 341.292 157.828 342.219 156.324C339.569 154.643 337.133 153.025 334.626 151.525C319.205 142.294 310.964 128.128 306.767 111.092C305.379 105.464 303.623 99.9359 302.203 94.3128C301.546 91.702 300.024 90.7329 297.481 90.2735C291.67 89.2334 285.898 87.9245 280.134 86.6142C272.222 84.8136 266.888 78.2464 266.589 70.0865C266.438 65.9413 268.404 64.0314 272.456 64.5593C286.838 66.4153 301.228 68.2208 315.573 70.3044C317.952 70.6509 320.421 71.9185 322.376 73.3923C330.333 79.3882 338.048 85.7105 345.98 91.7515C353.047 97.1442 360.954 99.4218 369.877 97.7433C376.251 96.5418 462.689 82.7265 469.17 81.6802L481.141 156.091C478.064 156.588 395.074 170.183 392.057 170.44C379.479 171.51 368.224 176.184 357.138 182.004C350.818 185.322 343.73 187.829 336.695 189.039C301.726 195.054 266.655 200.535 231.617 206.175C223.654 207.461 218.746 203.033 219.719 195.562C220.289 191.17 222.485 189.009 227.465 188.197C242.208 185.784 256.959 183.427 271.705 181.038C272.901 180.845 274.284 180.901 275.224 180.29C276.187 179.666 277.405 178.238 277.251 177.385C277.044 176.253 275.798 174.911 274.672 174.469C273.554 174.026 272.038 174.517 270.715 174.73C252.776 177.61 234.834 180.465 216.911 183.441C213.318 184.038 210.159 183.768 207.893 180.612C205.404 177.14 205.169 173.345 206.838 169.48C208.178 166.375 210.988 165.535 214.034 165.052C230.778 162.373 247.522 159.694 264.248 156.904C266.797 156.476 270.84 157.054 270.228 152.745C269.58 148.155 265.79 149.916 263.079 150.346C244.734 153.242 226.406 156.242 208.069 159.186C202.069 160.121 198.723 157.575 197.791 151.422C196.889 145.461 199.498 141.699 205.37 140.734C224.895 137.549 244.429 134.42 263.95 131.261C265.146 131.068 266.553 131.119 267.447 130.474C268.37 129.808 269.364 128.359 269.249 127.393C269.132 126.46 267.741 125.289 266.696 124.99C265.495 124.642 264.043 125.073 262.719 125.287C247.571 127.716 232.451 130.321 217.264 132.461C214.729 132.821 211.176 131.983 209.401 130.308C206.154 127.253 205.252 122.819 207.589 118.633C208.471 117.054 210.383 115.309 212.063 115.03C240.184 110.317 268.339 105.821 296.813 101.224L296.804 101.217Z" fill="#2E9344"/>
<path d="M360.124 210.754C430.819 189.844 472.89 182.087 554.761 179.332L571.116 326.359L-55.7738 379.053C-55.7738 379.053 -121.196 212.8 -72.1077 232.156C-23.0188 251.511 100.796 251.496 269.621 225.499C272.819 239.424 280.098 250.72 293.205 257.528C302.976 262.604 313.345 264.123 324.158 261.623C331.534 259.918 337.997 256.444 343.721 251.466C349.585 246.368 354.239 240.303 356.232 232.85C358.099 225.886 358.799 218.606 360.133 210.753L360.124 210.754Z" fill="#2E9344"/>
<path fill-rule="evenodd" clip-rule="evenodd" d="M123.009 149.334L131.596 246.748L122.882 247.472L114.295 150.057L123.009 149.334Z" fill="#2E9344"/>
<path fill-rule="evenodd" clip-rule="evenodd" d="M95.0566 174.328L101.769 169.376L122.824 197.697L134.875 171.193L142.524 174.75L124.63 214.106L95.0566 174.328Z" fill="#2E9344"/>
<path fill-rule="evenodd" clip-rule="evenodd" d="M91.3551 201.612L97.1528 195.557L124.043 221.394L142.897 197.014L149.551 202.192L125 233.938L91.3551 201.612Z" fill="#2E9344"/>
<path d="M106.831 207.708C103.956 212.699 97.5901 214.396 92.6122 211.499C87.6344 208.602 85.9297 202.208 88.8047 197.218C91.6796 192.227 98.0456 190.53 103.023 193.427C108.001 196.324 109.706 202.718 106.831 207.708Z" fill="#2E9344"/>
<path d="M106.831 177.226C103.956 182.216 97.5901 183.913 92.6122 181.017C87.6344 178.12 85.9297 171.726 88.8047 166.735C91.6796 161.745 98.0456 160.048 103.023 162.945C108.001 165.841 109.706 172.235 106.831 177.226Z" fill="#2E9344"/>
<path d="M126.083 151.556C123.208 156.546 116.842 158.244 111.864 155.347C106.886 152.45 105.182 146.056 108.057 141.066C110.932 136.075 117.298 134.378 122.275 137.275C127.253 140.172 128.958 146.566 126.083 151.556Z" fill="#2E9344"/>
<path d="M151.753 172.412C148.878 177.403 142.512 179.1 137.534 176.203C132.556 173.307 130.852 166.913 133.727 161.922C136.602 156.932 142.967 155.235 147.945 158.131C152.923 161.028 154.628 167.422 151.753 172.412Z" fill="#2E9344"/>
<path d="M159.774 201.291C156.899 206.281 150.533 207.978 145.556 205.082C140.578 202.185 138.873 195.791 141.748 190.8C144.623 185.81 150.989 184.113 155.967 187.009C160.945 189.906 162.649 196.3 159.774 201.291Z" fill="#2E9344"/>
<circle cx="315" cy="174" r="9" fill="#78DA76"/>
<circle cx="335.686" cy="219.855" r="9" transform="rotate(13.5214 335.686 219.855)" fill="#2E9344"/>
<circle cx="326.466" cy="245.465" r="9" transform="rotate(10.3104 326.466 245.465)" fill="#2E9344"/>
<circle cx="307.855" cy="226.855" r="9" transform="rotate(13.5214 307.855 226.855)" fill="#2E9344"/>
</g>
</g>
<defs>
<clipPath id="clip0_2024_2918">
<rect width="450" height="284" fill="white"/>
</clipPath>
<clipPath id="clip1_2024_2918">
<rect width="450" height="284" fill="white"/>
</clipPath>
</defs>
</svg>
