<svg width="236" height="400" viewBox="0 0 236 400" fill="none" xmlns="http://www.w3.org/2000/svg">
<rect width="236" height="400" fill="#78DA76"/>
<path d="M129.956 254.008C131.366 242.296 147.486 240.227 151.808 251.204L156.768 263.8C159.362 270.388 167.286 273.025 173.311 269.303L184.828 262.19C194.865 255.99 206.532 267.303 200.645 277.526L193.89 289.257C190.356 295.394 193.236 303.233 199.901 305.623L212.644 310.192C223.749 314.173 222.179 330.349 210.515 332.12L197.132 334.153C190.131 335.216 185.797 342.355 188.085 349.056L192.457 361.868C196.268 373.033 182.643 381.89 173.986 373.876L164.052 364.679C158.856 359.869 150.573 360.932 146.759 366.898L139.469 378.305C133.116 388.246 117.696 383.115 118.564 371.35L119.561 357.85C120.082 350.788 114.086 344.974 107.044 345.713L93.5809 347.125C81.8477 348.356 76.2443 333.102 85.9844 326.445L97.1604 318.806C103.007 314.811 103.814 306.499 98.845 301.454L89.3468 291.808C81.069 283.402 89.5019 269.51 100.779 272.975L113.719 276.95C120.488 279.03 127.49 274.478 128.337 267.448L129.956 254.008Z" fill="#2E9344"/>
<path d="M146.436 307.5C144.255 309.485 141.529 310.478 138.258 310.478C134.987 310.478 132.238 309.464 130.012 307.436C127.831 305.409 126.741 302.938 126.741 300.023C126.741 297.109 127.831 294.638 130.012 292.61C132.238 290.582 134.987 289.569 138.258 289.569C141.529 289.569 144.255 290.582 146.436 292.61C148.617 294.595 149.707 297.066 149.707 300.023C149.707 302.98 148.617 305.472 146.436 307.5ZM131.58 328.092L162.655 295.968L166.812 298.122L135.668 330.31L131.58 328.092ZM135.123 302.938C135.941 303.698 136.963 304.078 138.19 304.078C139.417 304.078 140.439 303.698 141.257 302.938C142.074 302.135 142.483 301.164 142.483 300.023C142.483 298.883 142.074 297.932 141.257 297.172C140.439 296.412 139.417 296.031 138.19 296.031C136.963 296.031 135.941 296.412 135.123 297.172C134.351 297.932 133.965 298.883 133.965 300.023C133.965 301.164 134.351 302.135 135.123 302.938ZM169.47 332.527C167.289 334.555 164.563 335.569 161.292 335.569C158.021 335.569 155.295 334.555 153.114 332.527C150.934 330.5 149.843 328.029 149.843 325.114C149.843 322.199 150.934 319.728 153.114 317.701C155.295 315.673 158.021 314.66 161.292 314.66C164.563 314.66 167.289 315.673 169.47 317.701C171.651 319.728 172.741 322.199 172.741 325.114C172.741 328.029 171.651 330.5 169.47 332.527ZM158.225 328.029C159.043 328.789 160.065 329.169 161.292 329.169C162.519 329.169 163.518 328.768 164.291 327.965C165.108 327.163 165.517 326.212 165.517 325.114C165.517 323.974 165.108 323.023 164.291 322.263C163.518 321.46 162.519 321.059 161.292 321.059C160.065 321.059 159.043 321.46 158.225 322.263C157.453 323.023 157.067 323.974 157.067 325.114C157.067 326.255 157.453 327.226 158.225 328.029Z" fill="white"/>
</svg>
