<svg width="620" height="400" viewBox="0 0 620 400" fill="none" xmlns="http://www.w3.org/2000/svg">
<g clip-path="url(#clip0_2024_2941)">
<rect width="620" height="400" fill="#78DA76"/>
<g clip-path="url(#clip1_2024_2941)">
<path d="M-1090.17 597.05C-903.333 596.052 -719.48 546.501 -537.245 496.131C-397.37 457.47 -257.317 417.345 -115.167 396.663C-51.0153 387.327 14.9922 379.175 79.5674 383.823C149.698 388.872 217.273 420.091 279.759 461.559C429.498 560.933 556.759 712.815 687.757 849.228C826.488 993.693 985.973 1157.71 1169.88 1161.29C1169.88 1150.07 1169.88 1138.86 1169.88 1127.64C987.04 1119.01 828.086 961.381 687.757 819.605C556.391 686.882 428.575 539.825 279.759 442.448C217.053 401.415 149.609 370.174 79.5674 363.399C15.1828 357.171 -51.1763 365.831 -115.167 375.176C-257.423 395.957 -397.434 437.205 -537.245 476.887C-719.327 528.573 -903.201 579.472 -1090.17 579.2C-1090.17 585.183 -1090.17 588.666 -1090.17 597.05Z" fill="#2E9344"/>
<path d="M-1090.17 579.615C-903.201 579.886 -719.327 528.944 -537.245 477.217C-397.434 437.497 -257.423 396.217 -115.167 375.418C-51.1763 366.061 15.1871 357.398 79.5674 363.631C149.609 370.412 217.053 401.68 279.759 442.749C428.57 540.209 556.391 687.393 687.757 820.232C828.086 962.13 987.04 1119.9 1169.88 1128.54C1169.88 1110.05 1169.88 1091.57 1169.88 1073.09C989.879 1063.05 831.928 916.516 690.431 780.813C556.84 652.696 426.668 510.337 276.607 417.374C215.709 379.649 150.837 350.987 83.6775 343.254C16.4879 335.522 -53.2272 345.133 -119.997 355.481C-263.152 377.671 -403.836 421.269 -544.364 462.841C-723.903 515.946 -905.422 567.738 -1090.17 567.087C-1090.17 571.21 -1090.17 573.627 -1090.17 579.615Z" fill="#2E9344"/>
<path d="M-1090.17 566.971C-905.421 567.621 -723.903 515.832 -544.367 462.724C-403.839 421.153 -263.155 377.557 -120 355.368C-53.2253 345.02 16.4899 335.409 83.6754 343.142C150.836 350.874 215.707 379.535 276.605 417.259C426.666 510.219 556.838 652.573 690.43 780.685C831.928 916.383 989.879 1062.91 1169.88 1072.95C1169.88 1049.03 1169.88 1025.11 1169.88 1001.18C993.142 992.357 835.991 859.179 693.12 731.691C559.601 612.548 429.336 480.227 281.52 393.634C217.559 356.165 149.683 328.15 79.7305 321.594C14.7357 315.502 -52.0728 324.385 -116.576 334.789C-260.396 357.982 -401.483 403.93 -542.363 447.802C-722.309 503.839 -904.438 558.824 -1090.17 558.45C-1090.17 561.237 -1090.17 562.852 -1090.17 566.971Z" fill="#2E9344"/>
<path d="M-1090.17 558.149C-904.439 558.528 -722.31 503.585 -542.364 447.597C-401.484 403.763 -260.398 357.855 -116.578 334.681C-52.0747 324.287 14.7336 315.411 79.7284 321.498C149.681 328.048 217.561 356.038 281.522 393.476C429.337 479.994 559.602 612.201 693.121 731.241C835.992 858.619 993.142 991.682 1169.88 1000.5C1169.88 972.967 1169.88 945.438 1169.88 917.913C994.93 911.904 836.903 790.97 691.38 672.076C557.132 562.393 425.528 440.361 278.348 362.968C216.142 330.256 150.795 306.308 83.8724 300.541C18.5048 294.906 -48.2865 303.485 -113.124 314.469C-257.643 338.955 -399.12 387.545 -540.338 434.008C-720.662 493.337 -903.392 551.955 -1090.17 552.295C-1090.17 554.28 -1090.17 555.364 -1090.17 558.149Z" fill="#2E9344"/>
<path d="M-1090.17 552.302C-903.392 551.962 -720.661 493.312 -540.341 433.952C-399.123 387.464 -257.646 338.844 -113.127 314.348C-48.2931 303.358 18.5026 294.776 83.8703 300.413C150.797 306.183 216.14 330.144 278.346 362.874C425.527 440.308 557.131 562.405 691.379 672.147C836.902 791.104 994.93 912.098 1169.88 918.115C1169.88 888.757 1169.88 859.4 1169.88 830.043C996.773 827.618 837.847 719.47 689.629 610.112C557.021 512.273 426.62 403.738 283.308 335.48C217.877 304.314 149.505 282.3 79.8915 278.687C13.9433 275.263 -52.7507 283.656 -118.008 295.779C-260.358 322.225 -399.458 372.623 -538.303 420.976C-718.975 483.89 -902.29 546.497 -1090.17 547.78C-1090.17 549.503 -1090.17 550.317 -1090.17 552.302Z" fill="#2E9344"/>
<path d="M-1090.17 547.714C-902.29 546.431 -718.975 483.866 -538.303 420.987C-399.458 372.667 -260.358 322.298 -118.008 295.874C-52.7507 283.76 13.9433 275.376 79.8915 278.793C149.505 282.404 217.877 304.408 283.308 335.549C426.616 403.76 557.016 512.222 689.629 609.995C837.847 719.279 996.773 827.354 1169.88 829.777C1169.88 800.44 1169.88 771.102 1169.88 741.765C998.485 742.854 838.741 647.487 687.862 548.269C554.453 460.541 422.785 363.061 280.113 304.21C216.542 277.989 150.717 260.06 84.0652 257.534C17.7483 255.021 -48.9668 263.004 -114.538 275.785C-257.608 303.672 -397.093 356.843 -536.257 407.926C-717.267 474.381 -901.159 540.957 -1090.17 543.195C-1090.17 545.183 -1090.17 545.997 -1090.17 547.714Z" fill="#2E9344"/>
<path d="M-1090.17 543.623C-901.159 541.378 -717.268 474.728 -536.254 408.212C-397.095 357.076 -257.605 303.842 -114.536 275.924C-48.9645 263.128 17.7505 255.136 84.0673 257.652C150.719 260.181 216.544 278.13 280.115 304.381C422.782 363.297 554.45 460.881 687.863 548.711C838.742 648.04 998.485 743.513 1169.88 742.423C1169.88 714.867 1169.88 687.311 1169.88 659.759C849.623 666.794 579.835 383.366 280.119 275.601C5.71257 176.936 -272.266 293.459 -536.249 395.17C-716.937 464.785 -900.752 534.795 -1090.17 537.768C-1090.17 540.556 -1090.17 541.637 -1090.17 543.623Z" fill="#2E9344"/>
<path d="M-1090.17 537.115C-900.752 534.147 -716.937 464.238 -536.253 394.724C-272.269 293.16 5.70609 176.806 280.118 275.328C579.834 382.937 849.623 665.954 1169.88 658.929C1169.88 635.035 1169.88 611.146 1169.88 587.252C853.758 596.075 579.753 343.263 280.118 248.728C2.26971 161.069 -270.854 274.098 -536.253 380.317C-716.619 452.501 -900.383 525.349 -1090.17 528.601C-1090.17 532.718 -1090.17 534.332 -1090.17 537.115Z" fill="#2E9344"/>
<path d="M-1090.17 529.59C-900.383 526.331 -716.619 453.335 -536.253 381.003C-270.854 274.568 2.26971 161.309 280.118 249.147C579.758 343.874 853.758 597.202 1169.88 588.36C1169.88 569.867 1169.88 551.373 1169.88 532.879C856.953 538.975 579.541 311.711 280.118 225.713C149.369 188.161 17.2822 186.64 -114.534 215.665C-258.214 247.302 -397.432 307.145 -536.253 364.493C-716.335 438.885 -900.091 514.187 -1090.17 517.054C-1090.17 523.051 -1090.17 525.465 -1090.17 529.59Z" fill="#2E9344"/>
<path d="M-1090.17 516.081C-900.091 513.217 -716.335 437.991 -536.253 363.674C-397.437 306.385 -258.214 246.607 -114.534 214.997C17.2865 186.002 149.374 187.522 280.118 225.036C579.541 310.946 856.953 537.979 1169.88 531.89C1169.88 520.667 1169.88 509.449 1169.88 498.226C859.105 495.651 579.287 288.961 280.118 205.915C149.013 169.521 17.6805 164.353 -114.534 193.508C-258.358 225.225 -397.526 286.136 -536.253 344.42C-716.106 419.982 -899.904 496.65 -1090.17 498.226C-1090.17 506.611 -1090.17 510.095 -1090.17 516.081Z" fill="#2E9344"/>
<path d="M-1090.17 498.263C-899.904 496.689 -716.106 420.107 -536.253 344.63C-397.53 286.412 -258.362 225.57 -114.534 193.889C17.6805 164.767 149.013 169.929 280.118 206.282C579.287 289.234 859.105 495.691 1169.88 498.263C1169.88 489.883 1169.88 485.698 1169.88 477.318C859.105 474.746 579.287 268.285 280.118 185.337C149.217 149.04 17.5026 143.284 -114.534 172.436C-258.502 204.225 -397.619 266.164 -536.253 325.346C-715.873 402.027 -899.722 480.02 -1090.17 480.338C-1090.17 486.386 -1090.17 489.883 -1090.17 498.263Z" fill="#2E9344"/>
<path d="M-1090.17 480.397C-899.722 480.079 -715.873 402.117 -536.253 325.466C-397.619 266.307 -258.506 204.392 -114.534 172.616C17.5026 143.471 149.217 149.228 280.118 185.511C579.287 268.431 859.105 474.808 1169.88 477.379C1169.88 469.003 1169.88 464.819 1169.88 456.442C859.105 453.871 579.287 247.491 280.118 164.575C149.276 128.309 17.4009 122.177 -114.534 151.963C-258.693 184.509 -397.729 248.14 -536.253 308.877C-715.576 387.497 -899.426 467.725 -1090.17 467.657C-1090.17 471.892 -1090.17 474.352 -1090.17 480.397Z" fill="#2E9344"/>
<path d="M-1090.17 467.494C-899.426 467.559 -715.576 387.151 -536.253 308.355C-397.733 247.487 -258.693 183.714 -114.534 151.09C17.4009 121.238 149.28 127.383 280.118 163.73C579.287 246.836 859.105 453.673 1169.88 456.25C1169.88 447.855 1169.88 443.662 1169.88 435.267C859.105 432.69 579.287 225.848 280.118 142.747C149.23 106.387 17.35 100.026 -114.534 130.986C-258.917 164.881 -397.856 230.839 -536.253 293.741C-715.22 375.084 -899.031 458.414 -1090.17 458.621C-1090.17 461.564 -1090.17 463.253 -1090.17 467.494Z" fill="#2E9344"/>
<path d="M-1090.17 459.554C-899.031 459.347 -715.22 376.025 -536.253 294.691C-397.86 231.795 -258.922 165.843 -114.534 131.952C17.3543 100.995 149.234 107.356 280.118 143.712C579.287 226.809 859.105 433.626 1169.88 436.203C1169.88 427.808 1169.88 423.611 1169.88 415.221C859.105 412.645 579.287 205.823 280.118 122.731C149.107 86.34 17.3373 79.8806 -114.534 112.246C-259.172 147.749 -397.996 216.196 -536.253 281.423C-714.822 365.671 -898.57 452.353 -1090.17 453.275C-1090.17 455.438 -1090.17 456.611 -1090.17 459.554Z" fill="#2E9344"/>
<path d="M-1090.17 452.606C-898.57 451.689 -714.822 365.139 -536.253 281.023C-398 215.899 -259.172 147.56 -114.534 112.113C17.3416 79.7938 149.111 86.2473 280.118 122.581C579.287 205.547 859.105 412.039 1169.88 414.612C1169.88 406.231 1169.88 402.04 1169.88 393.663C859.105 391.091 579.287 184.595 280.118 101.633C148.946 65.2561 17.3458 58.7596 -114.534 92.6406C-259.443 129.869 -398.144 200.853 -536.253 268.452C-714.398 355.639 -898.061 445.774 -1090.17 447.628C-1090.17 449.534 -1090.17 450.442 -1090.17 452.606Z" fill="#2E9344"/>
<path d="M-1090.17 447.643C-898.061 445.788 -714.398 355.632 -536.253 268.415C-398.144 200.8 -259.443 129.798 -114.534 92.5612C17.3458 58.672 148.946 65.1701 280.118 101.555C579.287 184.542 859.105 391.083 1169.88 393.657C1169.88 385.274 1169.88 381.082 1169.88 372.704C859.105 370.13 579.287 163.584 280.118 80.6021C148.772 44.1696 17.35 37.6284 -114.534 73.0798C-259.718 112.107 -398.293 185.751 -536.253 255.832C-713.958 346.113 -897.544 439.875 -1090.17 442.668C-1090.17 444.833 -1090.17 445.741 -1090.17 447.643Z" fill="#2E9344"/>
<path d="M-1090.17 442.68C-897.544 439.887 -713.958 346.114 -536.253 255.827C-398.293 185.738 -259.718 112.082 -114.534 73.0541C17.35 37.5988 148.776 44.1406 280.118 80.5773C579.287 163.573 859.105 370.138 1169.88 372.712C1169.88 364.328 1169.88 360.136 1169.88 351.756C859.105 349.182 579.287 142.613 280.118 59.6217C148.636 23.1463 17.3331 16.5097 -114.534 53.3725C-259.989 94.0355 -398.441 170.175 -536.253 242.575C-713.526 335.707 -897.044 432.889 -1090.17 436.409C-1090.17 439.349 -1090.17 440.515 -1090.17 442.68Z" fill="#2E9344"/>
<path d="M-1090.17 436.725C-897.044 433.202 -713.526 335.963 -536.253 242.781C-398.441 170.338 -259.989 94.1491 -114.534 53.4663C17.3331 16.5818 148.641 23.2223 280.118 59.7192C579.287 142.764 859.105 349.451 1169.88 352.026C1169.88 343.637 1169.88 339.443 1169.88 331.058C859.105 328.483 579.287 121.792 280.118 38.7512C148.577 2.23708 17.2738 -4.60583 -114.534 33.3768C-260.244 75.3644 -398.581 153.737 -536.253 228.178C-713.115 323.811 -896.599 424.051 -1090.17 427.854C-1090.17 432.091 -1090.17 433.779 -1090.17 436.725Z" fill="#2E9344"/>
<path d="M-1090.17 426.799C-896.599 422.999 -713.115 322.822 -536.253 227.246C-398.585 152.848 -260.244 74.5295 -114.534 32.5685C17.2738 -5.38999 148.577 1.44857 280.118 37.9395C579.287 120.932 859.105 327.487 1169.88 330.061C1169.88 321.677 1169.88 317.486 1169.88 309.106C859.105 306.533 579.287 99.9729 280.118 16.9849C148.636 -19.4889 17.1594 -26.6932 -114.534 11.8979C-260.464 54.6637 -398.712 134.704 -536.253 210.642C-712.75 308.086 -896.252 410.63 -1090.17 414.047C-1090.17 420.098 -1090.17 422.564 -1090.17 426.799Z" fill="#2E9344"/>
<path d="M-1090.17 414.889C-896.252 411.468 -712.75 308.816 -536.253 211.274C-398.712 135.259 -260.464 55.1377 -114.534 12.3288C17.1594 -26.3013 148.636 -19.0897 280.118 17.4209C579.287 100.497 859.105 307.261 1169.88 309.837C1169.88 301.445 1169.88 297.249 1169.88 288.861C859.105 286.285 579.287 79.5212 280.118 -3.5549C148.857 -40.0052 16.9645 -47.8027 -114.534 -9.15534C-260.642 33.7828 -398.826 115.015 -536.253 191.961C-712.454 290.619 -896.036 394.796 -1090.17 396.941C-1090.17 405.329 -1090.17 408.836 -1090.17 414.889Z" fill="#2E9344"/>
<rect x="-46" width="711.663" height="394.045" fill="#2E9344"/>
<path d="M-864.859 436.256C-678.023 435.257 -494.169 385.706 -311.935 335.337C-172.06 296.676 -32.0071 256.551 110.143 235.869C174.295 226.532 240.302 218.38 304.877 223.029C375.008 228.078 442.583 259.297 505.069 300.765C654.808 400.139 782.069 552.021 913.067 688.433C1051.8 832.899 1211.28 996.919 1395.19 1000.5C1395.19 989.279 1395.19 978.066 1395.19 966.849C1212.35 958.219 1053.4 800.586 913.067 658.811C781.701 526.087 653.885 379.03 505.069 281.654C442.363 240.621 374.919 209.38 304.877 202.605C240.493 196.376 174.134 205.037 110.143 214.381C-32.1131 235.163 -172.124 276.411 -311.935 316.092C-494.017 367.779 -677.891 418.677 -864.859 418.406C-864.859 424.389 -864.859 427.871 -864.859 436.256Z" fill="#45AA5B"/>
<path d="M-864.859 418.82C-677.891 419.092 -494.017 368.149 -311.935 316.423C-172.124 276.703 -32.1131 235.423 110.143 214.624C174.134 205.267 240.497 196.603 304.877 202.837C374.919 209.618 442.363 240.886 505.069 281.954C653.881 379.415 781.701 526.599 913.067 659.437C1053.4 801.335 1212.35 959.104 1395.19 967.742C1395.19 949.26 1395.19 930.779 1395.19 912.297C1215.19 902.251 1057.24 755.722 915.741 620.019C782.15 491.902 651.978 349.543 501.917 256.58C441.019 218.854 376.148 190.193 308.988 182.46C241.798 174.727 172.083 184.338 105.313 194.686C-37.8419 216.877 -178.526 260.474 -319.054 302.047C-498.593 355.152 -680.112 406.943 -864.859 406.293C-864.859 410.415 -864.859 412.832 -864.859 418.82Z" fill="#2E9344"/>
<path d="M-864.859 406.176C-680.111 406.827 -498.592 355.037 -319.057 301.93C-178.529 260.359 -37.8446 216.763 105.31 194.573C172.085 184.226 241.8 174.615 308.985 182.347C376.146 190.08 441.017 218.74 501.915 256.464C651.976 349.424 782.148 491.778 915.74 619.89C1057.24 755.589 1215.19 902.112 1395.19 912.158C1395.19 888.232 1395.19 864.311 1395.19 840.385C1218.45 831.562 1061.3 698.384 918.431 570.897C784.911 451.754 654.646 319.433 506.83 232.84C442.869 195.37 374.993 167.356 305.041 160.799C240.046 154.708 173.237 163.591 108.734 173.994C-35.0861 197.188 -176.173 243.136 -317.053 287.007C-496.999 343.044 -679.128 398.03 -864.859 397.655C-864.859 400.442 -864.859 402.058 -864.859 406.176Z" fill="#45AA5B"/>
<path d="M-864.859 397.354C-679.128 397.733 -497 342.79 -317.054 286.802C-176.174 242.968 -35.0876 197.06 108.732 173.886C173.235 163.492 240.044 154.617 305.038 160.703C374.991 167.254 442.871 195.244 506.832 232.681C654.647 319.199 784.912 451.406 918.431 570.446C1061.3 697.824 1218.45 830.887 1395.19 839.702C1395.19 812.172 1395.19 784.643 1395.19 757.118C1220.24 751.109 1062.21 630.175 916.69 511.281C782.442 401.598 650.838 279.566 503.658 202.173C441.452 169.462 376.105 145.513 309.182 139.746C243.815 134.111 177.024 142.69 112.186 153.674C-32.3334 178.16 -173.81 226.75 -315.028 273.213C-495.352 332.542 -678.082 391.16 -864.859 391.501C-864.859 393.485 -864.859 394.569 -864.859 397.354Z" fill="#2E9344"/>
<path d="M-864.859 391.507C-678.082 391.167 -495.351 332.517 -315.031 273.157C-173.813 226.669 -32.3361 178.049 112.183 153.553C177.017 142.563 243.813 133.981 309.18 139.618C376.107 145.388 441.45 169.35 503.657 202.079C650.837 279.513 782.441 401.61 916.689 511.352C1062.21 630.309 1220.24 751.303 1395.19 757.32C1395.19 727.962 1395.19 698.605 1395.19 669.248C1222.08 666.824 1063.16 558.675 914.939 449.317C782.331 351.479 651.93 242.943 508.618 174.685C443.187 143.519 374.815 121.505 305.202 117.892C239.253 114.468 172.559 122.861 107.302 134.984C-35.0479 161.43 -174.148 211.829 -312.993 260.182C-493.665 323.095 -676.98 385.702 -864.859 386.985C-864.859 388.708 -864.859 389.522 -864.859 391.507Z" fill="#45AA5B"/>
<path d="M-864.859 386.919C-676.98 385.637 -493.665 323.072 -312.993 260.193C-174.148 211.872 -35.0479 161.504 107.302 135.08C172.559 122.965 239.253 114.582 305.202 117.999C374.815 121.61 443.187 143.614 508.618 174.754C651.926 242.965 782.326 351.428 914.939 449.2C1063.16 558.485 1222.08 666.56 1395.19 668.983C1395.19 639.645 1395.19 610.308 1395.19 580.971C1223.79 582.059 1064.05 486.693 913.172 387.474C779.763 299.747 648.095 202.267 505.423 143.416C441.852 117.194 376.027 99.2656 309.375 96.7395C243.058 94.2262 176.343 102.209 110.772 114.991C-32.298 142.878 -171.783 196.048 -310.947 247.131C-491.957 313.587 -675.849 380.163 -864.859 382.401C-864.859 384.389 -864.859 385.202 -864.859 386.919Z" fill="#2E9344"/>
<path d="M-864.859 382.828C-675.849 380.583 -491.958 313.933 -310.944 247.417C-171.785 196.281 -32.2953 143.047 110.775 115.129C176.346 102.333 243.061 94.3415 309.377 96.8575C376.029 99.3865 441.854 117.335 505.425 143.586C648.092 202.502 779.76 300.086 913.173 387.916C1064.05 487.245 1223.8 582.718 1395.19 581.628C1395.19 554.072 1395.19 526.516 1395.19 498.964C1074.93 505.999 805.145 222.571 505.429 114.806C231.023 16.1407 -46.9561 132.664 -310.939 234.376C-491.627 303.99 -675.442 374 -864.859 376.973C-864.859 379.761 -864.859 380.842 -864.859 382.828Z" fill="#45AA5B"/>
<path d="M-864.859 376.32C-675.442 373.352 -491.626 303.443 -310.942 233.929C-46.9588 132.365 231.016 16.0109 505.428 114.533C805.144 222.142 1074.93 505.159 1395.19 498.134C1395.19 474.24 1395.19 450.351 1395.19 426.457C1079.07 435.28 805.063 182.468 505.428 87.9333C227.58 0.273781 -45.5436 113.303 -310.942 219.522C-491.309 291.706 -675.073 364.554 -864.859 367.806C-864.859 371.923 -864.859 373.537 -864.859 376.32Z" fill="#2E9344"/>
<path d="M-864.859 368.796C-675.073 365.537 -491.309 292.541 -310.942 220.209C-45.5436 113.774 227.58 0.514621 505.428 88.3527C805.068 183.08 1079.07 436.407 1395.19 427.566C1395.19 409.072 1395.19 390.579 1395.19 372.085C1082.26 378.18 804.852 150.916 505.428 64.9189C374.679 27.367 242.592 25.8452 110.776 54.8703C-32.9039 86.5077 -172.122 146.351 -310.942 203.698C-491.025 278.091 -674.781 353.393 -864.859 356.26C-864.859 362.256 -864.859 364.67 -864.859 368.796Z" fill="#45AA5B"/>
<path d="M-864.859 355.286C-674.781 352.423 -491.025 277.197 -310.942 202.88C-172.127 145.591 -32.9039 85.8126 110.776 54.2031C242.597 25.2075 374.684 26.7277 505.428 64.2415C804.852 150.151 1082.26 377.185 1395.19 371.095C1395.19 359.873 1395.19 348.654 1395.19 337.432C1084.42 334.856 804.597 128.167 505.428 45.1207C374.324 8.72661 242.991 3.55883 110.776 32.7137C-33.048 64.4309 -172.216 125.342 -310.942 183.626C-490.796 259.187 -674.594 335.856 -864.859 337.432C-864.859 345.816 -864.859 349.3 -864.859 355.286Z" fill="#2E9344"/>
<path d="M-864.859 337.469C-674.594 335.894 -490.796 259.312 -310.942 183.836C-172.22 125.618 -33.0522 64.7756 110.776 33.0941C242.991 3.97212 374.324 9.13407 505.428 45.4871C804.597 128.44 1084.42 334.896 1395.19 337.469C1395.19 329.089 1395.19 324.904 1395.19 316.524C1084.42 313.952 804.597 107.491 505.428 24.5425C374.527 -11.7546 242.813 -17.5102 110.776 11.6419C-33.192 43.4309 -172.309 105.37 -310.942 164.552C-490.563 241.233 -674.412 319.225 -864.859 319.544C-864.859 325.592 -864.859 329.089 -864.859 337.469Z" fill="#45AA5B"/>
<path d="M-864.859 319.603C-674.412 319.284 -490.563 241.322 -310.942 164.671C-172.309 105.512 -33.1963 43.5973 110.776 11.8207C242.813 -17.3243 374.527 -11.5667 505.428 24.7163C804.597 107.636 1084.42 314.013 1395.19 316.584C1395.19 308.208 1395.19 304.024 1395.19 295.647C1084.42 293.076 804.597 86.6957 505.428 3.7798C374.586 -32.486 242.711 -38.6177 110.776 -8.83195C-33.3827 23.7144 -172.419 87.345 -310.942 148.082C-490.266 226.702 -674.115 306.931 -864.859 306.862C-864.859 311.097 -864.859 313.557 -864.859 319.603Z" fill="#2E9344"/>
<path d="M-864.859 306.7C-674.115 306.764 -490.266 226.356 -310.942 147.56C-172.423 86.6921 -33.3827 22.9192 110.776 -9.70422C242.711 -39.5566 374.59 -33.4111 505.428 2.93573C804.597 86.0413 1084.42 292.879 1395.19 295.456C1395.19 287.061 1395.19 282.868 1395.19 274.473C1084.42 271.896 804.597 65.0538 505.428 -18.0475C374.54 -54.4073 242.66 -60.7682 110.776 -29.8083C-33.6073 4.08638 -172.546 70.0442 -310.942 132.947C-489.91 214.29 -673.721 297.619 -864.859 297.826C-864.859 300.77 -864.859 302.459 -864.859 306.7Z" fill="#45AA5B"/>
<path d="M-864.859 298.759C-673.721 298.552 -489.91 215.231 -310.942 133.896C-172.55 71.0002 -33.6115 5.04896 110.776 -28.8423C242.664 -59.7991 374.544 -53.4389 505.428 -17.0827C804.597 66.0145 1084.42 272.831 1395.19 275.408C1395.19 267.014 1395.19 262.817 1395.19 254.427C1084.42 251.85 804.597 45.0291 505.428 -38.0639C374.417 -74.4545 242.647 -80.9139 110.776 -48.548C-33.8615 -13.0451 -172.686 55.4011 -310.942 120.628C-489.512 204.876 -673.26 291.559 -864.859 292.481C-864.859 294.644 -864.859 295.816 -864.859 298.759Z" fill="#2E9344"/>
<path d="M-864.859 291.811C-673.26 290.895 -489.512 204.344 -310.942 120.229C-172.69 55.1043 -33.8615 -13.2343 110.776 -48.6814C242.652 -81.0006 374.421 -74.5471 505.428 -38.2137C804.597 44.7529 1084.42 251.244 1395.19 253.817C1395.19 245.436 1395.19 241.246 1395.19 232.869C1084.42 230.296 804.597 23.8004 505.428 -59.1619C374.256 -95.5383 242.656 -102.035 110.776 -68.1538C-34.1327 -30.9255 -172.834 40.059 -310.942 107.658C-489.088 194.845 -672.751 284.979 -864.859 286.833C-864.859 288.739 -864.859 289.647 -864.859 291.811Z" fill="#45AA5B"/>
<path d="M-864.859 286.848C-672.751 284.994 -489.088 194.838 -310.942 107.621C-172.834 40.0058 -34.1327 -30.996 110.776 -68.2332C242.656 -102.122 374.256 -95.6243 505.428 -59.2391C804.597 23.7475 1084.42 230.289 1395.19 232.862C1395.19 224.479 1395.19 220.288 1395.19 211.909C1084.42 209.336 804.597 2.79 505.428 -80.1923C374.082 -116.625 242.66 -123.166 110.776 -87.7147C-34.4081 -48.6872 -172.983 24.9568 -310.942 95.0375C-488.648 185.318 -672.234 279.081 -864.859 281.874C-864.859 284.038 -864.859 284.946 -864.859 286.848Z" fill="#2E9344"/>
<path d="M-864.859 281.886C-672.234 279.092 -488.648 185.319 -310.942 95.0326C-172.983 24.9439 -34.4081 -48.7127 110.776 -87.7403C242.66 -123.196 374.086 -116.654 505.428 -80.2171C804.597 2.77889 1084.42 209.344 1395.19 211.917C1395.19 203.533 1395.19 199.341 1395.19 190.962C1084.42 188.388 804.597 -18.181 505.428 -101.173C373.946 -137.648 242.643 -144.285 110.776 -107.422C-34.6793 -66.7589 -173.131 9.38104 -310.942 81.7809C-488.215 174.913 -671.734 272.094 -864.859 275.615C-864.859 278.554 -864.859 279.721 -864.859 281.886Z" fill="#45AA5B"/>
<path d="M-864.859 275.93C-671.734 272.407 -488.215 175.168 -310.942 81.986C-173.131 9.54337 -34.6793 -66.6459 110.776 -107.329C242.643 -144.213 373.951 -137.573 505.428 -101.076C804.597 -18.0306 1084.42 188.656 1395.19 191.231C1395.19 182.842 1395.19 178.648 1395.19 170.263C1084.42 167.688 804.597 -39.0029 505.428 -122.044C373.887 -158.558 242.584 -165.401 110.776 -127.418C-34.9336 -85.4305 -173.271 -7.05787 -310.942 67.383C-487.804 163.016 -671.289 263.256 -864.859 267.059C-864.859 271.296 -864.859 272.985 -864.859 275.93Z" fill="#2E9344"/>
<path d="M-864.859 266.005C-671.289 262.205 -487.804 162.028 -310.942 66.4515C-173.275 -7.94639 -34.9336 -86.2649 110.776 -128.226C242.584 -166.184 373.887 -159.346 505.428 -122.855C804.597 -39.8626 1084.42 166.693 1395.19 169.267C1395.19 160.883 1395.19 156.691 1395.19 148.312C1084.42 145.738 804.597 -60.8215 505.428 -143.81C373.946 -180.283 242.469 -187.488 110.776 -148.897C-35.1539 -106.131 -173.402 -26.0908 -310.942 49.8478C-487.44 147.292 -670.942 249.836 -864.859 253.253C-864.859 259.304 -864.859 261.77 -864.859 266.005Z" fill="#45AA5B"/>
<path d="M-864.859 254.094C-670.942 250.674 -487.44 148.022 -310.942 50.4793C-173.402 -25.5359 -35.1539 -105.657 110.776 -148.466C242.469 -187.096 373.946 -179.884 505.428 -143.374C804.597 -60.2974 1084.42 146.467 1395.19 149.043C1395.19 140.651 1395.19 136.455 1395.19 128.067C1084.42 125.491 804.597 -81.2732 505.428 -164.349C374.167 -200.8 242.275 -208.597 110.776 -169.95C-35.3319 -127.012 -173.516 -45.7794 -310.942 31.1664C-487.143 129.825 -670.726 234.001 -864.859 236.147C-864.859 244.535 -864.859 248.041 -864.859 254.094Z" fill="#2E9344"/>
<path d="M1127.2 705.409C938.192 703.165 754.301 636.514 573.287 569.998C434.128 518.862 294.638 465.628 151.568 437.71C85.9975 424.915 19.2824 416.923 -47.0343 419.439C-113.686 421.968 -179.511 439.916 -243.082 466.167C-385.749 525.083 -517.417 622.667 -650.83 710.497C-801.709 809.826 -961.452 905.299 -1132.85 904.209C-1132.85 876.653 -1132.85 849.097 -1132.85 821.545C-812.59 828.58 -542.802 545.152 -243.086 437.387C31.3204 338.722 309.299 455.245 573.282 556.957C753.97 626.571 937.785 696.581 1127.2 699.554C1127.2 702.342 1127.2 703.423 1127.2 705.409Z" fill="#45AA5B"/>
<path d="M1127.2 698.901C937.785 695.933 753.969 626.024 573.286 556.51C309.302 454.946 31.3269 338.592 -243.085 437.114C-542.801 544.723 -812.59 827.74 -1132.85 820.715C-1132.85 796.821 -1132.85 772.932 -1132.85 749.038C-816.725 757.861 -542.72 505.049 -243.085 410.514C34.7633 322.855 307.887 435.884 573.286 542.103C753.652 614.288 937.416 687.135 1127.2 690.387C1127.2 694.504 1127.2 696.118 1127.2 698.901Z" fill="#2E9344"/>
<path d="M1127.2 691.376C937.416 688.117 753.652 615.121 573.286 542.79C307.887 436.354 34.7633 323.095 -243.085 410.933C-542.725 505.66 -816.725 758.988 -1132.85 750.146C-1132.85 731.653 -1132.85 713.159 -1132.85 694.665C-819.92 700.761 -542.509 473.497 -243.085 387.499C-112.336 349.948 19.7507 348.426 151.567 377.451C295.247 409.088 434.465 468.932 573.286 526.279C753.368 600.671 937.124 675.974 1127.2 678.84C1127.2 684.837 1127.2 687.251 1127.2 691.376Z" fill="#45AA5B"/>
<path d="M1127.2 677.867C937.124 675.003 753.368 599.778 573.286 525.461C434.47 468.171 295.247 408.393 151.567 376.784C19.7465 347.788 -112.341 349.308 -243.085 386.822C-542.509 472.732 -819.92 699.765 -1132.85 693.676C-1132.85 682.453 -1132.85 671.235 -1132.85 660.012C-822.073 657.437 -542.254 450.747 -243.085 367.701C-111.98 331.307 19.3524 326.139 151.567 355.294C295.391 387.012 434.559 447.922 573.286 506.206C753.139 581.768 936.937 658.436 1127.2 660.012C1127.2 668.397 1127.2 671.881 1127.2 677.867Z" fill="#2E9344"/>
<path d="M1127.2 660.049C936.937 658.475 753.139 581.893 573.286 506.417C434.563 448.198 295.395 387.356 151.567 355.675C19.3524 326.553 -111.98 331.715 -243.085 368.068C-542.254 451.02 -822.073 657.477 -1132.85 660.049C-1132.85 651.67 -1132.85 647.484 -1132.85 639.105C-822.073 636.532 -542.254 430.071 -243.085 347.123C-112.184 310.826 19.5304 305.07 151.567 334.222C295.535 366.012 434.652 427.951 573.286 487.132C752.906 563.813 936.755 641.806 1127.2 642.124C1127.2 648.172 1127.2 651.67 1127.2 660.049Z" fill="#45AA5B"/>
<path d="M1127.2 642.184C936.755 641.865 752.906 563.903 573.286 487.252C434.652 428.093 295.539 366.178 151.567 334.402C19.5304 305.257 -112.184 311.014 -243.085 347.297C-542.254 430.218 -822.073 636.594 -1132.85 639.165C-1132.85 630.789 -1132.85 626.605 -1132.85 618.229C-822.073 615.657 -542.254 409.277 -243.085 326.361C-112.243 290.095 19.6321 283.963 151.567 313.749C295.726 346.295 434.762 409.926 573.286 470.663C752.609 549.283 936.459 629.512 1127.2 629.443C1127.2 633.678 1127.2 636.138 1127.2 642.184Z" fill="#2E9344"/>
<path d="M1127.2 629.28C936.459 629.345 752.609 548.937 573.286 470.141C434.766 409.273 295.726 345.5 151.567 312.876C19.6321 283.024 -112.247 289.169 -243.085 325.516C-542.254 408.622 -822.073 615.459 -1132.85 618.036C-1132.85 609.641 -1132.85 605.448 -1132.85 597.053C-822.073 594.476 -542.254 387.634 -243.085 304.533C-112.197 268.173 19.6829 261.812 151.567 292.772C295.95 326.667 434.889 392.625 573.286 455.527C752.253 536.87 936.064 620.2 1127.2 620.407C1127.2 623.35 1127.2 625.04 1127.2 629.28Z" fill="#45AA5B"/>
<path d="M1127.2 621.34C936.064 621.133 752.253 537.812 573.286 456.477C434.893 393.581 295.955 327.63 151.567 293.738C19.6787 262.781 -112.201 269.142 -243.085 305.498C-542.254 388.595 -822.073 595.412 -1132.85 597.989C-1132.85 589.594 -1132.85 585.397 -1132.85 577.008C-822.073 574.431 -542.254 367.61 -243.085 284.517C-112.074 248.126 19.6956 241.667 151.567 274.033C296.205 309.535 435.029 377.982 573.286 443.209C751.855 527.457 935.603 614.139 1127.2 615.061C1127.2 617.225 1127.2 618.397 1127.2 621.34Z" fill="#2E9344"/>
<path d="M1127.2 614.392C935.603 613.475 751.855 526.925 573.286 442.81C435.033 377.685 296.205 309.346 151.567 273.899C19.6914 241.58 -112.078 248.033 -243.085 284.367C-542.254 367.333 -822.073 573.825 -1132.85 576.398C-1132.85 568.017 -1132.85 563.826 -1132.85 555.45C-822.073 552.877 -542.254 346.381 -243.085 263.419C-111.913 227.042 19.6872 220.546 151.567 254.427C296.476 291.655 435.177 362.64 573.286 430.238C751.431 517.425 935.094 607.56 1127.2 609.414C1127.2 611.32 1127.2 612.228 1127.2 614.392Z" fill="#45AA5B"/>
<path d="M1127.2 609.429C935.094 607.574 751.431 517.418 573.286 430.201C435.177 362.586 296.476 291.585 151.567 254.347C19.6872 220.458 -111.913 226.956 -243.085 263.341C-542.254 346.328 -822.073 552.869 -1132.85 555.443C-1132.85 547.06 -1132.85 542.868 -1132.85 534.49C-822.073 531.916 -542.254 325.371 -243.085 242.388C-111.739 205.956 19.6829 199.415 151.567 234.866C296.751 273.893 435.326 347.537 573.286 417.618C750.991 507.899 934.577 601.661 1127.2 604.454C1127.2 606.619 1127.2 607.527 1127.2 609.429Z" fill="#2E9344"/>
<path d="M1127.2 604.466C934.577 601.673 750.991 507.9 573.286 417.613C435.326 347.524 296.751 273.868 151.567 234.84C19.6829 199.385 -111.743 205.927 -243.085 242.363C-542.254 325.359 -822.073 531.924 -1132.85 534.498C-1132.85 526.114 -1132.85 521.922 -1132.85 513.542C-822.073 510.969 -542.254 304.4 -243.085 221.408C-111.603 184.932 19.6999 178.296 151.567 215.159C297.022 255.822 435.474 331.962 573.286 404.361C750.559 497.493 934.077 594.675 1127.2 598.195C1127.2 601.135 1127.2 602.301 1127.2 604.466Z" fill="#45AA5B"/>
<path d="M1127.2 598.511C934.077 594.988 750.559 497.749 573.286 404.567C435.474 332.124 297.022 255.935 151.567 215.252C19.6999 178.367 -111.608 185.008 -243.085 221.505C-542.254 304.55 -822.073 511.237 -1132.85 513.812C-1132.85 505.423 -1132.85 501.229 -1132.85 492.844C-822.073 490.269 -542.254 283.578 -243.085 200.537C-111.544 164.023 19.7592 157.18 151.567 195.162C297.277 237.15 435.614 315.523 573.286 389.964C750.147 485.596 933.632 585.837 1127.2 589.639C1127.2 593.877 1127.2 595.565 1127.2 598.511Z" fill="#2E9344"/>
<path d="M1127.2 588.585C933.632 584.785 750.147 484.608 573.286 389.032C435.618 314.634 297.277 236.316 151.567 194.355C19.7592 156.396 -111.544 163.235 -243.085 199.726C-542.254 282.718 -822.073 489.274 -1132.85 491.847C-1132.85 483.464 -1132.85 479.272 -1132.85 470.892C-822.073 468.319 -542.254 261.759 -243.085 178.771C-111.603 142.297 19.8736 135.093 151.567 173.684C297.497 216.45 435.745 296.49 573.286 372.428C749.783 469.873 933.285 572.416 1127.2 575.834C1127.2 581.885 1127.2 584.351 1127.2 588.585Z" fill="#45AA5B"/>
<path d="M1127.2 576.675C933.285 573.254 749.783 470.602 573.286 373.06C435.745 297.045 297.497 216.924 151.567 174.115C19.8736 135.485 -111.603 142.696 -243.085 179.207C-542.254 262.283 -822.073 469.047 -1132.85 471.623C-1132.85 463.231 -1132.85 459.035 -1132.85 450.648C-822.073 448.071 -542.254 241.307 -243.085 158.231C-111.824 121.781 20.0685 113.983 151.567 152.631C297.675 195.569 435.859 276.801 573.286 353.747C749.486 452.405 933.069 556.582 1127.2 558.727C1127.2 567.115 1127.2 570.622 1127.2 576.675Z" fill="#2E9344"/>
<path d="M1616.53 747.395C1426.08 747.076 1242.24 669.114 1062.62 592.463C923.981 533.304 784.869 471.389 640.896 439.613C508.86 410.468 377.146 416.225 246.245 452.508C-52.9247 535.428 -332.743 741.805 -643.518 744.376C-643.518 736 -643.518 731.816 -643.518 723.439C-332.743 720.868 -52.9247 514.488 246.245 431.572C377.086 395.306 508.962 389.174 640.896 418.96C785.055 451.506 924.092 515.137 1062.62 575.874C1241.94 654.494 1425.79 734.723 1616.53 734.654C1616.53 738.889 1616.53 741.349 1616.53 747.395Z" fill="#2E9344"/>
<path d="M1616.53 734.491C1425.79 734.556 1241.94 654.148 1062.62 575.352C924.096 514.484 785.055 450.711 640.896 418.087C508.962 388.235 377.082 394.38 246.245 430.727C-52.9247 513.833 -332.743 720.67 -643.518 723.247C-643.518 714.852 -643.518 710.659 -643.518 702.264C-332.743 699.687 -52.9247 492.845 246.245 409.744C377.133 373.384 509.013 367.023 640.896 397.983C785.28 431.878 924.219 497.836 1062.62 560.738C1241.58 642.081 1425.39 725.411 1616.53 725.618C1616.53 728.561 1616.53 730.25 1616.53 734.491Z" fill="#45AA5B"/>
<path d="M1616.53 726.551C1425.39 726.344 1241.58 643.023 1062.62 561.688C924.223 498.792 785.284 432.84 640.896 398.949C509.008 367.992 377.129 374.353 246.245 410.709C-52.9247 493.806 -332.743 700.623 -643.518 703.2C-643.518 694.805 -643.518 690.608 -643.518 682.218C-332.743 679.642 -52.9247 472.821 246.245 389.728C377.256 353.337 509.025 346.878 640.896 379.244C785.534 414.746 924.359 483.193 1062.62 548.42C1241.18 632.668 1424.93 719.35 1616.53 720.272C1616.53 722.436 1616.53 723.608 1616.53 726.551Z" fill="#2E9344"/>
<path d="M1616.53 719.603C1424.93 718.686 1241.18 632.136 1062.62 548.021C924.363 482.896 785.534 414.557 640.896 379.11C509.021 346.791 377.252 353.244 246.245 389.578C-52.9247 472.544 -332.743 679.036 -643.518 681.609C-643.518 673.228 -643.518 669.037 -643.518 660.661C-332.743 658.088 -52.9247 451.592 246.245 368.63C377.417 332.253 509.017 325.757 640.896 359.638C785.805 396.866 924.507 467.851 1062.62 535.449C1240.76 622.636 1424.42 712.771 1616.53 714.625C1616.53 716.531 1616.53 717.439 1616.53 719.603Z" fill="#45AA5B"/>
<path d="M1616.53 714.64C1424.42 712.785 1240.76 622.629 1062.62 535.412C924.507 467.797 785.805 396.796 640.896 359.558C509.017 325.669 377.417 332.167 246.245 368.552C-52.9247 451.539 -332.743 658.08 -643.518 660.654C-643.518 652.271 -643.518 648.079 -643.518 639.701C-332.743 637.127 -52.9247 430.582 246.245 347.599C377.591 311.167 509.013 304.625 640.896 340.077C786.081 379.104 924.655 452.748 1062.62 522.829C1240.32 613.11 1423.91 706.872 1616.53 709.665C1616.53 711.83 1616.53 712.738 1616.53 714.64Z" fill="#2E9344"/>
<path d="M1616.53 709.677C1423.91 706.884 1240.32 613.111 1062.62 522.824C924.655 452.735 786.081 379.079 640.896 340.051C509.013 304.596 377.586 311.138 246.245 347.574C-52.9247 430.57 -332.743 637.135 -643.518 639.709C-643.518 631.325 -643.518 627.133 -643.518 618.753C-332.743 616.18 -52.9247 409.611 246.245 326.619C377.726 290.143 509.029 283.507 640.896 320.37C786.352 361.033 924.803 437.173 1062.62 509.572C1239.89 602.704 1423.41 699.886 1616.53 703.406C1616.53 706.346 1616.53 707.512 1616.53 709.677Z" fill="#45AA5B"/>
<path d="M1616.53 703.722C1423.41 700.199 1239.89 602.96 1062.62 509.778C924.803 437.335 786.352 361.146 640.896 320.463C509.029 283.578 377.722 290.219 246.245 326.716C-52.9247 409.761 -332.743 616.448 -643.518 619.023C-643.518 610.634 -643.518 606.439 -643.518 598.055C-332.743 595.48 -52.9247 388.789 246.245 305.748C377.786 269.234 509.089 262.391 640.896 300.373C786.606 342.361 924.943 420.734 1062.62 495.174C1239.48 590.807 1422.96 691.048 1616.53 694.85C1616.53 699.088 1616.53 700.776 1616.53 703.722Z" fill="#2E9344"/>
<path d="M1616.53 693.796C1422.96 689.996 1239.48 589.819 1062.62 494.243C924.947 419.845 786.606 341.527 640.896 299.566C509.089 261.607 377.786 268.446 246.245 304.937C-52.9247 387.929 -332.743 594.484 -643.518 597.058C-643.518 588.674 -643.518 584.483 -643.518 576.103C-332.743 573.53 -52.9247 366.97 246.245 283.982C377.726 247.508 509.203 240.304 640.896 278.895C786.826 321.661 925.075 401.701 1062.62 477.639C1239.11 575.083 1422.61 677.627 1616.53 681.045C1616.53 687.096 1616.53 689.562 1616.53 693.796Z" fill="#45AA5B"/>
<path d="M1616.53 681.886C1422.61 678.465 1239.11 575.813 1062.62 478.271C925.075 402.256 786.826 322.135 640.896 279.326C509.203 240.696 377.726 247.907 246.245 284.418C-52.9247 367.494 -332.743 574.258 -643.518 576.834C-643.518 568.442 -643.518 564.246 -643.518 555.858C-332.743 553.282 -52.9247 346.518 246.245 263.442C377.506 226.992 509.398 219.194 640.896 257.842C787.004 300.78 925.189 382.012 1062.62 458.958C1238.82 557.616 1422.4 661.793 1616.53 663.938C1616.53 672.326 1616.53 675.833 1616.53 681.886Z" fill="#2E9344"/>
</g>
<g clip-path="url(#clip2_2024_2941)">
<rect x="440" y="264.493" width="115.47" height="115.47" rx="28.8676" transform="rotate(-20 440 264.493)" fill="#78DA76"/>
<path fill-rule="evenodd" clip-rule="evenodd" d="M543.144 284.639C540.348 287.071 536.425 287.387 533.342 285.723L513.997 305.778L512.297 312.897L525.817 304.024C525.875 301.699 526.874 299.404 528.771 297.754C532.366 294.628 537.825 294.997 540.965 298.579C544.106 302.161 543.737 307.599 540.143 310.725C536.792 313.639 531.82 313.515 528.618 310.584L509.918 322.855L499.231 367.591L491.818 365.847L501.517 325.246L490.613 304.113C487.892 304.416 485.071 303.429 483.133 301.219C479.993 297.637 480.362 292.199 483.956 289.073C487.551 285.947 493.01 286.316 496.15 289.898C498.77 292.886 498.948 297.165 496.849 300.316L504.11 314.39L506.937 302.557L499.224 277.903C496.686 278.016 494.123 277.018 492.322 274.964C489.182 271.382 489.55 265.944 493.145 262.818C496.739 259.692 502.199 260.062 505.339 263.644C508.046 266.731 508.146 271.199 505.818 274.375L510.271 288.604L516.812 261.222C515.596 260.731 514.475 259.957 513.553 258.906C510.413 255.324 510.781 249.886 514.376 246.76C517.971 243.634 523.43 244.003 526.57 247.585C529.71 251.167 529.342 256.605 525.748 259.731C525.454 259.986 525.148 260.218 524.831 260.427L517.272 292.071L528.998 279.914C528.382 276.969 529.336 273.787 531.773 271.668C535.367 268.542 540.827 268.912 543.967 272.494C547.107 276.076 546.739 281.513 543.144 284.639Z" fill="white"/>
<path fill-rule="evenodd" clip-rule="evenodd" d="M467.213 304.372L555.047 272.403L564.258 297.708L555.645 300.843L549.482 283.91L478.873 309.61L485.036 326.542L476.423 329.677L467.213 304.372Z" fill="#333333"/>
</g>
</g>
<defs>
<clipPath id="clip0_2024_2941">
<rect width="620" height="400" fill="white"/>
</clipPath>
<clipPath id="clip1_2024_2941">
<rect width="711.663" height="400" fill="white" transform="translate(-46)"/>
</clipPath>
<clipPath id="clip2_2024_2941">
<rect x="440" y="264.493" width="115.47" height="115.47" rx="28.8676" transform="rotate(-20 440 264.493)" fill="white"/>
</clipPath>
</defs>
</svg>
