<svg width="100" height="100" viewBox="0 0 100 100" fill="none" xmlns="http://www.w3.org/2000/svg">
<path fill-rule="evenodd" clip-rule="evenodd" d="M63.2721 19.6812C65.2892 19.8523 67.3333 19.3931 69.0961 18.2315C73.454 15.3598 74.4427 9.28291 71.3044 4.65833C68.1661 0.0337483 62.0892 -1.38728 57.7313 1.48437C53.3734 4.35602 52.3847 10.4329 55.523 15.0575C55.8899 15.5982 56.297 16.0951 56.7368 16.5465L45.765 45.0938L42.4466 31.8026C42.5785 31.725 42.7091 31.6437 42.8382 31.5587C47.1961 28.687 48.1848 22.6101 45.0465 17.9855C41.9082 13.3609 35.8313 11.9399 31.4734 14.8116C27.1155 17.6832 26.1268 23.7601 29.2651 28.3847C30.9631 30.8869 33.5214 32.4512 36.2022 32.9052L41.8127 55.377L35.6024 71.5356L29.8527 56.5422C33.8009 53.5526 34.6026 47.7575 31.5826 43.3072C28.4443 38.6826 22.3674 37.2616 18.0095 40.1333C13.6515 43.0049 12.6628 49.0818 15.8011 53.7064C17.7235 56.5391 20.7484 58.1699 23.8054 58.3483L32.2287 80.3135L25.6495 97.4316L32.4025 100L38.7298 83.5371L65.8999 70.655C69.214 73.4287 73.9083 73.9401 77.4605 71.5994C81.8185 68.7277 82.8072 62.6508 79.6689 58.0262C76.5306 53.4016 70.4537 51.9806 66.0957 54.8523C62.7867 57.0327 61.4202 61.0612 62.328 64.8986L42.2312 74.427L46.133 64.275L71.4349 44.7524C74.5776 46.5921 78.4852 46.6922 81.5453 44.6758C85.9032 41.8041 86.8919 35.7272 83.7536 31.1026C80.6153 26.4781 74.5384 25.057 70.1805 27.9287C66.3759 30.4357 65.1393 35.3857 66.9748 39.6795L50.7849 52.1714L63.2721 19.6812Z" fill="#78DA76"/>
</svg>
