<svg width="100" height="100" viewBox="0 0 100 100" fill="none" xmlns="http://www.w3.org/2000/svg">
<path fill-rule="evenodd" clip-rule="evenodd" d="M84.3885 91.0923C80.3867 91.0923 77.1426 87.8482 77.1426 83.8464C77.1426 79.8445 80.3867 76.6004 84.3885 76.6004C88.3903 76.6004 91.6344 79.8445 91.6344 83.8464C91.6344 87.8482 88.3903 91.0923 84.3885 91.0923ZM77.1428 61.0291C77.1428 65.0309 80.3869 68.275 84.3888 68.275C88.3906 68.275 91.6347 65.0309 91.6347 61.0291C91.6347 57.0273 88.3906 53.7832 84.3888 53.7832C80.3869 53.7832 77.1428 57.0273 77.1428 61.0291ZM84.3885 45.4585C80.3867 45.4585 77.1426 42.2835 77.1426 38.3668C77.1426 34.4501 80.3867 31.275 84.3885 31.275C88.3903 31.275 91.6344 34.4501 91.6344 38.3668C91.6344 42.2835 88.3903 45.4585 84.3885 45.4585ZM84.3885 22.9496C80.3867 22.9496 77.1426 19.7055 77.1426 15.7037C77.1426 11.7019 80.3867 8.45777 84.3885 8.45777C88.3903 8.45777 91.6344 11.7019 91.6344 15.7037C91.6344 19.7055 88.3903 22.9496 84.3885 22.9496ZM54.634 15.7037C54.634 19.7055 57.8091 22.9496 61.7258 22.9496C65.6425 22.9496 68.8175 19.7055 68.8175 15.7037C68.8175 11.7019 65.6425 8.45777 61.7258 8.45777C57.8091 8.45777 54.634 11.7019 54.634 15.7037ZM61.7258 45.4585C57.8091 45.4585 54.634 42.2835 54.634 38.3668C54.634 34.4501 57.8091 31.275 61.7258 31.275C65.6425 31.275 68.8175 34.4501 68.8175 38.3668C68.8175 42.2835 65.6425 45.4585 61.7258 45.4585ZM54.634 61.0291C54.634 65.0309 57.8091 68.275 61.7258 68.275C65.6425 68.275 68.8175 65.0309 68.8175 61.0291C68.8175 57.0273 65.6425 53.7832 61.7258 53.7832C57.8091 53.7832 54.634 57.0273 54.634 61.0291ZM61.7258 91.0923C57.8091 91.0923 54.634 87.8482 54.634 83.8464C54.634 79.8445 57.8091 76.6004 61.7258 76.6004C65.6425 76.6004 68.8175 79.8445 68.8175 83.8464C68.8175 87.8482 65.6425 91.0923 61.7258 91.0923ZM31.8171 15.7037C31.8171 19.7055 34.9922 22.9496 38.9089 22.9496C42.8256 22.9496 46.0006 19.7055 46.0006 15.7037C46.0006 11.7019 42.8256 8.45777 38.9089 8.45777C34.9922 8.45777 31.8171 11.7019 31.8171 15.7037ZM38.9089 45.4585C34.9922 45.4585 31.8171 42.2835 31.8171 38.3668C31.8171 34.4501 34.9922 31.275 38.9089 31.275C42.8256 31.275 46.0006 34.4501 46.0006 38.3668C46.0006 42.2835 42.8256 45.4585 38.9089 45.4585ZM31.8171 61.0291C31.8171 65.0309 34.9922 68.275 38.9089 68.275C42.8256 68.275 46.0006 65.0309 46.0006 61.0291C46.0006 57.0273 42.8256 53.7832 38.9089 53.7832C34.9922 53.7832 31.8171 57.0273 31.8171 61.0291ZM38.9089 91.0918C34.9922 91.0918 31.8171 87.8477 31.8171 83.8458C31.8171 79.844 34.9922 76.5999 38.9089 76.5999C42.8256 76.5999 46.0006 79.844 46.0006 83.8458C46.0006 87.8477 42.8256 91.0918 38.9089 91.0918ZM9 15.7042C9 19.706 12.2441 22.9501 16.2459 22.9501C20.2477 22.9501 23.4919 19.706 23.4919 15.7042C23.4919 11.7024 20.2477 8.45827 16.2459 8.45827C12.2441 8.45827 9 11.7024 9 15.7042ZM16.2459 45.4585C12.2441 45.4585 9 42.2835 9 38.3668C9 34.4501 12.2441 31.275 16.2459 31.275C20.2477 31.275 23.4919 34.4501 23.4919 38.3668C23.4919 42.2835 20.2477 45.4585 16.2459 45.4585ZM9 61.0291C9 65.0309 12.2441 68.275 16.2459 68.275C20.2477 68.275 23.4919 65.0309 23.4919 61.0291C23.4919 57.0273 20.2477 53.7832 16.2459 53.7832C12.2441 53.7832 9 57.0273 9 61.0291ZM16.2459 91.0923C12.2441 91.0923 9 87.8482 9 83.8464C9 79.8445 12.2441 76.6004 16.2459 76.6004C20.2477 76.6004 23.4919 79.8445 23.4919 83.8464C23.4919 87.8482 20.2477 91.0923 16.2459 91.0923Z" fill="#78DA76"/>
</svg>
