<svg width="100" height="101" viewBox="0 0 100 101" fill="none" xmlns="http://www.w3.org/2000/svg">
<path fill-rule="evenodd" clip-rule="evenodd" d="M92.0034 52.9091C85.6283 42.356 73.4554 27.5182 53.9737 24.2074H53.986C46.9844 23.0146 41.4937 21.5539 37.0593 19.3143C32.4898 17.0138 29.2716 13.9951 26.5938 10.027L34.3692 5.32861C36.3346 8.23773 38.4965 10.2218 41.5796 11.7798C44.7979 13.3987 49.2077 14.6646 55.8654 15.7966C79.376 19.8012 93.2809 37.4385 100 48.5515L92.0034 52.9091ZM17.7126 31.5101C30.8069 32.1674 50.6079 35.746 62.3755 50.4377H62.3632C66.601 55.7203 70.4212 59.6275 74.5484 62.3176C78.7985 65.0806 83.1592 66.4317 88.1954 66.9064L89.3746 58.3982C85.6773 58.0574 82.803 57.1323 79.9286 55.2578C76.9314 53.3103 73.7623 50.2064 69.7456 45.1915C55.5336 27.4568 32.244 23.6713 18.4619 22.9775L17.7126 31.5101ZM35.3768 54.4541C54.8584 57.7649 67.0314 72.6026 73.4065 83.1558L81.4031 78.7982C74.684 67.6851 60.7791 50.0478 37.2684 46.0432C30.6108 44.9112 26.201 43.6453 22.9827 42.0264C19.8995 40.4684 17.7377 38.4844 15.7723 35.5753L7.99683 40.2737C10.6746 44.2417 13.8929 47.2604 18.4501 49.5609C22.8844 51.8006 28.3752 53.2612 35.3768 54.4541ZM0 60.6867C13.0942 61.344 32.8952 64.9226 44.6628 79.6142H44.6505C48.8884 84.8969 52.7085 88.8041 56.8358 91.4941C61.0859 94.2572 65.4465 95.6083 70.4828 96.083L71.662 87.5747C67.9647 87.2339 65.0903 86.3088 62.216 84.4343C59.2188 82.4868 56.0497 79.3829 52.0329 74.3681C37.8209 56.6334 14.5314 52.8479 0.749295 52.1541L0 60.6867Z" fill="#78DA76"/>
</svg>
