<svg width="0" height="0" style="position:absolute"><symbol fill="none" viewBox="0 0 20 20" id="arrow--down" xmlns="http://www.w3.org/2000/svg"><path fill-rule="evenodd" clip-rule="evenodd" d="M9.42 16.517c.32.32.84.32 1.16 0l5.937-5.937a.82.82 0 0 0-1.16-1.16l-4.537 4.538V4.063a.82.82 0 1 0-1.64 0v9.895L4.643 9.42a.82.82 0 1 0-1.16 1.16l5.937 5.937Z" fill="#262626"/></symbol><symbol fill="none" viewBox="0 0 20 20" id="arrow--left" xmlns="http://www.w3.org/2000/svg"><path fill-rule="evenodd" clip-rule="evenodd" d="M2.58 9.613a.82.82 0 0 0 0 1.159l5.937 5.937a.82.82 0 1 0 1.159-1.16l-4.538-4.537h9.895a.82.82 0 1 0 0-1.64H5.138l4.538-4.537a.82.82 0 1 0-1.16-1.16L2.58 9.614Z" fill="#262626"/></symbol><symbol fill="none" viewBox="0 0 20 20" id="arrow--right" xmlns="http://www.w3.org/2000/svg"><path fill-rule="evenodd" clip-rule="evenodd" d="M9.26 3.571a.812.812 0 0 1 1.149 0l5.687 5.688a.813.813 0 0 1 0 1.149l-5.688 5.687a.812.812 0 1 1-1.149-1.149l4.3-4.3H4.147a.813.813 0 0 1 0-1.625h9.414l-4.3-4.3a.813.813 0 0 1 0-1.15Z" fill="#262626"/></symbol><symbol fill="none" viewBox="0 0 20 20" id="arrow--up" xmlns="http://www.w3.org/2000/svg"><path fill-rule="evenodd" clip-rule="evenodd" d="M3.738 10.575a.812.812 0 0 1 0-1.15l5.687-5.687a.812.812 0 0 1 1.15 0l5.687 5.687a.812.812 0 1 1-1.149 1.15l-4.3-4.3v9.413a.813.813 0 0 1-1.626 0V6.274l-4.3 4.3a.812.812 0 0 1-1.149 0Z" fill="#262626"/></symbol><symbol fill="none" viewBox="0 0 20 20" id="arrow--up-right" xmlns="http://www.w3.org/2000/svg"><path fill-rule="evenodd" clip-rule="evenodd" d="M14.98 5.833a.813.813 0 0 0-.813-.813H5.834a.813.813 0 1 0 0 1.627h6.369L5.258 13.59a.813.813 0 1 0 1.15 1.15l6.946-6.944v6.37a.813.813 0 1 0 1.627 0V5.833Z" fill="#262626"/></symbol><symbol fill="none" viewBox="0 0 20 20" id="arrow-long--down" xmlns="http://www.w3.org/2000/svg"><path fill-rule="evenodd" clip-rule="evenodd" d="M10 3a.75.75 0 0 1 .75.75v10.764l2.986-2.81a.75.75 0 0 1 1.028 1.092l-4.25 4a.75.75 0 0 1-1.028 0l-4.25-4a.75.75 0 0 1 1.028-1.092l2.986 2.81V3.75A.75.75 0 0 1 10 3Z" fill="#272E35"/></symbol><symbol fill="none" viewBox="0 0 20 20" id="arrow-long--down-left" xmlns="http://www.w3.org/2000/svg"><path fill-rule="evenodd" clip-rule="evenodd" d="M15.78 4.22a.75.75 0 0 1 0 1.06L6.56 14.5h3.69a.75.75 0 0 1 0 1.5h-5.5a.75.75 0 0 1-.75-.75v-5.5a.75.75 0 0 1 1.5 0v3.69l9.22-9.22a.75.75 0 0 1 1.06 0Z" fill="#272E35"/></symbol><symbol fill="none" viewBox="0 0 20 20" id="arrow-long--down-right" xmlns="http://www.w3.org/2000/svg"><path fill-rule="evenodd" clip-rule="evenodd" d="M4.22 4.22a.75.75 0 0 1 1.06 0l9.22 9.22V9.75a.75.75 0 0 1 1.5 0v5.5a.75.75 0 0 1-.75.75h-5.5a.75.75 0 0 1 0-1.5h3.69L4.22 5.28a.75.75 0 0 1 0-1.06Z" fill="#272E35"/></symbol><symbol fill="none" viewBox="0 0 20 20" id="arrow-long--left" xmlns="http://www.w3.org/2000/svg"><path fill-rule="evenodd" clip-rule="evenodd" d="M8.264 5.204a.75.75 0 0 1 .032 1.06L5.486 9.25H16.25a.75.75 0 0 1 0 1.5H5.486l2.81 2.986a.75.75 0 1 1-1.092 1.028l-4-4.25a.75.75 0 0 1 0-1.028l4-4.25a.75.75 0 0 1 1.06-.032Z" fill="#272E35"/></symbol><symbol fill="none" viewBox="0 0 20 20" id="arrow-long--right" xmlns="http://www.w3.org/2000/svg"><path fill-rule="evenodd" clip-rule="evenodd" d="M11.736 5.204a.75.75 0 0 1 1.06.032l4 4.25a.75.75 0 0 1 0 1.028l-4 4.25a.75.75 0 0 1-1.092-1.028l2.81-2.986H3.75a.75.75 0 0 1 0-1.5h10.764l-2.81-2.986a.75.75 0 0 1 .032-1.06Z" fill="#272E35"/></symbol><symbol fill="none" viewBox="0 0 20 20" id="arrow-long--up" xmlns="http://www.w3.org/2000/svg"><path fill-rule="evenodd" clip-rule="evenodd" d="M9.486 3.204a.75.75 0 0 1 1.028 0l4.25 4a.75.75 0 1 1-1.028 1.092l-2.986-2.81V16.25a.75.75 0 0 1-1.5 0V5.486l-2.986 2.81a.75.75 0 0 1-1.028-1.092l4.25-4Z" fill="#272E35"/></symbol><symbol fill="none" viewBox="0 0 20 20" id="arrow-long--up-left" xmlns="http://www.w3.org/2000/svg"><path fill-rule="evenodd" clip-rule="evenodd" d="M4 4.75A.75.75 0 0 1 4.75 4h5.5a.75.75 0 0 1 0 1.5H6.56l9.22 9.22a.75.75 0 1 1-1.06 1.06L5.5 6.56v3.69a.75.75 0 0 1-1.5 0v-5.5Z" fill="#272E35"/></symbol><symbol fill="none" viewBox="0 0 20 20" id="arrow-long--up-right" xmlns="http://www.w3.org/2000/svg"><path fill-rule="evenodd" clip-rule="evenodd" d="M9.75 5.5a.75.75 0 0 1 0-1.5h5.5a.75.75 0 0 1 .75.75v5.5a.75.75 0 0 1-1.5 0V6.56l-9.22 9.22a.75.75 0 0 1-1.06-1.06l9.22-9.22H9.75Z" fill="#272E35"/></symbol><symbol fill="none" viewBox="0 0 20 20" id="arrowhead--down" xmlns="http://www.w3.org/2000/svg"><path fill-rule="evenodd" clip-rule="evenodd" d="M10 13a1 1 0 0 1-.8-.4l-3-4A1 1 0 0 1 7 7h6a1 1 0 0 1 .8 1.6l-3 4a1 1 0 0 1-.8.4Z" fill="#272E35"/></symbol><symbol fill="none" viewBox="0 0 20 20" id="arrowhead--down-up" xmlns="http://www.w3.org/2000/svg"><path opacity=".2" fill-rule="evenodd" clip-rule="evenodd" d="M10 3a1 1 0 0 1 .8.4l3 4A1 1 0 0 1 13 9H7a1 1 0 0 1-.8-1.6l3-4A1 1 0 0 1 10 3Z" fill="#272E35"/><path fill-rule="evenodd" clip-rule="evenodd" d="M10 17a1 1 0 0 0 .8-.4l3-4A1 1 0 0 0 13 11H7a1 1 0 0 0-.8 1.6l3 4a1 1 0 0 0 .8.4Z" fill="#272E35"/></symbol><symbol fill="none" viewBox="0 0 20 20" id="arrowhead--left" xmlns="http://www.w3.org/2000/svg"><path fill-rule="evenodd" clip-rule="evenodd" d="M12.447 13.894A1 1 0 0 1 11.4 13.8l-4-3a1 1 0 0 1 0-1.6l4-3A1 1 0 0 1 13 7v6a1 1 0 0 1-.553.894Z" fill="#272E35"/></symbol><symbol fill="none" viewBox="0 0 20 20" id="arrowhead--right" xmlns="http://www.w3.org/2000/svg"><path fill-rule="evenodd" clip-rule="evenodd" d="M7.553 6.105a1 1 0 0 1 1.048.095l4 3a1 1 0 0 1 0 1.6l-4 3A1 1 0 0 1 7 13V7a1 1 0 0 1 .552-.895Z" fill="#272E35"/></symbol><symbol fill="none" viewBox="0 0 20 20" id="arrowhead--up" xmlns="http://www.w3.org/2000/svg"><path fill-rule="evenodd" clip-rule="evenodd" d="M10 7a1 1 0 0 1 .8.4l3 4A1 1 0 0 1 13 13H7a1 1 0 0 1-.8-1.6l3-4A1 1 0 0 1 10 7Z" fill="#272E35"/></symbol><symbol fill="none" viewBox="0 0 20 20" id="arrowhead--up-down" xmlns="http://www.w3.org/2000/svg"><path fill-rule="evenodd" clip-rule="evenodd" d="M10 3a1 1 0 0 1 .8.4l3 4A1 1 0 0 1 13 9H7a1 1 0 0 1-.8-1.6l3-4A1 1 0 0 1 10 3Z" fill="#272E35"/><path opacity=".2" fill-rule="evenodd" clip-rule="evenodd" d="M10 17a1 1 0 0 0 .8-.4l3-4A1 1 0 0 0 13 11H7a1 1 0 0 0-.8 1.6l3 4a1 1 0 0 0 .8.4Z" fill="#272E35"/></symbol><symbol fill="none" viewBox="0 0 8 6" id="arrowhead-mini--down" xmlns="http://www.w3.org/2000/svg"><path fill-rule="evenodd" clip-rule="evenodd" d="M4 6a1 1 0 0 0 .8-.4l3-4A1 1 0 0 0 7 0H1a1 1 0 0 0-.8 1.6l3 4A1 1 0 0 0 4 6Z" fill="#262626"/></symbol><symbol fill="none" viewBox="0 0 8 6" id="arrowhead-mini--up" xmlns="http://www.w3.org/2000/svg"><path fill-rule="evenodd" clip-rule="evenodd" d="M4 0a1 1 0 0 1 .8.4l3 4A1 1 0 0 1 7 6H1a1 1 0 0 1-.8-1.6l3-4A1 1 0 0 1 4 0Z" fill="#262626"/></symbol><symbol fill="none" viewBox="0 0 20 20" id="attachment" xmlns="http://www.w3.org/2000/svg"><path fill-rule="evenodd" clip-rule="evenodd" d="M11.47 2.109a3.85 3.85 0 0 1 5.406 0 3.772 3.772 0 0 1 0 5.372l-8.159 8.073a2.3 2.3 0 0 1-3.23 0 2.26 2.26 0 0 1 0-3.22l7.07-6.996a.75.75 0 0 1 1.056 1.066L6.54 13.401a.761.761 0 0 0 0 1.087.8.8 0 0 0 1.121 0l8.16-8.074a2.272 2.272 0 0 0 0-3.24 2.35 2.35 0 0 0-3.297 0l-7.896 7.813a3.532 3.532 0 0 0-1.13 2.696c.001.251.001.35.005.43.088 1.824 1.565 3.295 3.426 3.383.081.004.182.004.436.004l.195-.001a3.626 3.626 0 0 0 2.54-1.12l5.72-5.659a.75.75 0 1 1 1.055 1.066l-5.726 5.666c-.07.069-.113.112-.158.154A5.126 5.126 0 0 1 7.596 19l-.22.001h-.034c-.223 0-.362 0-.483-.006-2.62-.123-4.727-2.2-4.853-4.809C2 14.065 2 13.927 2 13.707v-.034l.001-.219a5.032 5.032 0 0 1 1.411-3.37c.042-.044.086-.088.156-.157L11.47 2.11Z" fill="#272E35"/></symbol><symbol fill="none" viewBox="0 0 20 20" id="basket" xmlns="http://www.w3.org/2000/svg"><path fill-rule="evenodd" clip-rule="evenodd" d="M8.618 3.096a.75.75 0 0 1 .286 1.022L7.282 7h5.436l-1.622-2.882a.75.75 0 1 1 1.308-.736L14.439 7h3.811a.75.75 0 0 1 .72.962l-2.5 8.5a.75.75 0 0 1-.72.538H4.25a.75.75 0 0 1-.72-.538l-2.5-8.5A.75.75 0 0 1 1.75 7h3.811l2.035-3.618a.75.75 0 0 1 1.022-.286ZM5.985 8.5H2.752l2.06 7h10.377l2.059-7H5.985ZM6.75 10a.75.75 0 0 1 .75.75v2.5a.75.75 0 0 1-1.5 0v-2.5a.75.75 0 0 1 .75-.75ZM10 10a.75.75 0 0 1 .75.75v2.5a.75.75 0 0 1-1.5 0v-2.5A.75.75 0 0 1 10 10Zm3.25 0a.75.75 0 0 1 .75.75v2.5a.75.75 0 0 1-1.5 0v-2.5a.75.75 0 0 1 .75-.75Z" fill="#272E35"/></symbol><symbol fill="none" viewBox="0 0 20 20" id="basket--light" xmlns="http://www.w3.org/2000/svg"><path d="M7.475 8.965a.833.833 0 1 0-1.617.404l.834 3.333a.833.833 0 0 0 1.616-.404l-.833-3.333ZM12.298 13.309a.833.833 0 0 1-.607-1.011l.834-3.333a.833.833 0 1 1 1.617.404l-.834 3.333a.833.833 0 0 1-1.01.607ZM9.167 12.5a.833.833 0 0 0 1.666 0V9.167a.833.833 0 0 0-1.666 0V12.5Z" fill="#262626"/><path fill-rule="evenodd" clip-rule="evenodd" d="M8.658 2.947a.833.833 0 0 0-1.407-.894L5.376 5h-3.71a.833.833 0 1 0 0 1.667H2.5c.184 0 .343.13.379.31l1.277 6.387c.12.601.225 1.125.363 1.542.149.45.364.868.762 1.194.399.326.851.455 1.32.513.437.054.97.054 1.584.054h3.63c.613 0 1.147 0 1.583-.054.47-.058.922-.186 1.32-.513.399-.326.614-.745.763-1.194.138-.417.242-.94.363-1.542l1.277-6.387a.386.386 0 0 1 .379-.31h.833a.833.833 0 1 0 0-1.667h-3.709l-1.876-2.947a.833.833 0 0 0-1.406.894L12.65 5H7.35l1.307-2.053Zm-2.839 3.72h9.665l-1.265 6.323c-.133.662-.218 1.084-.32 1.392-.095.287-.174.378-.237.43-.063.05-.168.11-.467.147-.322.04-.753.041-1.428.041H8.233c-.675 0-1.106-.002-1.428-.041-.3-.037-.404-.097-.467-.148-.063-.051-.142-.142-.237-.429-.101-.308-.187-.73-.32-1.392L4.517 6.667h1.302Z" fill="#262626"/></symbol><symbol fill="none" viewBox="0 0 20 20" id="bell" xmlns="http://www.w3.org/2000/svg"><path fill-rule="evenodd" clip-rule="evenodd" d="M4.56 5.176C4.806 2.703 6.924 1 9.366 1h1.268c2.442 0 4.56 1.703 4.806 4.176v.004l.423 4.496v.002c.14 1.393.741 2.799 1.69 3.808.52.551.524 1.315.323 1.862-.202.548-.72 1.152-1.535 1.152h-3.383a3 3 0 0 1-5.917 0H3.66c-.815 0-1.333-.604-1.535-1.152-.201-.547-.197-1.31.322-1.862.95-1.009 1.551-2.415 1.69-3.808l.424-4.502ZM16.34 15h.007c.002-.002.01-.005.023-.016a.481.481 0 0 0 .127-.375c-.008-.06-.026-.085-.035-.095-1.197-1.27-1.923-2.995-2.091-4.69V9.82l-.424-4.496v-.002C13.784 3.698 12.389 2.5 10.634 2.5H9.365c-1.755 0-3.15 1.198-3.313 2.822v.002l-.424 4.5c-.168 1.695-.895 3.42-2.09 4.69-.01.01-.028.036-.036.095a.482.482 0 0 0 .127.375.086.086 0 0 0 .023.015l.006.001h12.682Zm-7.755 1.5a1.5 1.5 0 0 0 2.83 0h-2.83Z" fill="#272E35"/></symbol><symbol fill="none" viewBox="0 0 20 20" id="block" xmlns="http://www.w3.org/2000/svg"><path fill-rule="evenodd" clip-rule="evenodd" d="M10 2.5a7.5 7.5 0 0 0-5.807 12.246L14.746 4.193A7.469 7.469 0 0 0 10 2.5Zm5.807 2.753L5.253 15.807A7.5 7.5 0 0 0 15.807 5.253ZM1 10a9 9 0 1 1 18 0 9 9 0 0 1-18 0Z" fill="#272E35"/></symbol><symbol fill="none" viewBox="0 0 20 20" id="bolt" xmlns="http://www.w3.org/2000/svg"><path fill-rule="evenodd" clip-rule="evenodd" d="M11.261 1.047a.75.75 0 0 1 .485.784L11.186 7h5.064a.75.75 0 0 1 .624 1.166l-7 10.5a.75.75 0 0 1-1.371-.478L8.935 13H3.75a.75.75 0 0 1-.617-1.176l7.25-10.5a.75.75 0 0 1 .879-.277ZM5.18 11.5H9.75a.75.75 0 0 1 .747.812l-.258 3.103 4.61-6.915H10.35a.75.75 0 0 1-.746-.83l.332-3.058L5.179 11.5Z" fill="#272E35"/></symbol><symbol fill="none" viewBox="0 0 20 20" id="box" xmlns="http://www.w3.org/2000/svg"><path fill-rule="evenodd" clip-rule="evenodd" d="M3.5 1.9h12.8c.261 0 .522 0 .758.051.959.212 1.634 1.02 1.8 1.953.042.233.042.493.042.793v.134c0 .3 0 .56-.041.793-.142.79-.648 1.49-1.381 1.815v5.812c0 .636 0 1.161-.032 1.59-.032.443-.102.855-.282 1.246a3.154 3.154 0 0 1-1.302 1.44c-.382.215-.786.299-1.205.337-.396.036-.879.036-1.443.036H6.586c-.565 0-1.047 0-1.443-.036-.419-.038-.823-.122-1.205-.338a3.154 3.154 0 0 1-1.302-1.439c-.18-.39-.25-.803-.282-1.247-.032-.428-.032-.953-.032-1.589V7.44c-.734-.324-1.24-1.024-1.38-1.815C.9 5.391.9 5.131.9 4.831a91.946 91.946 0 0 0 0-.134c0-.3 0-.56.041-.793.167-.933.842-1.74 1.8-1.953.237-.052.498-.051.759-.051Zm.6 5.728v5.59c0 .677 0 1.137.027 1.492.025.347.071.52.125.636.131.288.334.504.562.633.074.042.197.088.49.114.306.028.707.03 1.32.03h5.551c.614 0 2.015-.002 2.321-.03.293-.026.416-.072.49-.114.228-.129.43-.345.562-.633.053-.116.1-.289.125-.636.026-.355.027-.815.027-1.492v-5.59H4.1Zm12.42-1.777H3.28a.895.895 0 0 0-.043-.003.92.92 0 0 1-.112-.007c-.17-.038-.377-.21-.434-.53-.01-.055-.013-.141-.013-.547s.003-.491.013-.547c.057-.32.264-.492.434-.53a.75.75 0 0 1 .087-.006c.079-.003.183-.003.355-.003h12.666c.172 0 .276 0 .355.003a.746.746 0 0 1 .087.006c.17.038.376.21.434.53.01.056.013.141.013.547s-.003.492-.013.547c-.058.32-.265.493-.435.53.005 0-.014.004-.11.007a.902.902 0 0 0-.045.003ZM6.588 10.69c0-.49.398-.889.889-.889h4.844a.889.889 0 1 1 0 1.778H7.478a.889.889 0 0 1-.89-.889Z" fill="#262626"/></symbol><symbol fill="none" viewBox="0 0 20 20" id="calendar" xmlns="http://www.w3.org/2000/svg"><path fill-rule="evenodd" clip-rule="evenodd" d="M6.75 1a.75.75 0 0 1 .75.75V3h5V1.75a.75.75 0 0 1 1.5 0V3h2.25A2.75 2.75 0 0 1 19 5.75v10.5A2.75 2.75 0 0 1 16.25 19H3.75A2.75 2.75 0 0 1 1 16.25V5.75A2.75 2.75 0 0 1 3.75 3H6V1.75A.75.75 0 0 1 6.75 1ZM6 4.5H3.75c-.69 0-1.25.56-1.25 1.25V8h15V5.75c0-.69-.56-1.25-1.25-1.25H14v.75a.75.75 0 0 1-1.5 0V4.5h-5v.75a.75.75 0 0 1-1.5 0V4.5Zm11.5 5h-15v6.75c0 .69.56 1.25 1.25 1.25h12.5c.69 0 1.25-.56 1.25-1.25V9.5Z" fill="#272E35"/></symbol><symbol fill="none" viewBox="0 0 20 20" id="chart-pie" xmlns="http://www.w3.org/2000/svg"><path fill-rule="evenodd" clip-rule="evenodd" d="M9 1.75A.75.75 0 0 1 9.75 1C14.72 1 19 5.28 19 10.25a.75.75 0 0 1-.75.75h-8.5a.75.75 0 0 1-.75-.75v-8.5Zm1.5.79V9.5h6.96c-.375-3.57-3.39-6.585-6.96-6.96Zm-3.06-.42a.75.75 0 0 1-.394.984A7.502 7.502 0 0 0 10 17.5a7.502 7.502 0 0 0 6.896-4.546.75.75 0 1 1 1.378.592 9 9 0 1 1-11.82-11.82.75.75 0 0 1 .985.393Z" fill="#272E35"/></symbol><symbol fill="none" viewBox="0 0 20 20" id="check" xmlns="http://www.w3.org/2000/svg"><path fill-rule="evenodd" clip-rule="evenodd" d="M16.772 5.212a.75.75 0 0 1 .016 1.06l-8.25 8.5a.75.75 0 0 1-1.083-.007l-4.25-4.5a.75.75 0 0 1 1.09-1.03l3.712 3.93 7.705-7.937a.75.75 0 0 1 1.06-.016Z" fill="#272E35"/></symbol><symbol fill="none" viewBox="0 0 20 20" id="check--colored" xmlns="http://www.w3.org/2000/svg"><circle cx="10" cy="10" r="8" fill="#78DA76"/><path fill-rule="evenodd" clip-rule="evenodd" d="M14.143 7.293a1 1 0 0 1 0 1.414l-4 4a1 1 0 0 1-1.414 0l-2-2a1 1 0 1 1 1.414-1.414l1.293 1.293 3.293-3.293a1 1 0 0 1 1.414 0Z" fill="#fff"/></symbol><symbol fill="none" viewBox="0 0 20 20" id="check--fill" xmlns="http://www.w3.org/2000/svg"><path fill-rule="evenodd" clip-rule="evenodd" d="M10 1a9 9 0 1 0 0 18 9 9 0 0 0 0-18Zm3.844 6.709a.75.75 0 0 0-1.188-.918l-3.7 4.79-1.649-1.833a.75.75 0 0 0-1.114 1.004l2.25 2.5a.75.75 0 0 0 1.15-.043l4.25-5.5Z" fill="#272E35"/></symbol><symbol fill="none" viewBox="0 0 20 20" id="check--outline" xmlns="http://www.w3.org/2000/svg"><path fill-rule="evenodd" clip-rule="evenodd" d="M10 2.5a7.5 7.5 0 1 0 0 15 7.5 7.5 0 0 0 0-15ZM1 10a9 9 0 1 1 18 0 9 9 0 0 1-18 0Zm12.709-3.343a.75.75 0 0 1 .135 1.052l-4.25 5.5a.75.75 0 0 1-1.151.043l-2.25-2.5a.75.75 0 1 1 1.114-1.004l1.65 1.832 3.7-4.789a.75.75 0 0 1 1.052-.134Z" fill="#272E35"/></symbol><symbol fill="none" viewBox="0 0 20 20" id="check-badge--outline" xmlns="http://www.w3.org/2000/svg"><path fill-rule="evenodd" clip-rule="evenodd" d="M6.935 1.756a.75.75 0 0 1 .78-.224l2.283.685 2.284-.685a.75.75 0 0 1 .78.224l1.632 1.866 2.332.931a.75.75 0 0 1 .472.696l.004 2.321 1.366 2.006a.75.75 0 0 1-.02.871l-1.346 1.803-.004 2.501a.75.75 0 0 1-.472.695l-2.332.934-1.632 1.864a.75.75 0 0 1-.711.241l-2.353-.47-2.35.47a.75.75 0 0 1-.712-.241L5.304 16.38l-2.333-.934a.75.75 0 0 1-.471-.695l-.004-2.501-1.347-1.803a.75.75 0 0 1-.019-.871L2.496 7.57 2.5 5.25a.75.75 0 0 1 .472-.696l2.332-.93 1.631-1.867Zm5.316 1.351-2.038.611a.75.75 0 0 1-.43 0l-2.036-.61-1.432 1.637a.75.75 0 0 1-.287.203L4 5.758l-.003 2.045a.75.75 0 0 1-.13.421L2.67 9.978l1.176 1.573a.75.75 0 0 1 .149.448l.003 2.243 2.03.812a.75.75 0 0 1 .285.202L7.78 16.93l2.072-.414a.747.747 0 0 1 .294 0l2.074.414 1.464-1.673a.75.75 0 0 1 .286-.202l2.03-.812.003-2.243a.75.75 0 0 1 .15-.448l1.175-1.573-1.195-1.754a.75.75 0 0 1-.13-.42L16 5.757l-2.03-.81a.75.75 0 0 1-.286-.203l-1.432-1.638Zm1.543 4.127a.75.75 0 0 1-.028 1.06l-4.75 4.5a.75.75 0 0 1-1.004.025l-1.75-1.5a.75.75 0 1 1 .976-1.138l1.237 1.06 4.26-4.035a.75.75 0 0 1 1.06.028Z" fill="#272E35"/></symbol><symbol fill="none" viewBox="0 0 22 22" id="checkbox" xmlns="http://www.w3.org/2000/svg"><path fill-rule="evenodd" clip-rule="evenodd" d="M18.207 7.707 10 15.914l-4.707-4.707 1.414-1.414L10 13.086l6.793-6.793 1.414 1.414Z" fill="#fff"/></symbol><symbol fill="none" viewBox="0 0 20 20" id="chevron--down" xmlns="http://www.w3.org/2000/svg"><path fill-rule="evenodd" clip-rule="evenodd" d="M4.232 7.207a.75.75 0 0 1 1.06.025L10 12.164l4.707-4.932a.75.75 0 1 1 1.085 1.036l-5.25 5.5a.75.75 0 0 1-1.085 0l-5.25-5.5a.75.75 0 0 1 .025-1.06Z" fill="#272E35"/></symbol><symbol fill="none" viewBox="0 0 20 20" id="chevron--left" xmlns="http://www.w3.org/2000/svg"><path fill-rule="evenodd" clip-rule="evenodd" d="M12.793 4.232a.75.75 0 0 1-.025 1.06L7.836 10l4.932 4.707a.75.75 0 0 1-1.036 1.085l-5.5-5.25a.75.75 0 0 1 0-1.085l5.5-5.25a.75.75 0 0 1 1.06.025Z" fill="#272E35"/></symbol><symbol fill="none" viewBox="0 0 20 20" id="chevron--right" xmlns="http://www.w3.org/2000/svg"><path fill-rule="evenodd" clip-rule="evenodd" d="M7.207 4.232a.75.75 0 0 1 1.06-.025l5.5 5.25a.75.75 0 0 1 0 1.085l-5.5 5.25a.75.75 0 1 1-1.035-1.085L12.164 10 7.232 5.293a.75.75 0 0 1-.025-1.06Z" fill="#272E35"/></symbol><symbol fill="none" viewBox="0 0 20 20" id="chevron--up" xmlns="http://www.w3.org/2000/svg"><path fill-rule="evenodd" clip-rule="evenodd" d="M10 6a.75.75 0 0 1 .543.232l5.25 5.5a.75.75 0 0 1-1.085 1.036L10 7.836l-4.707 4.932a.75.75 0 0 1-1.086-1.036l5.25-5.5A.75.75 0 0 1 10 6Z" fill="#272E35"/></symbol><symbol fill="none" viewBox="0 0 20 20" id="chevron-small--down" xmlns="http://www.w3.org/2000/svg"><path fill-rule="evenodd" clip-rule="evenodd" d="M6.24 8.2a.75.75 0 0 1 1.06.04l2.7 2.908 2.7-2.908a.75.75 0 1 1 1.1 1.02l-3.25 3.5a.75.75 0 0 1-1.1 0L6.2 9.26a.75.75 0 0 1 .04-1.06Z" fill="#272E35"/></symbol><symbol fill="none" viewBox="0 0 20 20" id="chevron-small--left" xmlns="http://www.w3.org/2000/svg"><path fill-rule="evenodd" clip-rule="evenodd" d="M11.8 6.24a.75.75 0 0 1-.04 1.06L8.852 10l2.908 2.7a.75.75 0 1 1-1.02 1.1l-3.5-3.25a.75.75 0 0 1 0-1.1l3.5-3.25a.75.75 0 0 1 1.06.04Z" fill="#272E35"/></symbol><symbol fill="none" viewBox="0 0 20 20" id="chevron-small--right" xmlns="http://www.w3.org/2000/svg"><path fill-rule="evenodd" clip-rule="evenodd" d="M8.2 6.24a.75.75 0 0 1 1.06-.04l3.5 3.25a.75.75 0 0 1 0 1.1l-3.5 3.25a.75.75 0 1 1-1.02-1.1l2.908-2.7L8.24 7.3a.75.75 0 0 1-.04-1.06Z" fill="#272E35"/></symbol><symbol fill="none" viewBox="0 0 20 20" id="chevron-small--up" xmlns="http://www.w3.org/2000/svg"><path fill-rule="evenodd" clip-rule="evenodd" d="M10 7a.75.75 0 0 1 .55.24l3.25 3.5a.75.75 0 1 1-1.1 1.02L10 8.852 7.3 11.76a.75.75 0 1 1-1.1-1.02l3.25-3.5A.75.75 0 0 1 10 7Z" fill="#272E35"/></symbol><symbol fill="none" viewBox="0 0 20 20" id="clock" xmlns="http://www.w3.org/2000/svg"><path fill-rule="evenodd" clip-rule="evenodd" d="M10 2.5a7.5 7.5 0 1 0 0 15 7.5 7.5 0 0 0 0-15ZM1 10a9 9 0 1 1 18 0 9 9 0 0 1-18 0Zm8.75-5a.75.75 0 0 1 .75.75V9.5h1.75a.75.75 0 0 1 0 1.5h-2.5a.75.75 0 0 1-.75-.75v-4.5A.75.75 0 0 1 9.75 5Z" fill="#272E35"/></symbol><symbol fill="none" viewBox="0 0 20 20" id="colored--check--outline" xmlns="http://www.w3.org/2000/svg"><path fill-rule="evenodd" clip-rule="evenodd" d="M10 2.5a7.5 7.5 0 1 0 0 15 7.5 7.5 0 0 0 0-15ZM1 10a9 9 0 1 1 18 0 9 9 0 0 1-18 0Zm12.709-3.343a.75.75 0 0 1 .135 1.052l-4.25 5.5a.75.75 0 0 1-1.151.043l-2.25-2.5a.75.75 0 1 1 1.114-1.004l1.65 1.832 3.7-4.789a.75.75 0 0 1 1.052-.134Z" fill="#5CCA53"/></symbol><symbol fill="none" viewBox="0 0 20 20" id="colored--error--outline" xmlns="http://www.w3.org/2000/svg"><path fill-rule="evenodd" clip-rule="evenodd" d="M10 2.5a7.5 7.5 0 1 0 0 15 7.5 7.5 0 0 0 0-15ZM1 10a9 9 0 1 1 18 0 9 9 0 0 1-18 0Zm5.22-3.78a.75.75 0 0 1 1.06 0L10 8.94l2.72-2.72a.75.75 0 1 1 1.06 1.06L11.06 10l2.72 2.72a.75.75 0 1 1-1.06 1.06L10 11.06l-2.72 2.72a.75.75 0 0 1-1.06-1.06L8.94 10 6.22 7.28a.75.75 0 0 1 0-1.06Z" fill="#FD4046"/></symbol><symbol fill="none" viewBox="0 0 20 20" id="company" xmlns="http://www.w3.org/2000/svg"><path fill-rule="evenodd" clip-rule="evenodd" d="M5.324 1h5.352c.258 0 .494 0 .692.016.213.018.446.057.676.175.33.168.598.435.765.765.118.23.158.463.175.676.016.198.016.434.016.692V7h1.676c.258 0 .494 0 .692.016.213.018.446.057.676.175.33.168.598.435.765.765.118.23.157.463.175.676.016.198.016.434.016.692V17.5h1.25a.75.75 0 0 1 0 1.5H1.75a.75.75 0 0 1 0-1.5H3V3.324c0-.258 0-.494.016-.692.018-.213.057-.446.175-.676a1.75 1.75 0 0 1 .765-.765c.23-.118.463-.157.676-.175C4.83 1 5.066 1 5.324 1ZM4.5 17.5h7V3.35c0-.292 0-.467-.011-.596a.638.638 0 0 0-.018-.12.25.25 0 0 0-.104-.105.625.625 0 0 0-.121-.018 8.336 8.336 0 0 0-.596-.011h-5.3c-.292 0-.467 0-.596.011a.626.626 0 0 0-.12.018.25.25 0 0 0-.105.104.628.628 0 0 0-.018.121c-.01.13-.011.304-.011.596V17.5Zm.03-14.87v.002-.001Zm.1-.1h.002-.001Zm6.74 0h-.002.001Zm.1.1v.002-.001ZM13 8.5v9h2.5V9.35c0-.292 0-.467-.011-.596a.638.638 0 0 0-.018-.12.25.25 0 0 0-.104-.105.625.625 0 0 0-.121-.018 8.336 8.336 0 0 0-.596-.011H13Zm2.37.03h-.002.001Zm.1.1v.002-.001ZM6 5.75A.75.75 0 0 1 6.75 5h2.5a.75.75 0 0 1 0 1.5h-2.5A.75.75 0 0 1 6 5.75ZM6 10a.75.75 0 0 1 .75-.75h2.5a.75.75 0 0 1 0 1.5h-2.5A.75.75 0 0 1 6 10Zm0 4.25a.75.75 0 0 1 .75-.75h2.5a.75.75 0 0 1 0 1.5h-2.5a.75.75 0 0 1-.75-.75Z" fill="#272E35"/></symbol><symbol fill="none" viewBox="0 0 20 20" id="copy" xmlns="http://www.w3.org/2000/svg"><path fill-rule="evenodd" clip-rule="evenodd" d="M1 3.75A2.75 2.75 0 0 1 3.75 1h8.5A2.75 2.75 0 0 1 15 3.75V5h1.25A2.75 2.75 0 0 1 19 7.75v8.5A2.75 2.75 0 0 1 16.25 19h-8.5A2.75 2.75 0 0 1 5 16.25V15H3.75A2.75 2.75 0 0 1 1 12.25v-8.5Zm4 9.75V7.75A2.75 2.75 0 0 1 7.75 5h5.75V3.75c0-.69-.56-1.25-1.25-1.25h-8.5c-.69 0-1.25.56-1.25 1.25v8.5c0 .69.56 1.25 1.25 1.25H5Zm2.75-7c-.69 0-1.25.56-1.25 1.25v8.5c0 .69.56 1.25 1.25 1.25h8.5c.69 0 1.25-.56 1.25-1.25v-8.5c0-.69-.56-1.25-1.25-1.25h-8.5Z" fill="#272E35"/></symbol><symbol fill="none" viewBox="0 0 24 24" id="cross" xmlns="http://www.w3.org/2000/svg"><path fill-rule="evenodd" clip-rule="evenodd" d="M6.264 6.264a.9.9 0 0 1 1.272 0L12 10.727l4.464-4.463a.9.9 0 0 1 1.272 1.272L13.273 12l4.463 4.464a.9.9 0 1 1-1.272 1.272L12 13.273l-4.464 4.463a.9.9 0 1 1-1.272-1.272L10.727 12 6.264 7.536a.9.9 0 0 1 0-1.272Z" fill="#262626"/></symbol><symbol fill="none" viewBox="0 0 20 20" id="delete" xmlns="http://www.w3.org/2000/svg"><path fill-rule="evenodd" clip-rule="evenodd" d="M9.496 1h1.372c.431 0 .803 0 1.11.025.323.026.645.085.954.243.462.235.838.61 1.073 1.072.158.31.216.632.243.955.022.275.025.602.025.978h3.273a.818.818 0 0 1 0 1.636h-.819v8.38c0 .658 0 1.202-.036 1.644-.037.46-.118.883-.32 1.28a3.273 3.273 0 0 1-1.43 1.43c-.398.203-.82.283-1.28.32-.443.037-.987.037-1.645.037H8.348c-.659 0-1.202 0-1.645-.036-.46-.038-.883-.118-1.28-.32a3.273 3.273 0 0 1-1.43-1.43c-.202-.398-.283-.82-.32-1.28-.037-.443-.037-.987-.037-1.646V5.91h-.818a.818.818 0 1 1 0-1.636h3.273c0-.376.002-.703.025-.978.026-.323.085-.645.242-.955.236-.462.611-.837 1.073-1.072.31-.158.631-.217.955-.243C8.692 1 9.064 1 9.496 1ZM5.273 5.91v8.345c0 .7 0 1.177.03 1.545.03.359.083.542.148.67.157.308.407.558.715.715.128.066.312.119.67.148.369.03.845.03 1.546.03h3.6c.7 0 1.177 0 1.545-.03.359-.03.543-.082.67-.148.308-.157.559-.407.716-.715.065-.128.118-.311.147-.67.03-.368.03-.845.03-1.546V5.91H5.274Zm7.363-1.637H7.727c0-.38.003-.64.02-.845.018-.222.049-.304.07-.345a.818.818 0 0 1 .357-.357c.04-.021.123-.052.345-.07.232-.019.537-.02 1.008-.02h1.31c.471 0 .776.001 1.008.02.222.018.304.049.345.07.154.078.279.203.357.357.02.04.052.123.07.345.016.204.019.464.02.845Zm-4.09 4.5c.451 0 .818.366.818.818v4.09a.818.818 0 1 1-1.637 0v-4.09c0-.452.367-.818.818-.818Zm3.272 0c.452 0 .818.366.818.818v4.09a.818.818 0 1 1-1.636 0v-4.09c0-.452.366-.818.818-.818Z" fill="#262626"/></symbol><symbol fill="none" viewBox="0 0 16 16" id="dot" xmlns="http://www.w3.org/2000/svg"><circle cx="8" cy="8" r="4" fill="#007E00"/></symbol><symbol fill="none" viewBox="0 0 20 20" id="download" xmlns="http://www.w3.org/2000/svg"><path fill-rule="evenodd" clip-rule="evenodd" d="M10 1a.75.75 0 0 1 .75.75v8.787l1.991-1.838A.75.75 0 1 1 13.76 9.8l-3.25 3a.75.75 0 0 1-1.018 0l-3.25-3A.75.75 0 1 1 7.26 8.7l1.991 1.838V1.75A.75.75 0 0 1 10 1ZM1.75 13a.75.75 0 0 1 .75.75v2.5c0 .69.56 1.25 1.25 1.25h12.5c.69 0 1.25-.56 1.25-1.25v-2.5a.75.75 0 0 1 1.5 0v2.5A2.75 2.75 0 0 1 16.25 19H3.75A2.75 2.75 0 0 1 1 16.25v-2.5a.75.75 0 0 1 .75-.75Z" fill="#272E35"/></symbol><symbol fill="none" viewBox="0 0 20 20" id="edit" xmlns="http://www.w3.org/2000/svg"><path fill-rule="evenodd" clip-rule="evenodd" d="M12.57 2.932a3.18 3.18 0 0 1 4.498 4.498L6.694 17.805a.666.666 0 0 1-.472.195H2.667A.667.667 0 0 1 2 17.333v-3.555c0-.177.07-.347.195-.472L12.57 2.932Zm2.25.401c-.49 0-.96.195-1.307.541l-.348.348 2.613 2.613.347-.348a1.847 1.847 0 0 0-1.306-3.154Zm.015 4.445-2.613-2.613-8.889 8.889v2.613h2.613l8.889-8.89Z" fill="#272E35"/></symbol><symbol fill="none" viewBox="0 0 20 20" id="error--colored" xmlns="http://www.w3.org/2000/svg"><circle cx="10" cy="10" r="8" fill="#FD4046"/><path fill-rule="evenodd" clip-rule="evenodd" d="M6.855 6.855a.875.875 0 0 1 1.238 0L10 8.763l1.907-1.908a.875.875 0 0 1 1.238 1.238L11.237 10l1.908 1.907a.875.875 0 0 1-1.238 1.238L10 11.237l-1.907 1.908a.875.875 0 1 1-1.238-1.238L8.763 10 6.855 8.093a.875.875 0 0 1 0-1.238Z" fill="#fff"/></symbol><symbol fill="none" viewBox="0 0 20 20" id="error--fill" xmlns="http://www.w3.org/2000/svg"><path fill-rule="evenodd" clip-rule="evenodd" d="M10 1a9 9 0 1 0 0 18 9 9 0 0 0 0-18ZM7.28 6.22a.75.75 0 0 0-1.06 1.06L8.94 10l-2.72 2.72a.75.75 0 1 0 1.06 1.06L10 11.06l2.72 2.72a.75.75 0 1 0 1.06-1.06L11.06 10l2.72-2.72a.75.75 0 0 0-1.06-1.06L10 8.94 7.28 6.22Z" fill="#272E35"/></symbol><symbol fill="none" viewBox="0 0 20 20" id="error--outline" xmlns="http://www.w3.org/2000/svg"><path fill-rule="evenodd" clip-rule="evenodd" d="M10 2.5a7.5 7.5 0 1 0 0 15 7.5 7.5 0 0 0 0-15ZM1 10a9 9 0 1 1 18 0 9 9 0 0 1-18 0Zm5.22-3.78a.75.75 0 0 1 1.06 0L10 8.94l2.72-2.72a.75.75 0 1 1 1.06 1.06L11.06 10l2.72 2.72a.75.75 0 1 1-1.06 1.06L10 11.06l-2.72 2.72a.75.75 0 0 1-1.06-1.06L8.94 10 6.22 7.28a.75.75 0 0 1 0-1.06Z" fill="#272E35"/></symbol><symbol fill="none" viewBox="0 0 20 20" id="eye" xmlns="http://www.w3.org/2000/svg"><path fill-rule="evenodd" clip-rule="evenodd" d="M5.614 6.424C4.306 7.522 3.276 8.83 2.696 9.644a3.979 3.979 0 0 0-.168.247.19.19 0 0 0-.024.05l-.002.013a.44.44 0 0 0 .002.105.19.19 0 0 0 .024.05c.03.05.074.113.168.246.58.815 1.61 2.123 2.918 3.22C6.933 14.684 8.444 15.5 10 15.5s3.067-.817 4.386-1.924c1.308-1.098 2.338-2.406 2.918-3.22.094-.134.138-.197.168-.247a.19.19 0 0 0 .024-.05l.002-.013a.42.42 0 0 0 0-.092l-.002-.013a.19.19 0 0 0-.024-.05 3.993 3.993 0 0 0-.168-.246c-.58-.815-1.61-2.123-2.918-3.22C13.067 5.316 11.556 4.5 10 4.5s-3.067.817-4.386 1.924Zm-.965-1.149C6.082 4.073 7.93 3 10 3c2.07 0 3.918 1.073 5.35 2.275 1.445 1.212 2.56 2.634 3.176 3.5l.03.043c.148.207.314.438.395.757.066.26.066.59 0 .85-.081.319-.247.55-.395.757l-.03.043c-.617.866-1.731 2.287-3.175 3.5C13.918 15.927 12.07 17 10 17c-2.07 0-3.918-1.073-5.35-2.275-1.445-1.213-2.56-2.634-3.176-3.5a8.876 8.876 0 0 0-.03-.043c-.149-.207-.314-.438-.395-.757a1.853 1.853 0 0 1 0-.85c.081-.319.246-.55.395-.757l.03-.043c.617-.866 1.731-2.288 3.175-3.5ZM10 8.5a1.5 1.5 0 1 0 0 3 1.5 1.5 0 0 0 0-3ZM7 10a3 3 0 1 1 6 0 3 3 0 0 1-6 0Z" fill="#272E35"/></symbol><symbol fill="none" viewBox="0 0 20 20" id="eye-off" xmlns="http://www.w3.org/2000/svg"><path fill-rule="evenodd" clip-rule="evenodd" d="M1.152 3.297a.75.75 0 0 1 1.05-.145l16.5 12.5a.75.75 0 1 1-.905 1.196l-2.673-2.025C13.736 15.988 11.972 17 10 17c-2.034 0-3.846-1.078-5.246-2.28-1.412-1.214-2.5-2.636-3.103-3.502l-.03-.043c-.145-.207-.305-.437-.384-.754a1.878 1.878 0 0 1 0-.842c.079-.317.24-.547.384-.754l.03-.043a20.41 20.41 0 0 1 2.11-2.567L1.297 4.348a.75.75 0 0 1-.145-1.05Zm3.815 3.831a18.753 18.753 0 0 0-2.084 2.51 3.985 3.985 0 0 0-.165.247.194.194 0 0 0-.024.053s-.002.006-.002.014a.47.47 0 0 0 .002.11c.002.009.005.02.024.053.03.05.073.114.165.247.566.815 1.572 2.123 2.849 3.22C7.02 14.688 8.492 15.5 10 15.5c1.368 0 2.702-.667 3.893-1.61l-2.03-1.538a3 3 0 0 1-4.631-3.508L4.966 7.127Zm3.544 2.685a1.5 1.5 0 0 0 2.072 1.57l-2.072-1.57ZM10 4.5c-.605 0-1.204.13-1.793.36a.75.75 0 1 1-.547-1.397A6.404 6.404 0 0 1 10 3c2.034 0 3.846 1.078 5.246 2.28 1.412 1.214 2.5 2.636 3.103 3.502l.03.043c.145.207.305.437.384.754a1.88 1.88 0 0 1 0 .842c-.079.317-.24.547-.385.755l-.03.042c-.111.161-.24.341-.383.534a.75.75 0 0 1-1.204-.894c.133-.18.252-.347.356-.496.092-.133.136-.196.165-.247a.2.2 0 0 0 .024-.053s.002-.006.002-.014a.485.485 0 0 0 0-.096c0-.008-.002-.014-.002-.014a.199.199 0 0 0-.024-.053 3.96 3.96 0 0 0-.165-.247c-.566-.815-1.572-2.123-2.849-3.22C12.98 5.312 11.508 4.5 10 4.5Z" fill="#272E35"/></symbol><symbol fill="none" viewBox="0 0 20 20" id="favorite" xmlns="http://www.w3.org/2000/svg"><path fill-rule="evenodd" clip-rule="evenodd" d="M3.573 9.518c-.758-2.457.31-5.218 2.794-6.049 1.306-.438 2.825.251 3.91 1.1 1.028-.825 2.608-1.535 3.912-1.1 2.483.83 3.55 3.592 2.794 6.049-1.179 3.894-6.705 7.149-6.705 7.149s-5.487-3.21-6.705-7.15Z" fill="#272E35"/></symbol><symbol fill="none" viewBox="0 0 20 20" id="favorite--outline" xmlns="http://www.w3.org/2000/svg"><path fill-rule="evenodd" clip-rule="evenodd" d="m9.621 18.827-.002-.002-.005-.002-.016-.01a12.808 12.808 0 0 1-.287-.176 30.074 30.074 0 0 1-3.34-2.453c-1.89-1.605-4.083-3.909-4.894-6.533C.055 6.34 1.47 2.487 4.975 1.314c.997-.333 2.035-.223 2.965.083.728.24 1.421.608 2.03 1.024 1.534-1.186 3.304-1.69 5.055-1.107 3.503 1.172 4.918 5.024 3.9 8.335-.788 2.6-2.984 4.905-4.877 6.514a30.582 30.582 0 0 1-3.355 2.47 18.598 18.598 0 0 1-.288.178l-.017.01-.005.003-.001.001c-.2.118-.203-.952-.76.002Zm4.93-16.09c-1.262-.42-2.672-.038-4.051 1.194a.75.75 0 0 1-.962.032c-.613-.48-1.335-.901-2.066-1.141-.732-.241-1.424-.285-2.021-.085-2.574.861-3.774 3.77-2.941 6.471.68 2.197 2.59 4.268 4.431 5.833A28.572 28.572 0 0 0 10 17.298a29.075 29.075 0 0 0 3.078-2.277c1.85-1.574 3.757-3.644 4.412-5.809l.002-.003c.832-2.702-.367-5.61-2.94-6.472Z" fill="#272E35"/><path d="M9.621 18.827a.752.752 0 0 0 .76-.002c-.2.118-.202-.952-.76.002Z" fill="#272E35"/></symbol><symbol fill="none" viewBox="0 0 20 20" id="file" xmlns="http://www.w3.org/2000/svg"><path fill-rule="evenodd" clip-rule="evenodd" d="M5.75 2.5c-.69 0-1.25.56-1.25 1.25v12.5c0 .69.56 1.25 1.25 1.25h8.5c.69 0 1.25-.56 1.25-1.25V7.5h-4.25a.75.75 0 0 1-.75-.75V2.5H5.75ZM12 3.56 14.44 6H12V3.56Zm-9 .19A2.75 2.75 0 0 1 5.75 1h5.5a.75.75 0 0 1 .53.22l5 5c.141.14.22.331.22.53v9.5A2.75 2.75 0 0 1 14.25 19h-8.5A2.75 2.75 0 0 1 3 16.25V3.75Z" fill="#272E35"/></symbol><symbol fill="none" viewBox="0 0 20 20" id="filter" xmlns="http://www.w3.org/2000/svg"><path fill-rule="evenodd" clip-rule="evenodd" d="M1 4.75A.75.75 0 0 1 1.75 4h16.5a.75.75 0 0 1 0 1.5H1.75A.75.75 0 0 1 1 4.75ZM4 10a.75.75 0 0 1 .75-.75h10.5a.75.75 0 0 1 0 1.5H4.75A.75.75 0 0 1 4 10Zm3 5.25a.75.75 0 0 1 .75-.75h4.5a.75.75 0 0 1 0 1.5h-4.5a.75.75 0 0 1-.75-.75Z" fill="#262626"/></symbol><symbol fill="none" viewBox="0 0 20 20" id="fire" xmlns="http://www.w3.org/2000/svg"><path fill-rule="evenodd" clip-rule="evenodd" d="M8.422 1.076a.75.75 0 0 1 .772.07c2.023 1.483 2.96 3.223 3.175 4.948a6.722 6.722 0 0 1-.06 2.02c.377-.501.61-1.035.706-1.507a.75.75 0 0 1 1.17-.463C16.029 7.456 17.5 9.153 17.5 11.75c0 3.914-3.086 7.25-7.5 7.25s-7.5-3.336-7.5-7.25c0-1.222.207-2.167.72-3.085.495-.883 1.254-1.7 2.25-2.695.947-.948 1.582-1.866 1.98-2.629.407-.781.542-1.354.55-1.615a.75.75 0 0 1 .422-.65Zm.775 2.027c-.11.294-.248.607-.417.931-.47.903-1.197 1.944-2.25 2.996-1.004 1.004-1.62 1.688-2 2.368-.362.644-.53 1.324-.53 2.352 0 3.086 2.414 5.75 6 5.75s6-2.664 6-5.75c0-1.572-.701-2.734-1.879-3.754a5.988 5.988 0 0 1-3.076 2.943.75.75 0 0 1-.95-1.053c.57-1.028.948-2.305.786-3.605-.129-1.028-.6-2.127-1.684-3.178Z" fill="#272E35"/></symbol><symbol fill="none" viewBox="0 0 20 20" id="folder" xmlns="http://www.w3.org/2000/svg"><path fill-rule="evenodd" clip-rule="evenodd" d="M1 4.75A2.75 2.75 0 0 1 3.75 2h6a.75.75 0 0 1 .624.334L12.151 5h4.099A2.75 2.75 0 0 1 19 7.75v7.5A2.75 2.75 0 0 1 16.25 18H3.75A2.75 2.75 0 0 1 1 15.25V4.75Zm9.349.25-1-1.5H3.75c-.69 0-1.25.56-1.25 1.25V5h7.849ZM2.5 6.5v8.75c0 .69.56 1.25 1.25 1.25h12.5c.69 0 1.25-.56 1.25-1.25v-7.5c0-.69-.56-1.25-1.25-1.25H2.5Z" fill="#272E35"/></symbol><symbol fill="none" viewBox="0 0 20 20" id="folder-check" xmlns="http://www.w3.org/2000/svg"><path fill-rule="evenodd" clip-rule="evenodd" d="M1 4.75A2.75 2.75 0 0 1 3.75 2h6a.75.75 0 0 1 .624.334L12.151 5h4.099A2.75 2.75 0 0 1 19 7.75v1.5a.75.75 0 0 1-1.5 0v-1.5c0-.69-.56-1.25-1.25-1.25H2.5v8.75c0 .69.56 1.25 1.25 1.25h5.5a.75.75 0 0 1 0 1.5h-5.5A2.75 2.75 0 0 1 1 15.25V4.75ZM2.5 5h7.849l-1-1.5H3.75c-.69 0-1.25.56-1.25 1.25V5Zm17.265 8.205a.75.75 0 0 1 .03 1.06l-4.25 4.5a.75.75 0 0 1-1.102-.013l-2.25-2.5a.75.75 0 1 1 1.114-1.004l1.706 1.896 3.692-3.909a.75.75 0 0 1 1.06-.03Z" fill="#272E35"/></symbol><symbol fill="none" viewBox="0 0 20 20" id="fraction--cut" xmlns="http://www.w3.org/2000/svg"><path fill-rule="evenodd" clip-rule="evenodd" d="M15 4h1v1a10.99 10.99 0 0 1-5 9.221V4.75c1.24-.484 2.589-.75 4-.75ZM9 5.779A10.99 10.99 0 0 0 4 15v1h1c1.411 0 2.76-.266 4-.75V5.78ZM2 15C2 7.82 7.82 2 15 2h3v3c0 7.18-5.82 13-13 13H2v-3Z" fill="#C1C1C1"/></symbol><symbol fill="none" viewBox="0 0 20 20" id="fraction--cut-2" xmlns="http://www.w3.org/2000/svg"><path fill-rule="evenodd" clip-rule="evenodd" d="M16 4h-1c-.683 0-1.351.062-2 .181v8.369c1.86-1.97 3-4.627 3-7.55V4ZM9 5.779a10.966 10.966 0 0 1 2-1.03v9.472c-.626.408-1.295.754-2 1.03V5.778ZM7 7.45C5.14 9.42 4 12.077 4 15v1h1c.683 0 1.351-.062 2-.181V7.45ZM15 2C7.82 2 2 7.82 2 15v3h3c7.18 0 13-5.82 13-13V2h-3Z" fill="#C1C1C1"/></symbol><symbol fill="none" viewBox="0 0 20 20" id="fraction--dust" xmlns="http://www.w3.org/2000/svg"><path d="M3 8.6h2.8v2.8H3V8.6ZM3 3h2.8v2.8H3V3ZM3 14.2h2.8V17H3v-2.8ZM8.6 14.2h2.8V17H8.6v-2.8ZM8.6 8.6h2.8v2.8H8.6V8.6ZM8.6 3h2.8v2.8H8.6V3ZM14.2 8.6H17v2.8h-2.8V8.6ZM14.2 3H17v2.8h-2.8V3ZM14.2 14.2H17V17h-2.8v-2.8Z" fill="#C1C1C1"/></symbol><symbol fill="none" viewBox="0 0 20 20" id="fraction--fresh" xmlns="http://www.w3.org/2000/svg"><path d="M4 8.8h12v2.4H4V8.8Z" fill="#C1C1C1"/></symbol><symbol fill="none" viewBox="0 0 20 20" id="fraction--purified" xmlns="http://www.w3.org/2000/svg"><path fill-rule="evenodd" clip-rule="evenodd" d="M10 16a6 6 0 1 0 0-12 6 6 0 0 0 0 12Zm0 2a8 8 0 1 0 0-16 8 8 0 0 0 0 16Z" fill="#C1C1C1"/></symbol><symbol fill="none" viewBox="0 0 20 20" id="fraction--solid" xmlns="http://www.w3.org/2000/svg"><path fill-rule="evenodd" clip-rule="evenodd" d="M16 4h-1C8.925 4 4 8.925 4 15v1h1c6.075 0 11-4.925 11-11V4Zm-1-2C7.82 2 2 7.82 2 15v3h3c7.18 0 13-5.82 13-13V2h-3Z" fill="#C1C1C1"/></symbol><symbol fill="none" viewBox="0 0 20 20" id="globe" xmlns="http://www.w3.org/2000/svg"><path fill-rule="evenodd" clip-rule="evenodd" d="M2.537 9.25h3.476c.07-2.056.428-3.93.991-5.359a8.41 8.41 0 0 1 .437-.943A7.507 7.507 0 0 0 2.537 9.25ZM10 1a9 9 0 1 0 0 18 9 9 0 0 0 0-18Zm0 1.5c-.172 0-.414.085-.716.41-.303.325-.61.836-.884 1.531-.483 1.227-.816 2.907-.886 4.809h4.972c-.07-1.902-.403-3.582-.886-4.809-.274-.695-.58-1.206-.884-1.532-.302-.324-.544-.409-.716-.409Zm3.987 6.75c-.07-2.056-.428-3.93-.991-5.359a8.4 8.4 0 0 0-.437-.943 7.507 7.507 0 0 1 4.904 6.302h-3.476Zm-1.5 1.5H7.513c.07 1.902.403 3.582.886 4.809.273.695.58 1.206.884 1.531.302.325.544.41.716.41.172 0 .414-.085.716-.41.303-.325.61-.836.884-1.531.483-1.227.816-2.907.886-4.809Zm.072 6.302c.16-.292.305-.609.437-.944.563-1.428.92-3.302.991-5.358h3.476a7.507 7.507 0 0 1-4.904 6.302Zm-5.118 0a8.404 8.404 0 0 1-.437-.944c-.563-1.428-.92-3.302-.991-5.358H2.537a7.507 7.507 0 0 0 4.904 6.302Z" fill="#272E35"/></symbol><symbol fill="none" viewBox="0 0 20 20" id="help--outline" xmlns="http://www.w3.org/2000/svg"><path fill-rule="evenodd" clip-rule="evenodd" d="M10 2.5a7.5 7.5 0 1 0 0 15 7.5 7.5 0 0 0 0-15ZM1 10a9 9 0 1 1 18 0 9 9 0 0 1-18 0Zm9-3.5A1.5 1.5 0 0 0 8.5 8 .75.75 0 0 1 7 8a3 3 0 1 1 3.75 2.905v.345a.75.75 0 0 1-1.5 0v-1A.75.75 0 0 1 10 9.5a1.5 1.5 0 0 0 0-3Zm0 6.5a.75.75 0 0 1 .75.75v.5a.75.75 0 0 1-1.5 0v-.5A.75.75 0 0 1 10 13Z" fill="#272E35"/></symbol><symbol fill="none" viewBox="0 0 20 20" id="image" xmlns="http://www.w3.org/2000/svg"><path fill-rule="evenodd" clip-rule="evenodd" d="M1 3.75A2.75 2.75 0 0 1 3.75 1h12.5A2.75 2.75 0 0 1 19 3.75v12.5A2.75 2.75 0 0 1 16.25 19H3.75A2.75 2.75 0 0 1 1 16.25v-3.66a.76.76 0 0 1 0-.012V3.75Zm1.5 9.187v3.313c0 .69.56 1.25 1.25 1.25h12.5c.69 0 1.25-.56 1.25-1.25v-3.174l-3.078-2.873-2.744 1.83 2.113 2.197a.75.75 0 1 1-1.082 1.04L6.941 9.27 2.5 12.937Zm8.121-2.003L7.541 7.73a.75.75 0 0 0-1.018-.058L2.5 10.992V3.75c0-.69.56-1.25 1.25-1.25h12.5c.69 0 1.25.56 1.25 1.25v7.274l-2.488-2.322a.75.75 0 0 0-.928-.076l-3.463 2.308Z" fill="#272E35"/></symbol><symbol fill="none" viewBox="0 0 20 20" id="info--fill" xmlns="http://www.w3.org/2000/svg"><path fill-rule="evenodd" clip-rule="evenodd" d="M10 1a9 9 0 1 0 0 18 9 9 0 0 0 0-18Zm0 4a.75.75 0 0 1 .75.75v1.5a.75.75 0 0 1-1.5 0v-1.5A.75.75 0 0 1 10 5Zm0 5a.75.75 0 0 1 .75.75v3.5a.75.75 0 0 1-1.5 0v-3.5A.75.75 0 0 1 10 10Z" fill="#272E35"/></symbol><symbol fill="none" viewBox="0 0 20 20" id="info--outline" xmlns="http://www.w3.org/2000/svg"><path fill-rule="evenodd" clip-rule="evenodd" d="M10 2.5a7.5 7.5 0 1 0 0 15 7.5 7.5 0 0 0 0-15ZM1 10a9 9 0 1 1 18 0 9 9 0 0 1-18 0Zm9-5a.75.75 0 0 1 .75.75v1.5a.75.75 0 0 1-1.5 0v-1.5A.75.75 0 0 1 10 5Zm0 5a.75.75 0 0 1 .75.75v3.5a.75.75 0 0 1-1.5 0v-3.5A.75.75 0 0 1 10 10Z" fill="#272E35"/></symbol><symbol fill="none" viewBox="0 0 32 32" id="interactive--favorite" xmlns="http://www.w3.org/2000/svg"><path style="transition:fill .35s ease" fill-rule="evenodd" clip-rule="evenodd" d="M3.59 15.07c-1.432-4.74.588-10.068 5.28-11.671 2.468-.845 5.34.485 7.392 2.122 1.94-1.592 4.926-2.96 7.392-2.122 4.692 1.603 6.71 6.931 5.28 11.67-2.228 7.513-12.672 13.794-12.672 13.794S5.892 22.67 3.59 15.07Z" fill="var(--color-fill)"/><path style="transition:fill .35s ease" fill-rule="evenodd" clip-rule="evenodd" d="m15.394 30.123-.004-.002-.007-.005-.027-.015-.098-.06a41.667 41.667 0 0 1-1.649-1.065 48.082 48.082 0 0 1-4.057-3.081c-3.022-2.568-6.53-6.254-7.83-10.453C.09 10.143 2.354 3.979 7.96 2.103c1.596-.534 3.257-.358 4.746.132 1.165.383 2.273.973 3.248 1.639 2.453-1.897 5.286-2.705 8.087-1.771 5.605 1.875 7.87 8.037 6.24 13.335-1.261 4.16-4.775 7.848-7.802 10.423a48.948 48.948 0 0 1-5.369 3.953 28.458 28.458 0 0 1-.462.285l-.026.015-.008.005-.002.001c-.32.19-.324-1.523-1.217.003ZM23.28 4.379c-2.017-.672-4.274-.06-6.48 1.91a1.2 1.2 0 0 1-1.539.051c-.981-.766-2.137-1.44-3.306-1.825-1.171-.386-2.278-.456-3.234-.136-4.118 1.378-6.038 6.031-4.706 10.354 1.088 3.515 4.144 6.829 7.091 9.333a45.686 45.686 0 0 0 4.892 3.61 46.535 46.535 0 0 0 4.924-3.644c2.961-2.517 6.012-5.828 7.061-9.293l.002-.005c1.332-4.323-.587-8.976-4.705-10.355Z" fill="var(--color-stroke)"/><path style="transition:fill .35s ease" d="M15.394 30.123c.375.22.842.218 1.217-.003-.32.19-.324-1.523-1.217.003Z" fill="var(--color-stroke)"/></symbol><symbol viewBox="0 0 20 20" fill="none" id="interactive--star-half" xmlns="http://www.w3.org/2000/svg"><path fill="var(--color-bg)" d="M8.437 2.005c.414-.877 1.46-1.27 2.343-.815.346.178.619.467.783.815l1.785 3.78a.242.242 0 0 0 .177.143l3.993.606c.973.148 1.595 1.073 1.465 2.013-.053.38-.225.737-.496 1.013l-2.889 2.942a.31.31 0 0 0-.079.264l.721 4.157c.16.979-.525 1.884-1.452 2.05a1.7 1.7 0 0 1-1.12-.184l-3.57-1.962a.2.2 0 0 0-.196 0l-3.57 1.962c-.872.478-1.928.113-2.364-.753a1.822 1.822 0 0 1-.17-1.113l.682-4.155a.31.31 0 0 0-.078-.266L1.512 9.56a1.814 1.814 0 0 1-.03-2.495 1.722 1.722 0 0 1 1-.531l3.992-.606a.242.242 0 0 0 .178-.143l1.785-3.78Z"/><path d="M9.002 1.324c-.236.17-.433.4-.565.68L6.652 5.786a.242.242 0 0 1-.178.143l-3.992.606a1.722 1.722 0 0 0-1 .53c-.654.701-.641 1.811.03 2.496l2.89 2.942a.31.31 0 0 1 .078.266l-.682 4.155c-.062.379-.003.769.17 1.113.436.866 1.492 1.231 2.363.753l3.57-1.962a.2.2 0 0 1 .197 0l3.57 1.962c.207.113.433.182.664.203a32.84 32.84 0 0 1-5.33-17.668Z" fill="var(--color-main)"/></symbol><symbol fill="none" viewBox="0 0 20 20" id="link" xmlns="http://www.w3.org/2000/svg"><path fill-rule="evenodd" clip-rule="evenodd" d="M14.405 2.504a9.627 9.627 0 0 0-.398-.004h-.178a3.25 3.25 0 0 0-2.291 1.023L9.28 5.78c-.165.166-.229.23-.278.284a3.25 3.25 0 0 0 0 4.372c.049.054.113.118.278.284l.25.25a.75.75 0 1 1-1.06 1.06l-.267-.266a10.013 10.013 0 0 1-.311-.319 4.75 4.75 0 0 1 0-6.39c.076-.084.168-.175.311-.32l2.274-2.273.007-.007c.063-.063.104-.104.145-.143a4.75 4.75 0 0 1 3.165-1.31C13.85 1 13.908 1 13.998 1h.033c.203 0 .332 0 .445.005a4.75 4.75 0 0 1 4.519 4.519c.005.113.005.242.005.446v.032l-.001.204a4.75 4.75 0 0 1-1.455 3.31l-.006.007-1.258 1.257a.75.75 0 1 1-1.06-1.06l1.257-1.258.125-.126A3.25 3.25 0 0 0 17.5 6.17l.001-.178c0-.234 0-.325-.004-.398a3.25 3.25 0 0 0-3.091-3.091ZM10.47 9.03a.75.75 0 0 1 1.06-1.06l.267.266c.143.144.235.235.311.319a4.75 4.75 0 0 1 0 6.39c-.076.084-.168.175-.311.32l-2.274 2.273-.007.007c-.063.063-.104.104-.145.143a4.75 4.75 0 0 1-3.165 1.31C6.15 19 6.092 19 6.002 19H5.97c-.204 0-.333 0-.446-.005a4.75 4.75 0 0 1-4.519-4.519A9.965 9.965 0 0 1 1 14.03v-.032l.001-.204a4.75 4.75 0 0 1 1.311-3.165c.04-.041.08-.082.144-.145L3.72 9.22a.75.75 0 0 1 1.06 1.06l-1.257 1.258a3.25 3.25 0 0 0-1.023 2.47c0 .233 0 .324.004.397a3.25 3.25 0 0 0 3.091 3.091c.073.004.164.004.398.004h.178a3.25 3.25 0 0 0 2.291-1.023l2.258-2.257c.165-.166.229-.23.278-.284a3.25 3.25 0 0 0 0-4.372 9.8 9.8 0 0 0-.278-.284l-.25-.25Z" fill="#272E35"/></symbol><symbol fill="none" viewBox="0 0 20 20" id="location" xmlns="http://www.w3.org/2000/svg"><g clip-path="url(#cta)"><path d="m2.213 8.092 13.526-6.44c1.275-.608 2.606.723 1.999 1.999l-6.441 13.526c-.474.995-1.912.934-2.3-.099l-1.623-4.331a1.25 1.25 0 0 0-.732-.732l-4.33-1.624c-1.034-.387-1.095-1.824-.1-2.299Z" fill="#262626"/></g><defs><clipPath id="cta"><path fill="#fff" d="M0 0h20v20H0z"/></clipPath></defs></symbol><symbol fill="none" viewBox="0 0 20 20" id="location-pin" xmlns="http://www.w3.org/2000/svg"><path fill-rule="evenodd" clip-rule="evenodd" d="M8.457 8.659c0-.862.69-1.561 1.543-1.561h.008c.852 0 1.543.699 1.543 1.56v.01c0 .861-.69 1.56-1.543 1.56H10a1.552 1.552 0 0 1-1.543-1.56v-.01Z" fill="#262626"/><path fill-rule="evenodd" clip-rule="evenodd" d="M13.798 4.816a5.327 5.327 0 0 0-7.596 0 5.48 5.48 0 0 0 0 7.686L10 16.345l3.798-3.843a5.48 5.48 0 0 0 0-7.686Zm-9.05-1.472a7.368 7.368 0 0 1 10.505 0c2.9 2.935 2.9 7.694 0 10.63l-4.526 4.578a1.02 1.02 0 0 1-1.454 0l-4.526-4.578c-2.9-2.936-2.9-7.695 0-10.63Z" fill="#262626"/></symbol><symbol fill="none" viewBox="0 0 20 20" id="lock" xmlns="http://www.w3.org/2000/svg"><path fill-rule="evenodd" clip-rule="evenodd" d="M6 5a4 4 0 1 1 8 0v3h1.25A2.75 2.75 0 0 1 18 10.75v5.5A2.75 2.75 0 0 1 15.25 19H4.75A2.75 2.75 0 0 1 2 16.25v-5.5A2.75 2.75 0 0 1 4.75 8H6V5Zm1.5 3h5V5a2.5 2.5 0 0 0-5 0v3ZM4.75 9.5c-.69 0-1.25.56-1.25 1.25v5.5c0 .69.56 1.25 1.25 1.25h10.5c.69 0 1.25-.56 1.25-1.25v-5.5c0-.69-.56-1.25-1.25-1.25H4.75ZM10 12a.75.75 0 0 1 .75.75v1.5a.75.75 0 0 1-1.5 0v-1.5A.75.75 0 0 1 10 12Z" fill="#272E35"/></symbol><symbol fill="none" viewBox="0 0 20 20" id="log-in" xmlns="http://www.w3.org/2000/svg"><path fill-rule="evenodd" clip-rule="evenodd" d="M2 10a.75.75 0 0 1 .75-.75h6.787L7.699 7.259A.75.75 0 1 1 8.8 6.24l3 3.25a.75.75 0 0 1 0 1.018l-3 3.25A.75.75 0 1 1 7.7 12.74l1.838-1.991H2.75A.75.75 0 0 1 2 10Zm8 8.25a.75.75 0 0 1 .75-.75h4.5c.69 0 1.25-.56 1.25-1.25V3.75c0-.69-.56-1.25-1.25-1.25h-4.5a.75.75 0 0 1 0-1.5h4.5A2.75 2.75 0 0 1 18 3.75v12.5A2.75 2.75 0 0 1 15.25 19h-4.5a.75.75 0 0 1-.75-.75Z" fill="#272E35"/></symbol><symbol fill="none" viewBox="0 0 20 20" id="log-out" xmlns="http://www.w3.org/2000/svg"><path fill-rule="evenodd" clip-rule="evenodd" d="M17.801 10.509a.75.75 0 0 0 0-1.018l-3-3.25A.75.75 0 1 0 13.7 7.26l1.838 1.991H8.75a.75.75 0 0 0 0 1.5h6.787l-1.838 1.991A.75.75 0 1 0 14.8 13.76l3-3.25ZM10 18.25a.75.75 0 0 0-.75-.75h-4.5c-.69 0-1.25-.56-1.25-1.25V3.75c0-.69.56-1.25 1.25-1.25h4.5a.75.75 0 0 0 0-1.5h-4.5A2.75 2.75 0 0 0 2 3.75v12.5A2.75 2.75 0 0 0 4.75 19h4.5a.75.75 0 0 0 .75-.75Z" fill="#272E35"/></symbol><symbol viewBox="0 0 20 20" id="logo--dzen" xmlns="http://www.w3.org/2000/svg"><path fill-rule="evenodd" clip-rule="evenodd" d="M9.998.406C9.996.272 9.995.136 9.995 0 4.148.184.013 5.08 0 10h.197l.592-.015c.465-.01.93-.02 1.395-.043 1.128-.057 2.252-.154 3.35-.442 1.174-.309 2.193-.867 2.957-1.833.622-.786.947-1.7 1.147-2.667.254-1.234.314-2.486.355-3.739.01-.283.007-.567.005-.855ZM20 9.996C19.961 4.94 15.72.163 10 0v.273c.006.18.01.361.013.542.01.427.018.854.04 1.28.053 1.092.14 2.182.398 3.25.297 1.232.844 2.315 1.854 3.123.851.68 1.848 1.012 2.9 1.21 1.179.22 2.372.276 3.567.315.28.01.56.007.841.005L20 9.996ZM10.004 20c5.143-.06 9.85-4.358 9.996-9.999h-.113c-.07-.001-.135-.002-.2 0l-.51.012c-.424.01-.848.018-1.272.039-1.146.056-2.29.149-3.406.438-1.296.336-2.394.97-3.17 2.093-.553.798-.833 1.701-1.007 2.644-.226 1.218-.278 2.453-.317 3.687-.007.248-.005.496-.003.744l.002.342Zm-.005 0C5.017 19.965.177 15.805 0 10.021l.04-.009C.07 10.006.1 10 .13 10c1.55.018 3.101.052 4.633.329 1.094.197 2.126.544 2.998 1.268.914.757 1.44 1.748 1.739 2.877.29 1.096.385 2.219.442 3.345.023.46.033.921.043 1.382l.014.582c.002.049.001.097 0 .145V20Z"/></symbol><symbol viewBox="0 0 20 20" id="logo--ok" xmlns="http://www.w3.org/2000/svg"><path fill-rule="evenodd" clip-rule="evenodd" d="M17.194.715C16.203.185 15.25 0 13.264 0H6.736c-1.984 0-2.939.184-3.93.715a5.04 5.04 0 0 0-2.091 2.09C.185 3.798 0 4.753 0 6.737v6.528c0 1.985.184 2.939.715 3.93a5.04 5.04 0 0 0 2.09 2.091c.992.53 1.947.715 3.931.715h6.528c1.985 0 2.939-.184 3.93-.715a5.04 5.04 0 0 0 2.091-2.09c.53-.992.715-1.947.715-3.931V6.736c0-1.984-.184-2.939-.715-3.93a5.04 5.04 0 0 0-2.09-2.091Zm-6.543 11.817c.647-.071 1.626-.26 2.338-.735.847-.577 1.218-.913.896-1.616-.195-.399-.72-.732-1.418-.156 0 0-.943.79-2.466.79-1.522 0-2.465-.79-2.465-.79-.698-.58-1.226-.243-1.418.156-.327.703.044 1.039.891 1.613.72.486 1.714.664 2.353.735l-.535.563c-.527.55-1.036 1.087-1.466 1.542l-.516.544c-.732.768.447 2.001 1.18 1.25l1.982-2.092c.758.798 1.486 1.564 1.982 2.094.732.754 1.911-.467 1.187-1.25l-1.982-2.085-.543-.563Zm-.652-9.865c-1.855 0-3.37 1.585-3.37 3.545C6.63 8.164 8.145 9.75 10 9.75c1.855 0 3.369-1.585 3.369-3.537 0-1.96-1.514-3.545-3.37-3.545Zm0 5.286c-.912 0-1.655-.781-1.655-1.74 0-.969.743-1.75 1.655-1.75s1.655.781 1.655 1.75c0 .959-.743 1.74-1.655 1.74Z"/></symbol><symbol viewBox="0 0 20 20" id="logo--telegram" xmlns="http://www.w3.org/2000/svg"><path fill-rule="evenodd" clip-rule="evenodd" d="M10 20c5.523 0 10-4.477 10-10S15.523 0 10 0 0 4.477 0 10s4.477 10 10 10ZM4.53 8.92l10.038-3.53c.458-.189.901.101.726.74l-1.71 7.346c-.119.523-.463.647-.944.406l-2.604-1.754-1.252 1.11-.014.012c-.14.123-.255.225-.507.225l.178-2.422H8.44l4.832-3.976c.212-.172-.046-.256-.328-.1l-5.963 3.431-2.578-.733c-.555-.155-.559-.504.126-.755Z"/></symbol><symbol viewBox="0 0 20 20" id="logo--vk" xmlns="http://www.w3.org/2000/svg"><path fill-rule="evenodd" clip-rule="evenodd" d="M17.194.715C16.203.185 15.25 0 13.264 0H6.736c-1.984 0-2.939.184-3.93.715a5.04 5.04 0 0 0-2.091 2.09C.185 3.798 0 4.753 0 6.737v6.528c0 1.985.184 2.939.715 3.93a5.04 5.04 0 0 0 2.09 2.091c.992.53 1.947.715 3.931.715h6.528c1.985 0 2.939-.184 3.93-.715a5.04 5.04 0 0 0 2.091-2.09c.53-.992.715-1.947.715-3.931V6.736c0-1.984-.184-2.939-.715-3.93a5.04 5.04 0 0 0-2.09-2.091ZM4 6.667C4.096 11.247 6.556 14 10.61 14h.235v-2.615c1.476.147 2.577 1.221 3.026 2.615H16c-.577-2.085-2.075-3.24-3.005-3.68.93-.545 2.246-1.861 2.556-3.653h-1.937c-.406 1.457-1.615 2.78-2.77 2.905V6.667H8.876v5.08c-1.197-.294-2.759-1.716-2.823-5.08H4Z"/></symbol><symbol fill="none" viewBox="0 0 20 20" id="main" xmlns="http://www.w3.org/2000/svg"><path fill-rule="evenodd" clip-rule="evenodd" d="M2.564 5.353 10 9.635l7.436-4.282A1.25 1.25 0 0 0 16.25 4.5H3.75a1.25 1.25 0 0 0-1.186.853ZM17.5 7.047l-7.126 4.103a.75.75 0 0 1-.748 0L2.5 7.047v7.203c0 .69.56 1.25 1.25 1.25h12.5c.69 0 1.25-.56 1.25-1.25V7.047ZM1 5.75A2.75 2.75 0 0 1 3.75 3h12.5A2.75 2.75 0 0 1 19 5.75v8.5A2.75 2.75 0 0 1 16.25 17H3.75A2.75 2.75 0 0 1 1 14.25v-8.5Z" fill="#272E35"/></symbol><symbol viewBox="0 0 20 20" id="menu" xmlns="http://www.w3.org/2000/svg"><path fill-rule="evenodd" clip-rule="evenodd" d="M3.333 5.833c0-.46.373-.833.834-.833h11.666a.833.833 0 1 1 0 1.667H4.167a.833.833 0 0 1-.834-.834ZM3.333 10c0-.46.373-.833.834-.833h11.666a.833.833 0 1 1 0 1.666H4.167A.833.833 0 0 1 3.333 10ZM3.333 14.167c0-.46.373-.834.834-.834H12.5a.833.833 0 0 1 0 1.667H4.167a.833.833 0 0 1-.834-.833Z"/></symbol><symbol fill="none" viewBox="0 0 20 20" id="message" xmlns="http://www.w3.org/2000/svg"><path fill-rule="evenodd" clip-rule="evenodd" d="M1 4.75A2.75 2.75 0 0 1 3.75 2h12.5A2.75 2.75 0 0 1 19 4.75v7.5A2.75 2.75 0 0 1 16.25 15h-5.63a.25.25 0 0 0-.163.06l-3.219 2.76A.75.75 0 0 1 6 17.25v-2a.25.25 0 0 0-.25-.25h-2A2.75 2.75 0 0 1 1 12.25v-7.5ZM3.75 3.5c-.69 0-1.25.56-1.25 1.25v7.5c0 .69.56 1.25 1.25 1.25h2c.966 0 1.75.784 1.75 1.75v.37l1.981-1.699a1.75 1.75 0 0 1 1.139-.421h5.63c.69 0 1.25-.56 1.25-1.25v-7.5c0-.69-.56-1.25-1.25-1.25H3.75Z" fill="#272E35"/></symbol><symbol fill="none" viewBox="0 0 20 20" id="minus" xmlns="http://www.w3.org/2000/svg"><path fill-rule="evenodd" clip-rule="evenodd" d="M4 10a.75.75 0 0 1 .75-.75h10.5a.75.75 0 0 1 0 1.5H4.75A.75.75 0 0 1 4 10Z" fill="#272E35"/></symbol><symbol fill="none" viewBox="0 0 24 24" id="more" xmlns="http://www.w3.org/2000/svg"><path fill-rule="evenodd" clip-rule="evenodd" d="M5.7 12a1.8 1.8 0 1 1-3.6 0 1.8 1.8 0 0 1 3.6 0Zm8.1 0a1.8 1.8 0 1 1-3.6 0 1.8 1.8 0 0 1 3.6 0Zm6.3 1.8a1.8 1.8 0 1 0 0-3.6 1.8 1.8 0 0 0 0 3.6Z" fill="#272E35"/></symbol><symbol fill="none" viewBox="0 0 20 20" id="more--vertical" xmlns="http://www.w3.org/2000/svg"><path fill-rule="evenodd" clip-rule="evenodd" d="M10 4.75a1.5 1.5 0 1 1 0-3 1.5 1.5 0 0 1 0 3Zm0 6.75a1.5 1.5 0 1 1 0-3 1.5 1.5 0 0 1 0 3Zm-1.5 5.25a1.5 1.5 0 1 0 3 0 1.5 1.5 0 0 0-3 0Z" fill="#272E35"/></symbol><symbol fill="none" viewBox="0 0 20 20" id="open-in-new" xmlns="http://www.w3.org/2000/svg"><path fill-rule="evenodd" clip-rule="evenodd" d="M14 1.75a.75.75 0 0 1 .75-.75h3.5a.75.75 0 0 1 .75.75v3.5a.75.75 0 0 1-1.5 0V3.56l-5.97 5.97a.75.75 0 1 1-1.06-1.06l5.97-5.97h-1.69a.75.75 0 0 1-.75-.75Zm-13 3A2.75 2.75 0 0 1 3.75 2H9a.75.75 0 0 1 0 1.5H3.75c-.69 0-1.25.56-1.25 1.25v11.5c0 .69.56 1.25 1.25 1.25h11.5c.69 0 1.25-.56 1.25-1.25V11a.75.75 0 0 1 1.5 0v5.25A2.75 2.75 0 0 1 15.25 19H3.75A2.75 2.75 0 0 1 1 16.25V4.75Z" fill="#272E35"/></symbol><symbol fill="none" viewBox="0 0 20 20" id="package" xmlns="http://www.w3.org/2000/svg"><path fill-rule="evenodd" clip-rule="evenodd" d="M9.657 1.083a.75.75 0 0 1 .687 0l8.25 4.25A.75.75 0 0 1 19 6v8a.75.75 0 0 1-.407.667l-8.25 4.25a.75.75 0 0 1-.686 0l-8.25-4.25A.75.75 0 0 1 1 14V6a.75.75 0 0 1 .407-.667l8.25-4.25ZM2.5 7.197v6.346l6.75 3.477v-6.55L2.5 7.197Zm8.25 3.273v6.55l6.75-3.477V7.197l-6.75 3.273Zm5.823-4.49-2.506 1.215L7.47 3.897 10 2.594l6.573 3.386ZM5.818 4.748 3.429 5.98 10 9.166l2.364-1.146-6.546-3.272Z" fill="#272E35"/></symbol><symbol fill="none" viewBox="0 0 20 20" id="paperplane" xmlns="http://www.w3.org/2000/svg"><path fill-rule="evenodd" clip-rule="evenodd" d="M18.672 1.13c.236.16.36.44.321.722l-2 14.5a.75.75 0 0 1-.998.603l-4.8-1.738-2.052 3.419a.75.75 0 0 1-1.373-.212l-1.158-4.866-5.117-1.853a.75.75 0 0 1-.112-1.36l16.5-9.25a.75.75 0 0 1 .79.035ZM8.3 14.17l.504 2.117.954-1.59L8.3 14.17Zm.308-1.484 8.59-8.785-1.563 11.33-7.027-2.545Zm5.461-7.73-7.01 7.17-3.512-1.272 10.522-5.899Z" fill="#272E35"/></symbol><symbol fill="none" viewBox="0 0 46 46" id="play" xmlns="http://www.w3.org/2000/svg"><path d="M3 37.533V8.821c0-3.885 4.235-6.286 7.568-4.29l24.968 14.946c3.31 1.981 3.224 6.806-.154 8.669L10.414 41.912C7.082 43.749 3 41.339 3 37.533Z" fill="#78DA76"/></symbol><symbol fill="none" viewBox="0 0 20 20" id="plus" xmlns="http://www.w3.org/2000/svg"><path fill-rule="evenodd" clip-rule="evenodd" d="M10 4a.75.75 0 0 1 .75.75v4.5h4.5a.75.75 0 0 1 0 1.5h-4.5v4.5a.75.75 0 0 1-1.5 0v-4.5h-4.5a.75.75 0 0 1 0-1.5h4.5v-4.5A.75.75 0 0 1 10 4Z" fill="#272E35"/></symbol><symbol fill="none" viewBox="0 0 20 20" id="profile" xmlns="http://www.w3.org/2000/svg"><path fill-rule="evenodd" clip-rule="evenodd" d="M10 4C8.47 4 7.25 5.223 7.25 6.706c0 1.483 1.22 2.706 2.75 2.706s2.75-1.223 2.75-2.706C12.75 5.223 11.53 4 10 4ZM5.25 6.706C5.25 4.096 7.388 2 10 2s4.75 2.096 4.75 4.706c0 2.61-2.138 4.706-4.75 4.706S5.25 9.316 5.25 6.706Zm4.75 8c-2.613 0-5.001 1.124-6.776 2.984a1 1 0 1 1-1.448-1.38c2.118-2.22 5.016-3.604 8.224-3.604 3.209 0 6.106 1.384 8.224 3.604a1 1 0 1 1-1.448 1.38c-1.775-1.86-4.163-2.984-6.776-2.984Z" fill="#262626"/></symbol><symbol fill="none" viewBox="0 0 20 20" id="profile-check" xmlns="http://www.w3.org/2000/svg"><g clip-path="url(#dia)"><path fill-rule="evenodd" clip-rule="evenodd" d="M10 2.5a2.5 2.5 0 1 0 0 5 2.5 2.5 0 0 0 0-5ZM6 5a4 4 0 1 1 8 0 4 4 0 0 1-8 0ZM3 16.625A5.625 5.625 0 0 1 8.625 11h2.125a.75.75 0 0 1 0 1.5H8.625A4.125 4.125 0 0 0 4.5 16.625c0 .483.392.875.875.875H8.75a.75.75 0 0 1 0 1.5H5.375A2.375 2.375 0 0 1 3 16.625Zm16.765-3.42a.75.75 0 0 1 .03 1.06l-4.25 4.5a.75.75 0 0 1-1.102-.013l-2.25-2.5a.75.75 0 1 1 1.114-1.004l1.706 1.896 3.692-3.909a.75.75 0 0 1 1.06-.03Z" fill="#272E35"/></g><defs><clipPath id="dia"><path fill="#fff" d="M0 0h20v20H0z"/></clipPath></defs></symbol><symbol fill="none" viewBox="0 0 18 18" id="protect" xmlns="http://www.w3.org/2000/svg"><path fill-rule="evenodd" clip-rule="evenodd" d="M9.084 17.982c-.142-.03-.242-.089-.444-.206C6.87 16.742 2 13.496 2 9.032V4.683c0-.727 0-1.09.119-1.403.105-.276.276-.522.497-.718.251-.22.591-.348 1.272-.604L8.764.13c.19-.071.284-.107.381-.12a.91.91 0 0 1 .26 0c.097.013.192.049.381.12l4.876 1.828c.68.256 1.021.383 1.272.604.222.196.392.442.497.718.12.312.12.676.12 1.403v4.349c0 4.464-4.87 7.71-6.641 8.744-.202.117-.302.176-.444.206-.11.024-.271.024-.382 0Zm4.017-10.188a.91.91 0 1 0-1.286-1.286l-3.45 3.45L7.19 8.781a.91.91 0 1 0-1.286 1.286l1.819 1.818a.91.91 0 0 0 1.286 0L13.1 7.794Z" fill="#78DA76"/></symbol><symbol fill="none" viewBox="0 0 20 20" id="receipt" xmlns="http://www.w3.org/2000/svg"><path fill-rule="evenodd" clip-rule="evenodd" d="M4.25 2.5a1 1 0 0 0-1 1v13.425l1.364-.818a.75.75 0 0 1 .721-.028L8 17.411l2.665-1.332a.75.75 0 0 1 .694.013l1.641.895V3.5c0-.356.074-.694.208-1H4.25Zm11.088-1.495A.758.758 0 0 0 15.25 1h-11a2.5 2.5 0 0 0-2.5 2.5v14.75a.75.75 0 0 0 1.136.643l2.147-1.288 2.632 1.316a.75.75 0 0 0 .67 0l2.65-1.325 2.406 1.312a.75.75 0 0 0 1.109-.658V8.5h2.363c.058 0 .139 0 .212-.006.088-.007.229-.027.379-.103a1 1 0 0 0 .437-.437c.077-.15.096-.29.103-.379.006-.073.006-.154.006-.212V3.5a2.5 2.5 0 0 0-2.662-2.495ZM14.5 7h2V3.5a1 1 0 1 0-2 0V7ZM5 6.25a.75.75 0 0 1 .75-.75h4.5a.75.75 0 0 1 0 1.5h-4.5A.75.75 0 0 1 5 6.25ZM5 9.5a.75.75 0 0 1 .75-.75h4.5a.75.75 0 0 1 0 1.5h-4.5A.75.75 0 0 1 5 9.5Zm0 3.25a.75.75 0 0 1 .75-.75h4.5a.75.75 0 0 1 0 1.5h-4.5a.75.75 0 0 1-.75-.75Z" fill="#272E35"/></symbol><symbol viewBox="0 0 20 20" id="search" xmlns="http://www.w3.org/2000/svg"><path fill-rule="evenodd" clip-rule="evenodd" d="M8.667 3.333a5.333 5.333 0 1 0 0 10.667 5.333 5.333 0 0 0 0-10.667ZM2 8.667a6.667 6.667 0 1 1 11.829 4.219l3.976 3.976a.667.667 0 1 1-.943.943l-3.976-3.976A6.667 6.667 0 0 1 2 8.667Z"/></symbol><symbol fill="none" viewBox="0 0 20 20" id="share" xmlns="http://www.w3.org/2000/svg"><path fill-rule="evenodd" clip-rule="evenodd" d="M16 2.5a1.5 1.5 0 1 0 0 3 1.5 1.5 0 0 0 0-3ZM13 4a3 3 0 1 1 .737 1.97L6.934 9.37a3.012 3.012 0 0 1 0 1.258l6.803 3.401a3 3 0 1 1-.671 1.341L6.263 11.97a3 3 0 1 1 0-3.94l6.803-3.402A3.012 3.012 0 0 1 13 4ZM4 8.5a1.5 1.5 0 1 0 0 3 1.5 1.5 0 0 0 0-3Zm12 6a1.5 1.5 0 1 0 0 3 1.5 1.5 0 0 0 0-3Z" fill="#272E35"/></symbol><symbol viewBox="0 0 20 20" id="star" xmlns="http://www.w3.org/2000/svg"><path d="M8.59 6.017c.534-1.334.802-2.001 1.237-2.094a.833.833 0 0 1 .346 0c.435.093.703.76 1.238 2.094.304.758.456 1.137.74 1.395.08.073.167.137.26.193.329.198.74.235 1.56.309 1.391.124 2.087.186 2.299.583a.833.833 0 0 1 .088.263c.07.444-.44.909-1.463 1.84l-.284.257c-.477.435-.716.653-.855.924a1.664 1.664 0 0 0-.164.519c-.044.301.026.617.166 1.247l.05.226c.251 1.131.377 1.697.22 1.975-.14.25-.4.41-.686.423-.319.015-.768-.35-1.666-1.083-.592-.482-.888-.723-1.217-.817a1.666 1.666 0 0 0-.918 0c-.329.094-.625.335-1.217.817-.898.732-1.347 1.098-1.666 1.083a.833.833 0 0 1-.686-.423c-.157-.278-.031-.844.22-1.975l.05-.226c.14-.63.21-.946.166-1.247a1.667 1.667 0 0 0-.164-.519c-.139-.271-.378-.489-.856-.924l-.283-.258C4.082 9.67 3.57 9.204 3.64 8.76a.833.833 0 0 1 .089-.262c.212-.397.908-.459 2.298-.583.822-.074 1.232-.11 1.562-.31.092-.055.178-.12.258-.192.285-.258.437-.637.741-1.395Z"/></symbol><symbol fill="none" viewBox="0 0 20 20" id="star-half" xmlns="http://www.w3.org/2000/svg"><path fill-rule="evenodd" clip-rule="evenodd" d="M9.002 1.324c-.236.17-.433.4-.565.68L6.652 5.786a.242.242 0 0 1-.178.143l-3.992.606a1.722 1.722 0 0 0-1 .53c-.654.701-.641 1.811.03 2.496l2.89 2.942a.31.31 0 0 1 .078.266l-.682 4.155c-.062.379-.003.769.17 1.113.436.866 1.492 1.231 2.363.753l3.57-1.962a.2.2 0 0 1 .197 0l3.57 1.962c.207.113.433.182.664.203a32.84 32.84 0 0 1-5.33-17.668Z" fill="#272E35"/></symbol><symbol viewBox="0 0 20 20" id="star-large" xmlns="http://www.w3.org/2000/svg"><path d="M8.437 2.005c.414-.877 1.46-1.27 2.343-.815.346.178.619.467.783.815l1.785 3.78a.242.242 0 0 0 .177.143l3.993.606c.973.148 1.595 1.073 1.465 2.013-.053.38-.225.737-.496 1.013l-2.889 2.942a.31.31 0 0 0-.079.264l.721 4.157c.16.979-.525 1.884-1.452 2.05a1.7 1.7 0 0 1-1.12-.184l-3.57-1.962a.2.2 0 0 0-.196 0l-3.57 1.962c-.872.478-1.928.113-2.364-.753a1.822 1.822 0 0 1-.17-1.113l.682-4.155a.31.31 0 0 0-.078-.266L1.512 9.56a1.814 1.814 0 0 1-.03-2.495 1.722 1.722 0 0 1 1-.531l3.992-.606a.242.242 0 0 0 .178-.143l1.785-3.78Z"/></symbol><symbol fill="none" viewBox="0 0 20 20" id="star-large--outline" xmlns="http://www.w3.org/2000/svg"><path fill-rule="evenodd" clip-rule="evenodd" d="M10.093 2.523c-.094-.048-.231-.023-.3.122l-1.785 3.78a1.74 1.74 0 0 1-1.308.986l-3.993.606a.223.223 0 0 0-.128.07.315.315 0 0 0 .004.422l2.889 2.942c.404.412.581.995.489 1.56l-.682 4.155a.322.322 0 0 0 .029.195c.07.142.207.165.301.113l3.57-1.962a1.7 1.7 0 0 1 1.641 0l3.57 1.962a.2.2 0 0 0 .133.023.296.296 0 0 0 .183-.122.28.28 0 0 0 .054-.207l-.72-4.157a1.81 1.81 0 0 1 .488-1.56l2.889-2.942c.04-.041.07-.1.08-.168.026-.186-.1-.308-.204-.324L13.3 7.411a1.74 1.74 0 0 1-1.308-.985l-1.786-3.78a.26.26 0 0 0-.113-.123Zm-1.656-.518c.414-.877 1.46-1.27 2.343-.815.346.178.619.467.783.815l1.785 3.78a.242.242 0 0 0 .177.143l3.993.606c.973.148 1.595 1.073 1.465 2.013-.053.38-.225.737-.496 1.013l-2.889 2.942a.31.31 0 0 0-.079.264l.721 4.157c.16.98-.525 1.884-1.452 2.05a1.7 1.7 0 0 1-1.12-.184l-3.57-1.962a.199.199 0 0 0-.196 0l-3.57 1.962c-.872.478-1.928.113-2.364-.753a1.822 1.822 0 0 1-.17-1.113l.682-4.155a.31.31 0 0 0-.078-.266L1.512 9.56a1.814 1.814 0 0 1-.03-2.495 1.722 1.722 0 0 1 1-.53l3.992-.607a.242.242 0 0 0 .178-.143l1.785-3.78Z" fill="#272E35"/></symbol><symbol fill="none" viewBox="0 0 20 20" id="success--colored" xmlns="http://www.w3.org/2000/svg"><circle cx="10" cy="10" r="8" fill="#78DA76"/><path fill-rule="evenodd" clip-rule="evenodd" d="M14.143 7.293a1 1 0 0 1 0 1.414l-4 4a1 1 0 0 1-1.414 0l-2-2a1 1 0 1 1 1.414-1.414l1.293 1.293 3.293-3.293a1 1 0 0 1 1.414 0Z" fill="#fff"/></symbol><symbol fill="none" viewBox="0 0 20 20" id="swap" xmlns="http://www.w3.org/2000/svg"><path fill-rule="evenodd" clip-rule="evenodd" d="M6.993 2.197a.75.75 0 0 1 1.014 0l3 2.75a.75.75 0 0 1-1.014 1.106L8.25 4.455v6.795a.75.75 0 0 1-1.5 0V4.455L5.007 6.053a.75.75 0 0 1-1.014-1.106l3-2.75ZM12.5 8a.75.75 0 0 1 .75.75v6.795l1.743-1.598a.75.75 0 0 1 1.014 1.106l-3 2.75a.75.75 0 0 1-1.014 0l-3-2.75a.75.75 0 0 1 1.014-1.106l1.743 1.598V8.75A.75.75 0 0 1 12.5 8Z" fill="#272E35"/></symbol><symbol fill="none" viewBox="0 0 20 20" id="trend-down" xmlns="http://www.w3.org/2000/svg"><path fill-rule="evenodd" clip-rule="evenodd" d="M1.27 4.174a.75.75 0 0 1 1.056.096L6.87 9.723 10.3 7.15a.75.75 0 0 1 .98.07l6.22 6.22V9.75a.75.75 0 0 1 1.5 0v5.5a.75.75 0 0 1-.75.75h-5.5a.75.75 0 0 1 0-1.5h3.69l-5.76-5.76-3.48 2.61a.75.75 0 0 1-1.026-.12l-5-6a.75.75 0 0 1 .096-1.056Z" fill="#272E35"/></symbol><symbol fill="none" viewBox="0 0 20 20" id="trend-up" xmlns="http://www.w3.org/2000/svg"><path fill-rule="evenodd" clip-rule="evenodd" d="M12 4.75a.75.75 0 0 1 .75-.75h5.5a.75.75 0 0 1 .75.75v5.5a.75.75 0 0 1-1.5 0V6.56l-6.22 6.22a.75.75 0 0 1-.98.07l-3.43-2.572-4.544 5.452a.75.75 0 0 1-1.152-.96l5-6A.75.75 0 0 1 7.2 8.65l3.48 2.61 5.76-5.76h-3.69a.75.75 0 0 1-.75-.75Z" fill="#272E35"/></symbol><symbol fill="none" viewBox="0 0 20 20" id="upload" xmlns="http://www.w3.org/2000/svg"><path fill-rule="evenodd" clip-rule="evenodd" d="M9.491 1.199a.75.75 0 0 1 1.018 0l3.25 3A.75.75 0 1 1 12.74 5.3L10.75 3.463v8.787a.75.75 0 0 1-1.5 0V3.463L7.259 5.301A.75.75 0 1 1 6.24 4.2l3.25-3ZM1.75 13a.75.75 0 0 1 .75.75v2.5c0 .69.56 1.25 1.25 1.25h12.5c.69 0 1.25-.56 1.25-1.25v-2.5a.75.75 0 0 1 1.5 0v2.5A2.75 2.75 0 0 1 16.25 19H3.75A2.75 2.75 0 0 1 1 16.25v-2.5a.75.75 0 0 1 .75-.75Z" fill="#272E35"/></symbol><symbol fill="none" viewBox="0 0 20 20" id="user" xmlns="http://www.w3.org/2000/svg"><path fill-rule="evenodd" clip-rule="evenodd" d="M10.417 3.083A7.333 7.333 0 0 0 4.7 15.012a4.322 4.322 0 0 1 3.216-1.429h5c1.276 0 2.423.552 3.215 1.429a7.333 7.333 0 0 0-5.715-11.929Zm6.256 14.26a9.333 9.333 0 1 0-12.477.032 9.298 9.298 0 0 0 6.22 2.375 9.298 9.298 0 0 0 6.257-2.407Zm-1.995-.957a2.328 2.328 0 0 0-1.761-.803h-5c-.702 0-1.333.31-1.761.803a7.3 7.3 0 0 0 4.26 1.364 7.3 7.3 0 0 0 4.262-1.364ZM10.417 6a2.333 2.333 0 1 0 0 4.667 2.333 2.333 0 0 0 0-4.667ZM6.083 8.333a4.333 4.333 0 1 1 8.667 0 4.333 4.333 0 0 1-8.667 0Z" fill="#262626"/></symbol><symbol fill="none" viewBox="0 0 20 20" id="users" xmlns="http://www.w3.org/2000/svg"><path fill-rule="evenodd" clip-rule="evenodd" d="M7 2.5a2.5 2.5 0 1 0 0 5 2.5 2.5 0 0 0 0-5ZM3 5a4 4 0 1 1 8 0 4 4 0 0 1-8 0Zm9.25-3.25A.75.75 0 0 1 13 1a4 4 0 0 1 0 8 .75.75 0 0 1 0-1.5 2.5 2.5 0 0 0 0-5 .75.75 0 0 1-.75-.75ZM1 16.625A5.625 5.625 0 0 1 6.625 11h.75A5.625 5.625 0 0 1 13 16.625 2.375 2.375 0 0 1 10.625 19h-7.25A2.375 2.375 0 0 1 1 16.625ZM6.625 12.5A4.125 4.125 0 0 0 2.5 16.625c0 .483.392.875.875.875h7.25a.875.875 0 0 0 .875-.875A4.125 4.125 0 0 0 7.375 12.5h-.75Zm5.875-.75a.75.75 0 0 1 .75-.75h.125A5.625 5.625 0 0 1 19 16.625 2.375 2.375 0 0 1 16.625 19H15a.75.75 0 0 1 0-1.5h1.625a.875.875 0 0 0 .875-.875 4.125 4.125 0 0 0-4.125-4.125h-.125a.75.75 0 0 1-.75-.75Z" fill="#272E35"/></symbol><symbol fill="none" viewBox="0 0 20 20" id="wallet" xmlns="http://www.w3.org/2000/svg"><path fill-rule="evenodd" clip-rule="evenodd" d="M1 3.75A2.75 2.75 0 0 1 3.75 1h9a.75.75 0 0 1 0 1.5h-9c-.69 0-1.25.56-1.25 1.25V4h13.75A2.75 2.75 0 0 1 19 6.75v9.5A2.75 2.75 0 0 1 16.25 19H3.75A2.75 2.75 0 0 1 1 16.25V3.75ZM2.5 5.5v10.75c0 .69.56 1.25 1.25 1.25h12.5c.69 0 1.25-.56 1.25-1.25v-9.5c0-.69-.56-1.25-1.25-1.25H2.5ZM14.25 11a.5.5 0 1 0 0 1 .5.5 0 0 0 0-1Zm-2 .5a2 2 0 1 1 4 0 2 2 0 0 1-4 0Z" fill="#272E35"/></symbol></svg>