<svg width="748" height="275" viewBox="0 0 748 275" fill="none" xmlns="http://www.w3.org/2000/svg">
<path d="M125.531 269V219.7H0.873801V175.461L83.9159 6.56454H145.213L64.6081 170.024H125.531V118.849H176.893V170.024H212.697V219.7H176.893V269H125.531ZM376.546 274.624C356.426 274.624 337.806 271.187 320.685 264.314C303.689 257.315 288.88 247.63 276.258 235.258C263.636 222.886 253.826 208.39 246.828 191.769C239.955 175.148 236.518 157.153 236.518 137.782C236.518 118.287 239.955 100.229 246.828 83.6081C253.826 66.9872 263.636 52.4907 276.258 40.1188C288.88 27.7468 303.689 18.1242 320.685 11.2509C337.806 4.37758 356.426 0.940928 376.546 0.940928C396.791 0.940928 415.411 4.44007 432.407 11.4383C449.403 18.4366 464.212 28.1842 476.834 40.6812C489.456 53.1781 499.203 67.737 506.077 84.3579C513.075 100.854 516.574 118.662 516.574 137.782C516.574 157.153 513.075 175.148 506.077 191.769C499.203 208.39 489.456 222.886 476.834 235.258C464.212 247.63 449.403 257.315 432.407 264.314C415.411 271.187 396.791 274.624 376.546 274.624ZM376.546 216.138C387.418 216.138 397.353 214.326 406.351 210.702C415.474 207.078 423.41 201.829 430.158 194.956C436.906 188.082 442.092 179.834 445.717 170.212C449.466 160.464 451.34 149.654 451.34 137.782C451.34 121.786 448.091 107.915 441.593 96.1675C435.219 84.4204 426.346 75.3601 414.974 68.9867C403.727 62.4883 390.918 59.2391 376.546 59.2391C365.799 59.2391 355.864 61.1136 346.741 64.8627C337.618 68.4868 329.683 73.7355 322.934 80.6088C316.311 87.4821 311.125 95.7301 307.376 105.353C303.626 114.975 301.752 125.785 301.752 137.782C301.752 153.653 305.001 167.462 311.5 179.21C317.998 190.957 326.871 200.079 338.118 206.578C349.49 212.951 362.3 216.138 376.546 216.138ZM660.799 269V219.7H536.142V175.461L619.185 6.56454H680.482L599.877 170.024H660.799V118.849H712.162V170.024H747.965V219.7H712.162V269H660.799Z" fill="#ECECEC"/>
</svg>
