<svg width="96" height="175" viewBox="0 0 96 175" fill="none" xmlns="http://www.w3.org/2000/svg">
<g clip-path="url(#clip0_5180_76381)">
<path d="M47.7703 34.6023C47.4901 34.6023 47.2099 34.5286 46.9618 34.3813C46.4198 34.0635 33.6872 26.5285 30.7153 16.9209C28.5978 10.0584 31.8912 3.03 38.2116 0.915967C41.9184 -0.327582 45.6619 1.56998 47.7657 2.99316C50.4344 1.17389 54.0861 -0.170987 57.3381 0.915967C63.6585 3.03 66.9473 10.0584 64.8344 16.9209C61.959 26.4179 49.1345 34.0589 48.5879 34.3813C48.3352 34.5286 48.055 34.6023 47.7749 34.6023H47.7703ZM33.7837 15.9675C35.9884 23.088 45.0005 29.3149 47.7703 31.0928C50.5492 29.3011 59.6256 23.0143 61.7569 15.9767C63.1578 11.4355 61.5042 5.71054 56.3184 3.97418C53.8656 3.15896 50.7192 4.68807 48.7762 6.24941C48.1974 6.71459 47.3706 6.7192 46.7827 6.26323C45.7676 5.47104 42.2307 2.97013 39.2267 3.97418C34.0409 5.71054 32.3873 11.4355 33.7837 15.9675Z" fill="#C6C6C6"/>
<path d="M54.8119 90.4933C52.0054 90.4933 49.401 89.1116 47.7749 88.0109C45.1062 89.8347 41.4545 91.175 38.2025 90.088C31.8821 87.974 28.5933 80.9457 30.7062 74.0831C33.5816 64.5861 46.4061 56.9451 46.9527 56.6227C47.4534 56.328 48.0735 56.328 48.5788 56.6227C49.1208 56.9405 61.8534 64.4755 64.8253 74.0831C66.9428 80.9457 63.6494 87.974 57.329 90.088C56.4838 90.369 55.6387 90.4933 54.8119 90.4933ZM47.7657 84.4046C48.1148 84.4046 48.4639 84.5197 48.7533 84.7454C49.7684 85.5376 53.3007 88.0385 56.3093 87.0344C61.4951 85.2981 63.1487 79.5731 61.7523 75.0411C59.5476 67.9206 50.5355 61.6937 47.7657 59.9159C44.9868 61.7075 35.9104 67.9943 33.7791 75.0319C32.3782 79.5731 34.0318 85.2981 39.2176 87.0344C41.675 87.8543 44.8168 86.3205 46.7598 84.7592C47.0538 84.5243 47.4075 84.4046 47.7657 84.4046Z" fill="#C6C6C6"/>
<path d="M69.584 74.1475C68.2106 74.1475 66.8051 73.9402 65.4041 73.5073C55.9327 70.6241 48.3125 57.7649 47.9909 57.2168C47.697 56.7147 47.697 56.093 47.9909 55.5863C48.3079 55.0429 55.8225 42.2758 65.4041 39.2958C72.2436 37.1772 79.2575 40.4749 81.3659 46.8124C82.606 50.5292 80.7136 54.2829 79.2943 56.3923C81.1086 59.0683 82.4499 62.7298 81.3659 65.9907C79.6893 71.0294 74.9123 74.1475 69.584 74.1475ZM51.2705 56.4016C53.0573 59.188 59.3272 68.289 66.3458 70.426C70.8748 71.8308 76.5842 70.1727 78.3159 64.9728C79.1335 62.5088 77.6039 59.3584 76.0468 57.4102C75.5829 56.8253 75.5783 56.0009 76.033 55.4113C76.8231 54.3935 79.3172 50.847 78.3159 47.8349C76.5842 42.635 70.8748 40.9769 66.3549 42.3771C59.2537 44.5878 53.0436 53.6243 51.2705 56.4016Z" fill="#C6C6C6"/>
<path d="M25.9523 74.1475C20.6241 74.1475 15.8516 71.0294 14.1751 65.9907C12.9349 62.2739 14.8273 58.5202 16.2466 56.4108C14.4323 53.7348 13.0911 50.0733 14.1751 46.8124C16.2834 40.4749 23.2928 37.1772 30.1368 39.2958C39.6082 42.179 47.2285 55.0383 47.55 55.5863C47.844 56.0884 47.844 56.7101 47.55 57.2168C47.2331 57.7602 39.7184 70.5274 30.1368 73.5073C28.7358 73.9402 27.3257 74.1475 25.9523 74.1475ZM26.012 41.9027C22.2914 41.9027 18.5663 43.8049 17.225 47.8303C16.4074 50.2943 17.937 53.4447 19.4941 55.3929C19.958 55.9778 19.9626 56.8023 19.5079 57.3918C18.7178 58.4097 16.2237 61.9561 17.225 64.9682C18.9567 70.1681 24.6662 71.8262 29.186 70.426C36.2872 68.2153 42.4974 59.1788 44.2704 56.4016C42.4836 53.6151 36.2137 44.5141 29.1952 42.3771C28.1755 42.0593 27.096 41.8981 26.012 41.8981V41.9027Z" fill="#C6C6C6"/>
<path d="M94.7691 155.186L87.7964 152.902C87.0937 150.102 85.3941 147.223 81.8573 145.832C77.9622 144.303 76.6347 138.177 76.2489 135.616C76.1249 134.783 75.7528 134.027 75.2154 133.433V131.379H67.8707C71.9863 129.905 75.6196 127.731 78.6512 124.913C84.4387 119.533 87.576 112.109 87.4979 104.007L87.4841 102.446L85.9453 102.206C85.7065 102.165 80.1073 101.359 72.5053 104.611C66.3457 107.245 57.6874 113.131 49.8466 126.276V86.897L50.3656 86.3719L45.3957 86.1094L46.1765 86.897V125.581C38.2072 113.117 29.6453 107.581 23.5499 105.122C15.8745 102.027 10.2983 102.957 10.0594 102.994L8.52525 103.261L8.53903 104.822C8.61712 112.924 11.9105 120.284 17.8129 125.534C20.624 128.04 23.9266 129.993 27.615 131.375H23.6418V132.056H23.4994C21.5978 132.245 20.0636 133.705 19.7697 135.603C19.3838 138.163 18.0564 144.289 14.1612 145.823C10.6244 147.209 8.92487 150.092 8.22209 152.893L1.25406 155.177C0.289462 155.495 -0.229581 156.527 0.0873565 157.494C0.339988 158.272 1.05654 158.765 1.82362 158.765C2.01195 158.765 2.20487 158.733 2.39319 158.668L7.81788 156.89C7.83166 157.365 7.88219 157.802 7.93731 158.189C8.0797 159.092 8.85138 159.746 9.74707 159.746C9.83434 159.746 9.9308 159.746 10.0227 159.723C11.0194 159.571 11.7038 158.636 11.5614 157.636C11.5476 157.526 11.3777 156.287 11.5844 154.763C11.8508 152.777 12.7695 150.313 15.5025 149.231C20.9685 147.089 22.792 140.116 23.3984 136.151C23.4397 135.911 23.628 135.736 23.8715 135.709C24.1563 135.676 24.4227 135.893 24.4548 136.183L25.401 144.344L24.5237 144.588C23.5545 144.865 22.985 145.883 23.2606 146.859C23.5362 147.835 24.5467 148.397 25.5205 148.13L37.7157 144.653L37.7846 144.63C38.3312 144.446 38.9237 144.75 39.1029 145.302C39.1901 145.574 39.1672 145.85 39.0386 146.104C38.9099 146.348 38.6986 146.541 38.4322 146.629L27.5002 150.217C26.5356 150.534 26.0165 151.566 26.3335 152.533C26.3748 152.644 26.4208 152.745 26.4667 152.842C26.4805 152.874 26.508 152.906 26.5218 152.929C26.5631 152.994 26.6091 153.054 26.655 153.114C26.678 153.146 26.7009 153.169 26.7331 153.201C26.779 153.256 26.8342 153.302 26.8893 153.353C26.9122 153.376 26.9444 153.399 26.9674 153.418C27.0454 153.482 27.1327 153.537 27.22 153.579C27.22 153.579 27.2292 153.579 27.2338 153.588C27.3302 153.634 27.4313 153.676 27.5323 153.708C27.5645 153.717 27.5875 153.722 27.6196 153.731C27.6977 153.745 27.7712 153.763 27.8493 153.772C27.8906 153.772 27.9182 153.772 27.9595 153.781H28.056C28.1019 153.781 28.1524 153.781 28.1984 153.772H28.2948C28.4051 153.758 28.5153 153.731 28.6255 153.699L39.5576 150.115C39.824 150.028 40.1042 150.051 40.3568 150.18C40.6003 150.309 40.7932 150.521 40.8759 150.792C40.9631 151.06 40.9402 151.34 40.8116 151.594C40.683 151.838 40.4717 152.031 40.2052 152.119L39.5438 152.34C39.3463 152.381 39.1396 152.427 38.9421 152.492L29.2732 155.711C29.2089 155.734 29.1538 155.767 29.0895 155.79C29.0343 155.813 28.9792 155.831 28.9333 155.859C28.8782 155.891 28.823 155.937 28.7771 155.969C28.7312 156.001 28.6807 156.024 28.6439 156.066C28.5888 156.112 28.5475 156.167 28.5015 156.218C28.4694 156.25 28.4326 156.282 28.4051 156.319C28.3591 156.375 28.327 156.439 28.2856 156.503C28.2627 156.545 28.2397 156.573 28.2167 156.614C28.1846 156.678 28.1616 156.757 28.1386 156.821C28.1249 156.863 28.1065 156.9 28.0927 156.941C28.0697 157.01 28.0606 157.093 28.0514 157.162C28.0514 157.204 28.0376 157.25 28.0284 157.291V157.646C28.0376 157.715 28.0606 157.788 28.0743 157.858C28.0835 157.904 28.0881 157.959 28.1065 158.01C28.1065 158.019 28.1157 158.023 28.1203 158.033C28.1524 158.129 28.1984 158.221 28.2489 158.318C28.2627 158.35 28.2902 158.383 28.304 158.406C28.3453 158.47 28.3913 158.535 28.4372 158.594C28.4602 158.627 28.4831 158.65 28.5061 158.682C28.5612 158.737 28.6164 158.793 28.6715 158.843C28.6944 158.866 28.7174 158.885 28.7404 158.908C28.9149 159.037 29.1032 159.138 29.3191 159.202C29.3513 159.212 29.3834 159.216 29.4156 159.225C29.4845 159.244 29.5672 159.258 29.6453 159.267C29.6866 159.267 29.7141 159.267 29.7555 159.276H29.8428C29.8887 159.276 29.9392 159.276 29.9943 159.267H30.0908C30.201 159.253 30.3113 159.225 30.4123 159.198L40.072 155.983C40.6232 155.799 41.2112 156.103 41.3903 156.655C41.5741 157.204 41.2709 157.798 40.7105 157.982L31.0738 161.188H31.0416C30.9957 161.211 30.9452 161.234 30.8992 161.252C30.8349 161.275 30.766 161.307 30.7109 161.34C30.665 161.372 30.6236 161.404 30.5777 161.436C30.5226 161.478 30.4675 161.505 30.4215 161.547C30.3756 161.588 30.3434 161.634 30.3021 161.676C30.2608 161.717 30.2148 161.754 30.1827 161.805C30.1413 161.851 30.1184 161.906 30.0862 161.957C30.0541 162.003 30.0219 162.053 29.9897 162.099C29.9668 162.155 29.9438 162.21 29.9254 162.265C29.9025 162.321 29.8795 162.367 29.8611 162.426C29.8474 162.482 29.8382 162.537 29.829 162.601C29.8198 162.657 29.806 162.721 29.7968 162.776V163.136C29.7968 163.191 29.8198 163.246 29.829 163.292C29.8428 163.357 29.8519 163.421 29.8703 163.49C29.8703 163.5 29.8703 163.504 29.8795 163.513C30.2056 164.448 31.2162 164.964 32.1624 164.656L39.7505 162.196C40.0169 162.109 40.2971 162.132 40.5497 162.261C40.7932 162.385 40.9861 162.601 41.0688 162.873C41.1561 163.145 41.1331 163.421 41.0045 163.675C40.8851 163.914 40.683 164.094 40.4257 164.19L28.722 167.465L28.5658 167.543C28.4786 167.589 19.8477 171.748 16.5314 168.179C16.4119 168.05 16.2925 167.907 16.1915 167.76C15.6081 166.926 14.469 166.737 13.6422 167.318C12.9624 167.801 12.7189 168.667 12.9808 169.418L6.82114 171.44C5.85654 171.758 5.3375 172.789 5.65444 173.757C5.90707 174.535 6.62362 175.028 7.39071 175.028C7.57903 175.028 7.77195 174.996 7.96028 174.931L15.8745 172.338C15.8745 172.338 15.9388 172.306 15.9756 172.292C17.3811 173.006 18.9704 173.282 20.5643 173.282C24.8269 173.282 29.117 171.352 30.0403 170.91L35.4512 169.395H60.5168L65.9185 170.91C66.8418 171.352 71.132 173.282 75.3945 173.282C76.9884 173.282 78.5777 173.01 79.9832 172.292C80.0154 172.306 80.0475 172.324 80.0843 172.338L87.9986 174.931C88.1869 174.996 88.3798 175.028 88.5681 175.028C89.3398 175.028 90.0518 174.535 90.3044 173.757C90.6213 172.789 90.0931 171.758 89.1377 171.44L82.9827 169.418C83.2445 168.663 83.001 167.801 82.3212 167.318C81.4898 166.733 80.3553 166.931 79.7719 167.76C79.6709 167.912 79.5515 168.045 79.432 168.179C76.1249 171.735 67.4849 167.585 67.3976 167.543L67.2414 167.465L55.5377 164.19C55.0095 164.002 54.7247 163.421 54.8992 162.882C55.083 162.334 55.6755 162.035 56.2267 162.215L63.8102 164.674C64.7564 164.983 65.767 164.467 66.0931 163.523C66.0931 163.523 66.0931 163.504 66.1023 163.5C66.1253 163.435 66.1344 163.371 66.1436 163.302C66.1528 163.246 66.1758 163.191 66.1758 163.145V162.79C66.1758 162.726 66.1528 162.671 66.1436 162.615C66.1344 162.56 66.1298 162.496 66.1115 162.44C66.0977 162.385 66.0701 162.33 66.0472 162.279C66.0242 162.224 66.0058 162.169 65.9829 162.113C65.9599 162.067 65.9186 162.017 65.8864 161.97C65.8542 161.924 65.8221 161.869 65.7899 161.819C65.7486 161.772 65.7119 161.731 65.6705 161.69C65.6292 161.648 65.5924 161.602 65.5511 161.561C65.5052 161.519 65.45 161.491 65.3949 161.45C65.349 161.418 65.3076 161.381 65.2617 161.353C65.1974 161.321 65.1331 161.298 65.0734 161.266C65.0275 161.243 64.9861 161.22 64.931 161.201H64.8988L55.2575 157.987C54.7109 157.802 54.4123 157.217 54.5869 156.66C54.6741 156.388 54.8533 156.176 55.1059 156.048C55.3586 155.919 55.6342 155.896 55.896 155.983L65.5649 159.202H65.5741C65.6843 159.244 65.7853 159.258 65.9002 159.272C65.9415 159.272 65.9691 159.272 66.0104 159.281C66.0564 159.281 66.0977 159.29 66.1436 159.29H66.2217C66.2676 159.29 66.309 159.29 66.3549 159.281C66.4238 159.272 66.4881 159.258 66.5524 159.239C66.5938 159.23 66.6305 159.221 66.6719 159.207C66.7591 159.184 66.8464 159.143 66.9245 159.106C66.9429 159.097 66.9658 159.092 66.9796 159.083C67.0669 159.037 67.1541 158.986 67.2322 158.926C67.2644 158.903 67.2874 158.88 67.3195 158.857C67.3746 158.811 67.4297 158.76 67.4757 158.705C67.4986 158.673 67.5308 158.65 67.5538 158.618C67.5997 158.562 67.641 158.498 67.6778 158.433C67.6916 158.401 67.7191 158.369 67.7329 158.337C67.7788 158.249 67.8202 158.152 67.8615 158.06C67.8615 158.051 67.8707 158.046 67.8799 158.037C67.8937 157.991 67.9029 157.936 67.912 157.885C67.9258 157.816 67.9534 157.742 67.958 157.669V157.535C67.958 157.466 67.9672 157.383 67.958 157.314C67.958 157.273 67.9396 157.227 67.935 157.19C67.9258 157.121 67.912 157.038 67.8937 156.969C67.8845 156.927 67.8615 156.89 67.8477 156.849C67.8248 156.78 67.8018 156.706 67.7696 156.642C67.7467 156.6 67.7237 156.573 67.7008 156.531C67.6594 156.467 67.6319 156.402 67.5813 156.347C67.5492 156.305 67.517 156.278 67.4849 156.246C67.4389 156.19 67.3884 156.144 67.3425 156.094C67.3011 156.061 67.2552 156.029 67.2093 155.997C67.1542 155.955 67.1082 155.919 67.0531 155.886C67.0072 155.854 66.952 155.84 66.8969 155.817C66.8326 155.794 66.7775 155.762 66.7178 155.739L57.0443 152.52C56.8468 152.455 56.6493 152.409 56.4426 152.368L55.7811 152.156C55.5147 152.068 55.2988 151.884 55.1748 151.631C55.0462 151.386 55.0232 151.101 55.1105 150.829C55.2942 150.281 55.8776 149.982 56.4288 150.157L67.3608 153.74C67.4711 153.781 67.5813 153.795 67.6916 153.814C67.7329 153.814 67.7605 153.814 67.8018 153.823C67.8431 153.823 67.8891 153.832 67.9304 153.832H68.0177C68.059 153.832 68.105 153.832 68.1417 153.823C68.2152 153.814 68.2841 153.8 68.3484 153.781C68.3897 153.772 68.4173 153.768 68.4586 153.758C68.5597 153.726 68.6562 153.689 68.7526 153.639C68.7664 153.639 68.7756 153.625 68.794 153.616C68.872 153.57 68.9501 153.519 69.0328 153.464C69.065 153.441 69.0879 153.418 69.1201 153.395C69.1752 153.349 69.2303 153.298 69.2763 153.243C69.2992 153.21 69.3314 153.187 69.3543 153.155C69.4003 153.1 69.4508 153.035 69.4875 152.966C69.5013 152.934 69.5289 152.911 69.5427 152.879C69.5978 152.782 69.6437 152.681 69.6759 152.57C69.9928 151.603 69.46 150.571 68.5046 150.253L57.5725 146.666C57.3061 146.578 57.0902 146.394 56.9662 146.141C56.8376 145.896 56.8146 145.611 56.9019 145.339C56.9892 145.072 57.1683 144.856 57.4209 144.727C57.6644 144.598 57.9492 144.575 58.2202 144.662L70.4751 148.162C71.4489 148.439 72.4594 147.868 72.735 146.891C73.0106 145.915 72.4502 144.902 71.4719 144.621L70.5945 144.377L71.5408 136.215C71.5729 135.92 71.8347 135.709 72.1241 135.741C72.3675 135.764 72.5605 135.948 72.5972 136.183C73.1989 140.149 75.0317 147.122 80.4931 149.263C83.2353 150.336 84.1402 152.8 84.4112 154.795C84.6179 156.31 84.4525 157.54 84.4342 157.66C84.2826 158.659 84.9716 159.594 85.9637 159.755C86.0602 159.774 86.152 159.778 86.2393 159.778C87.1258 159.778 87.9067 159.129 88.0491 158.217C88.1042 157.83 88.1501 157.392 88.1685 156.913L93.5932 158.691C93.7815 158.756 93.9698 158.788 94.1628 158.788C94.9344 158.788 95.6464 158.295 95.899 157.517C96.216 156.55 95.6877 155.518 94.7323 155.2H94.7645L94.7691 155.186ZM73.6996 108.102C78.1459 106.158 81.8206 105.804 83.8095 105.776C83.1388 118.405 73.6077 127.607 59.5798 129.606C65.4638 126.529 73.2035 121.15 80.3415 111.994C80.9662 111.192 80.8238 110.041 80.0246 109.414C79.2253 108.788 78.0816 108.931 77.4569 109.732C68.3025 121.472 57.9721 126.644 52.6898 128.676C60.0253 116.143 68.0452 110.57 73.7042 108.106L73.695 108.097L73.6996 108.102ZM12.2688 106.513C14.2531 106.49 17.9323 106.775 22.4154 108.631C28.1249 110.99 36.2504 116.392 43.8431 128.768C38.5195 126.847 28.0881 121.891 18.6902 110.34C18.0518 109.553 16.8988 109.437 16.1134 110.078C15.3325 110.718 15.2131 111.878 15.8516 112.661C23.1825 121.675 31.0324 126.893 36.9762 129.845C22.9023 128.132 13.1875 119.119 12.255 106.513H12.2642H12.2688ZM53.4937 147.232C52.6623 147.803 52.0009 148.637 51.6609 149.669C51.2751 150.866 51.367 152.151 51.9365 153.27C52.0146 153.431 52.1111 153.579 52.203 153.731C51.7207 154.237 51.3578 154.841 51.1373 155.522C50.5769 157.254 51.0684 159.069 52.2443 160.285C51.8952 160.713 51.6196 161.211 51.4405 161.768C50.9903 163.154 51.22 164.61 51.9365 165.756H44.0866C44.8123 164.605 45.0328 163.154 44.5827 161.768C44.3989 161.22 44.1233 160.722 43.7788 160.276C44.9547 159.055 45.4462 157.236 44.8858 155.518C44.6562 154.827 44.2841 154.224 43.811 153.726C43.9075 153.574 43.9993 153.427 44.0774 153.266C44.647 152.137 44.748 150.861 44.353 149.664C44.0269 148.655 43.3838 147.808 42.5295 147.228C42.8786 146.242 42.9015 145.183 42.5754 144.174C42.5432 144.077 42.5065 143.99 42.4743 143.902H53.5534C53.5212 143.99 53.4799 144.086 53.4523 144.174C53.1262 145.183 53.1446 146.242 53.4983 147.228L53.4891 147.237L53.4937 147.232ZM67.9396 135.768L67.4251 140.227H28.6118L28.0973 135.768C28.0652 135.524 28.0192 135.285 27.9457 135.055H68.105C68.0361 135.285 67.9809 135.524 67.9534 135.768H67.935H67.9396Z" fill="#C6C6C6"/>
</g>
<defs>
<clipPath id="clip0_5180_76381">
<rect width="96" height="175" fill="white"/>
</clipPath>
</defs>
</svg>
