<svg width="64" height="64" viewBox="0 0 64 64" fill="none" xmlns="http://www.w3.org/2000/svg">
<path fill-rule="evenodd" clip-rule="evenodd" d="M8.45967 13.0657C9.43904 9.14824 12.9589 6.40002 16.9969 6.40002H47.003C51.041 6.40002 54.5609 9.14824 55.5402 13.0657L60.7283 33.8179C60.7759 34.0083 60.8 34.2038 60.8 34.4V48.8C60.8 53.6601 56.8601 57.6 52 57.6H12C7.13985 57.6 3.19995 53.6601 3.19995 48.8V34.4C3.19995 34.2038 3.22402 34.0083 3.27161 33.8179L8.45967 13.0657ZM16.9969 11.2C15.1615 11.2 13.5615 12.4492 13.1164 14.2299L8.67382 32H14.4445C17.7777 32 20.8248 33.8832 22.3155 36.8645L22.7777 37.7889C23.4552 39.144 24.8403 40 26.3554 40H37.6445C39.1596 40 40.5447 39.144 41.2222 37.7889L41.6844 36.8645C43.1751 33.8833 46.2222 32 49.5554 32H55.3261L50.8836 14.2299C50.4384 12.4492 48.8385 11.2 47.003 11.2H16.9969ZM56 36.8H49.5554C48.0403 36.8 46.6552 37.656 45.9777 39.0112L45.5155 39.9355C44.0248 42.9168 40.9777 44.8 37.6445 44.8H26.3554C23.0222 44.8 19.9751 42.9168 18.4844 39.9355L18.0222 39.0112C17.3447 37.656 15.9596 36.8 14.4445 36.8H7.99995V48.8C7.99995 51.0092 9.79081 52.8 12 52.8H52C54.2091 52.8 56 51.0092 56 48.8V36.8Z" fill="#C1C1C1"/>
</svg>
