<svg width="64" height="64" viewBox="0 0 64 64" fill="none" xmlns="http://www.w3.org/2000/svg">
<g clip-path="url(#clip0_765_7424)">
<rect width="64" height="64" rx="16" fill="#78DA76"/>
<path fill-rule="evenodd" clip-rule="evenodd" d="M50.0683 30.2701C48.1311 31.0143 46.0073 30.443 44.6865 28.9945L30.7841 35.7808L28.5715 39.125L37.1847 37.0945C37.6441 35.8056 38.6429 34.7177 40.0231 34.1875C42.5397 33.2208 45.3715 34.4741 46.3482 36.9869C47.3248 39.4997 46.0764 42.3204 43.5598 43.2871C41.2423 44.1773 38.6575 43.1849 37.5003 41.06L25.4047 43.9115L11.3296 65.1852L7.77541 62.8605L20.5668 43.5269L18.8911 30.4415C17.4134 30.0609 16.1336 28.9987 15.5398 27.4707C14.5632 24.958 15.8116 22.1373 18.3282 21.1706C20.8448 20.2038 23.6766 21.4572 24.6532 23.9699C25.4827 26.1041 24.7072 28.4604 22.9128 29.7143L24.0143 38.3162L27.6969 32.7502L28.3545 18.422C27.0048 17.9817 25.8559 16.9623 25.3025 15.5386C24.3259 13.0258 25.5743 10.2051 28.0909 9.23836C30.6075 8.27164 33.4393 9.52497 34.416 12.0378C35.2722 14.2408 34.4181 16.6806 32.4985 17.9001L32.1241 26.0588L40.7101 13.0815C40.1489 12.5823 39.6945 11.9466 39.4042 11.1996C38.4276 8.68679 39.676 5.8661 42.1926 4.89938C44.7092 3.93266 47.541 5.18598 48.5177 7.69876C49.4943 10.2115 48.2459 13.0322 45.7293 13.999C45.5083 14.0839 45.2848 14.1516 45.0604 14.2029L35.1428 29.1928L43.4441 25.1406C43.6488 23.406 44.7846 21.8416 46.5316 21.1706C49.0482 20.2038 51.88 21.4572 52.8566 23.9699C53.8333 26.4827 52.5849 29.3034 50.0683 30.2701Z" fill="white"/>
<path fill-rule="evenodd" clip-rule="evenodd" d="M6.61371 25.9286L58.6815 25.9286L58.6815 41.1151L53.5756 41.1151L53.5756 30.9532L11.7196 30.9532L11.7196 41.1151L6.61371 41.1151L6.61371 25.9286Z" fill="#333333"/>
</g>
<defs>
<clipPath id="clip0_765_7424">
<rect width="64" height="64" rx="16" fill="white"/>
</clipPath>
</defs>
</svg>
