<svg width="82" height="82" viewBox="0 0 82 82" fill="none" xmlns="http://www.w3.org/2000/svg">
<g clip-path="url(#clip0_827_17804)">
<path d="M74.0323 35.272C79.3318 37.2341 79.3318 44.7297 74.0323 46.6917C70.345 48.0568 68.8992 52.5067 71.0798 55.7784C74.214 60.4807 69.8082 66.5447 64.3675 65.0171C60.5821 63.9542 56.7968 66.7044 56.6379 70.6329C56.4096 76.2794 49.2808 78.5957 45.7772 74.1618C43.3395 71.0769 38.6606 71.0769 36.2229 74.1618C32.7192 78.5957 25.5905 76.2794 25.3621 70.6329C25.2032 66.7044 21.418 63.9542 17.6326 65.0171C12.1919 66.5447 7.78612 60.4807 10.9203 55.7784C13.1009 52.5067 11.655 48.0568 7.96783 46.6917C2.66831 44.7297 2.66831 37.2341 7.96783 35.272C11.655 33.9069 13.1009 29.4571 10.9203 26.1854C7.78612 21.4831 12.1919 15.419 17.6326 16.9467C21.418 18.0096 25.2032 15.2594 25.3621 11.3308C25.5905 5.68437 32.7192 3.36811 36.2229 7.80195C38.6606 10.8868 43.3395 10.8868 45.7772 7.80195C49.2808 3.36811 56.4096 5.68437 56.6379 11.3308C56.7968 15.2594 60.5821 18.0096 64.3675 16.9467C69.8082 15.419 74.214 21.4831 71.0798 26.1854C68.8992 29.4571 70.3451 33.9069 74.0323 35.272Z" fill="#FF4D00"/>
<path d="M39.1744 36.8746C37.4781 38.4833 35.3577 39.2876 32.8132 39.2876C30.2687 39.2876 28.1306 38.4662 26.399 36.8233C24.7027 35.1804 23.8545 33.1782 23.8545 30.8165C23.8545 28.4549 24.7027 26.4526 26.399 24.8098C28.1306 23.1669 30.2687 22.3455 32.8132 22.3455C35.3577 22.3455 37.4781 23.1669 39.1744 24.8098C40.8707 26.4184 41.7189 28.4207 41.7189 30.8165C41.7189 33.2124 40.8707 35.2318 39.1744 36.8746ZM27.6182 53.5601L51.7908 27.5308L55.0244 29.2763L30.7988 55.357L27.6182 53.5601ZM30.3747 33.1782C31.0109 33.7942 31.806 34.1023 32.7602 34.1023C33.7144 34.1023 34.5095 33.7942 35.1456 33.1782C35.7818 32.5279 36.0998 31.7407 36.0998 30.8165C36.0998 29.8924 35.7818 29.1223 35.1456 28.5062C34.5095 27.8902 33.7144 27.5821 32.7602 27.5821C31.806 27.5821 31.0109 27.8902 30.3747 28.5062C29.774 29.1223 29.4736 29.8924 29.4736 30.8165C29.4736 31.7407 29.774 32.5279 30.3747 33.1782ZM57.0918 57.1539C55.3955 58.7967 53.2751 59.6182 50.7306 59.6182C48.1861 59.6182 46.0657 58.7967 44.3694 57.1539C42.6731 55.511 41.8249 53.5087 41.8249 51.1471C41.8249 48.7855 42.6731 46.7832 44.3694 45.1404C46.0657 43.4975 48.1861 42.676 50.7306 42.676C53.2751 42.676 55.3955 43.4975 57.0918 45.1404C58.7882 46.7832 59.6363 48.7855 59.6363 51.1471C59.6363 53.5087 58.7882 55.511 57.0918 57.1539ZM48.3452 53.5087C48.9813 54.1248 49.7764 54.4329 50.7306 54.4329C51.6848 54.4329 52.4623 54.1077 53.0631 53.4574C53.6992 52.8071 54.0172 52.037 54.0172 51.1471C54.0172 50.223 53.6992 49.4529 53.0631 48.8368C52.4623 48.1865 51.6848 47.8614 50.7306 47.8614C49.7764 47.8614 48.9813 48.1865 48.3452 48.8368C47.7444 49.4529 47.444 50.223 47.444 51.1471C47.444 52.0712 47.7444 52.8584 48.3452 53.5087Z" fill="white"/>
</g>
<defs>
<clipPath id="clip0_827_17804">
<rect width="82" height="82" fill="white"/>
</clipPath>
</defs>
</svg>
