<svg width="64" height="64" viewBox="0 0 64 64" fill="none" xmlns="http://www.w3.org/2000/svg">
<path fill-rule="evenodd" clip-rule="evenodd" d="M31.9992 8.00001C18.7444 8.00001 7.99922 18.7452 7.99922 32C7.99922 45.2548 18.7444 56 31.9992 56C45.2541 56 55.9992 45.2548 55.9992 32C55.9992 18.7452 45.2541 8.00001 31.9992 8.00001ZM3.19922 32C3.19922 16.0942 16.0934 3.20001 31.9992 3.20001C47.905 3.20001 60.7992 16.0942 60.7992 32C60.7992 47.9058 47.905 60.8 31.9992 60.8C16.0934 60.8 3.19922 47.9058 3.19922 32ZM19.1992 26.4C19.1992 25.0745 20.2737 24 21.5992 24H24.7992C26.1247 24 27.1992 25.0745 27.1992 26.4C27.1992 27.7255 26.1247 28.8 24.7992 28.8H21.5992C20.2737 28.8 19.1992 27.7255 19.1992 26.4ZM36.7992 26.4C36.7992 25.0745 37.8737 24 39.1992 24H42.3992C43.7247 24 44.7992 25.0745 44.7992 26.4C44.7992 27.7255 43.7247 28.8 42.3992 28.8H39.1992C37.8737 28.8 36.7992 27.7255 36.7992 26.4ZM22.1259 38.6534C23.3115 38.0606 24.7531 38.5412 25.3458 39.7267C26.4178 41.8706 29.0004 43.2 31.9992 43.2C34.998 43.2 37.5806 41.8706 38.6526 39.7267C39.2454 38.5412 40.687 38.0606 41.8725 38.6534C43.0581 39.2462 43.5386 40.6878 42.9458 41.8733C40.8178 46.1294 36.2004 48 31.9992 48C27.798 48 23.1806 46.1294 21.0526 41.8733C20.4598 40.6878 20.9404 39.2462 22.1259 38.6534Z" fill="#C1C1C1"/>
</svg>
