<svg width="84" height="80" viewBox="0 0 84 80" fill="none" xmlns="http://www.w3.org/2000/svg">
<path d="M26.8004 17.0328C26.5984 16.4167 26.0234 16 25.375 16C24.7266 16 24.1516 16.4167 23.9496 17.0328L19.1241 31.7561H3.5C2.84902 31.7561 2.27235 32.176 2.07247 32.7955C1.87258 33.415 2.0951 34.0928 2.62332 34.4732L15.2523 43.5696L10.4301 58.2828C10.2279 58.8999 10.4457 59.5771 10.9698 59.9606C11.4939 60.344 12.2052 60.3467 12.7322 59.9671L25.375 50.8608L38.0178 59.9671C38.5448 60.3467 39.2561 60.344 39.7802 59.9606C40.3043 59.5771 40.5221 58.8999 40.3199 58.2828L35.4977 43.5696L48.1267 34.4732C48.6549 34.0928 48.8774 33.415 48.6775 32.7955C48.4776 32.176 47.901 31.7561 47.25 31.7561H31.6259L26.8004 17.0328Z" fill="#78DA76" stroke="white" stroke-width="3" stroke-linejoin="round"/>
</svg>
