<svg width="83" height="86" viewBox="0 0 83 86" fill="none" xmlns="http://www.w3.org/2000/svg">
<path d="M35.2142 43.8351L35.2185 43.8354L35.22 43.8356C35.2205 43.8356 35.221 43.8357 35.2214 43.8357C46.8778 44.85 57.153 36.2191 58.1675 24.5523C58.5293 20.4304 57.6861 16.4764 55.9291 13.0444L55.9291 13.0443C53.9597 9.19756 50.8416 6.00541 46.9839 3.95927C44.5502 2.66839 41.8242 1.83494 38.9124 1.58116C27.2552 0.565145 16.9787 9.19594 15.9631 20.8632C15.3353 28.0151 18.3322 34.6476 23.4261 38.9432L18.0799 51.1444L10.7915 26.7517C10.5544 25.9581 9.71886 25.5069 8.92517 25.7438L2.57085 27.6411C2.18951 27.755 1.86905 28.0157 1.68001 28.3659C1.49098 28.7162 1.44887 29.1271 1.56295 29.5084L12.1122 64.7644L5.55433 79.7308C5.22209 80.4891 5.56694 81.3731 6.32486 81.7061L12.3954 84.3733C12.7599 84.5334 13.173 84.5421 13.5439 84.3974C13.9148 84.2528 14.2129 83.9666 14.3727 83.602L21.3029 67.7856L52.0939 60.8804C52.9019 60.6992 53.4102 59.8975 53.2295 59.0894L51.7827 52.6185C51.6959 52.2301 51.4582 51.8921 51.1221 51.679C50.786 51.4658 50.3789 51.395 49.9905 51.4821L26.0984 56.8415L32.0267 43.3118C33.0597 43.5633 34.124 43.7399 35.2142 43.8351Z" fill="#78DA76" stroke="white" stroke-width="3" stroke-linejoin="round"/>
</svg>
