<svg width="84" height="83" viewBox="0 0 84 83" fill="none" xmlns="http://www.w3.org/2000/svg">
<path d="M34.4926 60.7464L33.4197 61.6332C33.3603 61.5613 33.3085 61.4989 33.2398 61.4242C32.9122 61.0679 32.7766 60.5754 32.8758 60.1016C32.9749 59.6279 33.2966 59.2311 33.7395 59.0361C34.3265 58.7776 34.9098 58.5311 35.4771 58.2913L35.4819 58.2893C36.7306 57.7616 37.8996 57.2668 39.0201 56.6937L39.0208 56.6933C46.9073 52.6654 52.9638 46.8261 56.831 38.9C57.3484 37.8393 58.016 36.9881 58.9879 36.4628C59.9366 35.9501 60.9771 35.8578 62.0042 35.8967L62.0057 35.8968C68.3911 36.1451 74.1705 38.2328 79.6855 40.7196C79.901 40.7493 80.1513 40.8013 80.4062 40.8947C80.7871 41.0344 81.2933 41.3102 81.643 41.8581L81.6525 41.8732C82.1048 42.601 82.0346 43.3951 81.8904 43.9546C81.7407 44.535 81.4485 45.1224 81.1067 45.6785C80.417 46.8006 79.3441 48.0832 78.0728 49.3937C75.5173 52.0281 71.9551 54.9839 68.4328 57.2919C68.3933 57.3178 68.3528 57.3417 68.3113 57.3636C64.8724 59.6178 60.1778 62.6554 53.2434 63.9285L34.4926 60.7464ZM34.4926 60.7464L33.4197 61.6332C33.4229 61.637 33.4273 61.6426 33.433 61.6497C33.4999 61.7338 33.7388 62.0341 34.0888 62.2332M34.4926 60.7464L34.0888 62.2332M34.0888 62.2332C34.4511 62.4417 34.8204 62.5676 35.0905 62.6519L35.0905 62.6519L35.1 62.6548C41.3276 64.5543 47.397 65.0025 53.2432 63.9286L34.0888 62.2332ZM58.0635 8.09066C57.7868 7.43264 57.0847 7.06079 56.3849 7.20161C32.079 12.0927 19.6984 39.2038 28.2129 58.3382C28.4929 58.9674 29.1654 59.3251 29.8437 59.2056C41.2858 57.1888 50.4977 49.5424 55.7648 39.8975C61.0299 30.2563 62.4305 18.4751 58.0635 8.09066ZM23.5549 56.5028C23.9975 56.8313 24.5846 56.8907 25.084 56.6573C25.5833 56.424 25.9145 55.9356 25.9465 55.3853C25.9591 55.1674 25.9776 54.9897 25.9959 54.8145C25.9978 54.7966 25.9999 54.7773 26.0022 54.7567C26.0287 54.5133 26.0751 54.0891 25.9893 53.6599C23.8673 43.0216 25.6226 33.1311 31.3715 23.8627L31.3732 23.86C31.8412 23.1018 31.8662 22.1664 31.8025 21.5127C31.7342 20.8115 31.5236 20.0277 31.1495 19.4089L31.1491 19.4081C28.1721 14.4906 23.925 10.8939 19.459 7.73381L19.4579 7.73298C18.568 7.10458 17.4275 6.48554 16.1828 6.8055C14.9628 7.11909 14.2489 8.18681 13.7565 9.10319L13.7558 9.10457C8.13869 19.5858 7.47963 30.4076 11.873 41.3851C14.2693 47.3833 18.0638 52.4269 23.5549 56.5028ZM74.3373 23.8718C74.5531 23.1386 74.1832 22.3604 73.4784 22.0648C73.2417 21.9656 72.9927 21.9314 72.7522 21.9551C71.8819 21.9719 71.0706 21.9857 70.3023 21.9988L70.3015 21.9988L70.3012 21.9988L70.2865 21.999C67.9135 22.0394 65.9428 22.073 63.9726 22.1651L63.9705 22.1652C63.4855 22.1886 62.9526 22.3403 62.5343 22.5243C62.3185 22.6192 62.0649 22.7522 61.8335 22.9331C61.6543 23.0731 61.226 23.4406 61.1017 24.0652L61.1015 24.0659C60.6149 26.5171 60.213 28.9822 59.8158 31.4191L59.8136 31.4322C59.702 32.1167 59.5908 32.799 59.4778 33.4808C59.4113 33.8818 59.5104 34.2926 59.7524 34.6192C59.9944 34.9457 60.3585 35.1601 60.7615 35.2133C61.4514 35.3042 62.125 35.3976 62.7915 35.49L62.8124 35.4929C64.5994 35.7406 66.3433 35.9823 68.1016 36.1305C68.7662 36.1891 69.4226 35.944 69.8425 35.7251C70.0813 35.6005 70.333 35.4385 70.5579 35.2375C70.7602 35.0568 71.0597 34.7395 71.2122 34.2798L71.2129 34.2775C72.006 31.8725 72.7117 29.4472 73.5024 26.7293L73.5068 26.7143L72.0665 26.2953L73.5068 26.7143C73.7714 25.8048 74.0458 24.8617 74.3373 23.8718ZM30.7188 17.8064C31.1328 18.308 31.552 18.816 31.979 19.3459C32.062 19.4681 32.1643 19.5798 32.2849 19.6761C32.858 20.1332 33.6776 20.1092 34.2228 19.6192C34.8288 19.0747 35.4319 18.5371 36.0335 18.0009L36.0431 17.9923C37.7622 16.4599 39.4701 14.9375 41.1275 13.3566L41.1313 13.3529C41.4412 13.0552 41.6029 12.7026 41.6898 12.4573C41.7841 12.191 41.8371 11.9163 41.8616 11.6627C41.9034 11.23 41.8909 10.5424 41.56 9.95455C40.5362 8.13403 39.449 6.35095 38.225 4.34359L38.2168 4.33024C37.8069 3.65796 37.3812 2.95971 36.9352 2.22309C36.6909 1.81961 36.271 1.55454 35.8017 1.50748C35.3324 1.46042 34.8683 1.63686 34.5487 1.9838C33.8396 2.75367 33.161 3.4812 32.5053 4.18411L32.4876 4.20306C30.6923 6.12764 29.0598 7.87765 27.5318 9.72523L27.5318 9.72522L27.5268 9.73136C27.1851 10.1489 27.0708 10.6298 27.0264 10.9517C26.9779 11.3034 26.9871 11.6605 27.0243 11.9823C27.0942 12.5869 27.2952 13.3289 27.6837 13.8959C28.6022 15.2417 29.6372 16.4957 30.6959 17.7786L30.7188 17.8064L31.8757 16.8516L30.7188 17.8064Z" fill="#78DA76" stroke="white" stroke-width="3" stroke-linejoin="round"/>
</svg>
