<svg width="84" height="83" viewBox="0 0 84 83" fill="none" xmlns="http://www.w3.org/2000/svg">
<mask id="path-1-outside-1_7202_598" maskUnits="userSpaceOnUse" x="-0.5" y="-1" width="64" height="64" fill="black">
<rect fill="white" x="-0.5" y="-1" width="64" height="64"/>
<path d="M37.8929 58.4702C38.3637 57.7347 38.7996 56.9992 39.2913 56.302C39.8807 55.4654 40.8571 55.1203 41.6522 54.5451C42.9006 53.6422 44.1944 52.7917 45.3731 51.8052C46.0985 51.1986 46.6704 50.3969 47.2737 49.6509C47.7654 49.0408 48.278 48.4831 48.9301 48.0299C49.3521 47.7371 49.7113 47.3188 50.0286 46.904C51.4445 45.0564 52.6546 43.0869 53.488 40.9047C53.638 40.5143 53.7321 40.0995 53.8123 39.6881C53.9274 39.0955 53.7356 38.7051 53.2021 38.4053C52.4802 38.001 51.6711 37.9452 50.8691 37.8824C50.2902 37.8371 49.7113 37.8267 49.1359 37.757C48.428 37.6733 48.149 37.4328 48.1141 36.7286C48.0618 35.6654 47.4899 35.139 46.517 34.9194C44.9233 34.5604 43.4621 33.8876 42.0253 33.1242C40.5746 32.3538 39.1449 32.3817 37.8057 33.4379C37.4849 33.6889 37.1187 33.8841 36.8084 34.1456C36.0272 34.8114 35.1275 34.895 34.1685 34.7347C33.9209 34.6928 33.6733 34.651 33.4327 34.5848C32.3516 34.292 31.8111 33.6401 31.717 32.5386C31.5984 31.1303 30.9672 30.4505 29.5827 30.2204C29.5444 30.2135 29.5095 30.196 29.4223 30.1647C29.4921 29.9555 29.5723 29.7533 29.6211 29.5442C29.6943 29.2235 29.7885 28.8993 29.7885 28.5786C29.7885 28.101 29.4607 27.9197 29.0422 28.1428C28.7632 28.2892 28.5156 28.4914 28.2471 28.6553C27.867 28.8888 27.4939 29.1468 27.0928 29.3315C26.371 29.6662 25.7642 29.4675 25.3074 28.8086C24.2856 27.3306 24.5262 25.8038 25.9943 24.7754C27.194 23.9353 28.547 23.6634 29.9838 23.9458C30.7859 24.1027 31.4136 24.5977 31.968 25.1798C32.111 25.3332 32.261 25.4901 32.4284 25.6086C32.5225 25.6748 32.7178 25.7341 32.7771 25.6853C32.8643 25.6121 32.934 25.4273 32.9061 25.3158C32.8189 24.9463 32.7178 24.5733 32.5644 24.2247C32.2331 23.4717 32.3761 22.8547 32.9794 22.3074C33.3595 21.9623 33.7326 21.6033 34.0499 21.2024C34.1929 21.0246 34.2348 20.7353 34.2522 20.4913C34.2836 20.0346 34.2034 19.5605 34.2766 19.1143C34.437 18.1453 34.7892 17.8176 35.94 17.3993C35.8424 16.7753 36.0237 16.3326 36.6026 16.0537C36.784 15.9666 37.0734 16.0955 37.314 16.1269L37.328 16.2594C37.6418 16.0467 37.9731 15.855 38.2695 15.618C38.6322 15.3252 38.5974 15.1265 38.1859 14.9173C37.9871 14.8162 37.7778 14.7325 37.586 14.6175C37.199 14.3805 37.1327 14.0842 37.4744 13.7844C37.8859 13.4218 38.3567 13.129 38.8031 12.8083C38.8763 12.756 38.9531 12.7038 39.117 12.5922C38.001 11.8114 36.9304 11.0514 35.8459 10.3089C35.4937 10.0684 35.1066 10.0649 34.6742 10.1451C34.3743 10.1974 34.029 10.051 33.7152 9.94989C33.2932 9.81394 32.8957 9.60129 32.4667 9.49672C32.0238 9.38865 31.8355 9.6257 31.9157 10.0789C31.9994 10.546 32.0936 11.0096 32.1459 11.4802C32.1773 11.7486 32.1598 12.0345 32.1145 12.3029C32.0517 12.6828 31.8599 12.7979 31.4973 12.6933C31.2985 12.6375 31.1032 12.5469 30.9253 12.4353C30.0884 11.9125 29.2549 11.3791 28.425 10.8492C27.8844 10.5076 27.867 10.288 28.3971 9.92548C28.819 9.63615 29.2689 9.38865 29.7118 9.1307C29.9106 9.01566 30.0431 8.90063 29.9698 8.62873C29.9385 8.51718 30.0117 8.35683 30.0814 8.24528C30.1616 8.1163 30.2872 8.01869 30.472 7.82C30.193 7.80257 30.0187 7.76422 29.8478 7.78862C28.8121 7.93155 27.9542 7.56901 27.2219 6.86834C26.5663 6.24088 25.7712 6.17465 24.9377 6.27923C24.8017 6.29666 24.6273 6.39775 24.568 6.51278C24.5297 6.57901 24.6692 6.75331 24.7459 6.86834C24.8226 6.98338 24.9168 7.08098 25.0632 7.26574C24.8156 7.26574 24.6587 7.3006 24.5262 7.25877C23.8392 7.04264 23.1348 6.8544 22.4757 6.56507C21.168 5.9899 19.9683 6.04567 18.7896 6.89972C17.5761 7.78165 16.3102 8.59038 15.0862 9.45837C14.7758 9.67798 14.5386 10.0022 14.2666 10.2776L14.3503 10.3821C14.6956 10.2113 15.0269 10.0091 15.3861 9.87668C16.0103 9.64661 16.6415 9.41306 17.2866 9.27013C17.7888 9.15858 18.0434 9.37122 18.0922 9.88365C18.1445 10.4309 18.1654 10.9887 18.134 11.536C18.0817 12.4528 18.134 13.1221 18.3886 13.8471C18.2247 13.8297 17.9841 13.7321 17.8969 13.8088C17.7714 13.9203 17.7574 14.1539 17.6981 14.3386C17.4819 14.9975 17.311 15.6772 17.0355 16.3117C16.5194 17.5108 16.1149 18.7239 16.5055 20.0242C16.7426 20.812 17.1227 21.558 17.4435 22.3214C17.7748 23.1092 18.012 23.8935 18.0713 24.7789C18.1236 25.5389 18.8071 26.1036 19.25 26.731L19.386 26.6648L18.4793 23.5798L18.6397 23.524C18.685 23.6181 18.7478 23.7053 18.7792 23.8064C19.0303 24.6709 19.4836 25.4168 20.073 26.0896C20.2613 26.3058 20.467 26.5289 20.5891 26.7868C20.7774 27.1807 20.9936 27.5955 21.0424 28.0173C21.1819 29.1747 21.8584 29.8788 22.8558 30.3111C23.9159 30.7677 25.004 31.1616 26.0815 31.5834C26.7441 31.8414 27.4067 32.0993 28.0762 32.3433C28.3204 32.434 28.5819 32.5455 28.8365 32.5386C29.3142 32.5281 29.5967 32.7756 29.8443 33.1242C29.8757 33.166 29.9106 33.2079 29.9315 33.2567C30.4476 34.4349 31.56 34.8811 32.5958 35.4214C32.941 35.6027 33.2583 35.5783 33.5164 35.2645C33.6942 35.0484 33.893 35.0589 34.1127 35.1878C34.179 35.2297 34.2522 35.261 34.322 35.2994C35.3856 35.8711 35.5878 36.7007 34.9078 37.7256C34.3917 38.5064 33.8372 39.2803 33.6838 40.2215C33.5164 41.2324 33.5338 42.2015 34.3185 43.0555C34.9078 43.6969 35.3856 44.4534 35.8564 45.1959C36.2853 45.8721 36.8223 46.4403 37.5268 46.7855C38.9286 47.4722 39.2006 48.5493 38.8798 50.0308C38.6113 51.2683 38.0777 52.4012 37.4744 53.4958C36.7421 54.8274 36.4527 56.2218 36.7073 57.7173C36.763 58.0414 36.9235 58.3482 37.0351 58.6619C23.9438 61.5273 8.54054 53.7921 4.45694 38.2798C0.132721 21.8612 10.9712 6.17465 26.7441 3.43124C43.4063 0.534453 58.412 12.5887 59.6605 28.8679C60.9054 45.0808 48.9371 56.3473 37.8964 58.4702H37.8929ZM33.3455 3.79029C32.7806 3.79029 32.383 4.06916 32.0552 4.47701C31.8704 4.70708 31.6368 4.97898 31.8355 5.2474C31.975 5.43564 32.2819 5.58205 32.5225 5.5925C33.7605 5.65874 34.8102 6.14328 35.7657 6.89623C36.3341 7.34591 36.899 7.80605 37.5128 8.18602C38.1335 8.57295 38.7926 8.91457 39.4692 9.18299C39.9121 9.36077 40.1213 9.08538 39.9609 8.63221C39.9086 8.4858 39.8423 8.3394 39.7656 8.20345C39.4448 7.64222 39.1623 7.08447 39.103 6.41169C39.0751 6.10145 38.8484 5.78074 38.6357 5.52278C38.2277 5.02081 37.6767 4.69663 37.0455 4.54673C36.2923 4.36895 35.532 4.21906 34.7718 4.06219C34.2975 3.96458 33.8198 3.87744 33.342 3.78332L33.3455 3.79029ZM31.8634 8.99823C32.0622 9.07492 32.1982 9.15858 32.3482 9.1795C32.8817 9.2527 33.4188 9.31196 33.9523 9.36425C34.2348 9.39214 34.5068 9.33637 34.6009 9.03658C34.6986 8.72982 34.73 8.35334 34.4266 8.16859C33.6245 7.67359 32.8294 7.12282 31.9541 6.80908C31.2985 6.57204 30.5243 6.66268 29.8024 6.62085C29.6734 6.61387 29.5374 6.67662 29.3526 6.71845C29.6351 7.21345 30.0814 7.23785 30.4964 7.31803C30.9079 7.39472 31.3368 7.42958 31.7309 7.56204C32.4284 7.79908 32.519 8.1895 32.0622 8.75073C32.0134 8.80999 31.968 8.87274 31.8704 9.00172L31.8634 8.99823ZM38.8938 29.091C38.416 28.7563 37.9557 28.603 37.5233 28.8156C36.9269 29.1084 36.4527 28.9481 35.94 28.6483C35.0438 28.1254 34.1302 27.606 33.0875 27.4387C32.7108 27.3794 32.3063 27.4387 31.9262 27.5014C31.8146 27.5189 31.7344 27.735 31.6402 27.8605C31.7588 27.9162 31.8739 28.0139 31.9994 28.0243C32.9654 28.1254 33.8756 28.4112 34.7404 28.8435C35.1868 29.0666 35.6262 29.3106 36.0795 29.5093C37.0664 29.9416 37.9417 29.5546 38.8938 29.0875V29.091ZM29.0422 5.76331C29.7815 6.15722 31.3089 5.61342 31.6019 4.83258C31.6368 4.73497 31.6751 4.61645 31.6507 4.5293C31.6123 4.40381 31.5426 4.25043 31.438 4.19465C31.0753 3.99596 29.792 4.32363 29.5758 4.6792C29.3735 5.01384 29.227 5.37986 29.0457 5.76331H29.0422Z"/>
</mask>
<path d="M37.8929 58.4702C38.3637 57.7347 38.7996 56.9992 39.2913 56.302C39.8807 55.4654 40.8571 55.1203 41.6522 54.5451C42.9006 53.6422 44.1944 52.7917 45.3731 51.8052C46.0985 51.1986 46.6704 50.3969 47.2737 49.6509C47.7654 49.0408 48.278 48.4831 48.9301 48.0299C49.3521 47.7371 49.7113 47.3188 50.0286 46.904C51.4445 45.0564 52.6546 43.0869 53.488 40.9047C53.638 40.5143 53.7321 40.0995 53.8123 39.6881C53.9274 39.0955 53.7356 38.7051 53.2021 38.4053C52.4802 38.001 51.6711 37.9452 50.8691 37.8824C50.2902 37.8371 49.7113 37.8267 49.1359 37.757C48.428 37.6733 48.149 37.4328 48.1141 36.7286C48.0618 35.6654 47.4899 35.139 46.517 34.9194C44.9233 34.5604 43.4621 33.8876 42.0253 33.1242C40.5746 32.3538 39.1449 32.3817 37.8057 33.4379C37.4849 33.6889 37.1187 33.8841 36.8084 34.1456C36.0272 34.8114 35.1275 34.895 34.1685 34.7347C33.9209 34.6928 33.6733 34.651 33.4327 34.5848C32.3516 34.292 31.8111 33.6401 31.717 32.5386C31.5984 31.1303 30.9672 30.4505 29.5827 30.2204C29.5444 30.2135 29.5095 30.196 29.4223 30.1647C29.4921 29.9555 29.5723 29.7533 29.6211 29.5442C29.6943 29.2235 29.7885 28.8993 29.7885 28.5786C29.7885 28.101 29.4607 27.9197 29.0422 28.1428C28.7632 28.2892 28.5156 28.4914 28.2471 28.6553C27.867 28.8888 27.4939 29.1468 27.0928 29.3315C26.371 29.6662 25.7642 29.4675 25.3074 28.8086C24.2856 27.3306 24.5262 25.8038 25.9943 24.7754C27.194 23.9353 28.547 23.6634 29.9838 23.9458C30.7859 24.1027 31.4136 24.5977 31.968 25.1798C32.111 25.3332 32.261 25.4901 32.4284 25.6086C32.5225 25.6748 32.7178 25.7341 32.7771 25.6853C32.8643 25.6121 32.934 25.4273 32.9061 25.3158C32.8189 24.9463 32.7178 24.5733 32.5644 24.2247C32.2331 23.4717 32.3761 22.8547 32.9794 22.3074C33.3595 21.9623 33.7326 21.6033 34.0499 21.2024C34.1929 21.0246 34.2348 20.7353 34.2522 20.4913C34.2836 20.0346 34.2034 19.5605 34.2766 19.1143C34.437 18.1453 34.7892 17.8176 35.94 17.3993C35.8424 16.7753 36.0237 16.3326 36.6026 16.0537C36.784 15.9666 37.0734 16.0955 37.314 16.1269L37.328 16.2594C37.6418 16.0467 37.9731 15.855 38.2695 15.618C38.6322 15.3252 38.5974 15.1265 38.1859 14.9173C37.9871 14.8162 37.7778 14.7325 37.586 14.6175C37.199 14.3805 37.1327 14.0842 37.4744 13.7844C37.8859 13.4218 38.3567 13.129 38.8031 12.8083C38.8763 12.756 38.9531 12.7038 39.117 12.5922C38.001 11.8114 36.9304 11.0514 35.8459 10.3089C35.4937 10.0684 35.1066 10.0649 34.6742 10.1451C34.3743 10.1974 34.029 10.051 33.7152 9.94989C33.2932 9.81394 32.8957 9.60129 32.4667 9.49672C32.0238 9.38865 31.8355 9.6257 31.9157 10.0789C31.9994 10.546 32.0936 11.0096 32.1459 11.4802C32.1773 11.7486 32.1598 12.0345 32.1145 12.3029C32.0517 12.6828 31.8599 12.7979 31.4973 12.6933C31.2985 12.6375 31.1032 12.5469 30.9253 12.4353C30.0884 11.9125 29.2549 11.3791 28.425 10.8492C27.8844 10.5076 27.867 10.288 28.3971 9.92548C28.819 9.63615 29.2689 9.38865 29.7118 9.1307C29.9106 9.01566 30.0431 8.90063 29.9698 8.62873C29.9385 8.51718 30.0117 8.35683 30.0814 8.24528C30.1616 8.1163 30.2872 8.01869 30.472 7.82C30.193 7.80257 30.0187 7.76422 29.8478 7.78862C28.8121 7.93155 27.9542 7.56901 27.2219 6.86834C26.5663 6.24088 25.7712 6.17465 24.9377 6.27923C24.8017 6.29666 24.6273 6.39775 24.568 6.51278C24.5297 6.57901 24.6692 6.75331 24.7459 6.86834C24.8226 6.98338 24.9168 7.08098 25.0632 7.26574C24.8156 7.26574 24.6587 7.3006 24.5262 7.25877C23.8392 7.04264 23.1348 6.8544 22.4757 6.56507C21.168 5.9899 19.9683 6.04567 18.7896 6.89972C17.5761 7.78165 16.3102 8.59038 15.0862 9.45837C14.7758 9.67798 14.5386 10.0022 14.2666 10.2776L14.3503 10.3821C14.6956 10.2113 15.0269 10.0091 15.3861 9.87668C16.0103 9.64661 16.6415 9.41306 17.2866 9.27013C17.7888 9.15858 18.0434 9.37122 18.0922 9.88365C18.1445 10.4309 18.1654 10.9887 18.134 11.536C18.0817 12.4528 18.134 13.1221 18.3886 13.8471C18.2247 13.8297 17.9841 13.7321 17.8969 13.8088C17.7714 13.9203 17.7574 14.1539 17.6981 14.3386C17.4819 14.9975 17.311 15.6772 17.0355 16.3117C16.5194 17.5108 16.1149 18.7239 16.5055 20.0242C16.7426 20.812 17.1227 21.558 17.4435 22.3214C17.7748 23.1092 18.012 23.8935 18.0713 24.7789C18.1236 25.5389 18.8071 26.1036 19.25 26.731L19.386 26.6648L18.4793 23.5798L18.6397 23.524C18.685 23.6181 18.7478 23.7053 18.7792 23.8064C19.0303 24.6709 19.4836 25.4168 20.073 26.0896C20.2613 26.3058 20.467 26.5289 20.5891 26.7868C20.7774 27.1807 20.9936 27.5955 21.0424 28.0173C21.1819 29.1747 21.8584 29.8788 22.8558 30.3111C23.9159 30.7677 25.004 31.1616 26.0815 31.5834C26.7441 31.8414 27.4067 32.0993 28.0762 32.3433C28.3204 32.434 28.5819 32.5455 28.8365 32.5386C29.3142 32.5281 29.5967 32.7756 29.8443 33.1242C29.8757 33.166 29.9106 33.2079 29.9315 33.2567C30.4476 34.4349 31.56 34.8811 32.5958 35.4214C32.941 35.6027 33.2583 35.5783 33.5164 35.2645C33.6942 35.0484 33.893 35.0589 34.1127 35.1878C34.179 35.2297 34.2522 35.261 34.322 35.2994C35.3856 35.8711 35.5878 36.7007 34.9078 37.7256C34.3917 38.5064 33.8372 39.2803 33.6838 40.2215C33.5164 41.2324 33.5338 42.2015 34.3185 43.0555C34.9078 43.6969 35.3856 44.4534 35.8564 45.1959C36.2853 45.8721 36.8223 46.4403 37.5268 46.7855C38.9286 47.4722 39.2006 48.5493 38.8798 50.0308C38.6113 51.2683 38.0777 52.4012 37.4744 53.4958C36.7421 54.8274 36.4527 56.2218 36.7073 57.7173C36.763 58.0414 36.9235 58.3482 37.0351 58.6619C23.9438 61.5273 8.54054 53.7921 4.45694 38.2798C0.132721 21.8612 10.9712 6.17465 26.7441 3.43124C43.4063 0.534453 58.412 12.5887 59.6605 28.8679C60.9054 45.0808 48.9371 56.3473 37.8964 58.4702H37.8929ZM33.3455 3.79029C32.7806 3.79029 32.383 4.06916 32.0552 4.47701C31.8704 4.70708 31.6368 4.97898 31.8355 5.2474C31.975 5.43564 32.2819 5.58205 32.5225 5.5925C33.7605 5.65874 34.8102 6.14328 35.7657 6.89623C36.3341 7.34591 36.899 7.80605 37.5128 8.18602C38.1335 8.57295 38.7926 8.91457 39.4692 9.18299C39.9121 9.36077 40.1213 9.08538 39.9609 8.63221C39.9086 8.4858 39.8423 8.3394 39.7656 8.20345C39.4448 7.64222 39.1623 7.08447 39.103 6.41169C39.0751 6.10145 38.8484 5.78074 38.6357 5.52278C38.2277 5.02081 37.6767 4.69663 37.0455 4.54673C36.2923 4.36895 35.532 4.21906 34.7718 4.06219C34.2975 3.96458 33.8198 3.87744 33.342 3.78332L33.3455 3.79029ZM31.8634 8.99823C32.0622 9.07492 32.1982 9.15858 32.3482 9.1795C32.8817 9.2527 33.4188 9.31196 33.9523 9.36425C34.2348 9.39214 34.5068 9.33637 34.6009 9.03658C34.6986 8.72982 34.73 8.35334 34.4266 8.16859C33.6245 7.67359 32.8294 7.12282 31.9541 6.80908C31.2985 6.57204 30.5243 6.66268 29.8024 6.62085C29.6734 6.61387 29.5374 6.67662 29.3526 6.71845C29.6351 7.21345 30.0814 7.23785 30.4964 7.31803C30.9079 7.39472 31.3368 7.42958 31.7309 7.56204C32.4284 7.79908 32.519 8.1895 32.0622 8.75073C32.0134 8.80999 31.968 8.87274 31.8704 9.00172L31.8634 8.99823ZM38.8938 29.091C38.416 28.7563 37.9557 28.603 37.5233 28.8156C36.9269 29.1084 36.4527 28.9481 35.94 28.6483C35.0438 28.1254 34.1302 27.606 33.0875 27.4387C32.7108 27.3794 32.3063 27.4387 31.9262 27.5014C31.8146 27.5189 31.7344 27.735 31.6402 27.8605C31.7588 27.9162 31.8739 28.0139 31.9994 28.0243C32.9654 28.1254 33.8756 28.4112 34.7404 28.8435C35.1868 29.0666 35.6262 29.3106 36.0795 29.5093C37.0664 29.9416 37.9417 29.5546 38.8938 29.0875V29.091ZM29.0422 5.76331C29.7815 6.15722 31.3089 5.61342 31.6019 4.83258C31.6368 4.73497 31.6751 4.61645 31.6507 4.5293C31.6123 4.40381 31.5426 4.25043 31.438 4.19465C31.0753 3.99596 29.792 4.32363 29.5758 4.6792C29.3735 5.01384 29.227 5.37986 29.0457 5.76331H29.0422Z" fill="#78DA76"/>
<path d="M37.8929 58.4702C38.3637 57.7347 38.7996 56.9992 39.2913 56.302C39.8807 55.4654 40.8571 55.1203 41.6522 54.5451C42.9006 53.6422 44.1944 52.7917 45.3731 51.8052C46.0985 51.1986 46.6704 50.3969 47.2737 49.6509C47.7654 49.0408 48.278 48.4831 48.9301 48.0299C49.3521 47.7371 49.7113 47.3188 50.0286 46.904C51.4445 45.0564 52.6546 43.0869 53.488 40.9047C53.638 40.5143 53.7321 40.0995 53.8123 39.6881C53.9274 39.0955 53.7356 38.7051 53.2021 38.4053C52.4802 38.001 51.6711 37.9452 50.8691 37.8824C50.2902 37.8371 49.7113 37.8267 49.1359 37.757C48.428 37.6733 48.149 37.4328 48.1141 36.7286C48.0618 35.6654 47.4899 35.139 46.517 34.9194C44.9233 34.5604 43.4621 33.8876 42.0253 33.1242C40.5746 32.3538 39.1449 32.3817 37.8057 33.4379C37.4849 33.6889 37.1187 33.8841 36.8084 34.1456C36.0272 34.8114 35.1275 34.895 34.1685 34.7347C33.9209 34.6928 33.6733 34.651 33.4327 34.5848C32.3516 34.292 31.8111 33.6401 31.717 32.5386C31.5984 31.1303 30.9672 30.4505 29.5827 30.2204C29.5444 30.2135 29.5095 30.196 29.4223 30.1647C29.4921 29.9555 29.5723 29.7533 29.6211 29.5442C29.6943 29.2235 29.7885 28.8993 29.7885 28.5786C29.7885 28.101 29.4607 27.9197 29.0422 28.1428C28.7632 28.2892 28.5156 28.4914 28.2471 28.6553C27.867 28.8888 27.4939 29.1468 27.0928 29.3315C26.371 29.6662 25.7642 29.4675 25.3074 28.8086C24.2856 27.3306 24.5262 25.8038 25.9943 24.7754C27.194 23.9353 28.547 23.6634 29.9838 23.9458C30.7859 24.1027 31.4136 24.5977 31.968 25.1798C32.111 25.3332 32.261 25.4901 32.4284 25.6086C32.5225 25.6748 32.7178 25.7341 32.7771 25.6853C32.8643 25.6121 32.934 25.4273 32.9061 25.3158C32.8189 24.9463 32.7178 24.5733 32.5644 24.2247C32.2331 23.4717 32.3761 22.8547 32.9794 22.3074C33.3595 21.9623 33.7326 21.6033 34.0499 21.2024C34.1929 21.0246 34.2348 20.7353 34.2522 20.4913C34.2836 20.0346 34.2034 19.5605 34.2766 19.1143C34.437 18.1453 34.7892 17.8176 35.94 17.3993C35.8424 16.7753 36.0237 16.3326 36.6026 16.0537C36.784 15.9666 37.0734 16.0955 37.314 16.1269L37.328 16.2594C37.6418 16.0467 37.9731 15.855 38.2695 15.618C38.6322 15.3252 38.5974 15.1265 38.1859 14.9173C37.9871 14.8162 37.7778 14.7325 37.586 14.6175C37.199 14.3805 37.1327 14.0842 37.4744 13.7844C37.8859 13.4218 38.3567 13.129 38.8031 12.8083C38.8763 12.756 38.9531 12.7038 39.117 12.5922C38.001 11.8114 36.9304 11.0514 35.8459 10.3089C35.4937 10.0684 35.1066 10.0649 34.6742 10.1451C34.3743 10.1974 34.029 10.051 33.7152 9.94989C33.2932 9.81394 32.8957 9.60129 32.4667 9.49672C32.0238 9.38865 31.8355 9.6257 31.9157 10.0789C31.9994 10.546 32.0936 11.0096 32.1459 11.4802C32.1773 11.7486 32.1598 12.0345 32.1145 12.3029C32.0517 12.6828 31.8599 12.7979 31.4973 12.6933C31.2985 12.6375 31.1032 12.5469 30.9253 12.4353C30.0884 11.9125 29.2549 11.3791 28.425 10.8492C27.8844 10.5076 27.867 10.288 28.3971 9.92548C28.819 9.63615 29.2689 9.38865 29.7118 9.1307C29.9106 9.01566 30.0431 8.90063 29.9698 8.62873C29.9385 8.51718 30.0117 8.35683 30.0814 8.24528C30.1616 8.1163 30.2872 8.01869 30.472 7.82C30.193 7.80257 30.0187 7.76422 29.8478 7.78862C28.8121 7.93155 27.9542 7.56901 27.2219 6.86834C26.5663 6.24088 25.7712 6.17465 24.9377 6.27923C24.8017 6.29666 24.6273 6.39775 24.568 6.51278C24.5297 6.57901 24.6692 6.75331 24.7459 6.86834C24.8226 6.98338 24.9168 7.08098 25.0632 7.26574C24.8156 7.26574 24.6587 7.3006 24.5262 7.25877C23.8392 7.04264 23.1348 6.8544 22.4757 6.56507C21.168 5.9899 19.9683 6.04567 18.7896 6.89972C17.5761 7.78165 16.3102 8.59038 15.0862 9.45837C14.7758 9.67798 14.5386 10.0022 14.2666 10.2776L14.3503 10.3821C14.6956 10.2113 15.0269 10.0091 15.3861 9.87668C16.0103 9.64661 16.6415 9.41306 17.2866 9.27013C17.7888 9.15858 18.0434 9.37122 18.0922 9.88365C18.1445 10.4309 18.1654 10.9887 18.134 11.536C18.0817 12.4528 18.134 13.1221 18.3886 13.8471C18.2247 13.8297 17.9841 13.7321 17.8969 13.8088C17.7714 13.9203 17.7574 14.1539 17.6981 14.3386C17.4819 14.9975 17.311 15.6772 17.0355 16.3117C16.5194 17.5108 16.1149 18.7239 16.5055 20.0242C16.7426 20.812 17.1227 21.558 17.4435 22.3214C17.7748 23.1092 18.012 23.8935 18.0713 24.7789C18.1236 25.5389 18.8071 26.1036 19.25 26.731L19.386 26.6648L18.4793 23.5798L18.6397 23.524C18.685 23.6181 18.7478 23.7053 18.7792 23.8064C19.0303 24.6709 19.4836 25.4168 20.073 26.0896C20.2613 26.3058 20.467 26.5289 20.5891 26.7868C20.7774 27.1807 20.9936 27.5955 21.0424 28.0173C21.1819 29.1747 21.8584 29.8788 22.8558 30.3111C23.9159 30.7677 25.004 31.1616 26.0815 31.5834C26.7441 31.8414 27.4067 32.0993 28.0762 32.3433C28.3204 32.434 28.5819 32.5455 28.8365 32.5386C29.3142 32.5281 29.5967 32.7756 29.8443 33.1242C29.8757 33.166 29.9106 33.2079 29.9315 33.2567C30.4476 34.4349 31.56 34.8811 32.5958 35.4214C32.941 35.6027 33.2583 35.5783 33.5164 35.2645C33.6942 35.0484 33.893 35.0589 34.1127 35.1878C34.179 35.2297 34.2522 35.261 34.322 35.2994C35.3856 35.8711 35.5878 36.7007 34.9078 37.7256C34.3917 38.5064 33.8372 39.2803 33.6838 40.2215C33.5164 41.2324 33.5338 42.2015 34.3185 43.0555C34.9078 43.6969 35.3856 44.4534 35.8564 45.1959C36.2853 45.8721 36.8223 46.4403 37.5268 46.7855C38.9286 47.4722 39.2006 48.5493 38.8798 50.0308C38.6113 51.2683 38.0777 52.4012 37.4744 53.4958C36.7421 54.8274 36.4527 56.2218 36.7073 57.7173C36.763 58.0414 36.9235 58.3482 37.0351 58.6619C23.9438 61.5273 8.54054 53.7921 4.45694 38.2798C0.132721 21.8612 10.9712 6.17465 26.7441 3.43124C43.4063 0.534453 58.412 12.5887 59.6605 28.8679C60.9054 45.0808 48.9371 56.3473 37.8964 58.4702H37.8929ZM33.3455 3.79029C32.7806 3.79029 32.383 4.06916 32.0552 4.47701C31.8704 4.70708 31.6368 4.97898 31.8355 5.2474C31.975 5.43564 32.2819 5.58205 32.5225 5.5925C33.7605 5.65874 34.8102 6.14328 35.7657 6.89623C36.3341 7.34591 36.899 7.80605 37.5128 8.18602C38.1335 8.57295 38.7926 8.91457 39.4692 9.18299C39.9121 9.36077 40.1213 9.08538 39.9609 8.63221C39.9086 8.4858 39.8423 8.3394 39.7656 8.20345C39.4448 7.64222 39.1623 7.08447 39.103 6.41169C39.0751 6.10145 38.8484 5.78074 38.6357 5.52278C38.2277 5.02081 37.6767 4.69663 37.0455 4.54673C36.2923 4.36895 35.532 4.21906 34.7718 4.06219C34.2975 3.96458 33.8198 3.87744 33.342 3.78332L33.3455 3.79029ZM31.8634 8.99823C32.0622 9.07492 32.1982 9.15858 32.3482 9.1795C32.8817 9.2527 33.4188 9.31196 33.9523 9.36425C34.2348 9.39214 34.5068 9.33637 34.6009 9.03658C34.6986 8.72982 34.73 8.35334 34.4266 8.16859C33.6245 7.67359 32.8294 7.12282 31.9541 6.80908C31.2985 6.57204 30.5243 6.66268 29.8024 6.62085C29.6734 6.61387 29.5374 6.67662 29.3526 6.71845C29.6351 7.21345 30.0814 7.23785 30.4964 7.31803C30.9079 7.39472 31.3368 7.42958 31.7309 7.56204C32.4284 7.79908 32.519 8.1895 32.0622 8.75073C32.0134 8.80999 31.968 8.87274 31.8704 9.00172L31.8634 8.99823ZM38.8938 29.091C38.416 28.7563 37.9557 28.603 37.5233 28.8156C36.9269 29.1084 36.4527 28.9481 35.94 28.6483C35.0438 28.1254 34.1302 27.606 33.0875 27.4387C32.7108 27.3794 32.3063 27.4387 31.9262 27.5014C31.8146 27.5189 31.7344 27.735 31.6402 27.8605C31.7588 27.9162 31.8739 28.0139 31.9994 28.0243C32.9654 28.1254 33.8756 28.4112 34.7404 28.8435C35.1868 29.0666 35.6262 29.3106 36.0795 29.5093C37.0664 29.9416 37.9417 29.5546 38.8938 29.0875V29.091ZM29.0422 5.76331C29.7815 6.15722 31.3089 5.61342 31.6019 4.83258C31.6368 4.73497 31.6751 4.61645 31.6507 4.5293C31.6123 4.40381 31.5426 4.25043 31.438 4.19465C31.0753 3.99596 29.792 4.32363 29.5758 4.6792C29.3735 5.01384 29.227 5.37986 29.0457 5.76331H29.0422Z" stroke="white" stroke-width="6" stroke-linejoin="round" mask="url(#path-1-outside-1_7202_598)"/>
</svg>
