<svg width="84" height="83" viewBox="0 0 84 83" fill="none" xmlns="http://www.w3.org/2000/svg">
<path d="M26.5311 27.2924C25.6109 27.9562 24.6791 28.3811 23.6997 28.5493L26.5311 27.2924ZM26.5311 27.2924C26.5474 27.2806 26.5654 27.2674 26.591 27.2485L26.591 27.2485C26.5965 27.2444 26.6035 27.2391 26.6121 27.2326C26.7209 27.1505 27.0712 26.886 27.4874 26.7608C27.7546 26.6804 28.1336 26.6267 28.5561 26.7492C28.989 26.8747 29.3093 27.1391 29.528 27.4214C30.073 28.1243 29.9957 28.9019 29.7908 29.4146C29.7059 29.6269 29.5934 29.8147 29.4846 29.9691C29.7953 30.0409 30.1103 30.13 30.4229 30.2416L26.5311 27.2924ZM12.0782 42.3489C11.5887 42.0469 11.2526 41.5608 11.129 40.959L11.1288 40.958C10.9956 40.3074 11.1479 39.7088 11.4992 39.2357C11.7511 38.8965 12.0873 38.6626 12.219 38.5711C12.2292 38.564 12.2382 38.5577 12.2458 38.5524C12.2458 38.5524 12.2458 38.5523 12.2458 38.5523L12.2569 38.5445L12.2584 38.5435C12.4615 38.4005 12.6649 38.2593 12.8639 38.1211L12.8662 38.1195L13.6848 39.2984L12.8662 38.1195C13.5477 37.6463 14.178 37.2079 14.771 36.7301L12.0782 42.3489ZM12.0782 42.3489C11.8902 42.7069 11.8473 43.0588 11.8292 43.2498L11.8292 43.2501C11.5578 46.1194 11.9255 48.8545 12.7429 51.4613L12.743 51.4617C14.7122 57.7359 18.3965 62.6394 22.8446 66.8154C25.4448 69.2571 28.2701 71.3621 31.2673 73.1963C36.998 76.7034 43.1505 79.2434 49.7835 80.5956C53.7786 81.4108 57.9338 81.8361 62.2164 81.1752C62.2165 81.1752 62.2165 81.1751 62.2166 81.1751L61.9878 79.6927M12.0782 42.3489L68.7545 78.9912C68.4128 79.259 67.7909 79.7465 67.059 79.9568M61.9878 79.6927C63.3144 79.4881 64.6298 79.1034 65.94 78.7202L65.9401 78.7202C66.1751 78.6514 66.41 78.5827 66.6448 78.5151M61.9878 79.6927C57.9464 80.3164 53.9844 79.9219 50.0834 79.1259L61.9878 79.6927ZM66.6448 78.5151L67.059 79.9568M66.6448 78.5151C67.084 78.3889 67.5003 78.0672 67.8838 77.7678C68.3009 77.4423 68.5927 76.987 68.4729 76.42C68.3588 75.8815 67.9859 75.5979 67.4913 75.4645C67.0914 75.3566 66.6903 75.2523 66.2892 75.148L66.2887 75.1479L66.2882 75.1478L66.2877 75.1476C65.275 74.8843 64.2623 74.6209 63.2691 74.2999L67.059 79.9568M66.6448 78.5151L67.0599 79.9566C67.0596 79.9566 67.0593 79.9567 67.059 79.9568M35.7961 34.9966C36.281 36.1008 36.6151 37.2687 36.9085 38.33L36.9086 38.3302L36.923 38.3826L35.7961 34.9966ZM35.7961 34.9966C35.7962 34.9968 35.7962 34.997 35.7963 34.9972L34.4245 35.599L35.7961 34.9966ZM11.0551 30.401L11.0548 30.401C10.1746 30.3621 9.28101 30.6867 8.08894 31.2241L11.0551 30.401ZM11.0551 30.401C13.0963 30.4907 14.5981 31.2847 15.6014 33.0019C16.293 34.1865 16.0338 35.712 14.7713 36.7299L11.0551 30.401ZM5.66212 32.0098L5.66098 32.01C4.91558 32.1408 4.14493 32.0406 3.47459 31.5889C2.83695 31.1592 2.46205 30.5266 2.23794 29.9205L2.23764 29.9197C1.56607 28.1004 2.36752 26.1912 3.82132 25.0757L5.66212 32.0098ZM5.66212 32.0098C6.52889 31.857 7.35717 31.5541 8.08868 31.2242L5.66212 32.0098ZM14.2406 24.791L14.2409 24.7911C15.2827 25.3154 16.2843 25.9027 17.2386 26.4622L17.2581 26.4736C17.9924 26.9041 18.6994 27.3184 19.4158 27.704L14.2406 24.791ZM14.2406 24.791C12.027 23.6776 9.56212 23.1727 6.91007 23.725L14.2406 24.791ZM29.1923 30.3325L28.9047 30.0765L29.1919 30.333C29.192 30.3329 29.1922 30.3327 29.1923 30.3325ZM28.4942 29.5752C28.4997 29.5718 28.4993 29.5724 28.4934 29.5758C28.4936 29.5756 28.4939 29.5754 28.4942 29.5752ZM28.4173 32.8128L28.4206 32.8134L28.4173 32.8128ZM27.0397 28.2302C27.0397 28.2303 27.0392 28.2312 27.0381 28.2328C27.0392 28.231 27.0397 28.2302 27.0397 28.2302ZM6.9098 23.7251C5.88754 23.9378 4.81256 24.3148 3.82177 25.0753L6.9098 23.7251ZM23.6992 28.5493C22.2184 28.8028 20.8258 28.4621 19.4164 27.7043L23.6992 28.5493Z" fill="#78DA76" stroke="white" stroke-width="3" stroke-linejoin="round"/>
</svg>
