<svg width="83" height="83" viewBox="0 0 83 83" fill="none" xmlns="http://www.w3.org/2000/svg">
<path d="M13.5354 68.5934C13.5716 68.6286 13.6095 68.6618 13.6489 68.693C30.492 84.9162 58.7515 82.3902 78.9967 64.3889C79.3083 64.1118 79.4905 63.7175 79.4996 63.3006C79.5087 62.8837 79.3439 62.4819 79.0446 62.1915L16.941 1.92355C16.6361 1.62765 16.22 1.47495 15.7961 1.50336C15.3721 1.53177 14.9801 1.73863 14.7174 2.07256C-2.10137 23.4518 -3.27713 52.2675 13.5354 68.5934ZM34.6153 57.3418C38.7052 55.7808 43.2852 57.8777 44.8411 62.0666C46.3907 66.2769 44.2918 70.9341 40.1883 72.5002C36.0931 74.0528 31.5165 71.9589 29.9729 67.7753C29.9546 67.7256 29.9337 67.6772 29.9106 67.6303C28.4613 63.4586 30.5589 58.8899 34.6153 57.3418ZM15.3554 18.6833C15.3854 18.6718 15.4149 18.6595 15.4438 18.6463C19.5131 17.1543 24.0389 19.2473 25.5705 23.4072L25.5714 23.4098C27.1289 27.6161 25.0244 32.2744 20.918 33.8417L20.917 33.8421C16.8345 35.4035 12.2474 33.3126 10.703 29.1178L10.702 29.1152C9.14449 24.9089 11.249 20.2505 15.3554 18.6833ZM33.0962 46.1876L33.0953 46.185C31.5377 41.9787 33.6422 37.3204 37.7486 35.7532C41.8433 34.1904 46.4301 36.2834 47.9741 40.4771L47.9751 40.4797C49.5326 44.686 47.4281 49.3443 43.3217 50.9115C39.2271 52.4743 34.6402 50.3813 33.0962 46.1876ZM49.6718 64.5945L49.6709 64.5919C48.1133 60.3856 50.2178 55.7272 54.3243 54.16C58.4189 52.5972 63.0057 54.6903 64.5497 58.8839L64.5507 58.8865C66.1082 63.0928 64.0037 67.7511 59.8973 69.3184C55.8027 70.8811 51.2158 68.7881 49.6718 64.5945ZM12.9375 52.3111C11.3885 48.1011 13.4874 43.4444 17.5906 41.8784C21.6809 40.3173 26.2613 42.4147 27.8168 46.6043C29.3656 50.8143 27.2667 55.4708 23.1636 57.0368C19.0734 58.5979 14.4931 56.5006 12.9375 52.3111Z" fill="#78DA76" stroke="white" stroke-width="3" stroke-linejoin="round"/>
</svg>
