<svg width="84" height="83" viewBox="0 0 84 83" fill="none" xmlns="http://www.w3.org/2000/svg">
<path d="M22.0787 26.9126C22.098 26.9326 22.1178 26.9521 22.1381 26.971C22.9509 27.7262 23.9615 28.0785 25.0598 28.0785C26.1582 28.0785 27.1687 27.7262 27.9815 26.971C27.9914 26.9618 28.0012 26.9525 28.0108 26.943C28.8036 26.1654 29.2207 25.1784 29.2207 24.0669C29.2207 22.9535 28.801 21.9635 27.9815 21.202C27.1687 20.4468 26.1582 20.0945 25.0598 20.0945C23.9615 20.0945 22.9509 20.4468 22.1381 21.202C22.1277 21.2117 22.1174 21.2216 22.1072 21.2316C21.3257 22.0005 20.9411 22.9817 20.9411 24.0669C20.9411 25.1511 21.3238 26.1287 22.0787 26.9126ZM36.397 42.4534C36.4162 42.4734 36.4361 42.4929 36.4564 42.5118C37.2692 43.267 38.2798 43.6193 39.3781 43.6193C40.4931 43.6193 41.5123 43.2411 42.3019 42.4298C43.0728 41.6667 43.4968 40.7029 43.4968 39.6077C43.4968 38.5081 43.0874 37.5288 42.2878 36.7712C41.5002 35.9698 40.4865 35.596 39.3781 35.596C38.2558 35.596 37.2356 35.9779 36.4271 36.7708L36.4255 36.7724C35.644 37.5412 35.2594 38.5225 35.2594 39.6077C35.2594 40.6919 35.6421 41.6695 36.397 42.4534ZM29.1494 20.5742L29.161 20.5848C30.1993 21.5295 30.6978 22.6568 30.6978 24.0669C30.6978 25.4753 30.2 26.6202 29.1552 27.5935C28.1118 28.5403 26.7971 29.0422 25.1021 29.0422C23.4159 29.0422 22.0843 28.5327 21.0067 27.5543C19.9569 26.5764 19.464 25.4424 19.464 24.0669C19.464 22.6914 19.9569 21.5574 21.0067 20.5795C22.0843 19.6011 23.4159 19.0916 25.1021 19.0916C26.7913 19.0916 28.1038 19.6026 29.1494 20.5742ZM37.5476 5.48066C35.4994 0.173113 27.7506 0.173112 25.7024 5.48066C24.979 7.35514 22.5435 8.1721 20.7117 7.00081C18.2873 5.45054 15.4971 5.7738 13.5359 7.14084C11.5684 8.51221 10.3344 11.0163 11.1454 13.7872C11.6909 15.6512 10.2949 17.6554 8.07809 17.7414C2.32642 17.9646 -0.30189 25.099 4.43458 28.6897C6.08661 29.9422 6.08661 32.3078 4.43458 33.5603C-0.30189 37.151 2.32642 44.2854 8.07809 44.5086C10.2949 44.5946 11.6909 46.5988 11.1454 48.4628C10.3344 51.2337 11.5684 53.7378 13.5359 55.1092C15.4971 56.4762 18.2873 56.7995 20.7117 55.2492C22.5435 54.0779 24.979 54.8949 25.7024 56.7693C27.7506 62.0769 35.4994 62.0769 37.5476 56.7693C38.271 54.8949 40.7065 54.0779 42.5383 55.2492C44.9627 56.7995 47.7529 56.4762 49.7141 55.1092C51.6816 53.7378 52.9156 51.2337 52.1046 48.4628C51.5591 46.5988 52.9551 44.5946 55.1719 44.5086C60.9236 44.2854 63.5519 37.151 58.8154 33.5603C57.1634 32.3078 57.1634 29.9422 58.8154 28.6897C63.5519 25.099 60.9236 17.9646 55.1719 17.7414C52.9551 17.6554 51.5591 15.6512 52.1046 13.7872C52.9156 11.0163 51.6816 8.51221 49.7141 7.14084C47.7529 5.7738 44.9627 5.45054 42.5383 7.00081C40.7065 8.1721 38.271 7.35514 37.5476 5.48066ZM43.4255 43.1004C42.3798 44.072 41.0674 44.583 39.3781 44.583C37.6888 44.583 36.3763 44.072 35.3307 43.1004C34.2769 42.1213 33.7823 40.9857 33.7823 39.6077C33.7823 38.2297 34.2769 37.0941 35.3307 36.115C36.3763 35.1434 37.6888 34.6324 39.3781 34.6324C41.0674 34.6324 42.3798 35.1434 43.4255 36.115C44.4792 37.0941 44.9739 38.2297 44.9739 39.6077C44.9739 40.9857 44.4792 42.1213 43.4255 43.1004Z" fill="#78DA76" stroke="white" stroke-width="3" stroke-linejoin="round"/>
</svg>
