<svg width="84" height="83" viewBox="0 0 84 83" fill="none" xmlns="http://www.w3.org/2000/svg">
<path d="M29.8392 33.7521C29.0107 33.7521 28.3392 34.4237 28.3392 35.2521V37.3736C28.3392 38.202 29.0107 38.8736 29.8392 38.8736H37.111V39.2679H29.8392C29.0107 39.2679 28.3392 39.9394 28.3392 40.7679V43.125H25.9502V40.7679C25.9502 39.9394 25.2786 39.2679 24.4502 39.2679H23V38.8736H24.4502C25.2786 38.8736 25.9502 38.202 25.9502 37.3736V35.2521C25.9502 34.4237 25.2786 33.7521 24.4502 33.7521H23V32.085H24.4502C25.2786 32.085 25.9502 31.4134 25.9502 30.585V19.125H34.7168C36.9375 19.125 38.7449 19.8571 40.2356 21.3189L40.2356 21.3189L40.2435 21.3265C41.7668 22.7986 42.5 24.5205 42.5 26.5736C42.5 28.6303 41.778 30.3014 40.3035 31.6853C38.8216 33.051 36.9931 33.7521 34.7168 33.7521H29.8392ZM29.8392 21.1007C29.0107 21.1007 28.3392 21.7723 28.3392 22.6007V30.585C28.3392 31.4134 29.0107 32.085 29.8392 32.085H34.7168C36.2087 32.085 37.521 31.5453 38.5478 30.4715C39.5921 29.4074 40.111 28.0752 40.111 26.5736C40.111 25.0758 39.594 23.749 38.5389 22.705C37.5134 21.6373 36.2044 21.1007 34.7168 21.1007H29.8392ZM31.625 60.75C47.9864 60.75 61.25 47.4864 61.25 31.125C61.25 14.7636 47.9864 1.5 31.625 1.5C15.2636 1.5 2 14.7636 2 31.125C2 47.4864 15.2636 60.75 31.625 60.75Z" fill="#78DA76" stroke="white" stroke-width="3" stroke-linejoin="round"/>
</svg>
