<svg width="86" height="80" viewBox="0 0 86 80" fill="none" xmlns="http://www.w3.org/2000/svg">
<path fill-rule="evenodd" clip-rule="evenodd" d="M5.58065 41.3208H39.129C40.5543 41.3208 41.7097 42.4823 41.7097 43.9151V71.1557C41.7097 72.5885 40.5543 73.75 39.129 73.75H5.58065C4.15539 73.75 3 72.5885 3 71.1557V43.9151C3 42.4823 4.15539 41.3208 5.58065 41.3208ZM15.9032 43.9151V51.6981C15.9032 52.4145 16.4809 52.9953 17.1935 52.9953H27.5161C28.2288 52.9953 28.8064 52.4145 28.8064 51.6981V43.9151H15.9032ZM46.871 41.3208H80.4193C81.8446 41.3208 83 42.4823 83 43.9151V71.1557C83 72.5885 81.8446 73.75 80.4193 73.75H46.871C45.4457 73.75 44.2903 72.5885 44.2903 71.1557V43.9151C44.2903 42.4823 45.4457 41.3208 46.871 41.3208ZM57.1935 43.9151V51.6981C57.1935 52.4145 57.7712 52.9953 58.4839 52.9953H68.8064C69.5191 52.9953 70.0968 52.4145 70.0968 51.6981V43.9151H57.1935ZM26.2258 5H59.7742C61.1994 5 62.3548 6.16153 62.3548 7.59434V36.1321C62.3548 37.5649 61.1994 38.7264 59.7742 38.7264H26.2258C24.8006 38.7264 23.6452 37.5649 23.6452 36.1321V7.59434C23.6452 6.16153 24.8006 5 26.2258 5ZM36.5484 7.59434V15.3774C36.5484 16.0938 37.1261 16.6745 37.8387 16.6745H48.1613C48.8739 16.6745 49.4516 16.0938 49.4516 15.3774V7.59434H36.5484Z" fill="#78DA76"/>
<path fill-rule="evenodd" clip-rule="evenodd" d="M5.58065 41.3208C4.15539 41.3208 3 42.4823 3 43.9151V71.1557C3 72.5885 4.15539 73.75 5.58065 73.75H39.129C40.1245 73.75 40.9884 73.1833 41.4188 72.3534C41.6046 71.9951 41.7097 71.5877 41.7097 71.1557V43.9151C41.7097 43.4831 41.6046 43.0757 41.4188 42.7174C41.209 42.3128 40.8961 41.9707 40.5152 41.7264C40.1148 41.4696 39.6392 41.3208 39.129 41.3208H5.58065ZM28.8064 43.9151H15.9032V51.6981C15.9032 52.4145 16.4809 52.9953 17.1935 52.9953H27.5161C28.2288 52.9953 28.8064 52.4145 28.8064 51.6981V43.9151ZM25.8064 46.9151V49.9953H18.9032V46.9151H25.8064ZM44.5812 42.7174C44.3954 43.0757 44.2903 43.4831 44.2903 43.9151V71.1557C44.2903 71.5877 44.3954 71.9951 44.5812 72.3534C45.0116 73.1833 45.8755 73.75 46.871 73.75H80.4193C81.8446 73.75 83 72.5885 83 71.1557V43.9151C83 42.4823 81.8446 41.3208 80.4193 41.3208H46.871C46.3608 41.3208 45.8852 41.4696 45.4848 41.7264C45.1039 41.9707 44.791 42.3128 44.5812 42.7174ZM70.0968 43.9151H57.1935V51.6981C57.1935 52.4145 57.7712 52.9953 58.4839 52.9953H68.8064C69.5191 52.9953 70.0968 52.4145 70.0968 51.6981V43.9151ZM67.0968 46.9151V49.9953H60.1935V46.9151H67.0968ZM64.911 38.3208H80.4193C83.5164 38.3208 86 40.8404 86 43.9151V71.1557C86 74.2303 83.5164 76.75 80.4193 76.75H46.871C45.3634 76.75 44.0011 76.153 43 75.1855C41.9989 76.153 40.6366 76.75 39.129 76.75H5.58065C2.48359 76.75 0 74.2303 0 71.1557V43.9151C0 40.8404 2.48359 38.3208 5.58065 38.3208H21.089C20.8031 37.6475 20.6452 36.9074 20.6452 36.1321V7.59434C20.6452 4.51966 23.1287 2 26.2258 2H59.7742C62.8712 2 65.3548 4.51966 65.3548 7.59434V36.1321C65.3548 36.9074 65.1969 37.6475 64.911 38.3208ZM24.8396 38.3208C25.24 38.5776 25.7156 38.7264 26.2258 38.7264H59.7742C60.2844 38.7264 60.76 38.5776 61.1604 38.3208C61.8786 37.8601 62.3548 37.052 62.3548 36.1321V7.59434C62.3548 6.16153 61.1994 5 59.7742 5H26.2258C24.8006 5 23.6452 6.16153 23.6452 7.59434V36.1321C23.6452 37.052 24.1214 37.8601 24.8396 38.3208ZM49.4516 7.59434H36.5484V15.3774C36.5484 16.0938 37.1261 16.6745 37.8387 16.6745H48.1613C48.8739 16.6745 49.4516 16.0938 49.4516 15.3774V7.59434ZM46.4516 10.5943V13.6745H39.5484V10.5943H46.4516Z" fill="white"/>
</svg>
