<svg width="84" height="80" viewBox="0 0 84 80" fill="none" xmlns="http://www.w3.org/2000/svg">
<path d="M13.0259 59C19.0926 59 24.0517 54.1536 24.0517 48.125C24.0517 42.0964 19.0926 37.25 13.0259 37.25C6.95911 37.25 2 42.0964 2 48.125C2 54.1536 6.95911 59 13.0259 59ZM36.4741 59C42.5409 59 47.5 54.1536 47.5 48.125C47.5 42.0964 42.5409 37.25 36.4741 37.25C30.4074 37.25 25.4483 42.0964 25.4483 48.125C25.4483 54.1536 30.4074 59 36.4741 59ZM24.75 40.25C30.8168 40.25 35.7759 35.4036 35.7759 29.375C35.7759 23.3464 30.8168 18.5 24.75 18.5C18.6833 18.5 13.7241 23.3464 13.7241 29.375C13.7241 35.4036 18.6833 40.25 24.75 40.25Z" fill="#78DA76" stroke="white" stroke-width="3" stroke-linejoin="round"/>
</svg>
