<svg width="438" height="89" viewBox="0 0 438 89" fill="none" xmlns="http://www.w3.org/2000/svg">
<rect x="1" y="1.14551" width="434" height="86" rx="19" stroke="#333333" stroke-width="2"/>
<path d="M155.155 38.1455V28.3455H161.154V30.4665H157.479V38.1455H155.155ZM165.047 38.3555C164.267 38.3555 163.579 38.1852 162.982 37.8445C162.384 37.4992 161.915 37.0395 161.575 36.4655C161.239 35.8915 161.071 35.2615 161.071 34.5755C161.071 34.0762 161.166 33.6002 161.358 33.1475C161.554 32.6902 161.829 32.2865 162.184 31.9365C162.538 31.5818 162.958 31.3042 163.444 31.1035C163.929 30.8982 164.463 30.7955 165.047 30.7955C165.826 30.7955 166.514 30.9682 167.112 31.3135C167.709 31.6542 168.176 32.1115 168.512 32.6855C168.848 33.2595 169.016 33.8895 169.016 34.5755C169.016 35.0748 168.92 35.5532 168.729 36.0105C168.537 36.4632 168.264 36.8645 167.91 37.2145C167.555 37.5645 167.135 37.8422 166.65 38.0475C166.164 38.2528 165.63 38.3555 165.047 38.3555ZM165.047 36.3815C165.373 36.3815 165.667 36.3092 165.929 36.1645C166.19 36.0152 166.395 35.8052 166.545 35.5345C166.694 35.2638 166.769 34.9442 166.769 34.5755C166.769 34.2022 166.694 33.8825 166.545 33.6165C166.4 33.3458 166.197 33.1382 165.936 32.9935C165.674 32.8442 165.378 32.7695 165.047 32.7695C164.715 32.7695 164.419 32.8442 164.158 32.9935C163.896 33.1382 163.691 33.3458 163.542 33.6165C163.392 33.8825 163.318 34.2022 163.318 34.5755C163.318 34.9442 163.392 35.2638 163.542 35.5345C163.696 35.8052 163.903 36.0152 164.165 36.1645C164.426 36.3092 164.72 36.3815 165.047 36.3815ZM175.358 38.1455V32.8255H173.307V33.3155C173.307 33.8615 173.261 34.3888 173.167 34.8975C173.074 35.4015 172.911 35.8658 172.677 36.2905C172.444 36.7105 172.122 37.0675 171.711 37.3615C171.305 37.6555 170.787 37.8632 170.157 37.9845L169.723 36.3885C170.139 36.2952 170.454 36.0992 170.668 35.8005C170.888 35.5018 171.035 35.1355 171.109 34.7015C171.184 34.2675 171.221 33.8055 171.221 33.3155V31.0055H177.654V38.1455H175.358ZM169.723 40.2455V36.3885L170.92 36.4725L171.284 36.3255H179.082V40.2455H176.989V38.1455H171.816V40.2455H169.723ZM186.867 38.3555C186.088 38.3555 185.399 38.1852 184.802 37.8445C184.205 37.4992 183.736 37.0395 183.395 36.4655C183.059 35.8915 182.891 35.2615 182.891 34.5755C182.891 34.0762 182.987 33.6002 183.178 33.1475C183.374 32.6902 183.649 32.2865 184.004 31.9365C184.359 31.5818 184.779 31.3042 185.264 31.1035C185.749 30.8982 186.284 30.7955 186.867 30.7955C187.646 30.7955 188.335 30.9682 188.932 31.3135C189.529 31.6542 189.996 32.1115 190.332 32.6855C190.668 33.2595 190.836 33.8895 190.836 34.5755C190.836 35.0748 190.74 35.5532 190.549 36.0105C190.358 36.4632 190.085 36.8645 189.73 37.2145C189.375 37.5645 188.955 37.8422 188.47 38.0475C187.985 38.2528 187.45 38.3555 186.867 38.3555ZM186.867 36.3815C187.194 36.3815 187.488 36.3092 187.749 36.1645C188.01 36.0152 188.216 35.8052 188.365 35.5345C188.514 35.2638 188.589 34.9442 188.589 34.5755C188.589 34.2022 188.514 33.8825 188.365 33.6165C188.22 33.3458 188.017 33.1382 187.756 32.9935C187.495 32.8442 187.198 32.7695 186.867 32.7695C186.536 32.7695 186.239 32.8442 185.978 32.9935C185.717 33.1382 185.511 33.3458 185.362 33.6165C185.213 33.8825 185.138 34.2022 185.138 34.5755C185.138 34.9442 185.213 35.2638 185.362 35.5345C185.516 35.8052 185.724 36.0152 185.985 36.1645C186.246 36.3092 186.54 36.3815 186.867 36.3815ZM195.807 38.3555C195.205 38.3555 194.656 38.2505 194.162 38.0405C193.672 37.8305 193.249 37.5295 192.895 37.1375C192.54 36.7408 192.267 36.2625 192.076 35.7025C191.884 35.1425 191.789 34.5125 191.789 33.8125C191.789 33.0378 191.856 32.3472 191.992 31.7405C192.132 31.1338 192.346 30.6088 192.636 30.1655C192.93 29.7175 193.305 29.3535 193.763 29.0735C194.225 28.7935 194.775 28.5952 195.415 28.4785L198.838 27.8555L199.174 29.7385L195.842 30.2915C195.394 30.3755 195.037 30.5015 194.771 30.6695C194.505 30.8375 194.304 31.0592 194.169 31.3345C194.038 31.6098 193.952 31.9505 193.91 32.3565C194.204 32.0812 194.544 31.8642 194.932 31.7055C195.324 31.5468 195.758 31.4675 196.234 31.4675C196.896 31.4675 197.482 31.6145 197.991 31.9085C198.499 32.2025 198.898 32.5992 199.188 33.0985C199.482 33.5932 199.629 34.1438 199.629 34.7505C199.629 35.2498 199.538 35.7188 199.356 36.1575C199.174 36.5915 198.915 36.9742 198.579 37.3055C198.243 37.6368 197.841 37.8958 197.375 38.0825C196.908 38.2645 196.385 38.3555 195.807 38.3555ZM195.786 36.3815C196.084 36.3815 196.353 36.3162 196.591 36.1855C196.833 36.0548 197.025 35.8705 197.165 35.6325C197.309 35.3945 197.382 35.1122 197.382 34.7855C197.382 34.4542 197.312 34.1695 197.172 33.9315C197.032 33.6935 196.84 33.5115 196.598 33.3855C196.36 33.2548 196.089 33.1895 195.786 33.1895C195.482 33.1895 195.209 33.2548 194.967 33.3855C194.724 33.5115 194.533 33.6935 194.393 33.9315C194.253 34.1695 194.183 34.4542 194.183 34.7855C194.183 35.1122 194.253 35.3945 194.393 35.6325C194.537 35.8705 194.731 36.0548 194.974 36.1855C195.216 36.3162 195.487 36.3815 195.786 36.3815ZM202.356 38.1455V31.0055H204.652V36.5355H205.604C205.963 36.5355 206.239 36.4562 206.43 36.2975C206.626 36.1342 206.724 35.9055 206.724 35.6115C206.724 35.3268 206.635 35.1005 206.458 34.9325C206.285 34.7598 206.038 34.6735 205.716 34.6735H204.421V33.0845H205.905C206.894 33.0845 207.669 33.2968 208.229 33.7215C208.794 34.1415 209.076 34.7715 209.076 35.6115C209.076 36.1388 208.945 36.5915 208.684 36.9695C208.423 37.3475 208.052 37.6392 207.571 37.8445C207.09 38.0452 206.523 38.1455 205.87 38.1455H202.356ZM200.403 32.8255V31.0055H204.652L202.356 32.8255H200.403ZM213.868 38.3555C213.084 38.3555 212.396 38.1992 211.803 37.8865C211.21 37.5692 210.748 37.1282 210.417 36.5635C210.086 35.9942 209.92 35.3292 209.92 34.5685C209.92 34.0178 210.016 33.5115 210.207 33.0495C210.403 32.5875 210.674 32.1885 211.019 31.8525C211.369 31.5165 211.78 31.2575 212.251 31.0755C212.727 30.8888 213.25 30.7955 213.819 30.7955C214.444 30.7955 215.002 30.9075 215.492 31.1315C215.982 31.3508 216.386 31.6588 216.703 32.0555C217.025 32.4475 217.247 32.9118 217.368 33.4485C217.489 33.9805 217.494 34.5592 217.382 35.1845H212.02C212.025 35.4645 212.109 35.7095 212.272 35.9195C212.435 36.1295 212.659 36.2952 212.944 36.4165C213.229 36.5332 213.56 36.5915 213.938 36.5915C214.358 36.5915 214.757 36.5378 215.135 36.4305C215.513 36.3185 215.875 36.1482 216.22 35.9195L216.941 37.4735C216.722 37.6415 216.437 37.7932 216.087 37.9285C215.742 38.0592 215.373 38.1618 214.981 38.2365C214.594 38.3158 214.223 38.3555 213.868 38.3555ZM212.16 33.6375H215.198C215.189 33.2782 215.056 32.9912 214.799 32.7765C214.542 32.5618 214.195 32.4545 213.756 32.4545C213.313 32.4545 212.944 32.5618 212.65 32.7765C212.361 32.9912 212.197 33.2782 212.16 33.6375ZM223.798 38.1455V32.8255H221.747V33.3155C221.747 33.8615 221.7 34.3888 221.607 34.8975C221.513 35.4015 221.35 35.8658 221.117 36.2905C220.883 36.7105 220.561 37.0675 220.151 37.3615C219.745 37.6555 219.227 37.8632 218.597 37.9845L218.163 36.3885C218.578 36.2952 218.893 36.0992 219.108 35.8005C219.327 35.5018 219.474 35.1355 219.549 34.7015C219.623 34.2675 219.661 33.8055 219.661 33.3155V31.0055H226.094V38.1455H223.798ZM218.163 40.2455V36.3885L219.36 36.4725L219.724 36.3255H227.522V40.2455H225.429V38.1455H220.256V40.2455H218.163ZM228.671 38.1455V31.0055H230.862V34.9255L233.942 31.0055H236V38.1455H233.809V34.1695L230.722 38.1455H228.671ZM237.899 38.1455V31.0055H240.195V33.5745H242.932V31.0055H245.228V38.1455H242.932V35.3945H240.195V38.1455H237.899ZM250.509 38.3555C249.725 38.3555 249.036 38.1992 248.444 37.8865C247.851 37.5692 247.389 37.1282 247.058 36.5635C246.726 35.9942 246.561 35.3292 246.561 34.5685C246.561 34.0178 246.656 33.5115 246.848 33.0495C247.044 32.5875 247.314 32.1885 247.66 31.8525C248.01 31.5165 248.42 31.2575 248.892 31.0755C249.368 30.8888 249.89 30.7955 250.46 30.7955C251.085 30.7955 251.643 30.9075 252.133 31.1315C252.623 31.3508 253.026 31.6588 253.344 32.0555C253.666 32.4475 253.887 32.9118 254.009 33.4485C254.13 33.9805 254.135 34.5592 254.023 35.1845H248.661C248.665 35.4645 248.749 35.7095 248.913 35.9195C249.076 36.1295 249.3 36.2952 249.585 36.4165C249.869 36.5332 250.201 36.5915 250.579 36.5915C250.999 36.5915 251.398 36.5378 251.776 36.4305C252.154 36.3185 252.515 36.1482 252.861 35.9195L253.582 37.4735C253.362 37.6415 253.078 37.7932 252.728 37.9285C252.382 38.0592 252.014 38.1618 251.622 38.2365C251.234 38.3158 250.863 38.3555 250.509 38.3555ZM248.801 33.6375H251.839C251.829 33.2782 251.696 32.9912 251.44 32.7765C251.183 32.5618 250.835 32.4545 250.397 32.4545C249.953 32.4545 249.585 32.5618 249.291 32.7765C249.001 32.9912 248.838 33.2782 248.801 33.6375ZM255.44 38.1455V31.0055H257.736V33.5745H260.473V31.0055H262.769V38.1455H260.473V35.3945H257.736V38.1455H255.44ZM264.669 38.1455V31.0055H266.86V34.9255L269.94 31.0055H271.998V38.1455H269.807V34.1695L266.72 38.1455H264.669ZM273.351 38.1455L275.822 34.3585L276.431 35.7515C275.885 35.7562 275.398 35.6698 274.968 35.4925C274.544 35.3105 274.208 35.0515 273.96 34.7155C273.718 34.3795 273.596 33.9735 273.596 33.4975C273.596 32.9795 273.72 32.5362 273.967 32.1675C274.215 31.7942 274.567 31.5072 275.024 31.3065C275.482 31.1058 276.023 31.0055 276.648 31.0055H280.106V38.1455H277.929V32.6155H276.914C276.574 32.6155 276.31 32.6855 276.123 32.8255C275.937 32.9608 275.843 33.1592 275.843 33.4205C275.843 33.6772 275.927 33.8802 276.095 34.0295C276.263 34.1742 276.499 34.2465 276.802 34.2465H278.139V35.7795H277.327L275.85 38.1455H273.351ZM288.633 38.3555C287.877 38.3555 287.2 38.1922 286.603 37.8655C286.01 37.5342 285.541 37.0838 285.196 36.5145C284.851 35.9405 284.678 35.2942 284.678 34.5755C284.678 34.0342 284.778 33.5348 284.979 33.0775C285.184 32.6202 285.471 32.2212 285.84 31.8805C286.209 31.5352 286.638 31.2692 287.128 31.0825C287.618 30.8912 288.15 30.7955 288.724 30.7955C289.265 30.7955 289.767 30.8702 290.229 31.0195C290.691 31.1642 291.106 31.3835 291.475 31.6775L290.467 33.3785C290.238 33.1685 289.986 33.0145 289.711 32.9165C289.44 32.8185 289.156 32.7695 288.857 32.7695C288.465 32.7695 288.127 32.8395 287.842 32.9795C287.557 33.1195 287.338 33.3248 287.184 33.5955C287.035 33.8662 286.96 34.1905 286.96 34.5685C286.96 35.1378 287.128 35.5835 287.464 35.9055C287.805 36.2228 288.271 36.3815 288.864 36.3815C289.2 36.3815 289.515 36.3208 289.809 36.1995C290.108 36.0735 290.381 35.8915 290.628 35.6535L291.559 37.3895C291.158 37.6882 290.698 37.9238 290.18 38.0965C289.667 38.2692 289.151 38.3555 288.633 38.3555ZM296.023 38.3555C295.244 38.3555 294.555 38.1852 293.958 37.8445C293.361 37.4992 292.892 37.0395 292.551 36.4655C292.215 35.8915 292.047 35.2615 292.047 34.5755C292.047 34.0762 292.143 33.6002 292.334 33.1475C292.53 32.6902 292.805 32.2865 293.16 31.9365C293.515 31.5818 293.935 31.3042 294.42 31.1035C294.905 30.8982 295.44 30.7955 296.023 30.7955C296.802 30.7955 297.491 30.9682 298.088 31.3135C298.685 31.6542 299.152 32.1115 299.488 32.6855C299.824 33.2595 299.992 33.8895 299.992 34.5755C299.992 35.0748 299.896 35.5532 299.705 36.0105C299.514 36.4632 299.241 36.8645 298.886 37.2145C298.531 37.5645 298.111 37.8422 297.626 38.0475C297.141 38.2528 296.606 38.3555 296.023 38.3555ZM296.023 36.3815C296.35 36.3815 296.644 36.3092 296.905 36.1645C297.166 36.0152 297.372 35.8052 297.521 35.5345C297.67 35.2638 297.745 34.9442 297.745 34.5755C297.745 34.2022 297.67 33.8825 297.521 33.6165C297.376 33.3458 297.173 33.1382 296.912 32.9935C296.651 32.8442 296.354 32.7695 296.023 32.7695C295.692 32.7695 295.395 32.8442 295.134 32.9935C294.873 33.1382 294.667 33.3458 294.518 33.6165C294.369 33.8825 294.294 34.2022 294.294 34.5755C294.294 34.9442 294.369 35.2638 294.518 35.5345C294.672 35.8052 294.88 36.0152 295.141 36.1645C295.402 36.3092 295.696 36.3815 296.023 36.3815ZM301.337 38.1455V31.0055H305.089C305.938 31.0055 306.601 31.1572 307.077 31.4605C307.557 31.7638 307.798 32.2235 307.798 32.8395C307.798 33.1755 307.711 33.4602 307.539 33.6935C307.366 33.9222 307.133 34.1065 306.839 34.2465C306.549 34.3818 306.227 34.4752 305.873 34.5265L305.838 34.0155C306.533 34.0762 307.084 34.2768 307.49 34.6175C307.9 34.9535 308.106 35.3992 308.106 35.9545C308.106 36.4118 307.991 36.8038 307.763 37.1305C307.539 37.4572 307.207 37.7092 306.769 37.8865C306.33 38.0592 305.796 38.1455 305.166 38.1455H301.337ZM303.528 36.5985H304.865C305.191 36.5985 305.439 36.5402 305.607 36.4235C305.779 36.3068 305.866 36.1412 305.866 35.9265C305.866 35.7212 305.782 35.5625 305.614 35.4505C305.45 35.3338 305.201 35.2755 304.865 35.2755H303.318V33.8125H304.69C304.998 33.8125 305.236 33.7635 305.404 33.6655C305.572 33.5628 305.656 33.4042 305.656 33.1895C305.656 32.9795 305.569 32.8208 305.397 32.7135C305.229 32.6062 304.993 32.5525 304.69 32.5525H303.528V36.5985ZM309.581 41.0855V31.0055H311.562V31.8245C311.828 31.5118 312.166 31.2622 312.577 31.0755C312.992 30.8888 313.473 30.7955 314.019 30.7955C314.7 30.7955 315.307 30.9518 315.839 31.2645C316.376 31.5772 316.798 32.0182 317.106 32.5875C317.414 33.1568 317.568 33.8195 317.568 34.5755C317.568 35.1075 317.479 35.6045 317.302 36.0665C317.129 36.5238 316.882 36.9252 316.56 37.2705C316.238 37.6112 315.858 37.8772 315.419 38.0685C314.985 38.2598 314.504 38.3555 313.977 38.3555C313.557 38.3555 313.17 38.2878 312.815 38.1525C312.465 38.0172 312.15 37.8258 311.87 37.5785V41.0855H309.581ZM313.592 36.3815C313.923 36.3815 314.22 36.3092 314.481 36.1645C314.742 36.0152 314.948 35.8052 315.097 35.5345C315.246 35.2638 315.321 34.9442 315.321 34.5755C315.321 34.2022 315.244 33.8825 315.09 33.6165C314.941 33.3458 314.735 33.1382 314.474 32.9935C314.217 32.8442 313.923 32.7695 313.592 32.7695C313.265 32.7695 312.971 32.8442 312.71 32.9935C312.449 33.1382 312.243 33.3458 312.094 33.6165C311.945 33.8825 311.87 34.2022 311.87 34.5755C311.87 34.9442 311.945 35.2638 312.094 35.5345C312.243 35.8052 312.446 36.0152 312.703 36.1645C312.964 36.3092 313.261 36.3815 313.592 36.3815ZM322.354 38.3555C321.57 38.3555 320.882 38.1992 320.289 37.8865C319.697 37.5692 319.235 37.1282 318.903 36.5635C318.572 35.9942 318.406 35.3292 318.406 34.5685C318.406 34.0178 318.502 33.5115 318.693 33.0495C318.889 32.5875 319.16 32.1885 319.505 31.8525C319.855 31.5165 320.266 31.2575 320.737 31.0755C321.213 30.8888 321.736 30.7955 322.305 30.7955C322.931 30.7955 323.488 30.9075 323.978 31.1315C324.468 31.3508 324.872 31.6588 325.189 32.0555C325.511 32.4475 325.733 32.9118 325.854 33.4485C325.976 33.9805 325.98 34.5592 325.868 35.1845H320.506C320.511 35.4645 320.595 35.7095 320.758 35.9195C320.922 36.1295 321.146 36.2952 321.43 36.4165C321.715 36.5332 322.046 36.5915 322.424 36.5915C322.844 36.5915 323.243 36.5378 323.621 36.4305C323.999 36.3185 324.361 36.1482 324.706 35.9195L325.427 37.4735C325.208 37.6415 324.923 37.7932 324.573 37.9285C324.228 38.0592 323.859 38.1618 323.467 38.2365C323.08 38.3158 322.709 38.3555 322.354 38.3555ZM320.646 33.6375H323.684C323.675 33.2782 323.542 32.9912 323.285 32.7765C323.029 32.5618 322.681 32.4545 322.242 32.4545C321.799 32.4545 321.43 32.5618 321.136 32.7765C320.847 32.9912 320.684 33.2782 320.646 33.6375ZM327.286 38.1455V31.0055H329.239H329.281L332.179 35.4155L331.199 35.4295L333.915 31.0055H335.91V38.1455H333.901L333.929 33.5185L334.377 33.6935L332.277 36.9345H330.926L328.693 33.6865L329.134 33.5115L329.176 38.1455H327.286ZM341.208 38.3555C340.424 38.3555 339.736 38.1992 339.143 37.8865C338.55 37.5692 338.088 37.1282 337.757 36.5635C337.426 35.9942 337.26 35.3292 337.26 34.5685C337.26 34.0178 337.356 33.5115 337.547 33.0495C337.743 32.5875 338.014 32.1885 338.359 31.8525C338.709 31.5165 339.12 31.2575 339.591 31.0755C340.067 30.8888 340.59 30.7955 341.159 30.7955C341.784 30.7955 342.342 30.9075 342.832 31.1315C343.322 31.3508 343.726 31.6588 344.043 32.0555C344.365 32.4475 344.587 32.9118 344.708 33.4485C344.829 33.9805 344.834 34.5592 344.722 35.1845H339.36C339.365 35.4645 339.449 35.7095 339.612 35.9195C339.775 36.1295 339.999 36.2952 340.284 36.4165C340.569 36.5332 340.9 36.5915 341.278 36.5915C341.698 36.5915 342.097 36.5378 342.475 36.4305C342.853 36.3185 343.215 36.1482 343.56 35.9195L344.281 37.4735C344.062 37.6415 343.777 37.7932 343.427 37.9285C343.082 38.0592 342.713 38.1618 342.321 38.2365C341.934 38.3158 341.563 38.3555 341.208 38.3555ZM339.5 33.6375H342.538C342.529 33.2782 342.396 32.9912 342.139 32.7765C341.882 32.5618 341.535 32.4545 341.096 32.4545C340.653 32.4545 340.284 32.5618 339.99 32.7765C339.701 32.9912 339.537 33.2782 339.5 33.6375ZM346.14 38.1455V31.0055H348.436V33.5745H351.173V31.0055H353.469V38.1455H351.173V35.3945H348.436V38.1455H346.14ZM355.368 38.1455V31.0055H357.664V33.5745H360.401V31.0055H362.697V38.1455H360.401V35.3945H357.664V38.1455H355.368ZM364.597 38.1455V31.0055H366.893V36.5355H367.775C368.134 36.5355 368.409 36.4562 368.601 36.2975C368.797 36.1342 368.895 35.9055 368.895 35.6115C368.895 35.3268 368.806 35.1005 368.629 34.9325C368.456 34.7598 368.209 34.6735 367.887 34.6735H366.662V33.0845H368.076C369.065 33.0845 369.84 33.2968 370.4 33.7215C370.964 34.1415 371.247 34.7715 371.247 35.6115C371.247 36.1388 371.116 36.5915 370.855 36.9695C370.593 37.3475 370.222 37.6392 369.742 37.8445C369.261 38.0452 368.694 38.1455 368.041 38.1455H364.597ZM372.199 38.1455V31.0055H374.495V38.1455H372.199ZM375.597 38.1665L378.166 34.6245L375.73 31.0055H378.628L379.769 33.0495L380.882 31.0055H383.717L381.351 34.5825L383.892 38.1455H380.952L379.692 36.1295L378.418 38.1245L375.597 38.1665ZM156.373 59.1455V53.8255H154.315V52.0055H160.72V53.8255H158.669V59.1455H156.373ZM165.374 59.3555C164.59 59.3555 163.902 59.1992 163.309 58.8865C162.716 58.5692 162.254 58.1282 161.923 57.5635C161.592 56.9942 161.426 56.3292 161.426 55.5685C161.426 55.0178 161.522 54.5115 161.713 54.0495C161.909 53.5875 162.18 53.1885 162.525 52.8525C162.875 52.5165 163.286 52.2575 163.757 52.0755C164.233 51.8888 164.756 51.7955 165.325 51.7955C165.95 51.7955 166.508 51.9075 166.998 52.1315C167.488 52.3508 167.892 52.6588 168.209 53.0555C168.531 53.4475 168.753 53.9118 168.874 54.4485C168.995 54.9805 169 55.5592 168.888 56.1845H163.526C163.531 56.4645 163.615 56.7095 163.778 56.9195C163.941 57.1295 164.165 57.2952 164.45 57.4165C164.735 57.5332 165.066 57.5915 165.444 57.5915C165.864 57.5915 166.263 57.5378 166.641 57.4305C167.019 57.3185 167.381 57.1482 167.726 56.9195L168.447 58.4735C168.228 58.6415 167.943 58.7932 167.593 58.9285C167.248 59.0592 166.879 59.1618 166.487 59.2365C166.1 59.3158 165.729 59.3555 165.374 59.3555ZM163.666 54.6375H166.704C166.695 54.2782 166.562 53.9912 166.305 53.7765C166.048 53.5618 165.701 53.4545 165.262 53.4545C164.819 53.4545 164.45 53.5618 164.156 53.7765C163.867 53.9912 163.703 54.2782 163.666 54.6375ZM169.384 59.1665L171.953 55.6245L169.517 52.0055H172.415L173.556 54.0495L174.669 52.0055H177.504L175.138 55.5825L177.679 59.1455H174.739L173.479 57.1295L172.205 59.1245L169.384 59.1665ZM178.782 59.1455V52.0055H181.078V54.5745H183.815V52.0055H186.111V59.1455H183.815V56.3945H181.078V59.1455H178.782ZM191.42 59.3555C190.64 59.3555 189.952 59.1852 189.355 58.8445C188.757 58.4992 188.288 58.0395 187.948 57.4655C187.612 56.8915 187.444 56.2615 187.444 55.5755C187.444 55.0762 187.539 54.6002 187.731 54.1475C187.927 53.6902 188.202 53.2865 188.557 52.9365C188.911 52.5818 189.331 52.3042 189.817 52.1035C190.302 51.8982 190.836 51.7955 191.42 51.7955C192.199 51.7955 192.887 51.9682 193.485 52.3135C194.082 52.6542 194.549 53.1115 194.885 53.6855C195.221 54.2595 195.389 54.8895 195.389 55.5755C195.389 56.0748 195.293 56.5532 195.102 57.0105C194.91 57.4632 194.637 57.8645 194.283 58.2145C193.928 58.5645 193.508 58.8422 193.023 59.0475C192.537 59.2528 192.003 59.3555 191.42 59.3555ZM191.42 57.3815C191.746 57.3815 192.04 57.3092 192.302 57.1645C192.563 57.0152 192.768 56.8052 192.918 56.5345C193.067 56.2638 193.142 55.9442 193.142 55.5755C193.142 55.2022 193.067 54.8825 192.918 54.6165C192.773 54.3458 192.57 54.1382 192.309 53.9935C192.047 53.8442 191.751 53.7695 191.42 53.7695C191.088 53.7695 190.792 53.8442 190.531 53.9935C190.269 54.1382 190.064 54.3458 189.915 54.6165C189.765 54.8825 189.691 55.2022 189.691 55.5755C189.691 55.9442 189.765 56.2638 189.915 56.5345C190.069 56.8052 190.276 57.0152 190.538 57.1645C190.799 57.3092 191.093 57.3815 191.42 57.3815ZM196.733 59.3205L195.991 57.2905C196.472 57.1692 196.82 56.9918 197.034 56.7585C197.254 56.5252 197.391 56.2125 197.447 55.8205C197.508 55.4238 197.538 54.9222 197.538 54.3155V52.0055H203.831V59.1455H201.535V53.8255H199.624V54.3155C199.624 55.0435 199.58 55.6898 199.491 56.2545C199.407 56.8145 199.258 57.2998 199.043 57.7105C198.833 58.1212 198.542 58.4595 198.168 58.7255C197.795 58.9915 197.317 59.1898 196.733 59.3205ZM209.138 59.3555C208.359 59.3555 207.671 59.1852 207.073 58.8445C206.476 58.4992 206.007 58.0395 205.666 57.4655C205.33 56.8915 205.162 56.2615 205.162 55.5755C205.162 55.0762 205.258 54.6002 205.449 54.1475C205.645 53.6902 205.921 53.2865 206.275 52.9365C206.63 52.5818 207.05 52.3042 207.535 52.1035C208.021 51.8982 208.555 51.7955 209.138 51.7955C209.918 51.7955 210.606 51.9682 211.203 52.3135C211.801 52.6542 212.267 53.1115 212.603 53.6855C212.939 54.2595 213.107 54.8895 213.107 55.5755C213.107 56.0748 213.012 56.5532 212.82 57.0105C212.629 57.4632 212.356 57.8645 212.001 58.2145C211.647 58.5645 211.227 58.8422 210.741 59.0475C210.256 59.2528 209.722 59.3555 209.138 59.3555ZM209.138 57.3815C209.465 57.3815 209.759 57.3092 210.02 57.1645C210.282 57.0152 210.487 56.8052 210.636 56.5345C210.786 56.2638 210.86 55.9442 210.86 55.5755C210.86 55.2022 210.786 54.8825 210.636 54.6165C210.492 54.3458 210.289 54.1382 210.027 53.9935C209.766 53.8442 209.47 53.7695 209.138 53.7695C208.807 53.7695 208.511 53.8442 208.249 53.9935C207.988 54.1382 207.783 54.3458 207.633 54.6165C207.484 54.8825 207.409 55.2022 207.409 55.5755C207.409 55.9442 207.484 56.2638 207.633 56.5345C207.787 56.8052 207.995 57.0152 208.256 57.1645C208.518 57.3092 208.812 57.3815 209.138 57.3815ZM214.452 59.1455V52.0055H219.359V53.8255H216.748V59.1455H214.452ZM220.618 59.1455V52.0055H222.809V55.9255L225.889 52.0055H227.947V59.1455H225.756V55.1695L222.669 59.1455H220.618ZM229.847 59.1455V52.0055H232.038V55.9255L235.118 52.0055H237.176V59.1455H234.985V55.1695L231.898 59.1455H229.847ZM233.508 51.0255C232.924 51.0255 232.416 50.9158 231.982 50.6965C231.548 50.4725 231.212 50.1645 230.974 49.7725C230.74 49.3805 230.628 48.9255 230.638 48.4075H232.5C232.481 48.7482 232.563 49.0235 232.745 49.2335C232.931 49.4388 233.186 49.5415 233.508 49.5415C233.83 49.5415 234.082 49.4388 234.264 49.2335C234.446 49.0235 234.53 48.7482 234.516 48.4075H236.378C236.387 48.9162 236.27 49.3688 236.028 49.7655C235.79 50.1575 235.451 50.4655 235.013 50.6895C234.579 50.9135 234.077 51.0255 233.508 51.0255ZM242.302 59.1455V52.0055H244.493V55.9255L247.573 52.0055H249.631V59.1455H247.44V55.1695L244.353 59.1455H242.302ZM257.718 59.3555C257.046 59.3555 256.444 59.1992 255.912 58.8865C255.38 58.5692 254.96 58.1282 254.652 57.5635C254.344 56.9942 254.19 56.3315 254.19 55.5755C254.19 55.0062 254.278 54.4905 254.456 54.0285C254.633 53.5618 254.88 53.1628 255.198 52.8315C255.515 52.5002 255.888 52.2458 256.318 52.0685C256.747 51.8865 257.214 51.7955 257.718 51.7955C258.38 51.7955 258.945 51.9402 259.412 52.2295C259.878 52.5142 260.212 52.8945 260.413 53.3705L260.098 53.8675V52.0055H262.072V59.1455H260.098V57.2835L260.413 57.7735C260.212 58.2495 259.878 58.6322 259.412 58.9215C258.945 59.2108 258.38 59.3555 257.718 59.3555ZM258.11 57.3815C258.427 57.3815 258.712 57.3092 258.964 57.1645C259.22 57.0152 259.423 56.8052 259.573 56.5345C259.722 56.2638 259.797 55.9442 259.797 55.5755C259.797 55.2022 259.722 54.8825 259.573 54.6165C259.423 54.3458 259.22 54.1382 258.964 53.9935C258.712 53.8442 258.427 53.7695 258.11 53.7695C257.792 53.7695 257.508 53.8442 257.256 53.9935C257.004 54.1382 256.803 54.3458 256.654 54.6165C256.504 54.8825 256.43 55.2022 256.43 55.5755C256.43 55.9442 256.504 56.2638 256.654 56.5345C256.803 56.8052 257.004 57.0152 257.256 57.1645C257.508 57.3092 257.792 57.3815 258.11 57.3815ZM263.972 59.1455V52.0055H268.879V53.8255H266.268V59.1455H263.972ZM270.138 62.0855V52.0055H272.119V52.8245C272.385 52.5118 272.723 52.2622 273.134 52.0755C273.549 51.8888 274.03 51.7955 274.576 51.7955C275.257 51.7955 275.864 51.9518 276.396 52.2645C276.932 52.5772 277.355 53.0182 277.663 53.5875C277.971 54.1568 278.125 54.8195 278.125 55.5755C278.125 56.1075 278.036 56.6045 277.859 57.0665C277.686 57.5238 277.439 57.9252 277.117 58.2705C276.795 58.6112 276.414 58.8772 275.976 59.0685C275.542 59.2598 275.061 59.3555 274.534 59.3555C274.114 59.3555 273.726 59.2878 273.372 59.1525C273.022 59.0172 272.707 58.8258 272.427 58.5785V62.0855H270.138ZM274.149 57.3815C274.48 57.3815 274.776 57.3092 275.038 57.1645C275.299 57.0152 275.504 56.8052 275.654 56.5345C275.803 56.2638 275.878 55.9442 275.878 55.5755C275.878 55.2022 275.801 54.8825 275.647 54.6165C275.497 54.3458 275.292 54.1382 275.031 53.9935C274.774 53.8442 274.48 53.7695 274.149 53.7695C273.822 53.7695 273.528 53.8442 273.267 53.9935C273.005 54.1382 272.8 54.3458 272.651 54.6165C272.501 54.8825 272.427 55.2022 272.427 55.5755C272.427 55.9442 272.501 56.2638 272.651 56.5345C272.8 56.8052 273.003 57.0152 273.26 57.1645C273.521 57.3092 273.817 57.3815 274.149 57.3815ZM282.939 59.3555C282.16 59.3555 281.471 59.1852 280.874 58.8445C280.277 58.4992 279.808 58.0395 279.467 57.4655C279.131 56.8915 278.963 56.2615 278.963 55.5755C278.963 55.0762 279.059 54.6002 279.25 54.1475C279.446 53.6902 279.721 53.2865 280.076 52.9365C280.431 52.5818 280.851 52.3042 281.336 52.1035C281.821 51.8982 282.356 51.7955 282.939 51.7955C283.718 51.7955 284.407 51.9682 285.004 52.3135C285.601 52.6542 286.068 53.1115 286.404 53.6855C286.74 54.2595 286.908 54.8895 286.908 55.5755C286.908 56.0748 286.812 56.5532 286.621 57.0105C286.43 57.4632 286.157 57.8645 285.802 58.2145C285.447 58.5645 285.027 58.8422 284.542 59.0475C284.057 59.2528 283.522 59.3555 282.939 59.3555ZM282.939 57.3815C283.266 57.3815 283.56 57.3092 283.821 57.1645C284.082 57.0152 284.288 56.8052 284.437 56.5345C284.586 56.2638 284.661 55.9442 284.661 55.5755C284.661 55.2022 284.586 54.8825 284.437 54.6165C284.292 54.3458 284.089 54.1382 283.828 53.9935C283.567 53.8442 283.27 53.7695 282.939 53.7695C282.608 53.7695 282.311 53.8442 282.05 53.9935C281.789 54.1382 281.583 54.3458 281.434 54.6165C281.285 54.8825 281.21 55.2022 281.21 55.5755C281.21 55.9442 281.285 56.2638 281.434 56.5345C281.588 56.8052 281.796 57.0152 282.057 57.1645C282.318 57.3092 282.612 57.3815 282.939 57.3815ZM288.253 59.1455V52.0055H295.575V59.1455H293.279V53.8255H290.549V59.1455H288.253ZM297.481 62.0855V52.0055H299.462V52.8245C299.728 52.5118 300.067 52.2622 300.477 52.0755C300.893 51.8888 301.373 51.7955 301.919 51.7955C302.601 51.7955 303.207 51.9518 303.739 52.2645C304.276 52.5772 304.698 53.0182 305.006 53.5875C305.314 54.1568 305.468 54.8195 305.468 55.5755C305.468 56.1075 305.38 56.6045 305.202 57.0665C305.03 57.5238 304.782 57.9252 304.46 58.2705C304.138 58.6112 303.758 58.8772 303.319 59.0685C302.885 59.2598 302.405 59.3555 301.877 59.3555C301.457 59.3555 301.07 59.2878 300.715 59.1525C300.365 59.0172 300.05 58.8258 299.77 58.5785V62.0855H297.481ZM301.492 57.3815C301.824 57.3815 302.12 57.3092 302.381 57.1645C302.643 57.0152 302.848 56.8052 302.997 56.5345C303.147 56.2638 303.221 55.9442 303.221 55.5755C303.221 55.2022 303.144 54.8825 302.99 54.6165C302.841 54.3458 302.636 54.1382 302.374 53.9935C302.118 53.8442 301.824 53.7695 301.492 53.7695C301.166 53.7695 300.872 53.8442 300.61 53.9935C300.349 54.1382 300.144 54.3458 299.994 54.6165C299.845 54.8825 299.77 55.2022 299.77 55.5755C299.77 55.9442 299.845 56.2638 299.994 56.5345C300.144 56.8052 300.347 57.0152 300.603 57.1645C300.865 57.3092 301.161 57.3815 301.492 57.3815ZM310.283 59.3555C309.504 59.3555 308.815 59.1852 308.218 58.8445C307.621 58.4992 307.152 58.0395 306.811 57.4655C306.475 56.8915 306.307 56.2615 306.307 55.5755C306.307 55.0762 306.403 54.6002 306.594 54.1475C306.79 53.6902 307.065 53.2865 307.42 52.9365C307.775 52.5818 308.195 52.3042 308.68 52.1035C309.165 51.8982 309.7 51.7955 310.283 51.7955C311.062 51.7955 311.751 51.9682 312.348 52.3135C312.945 52.6542 313.412 53.1115 313.748 53.6855C314.084 54.2595 314.252 54.8895 314.252 55.5755C314.252 56.0748 314.156 56.5532 313.965 57.0105C313.774 57.4632 313.501 57.8645 313.146 58.2145C312.791 58.5645 312.371 58.8422 311.886 59.0475C311.401 59.2528 310.866 59.3555 310.283 59.3555ZM310.283 57.3815C310.61 57.3815 310.904 57.3092 311.165 57.1645C311.426 57.0152 311.632 56.8052 311.781 56.5345C311.93 56.2638 312.005 55.9442 312.005 55.5755C312.005 55.2022 311.93 54.8825 311.781 54.6165C311.636 54.3458 311.433 54.1382 311.172 53.9935C310.911 53.8442 310.614 53.7695 310.283 53.7695C309.952 53.7695 309.655 53.8442 309.394 53.9935C309.133 54.1382 308.927 54.3458 308.778 54.6165C308.629 54.8825 308.554 55.2022 308.554 55.5755C308.554 55.9442 308.629 56.2638 308.778 56.5345C308.932 56.8052 309.14 57.0152 309.401 57.1645C309.662 57.3092 309.956 57.3815 310.283 57.3815ZM315.597 59.1455V52.0055H317.55H317.592L320.49 56.4155L319.51 56.4295L322.226 52.0055H324.221V59.1455H322.212L322.24 54.5185L322.688 54.6935L320.588 57.9345H319.237L317.004 54.6865L317.445 54.5115L317.487 59.1455H315.597ZM326.138 59.1455V52.0055H328.434V57.5355H329.316C329.675 57.5355 329.95 57.4562 330.142 57.2975C330.338 57.1342 330.436 56.9055 330.436 56.6115C330.436 56.3268 330.347 56.1005 330.17 55.9325C329.997 55.7598 329.75 55.6735 329.428 55.6735H328.203V54.0845H329.617C330.606 54.0845 331.381 54.2968 331.941 54.7215C332.505 55.1415 332.788 55.7715 332.788 56.6115C332.788 57.1388 332.657 57.5915 332.396 57.9695C332.134 58.3475 331.763 58.6392 331.283 58.8445C330.802 59.0452 330.235 59.1455 329.582 59.1455H326.138ZM333.74 59.1455V52.0055H336.036V59.1455H333.74ZM337.936 59.1455V52.0055H340.127V57.3255H342.374V52.0055H344.565V57.3255H346.812V52.0055H349.003V59.1455H337.936ZM350.911 59.3205L350.169 57.2905C350.65 57.1692 350.997 56.9918 351.212 56.7585C351.431 56.5252 351.569 56.2125 351.625 55.8205C351.686 55.4238 351.716 54.9222 351.716 54.3155V52.0055H358.009V59.1455H355.713V53.8255H353.802V54.3155C353.802 55.0435 353.758 55.6898 353.669 56.2545C353.585 56.8145 353.436 57.2998 353.221 57.7105C353.011 58.1212 352.719 58.4595 352.346 58.7255C351.973 58.9915 351.494 59.1898 350.911 59.3205ZM363.288 59.3555C362.504 59.3555 361.816 59.1992 361.223 58.8865C360.63 58.5692 360.168 58.1282 359.837 57.5635C359.506 56.9942 359.34 56.3292 359.34 55.5685C359.34 55.0178 359.436 54.5115 359.627 54.0495C359.823 53.5875 360.094 53.1885 360.439 52.8525C360.789 52.5165 361.2 52.2575 361.671 52.0755C362.147 51.8888 362.67 51.7955 363.239 51.7955C363.864 51.7955 364.422 51.9075 364.912 52.1315C365.402 52.3508 365.806 52.6588 366.123 53.0555C366.445 53.4475 366.667 53.9118 366.788 54.4485C366.909 54.9805 366.914 55.5592 366.802 56.1845H361.44C361.445 56.4645 361.529 56.7095 361.692 56.9195C361.855 57.1295 362.079 57.2952 362.364 57.4165C362.649 57.5332 362.98 57.5915 363.358 57.5915C363.778 57.5915 364.177 57.5378 364.555 57.4305C364.933 57.3185 365.295 57.1482 365.64 56.9195L366.361 58.4735C366.142 58.6415 365.857 58.7932 365.507 58.9285C365.162 59.0592 364.793 59.1618 364.401 59.2365C364.014 59.3158 363.643 59.3555 363.288 59.3555ZM361.58 54.6375H364.618C364.609 54.2782 364.476 53.9912 364.219 53.7765C363.962 53.5618 363.615 53.4545 363.176 53.4545C362.733 53.4545 362.364 53.5618 362.07 53.7765C361.781 53.9912 361.617 54.2782 361.58 54.6375ZM368.22 59.1455V52.0055H370.516V54.5745H373.253V52.0055H375.549V59.1455H373.253V56.3945H370.516V59.1455H368.22ZM377.448 59.1455V52.0055H379.744V54.5745H382.481V52.0055H384.777V59.1455H382.481V56.3945H379.744V59.1455H377.448ZM390.086 59.3555C389.306 59.3555 388.618 59.1852 388.021 58.8445C387.423 58.4992 386.954 58.0395 386.614 57.4655C386.278 56.8915 386.11 56.2615 386.11 55.5755C386.11 55.0762 386.205 54.6002 386.397 54.1475C386.593 53.6902 386.868 53.2865 387.223 52.9365C387.577 52.5818 387.997 52.3042 388.483 52.1035C388.968 51.8982 389.502 51.7955 390.086 51.7955C390.865 51.7955 391.553 51.9682 392.151 52.3135C392.748 52.6542 393.215 53.1115 393.551 53.6855C393.887 54.2595 394.055 54.8895 394.055 55.5755C394.055 56.0748 393.959 56.5532 393.768 57.0105C393.576 57.4632 393.303 57.8645 392.949 58.2145C392.594 58.5645 392.174 58.8422 391.689 59.0475C391.203 59.2528 390.669 59.3555 390.086 59.3555ZM390.086 57.3815C390.412 57.3815 390.706 57.3092 390.968 57.1645C391.229 57.0152 391.434 56.8052 391.584 56.5345C391.733 56.2638 391.808 55.9442 391.808 55.5755C391.808 55.2022 391.733 54.8825 391.584 54.6165C391.439 54.3458 391.236 54.1382 390.975 53.9935C390.713 53.8442 390.417 53.7695 390.086 53.7695C389.754 53.7695 389.458 53.8442 389.197 53.9935C388.935 54.1382 388.73 54.3458 388.581 54.6165C388.431 54.8825 388.357 55.2022 388.357 55.5755C388.357 55.9442 388.431 56.2638 388.581 56.5345C388.735 56.8052 388.942 57.0152 389.204 57.1645C389.465 57.3092 389.759 57.3815 390.086 57.3815ZM398.856 59.3555C398.1 59.3555 397.423 59.1922 396.826 58.8655C396.233 58.5342 395.764 58.0838 395.419 57.5145C395.073 56.9405 394.901 56.2942 394.901 55.5755C394.901 55.0342 395.001 54.5348 395.202 54.0775C395.407 53.6202 395.694 53.2212 396.063 52.8805C396.431 52.5352 396.861 52.2692 397.351 52.0825C397.841 51.8912 398.373 51.7955 398.947 51.7955C399.488 51.7955 399.99 51.8702 400.452 52.0195C400.914 52.1642 401.329 52.3835 401.698 52.6775L400.69 54.3785C400.461 54.1685 400.209 54.0145 399.934 53.9165C399.663 53.8185 399.378 53.7695 399.08 53.7695C398.688 53.7695 398.349 53.8395 398.065 53.9795C397.78 54.1195 397.561 54.3248 397.407 54.5955C397.257 54.8662 397.183 55.1905 397.183 55.5685C397.183 56.1378 397.351 56.5835 397.687 56.9055C398.027 57.2228 398.494 57.3815 399.087 57.3815C399.423 57.3815 399.738 57.3208 400.032 57.1995C400.33 57.0735 400.603 56.8915 400.851 56.6535L401.782 58.3895C401.38 58.6882 400.921 58.9238 400.403 59.0965C399.889 59.2692 399.374 59.3555 398.856 59.3555ZM404.394 59.1455V53.8255H402.336V52.0055H408.741V53.8255H406.69V59.1455H404.394ZM410.015 59.1455V52.0055H412.206V55.9255L415.286 52.0055H417.344V59.1455H415.153V55.1695L412.066 59.1455H410.015Z" fill="#333333"/>
<path d="M88.5 62.1455V59.5955L96.2 52.3955C98.7 50.0622 100.767 47.9955 102.4 46.1955C104.033 44.3955 105.25 42.7205 106.05 41.1705C106.85 39.6205 107.25 38.0622 107.25 36.4955C107.25 34.2122 106.45 32.4122 104.85 31.0955C103.267 29.7622 101.083 29.0955 98.3 29.0955C96.75 29.0955 95.25 29.3288 93.8 29.7955C92.3667 30.2622 91.2 30.9455 90.3 31.8455L89.05 29.6955C90.3 28.5955 91.7417 27.7705 93.375 27.2205C95.0083 26.6705 96.7833 26.3955 98.7 26.3955C100.933 26.3955 102.908 26.8038 104.625 27.6205C106.342 28.4372 107.683 29.5955 108.65 31.0955C109.617 32.5955 110.1 34.3788 110.1 36.4455C110.1 37.9122 109.808 39.4038 109.225 40.9205C108.642 42.4205 107.583 44.1205 106.05 46.0205C104.533 47.9038 102.367 50.1455 99.55 52.7455L92.25 59.4455H110.95V62.1455H88.5ZM133.499 62.1455V54.3455H115.299V51.8455L129.299 27.1455H132.549L118.549 51.6455H133.499V42.9455H136.299V51.6455H142.349V54.3455H136.299V62.1455H133.499Z" fill="#333333"/>
<path d="M67.1493 62.6455C64.5826 62.6455 62.1909 62.1872 59.9743 61.2705C57.7743 60.3372 55.8493 59.0455 54.1993 57.3955C52.5659 55.7455 51.2909 53.8122 50.3743 51.5955C49.4576 49.3788 48.9993 46.9788 48.9993 44.3955C48.9993 41.7955 49.4576 39.3872 50.3743 37.1705C51.2909 34.9538 52.5659 33.0205 54.1993 31.3705C55.8493 29.7205 57.7743 28.4372 59.9743 27.5205C62.1909 26.6038 64.5826 26.1455 67.1493 26.1455C69.6993 26.1455 72.0743 26.6122 74.2743 27.5455C76.4743 28.4788 78.3993 29.7788 80.0493 31.4455C81.6993 33.1122 82.9826 35.0538 83.8993 37.2705C84.8326 39.4705 85.2993 41.8455 85.2993 44.3955C85.2993 46.9788 84.8326 49.3788 83.8993 51.5955C82.9826 53.8122 81.6993 55.7455 80.0493 57.3955C78.3993 59.0455 76.4743 60.3372 74.2743 61.2705C72.0743 62.1872 69.6993 62.6455 67.1493 62.6455ZM67.1493 59.8455C69.2493 59.8455 71.2159 59.4788 73.0493 58.7455C74.8826 58.0122 76.4909 56.9705 77.8743 55.6205C79.2576 54.2538 80.3409 52.6205 81.1243 50.7205C81.9076 48.8205 82.2993 46.7122 82.2993 44.3955C82.2993 41.2955 81.6159 38.5872 80.2493 36.2705C78.8993 33.9538 77.0743 32.1538 74.7743 30.8705C72.4909 29.5872 69.9493 28.9455 67.1493 28.9455C65.0493 28.9455 63.0826 29.3122 61.2493 30.0455C59.4159 30.7788 57.8076 31.8288 56.4243 33.1955C55.0409 34.5455 53.9576 36.1705 53.1743 38.0705C52.3909 39.9538 51.9993 42.0622 51.9993 44.3955C51.9993 47.4955 52.6743 50.2038 54.0243 52.5205C55.3909 54.8372 57.2159 56.6372 59.4993 57.9205C61.7993 59.2038 64.3493 59.8455 67.1493 59.8455Z" fill="#333333"/>
<path d="M20.5 61.8955V59.3455L28.2 52.1455C30.7 49.8122 32.7667 47.7455 34.4 45.9455C36.0333 44.1455 37.25 42.4705 38.05 40.9205C38.85 39.3705 39.25 37.8122 39.25 36.2455C39.25 33.9622 38.45 32.1622 36.85 30.8455C35.2667 29.5122 33.0833 28.8455 30.3 28.8455C28.75 28.8455 27.25 29.0788 25.8 29.5455C24.3667 30.0122 23.2 30.6955 22.3 31.5955L21.05 29.4455C22.3 28.3455 23.7417 27.5205 25.375 26.9705C27.0083 26.4205 28.7833 26.1455 30.7 26.1455C32.9333 26.1455 34.9083 26.5538 36.625 27.3705C38.3417 28.1872 39.6833 29.3455 40.65 30.8455C41.6167 32.3455 42.1 34.1288 42.1 36.1955C42.1 37.6622 41.8083 39.1538 41.225 40.6705C40.6417 42.1705 39.5833 43.8705 38.05 45.7705C36.5333 47.6538 34.3667 49.8955 31.55 52.4955L24.25 59.1955H42.95V61.8955H20.5Z" fill="#333333"/>
<g clip-path="url(#clip0_3653_61547)">
<path d="M66.45 60.8958C66.4371 58.2534 66.4408 50.6092 66.3963 47.9668C66.3871 47.4617 66.3056 46.9018 66.0686 46.4678C64.6654 43.8965 62.2938 42.4213 59.7464 41.1539C61.2293 42.9519 63.599 44.0625 64.1266 46.6775C62.8548 46.9492 61.8125 46.5955 60.8443 46.0502C58.1728 44.5494 56.4234 42.228 55.0941 39.5673C54.6961 38.7686 54.4147 37.917 54 36.8958C57.386 36.8848 60.4092 37.2058 63.1214 38.8944C65.9964 40.6834 66.8703 43.5719 67.3683 46.838C70.0397 42.4413 73.7238 40.0597 79 39.9776C78.8649 40.5192 78.8167 40.8767 78.6871 41.2013C77.7559 43.5172 76.41 45.5779 74.6272 47.3413C73.5664 48.3917 72.2316 48.9315 70.721 48.9643C69.6157 48.988 69.2085 48.3589 69.8286 47.458C70.2656 46.8234 70.9191 46.3164 71.53 45.8186C72.1946 45.2788 72.924 44.8175 73.622 44.3178C73.6664 44.2868 73.6831 44.2175 73.7127 44.1664C71.6911 44.0424 68.9141 46.094 68.7142 48.1692C68.4698 50.7295 68.5457 58.3209 68.4846 60.8976H66.4482L66.45 60.8958Z" fill="#333333"/>
</g>
<defs>
<clipPath id="clip0_3653_61547">
<rect width="25" height="25" fill="white" transform="translate(54 36.8955)"/>
</clipPath>
</defs>
</svg>
