<svg width="328" height="133" viewBox="0 0 328 133" fill="none" xmlns="http://www.w3.org/2000/svg">
<rect x="1" y="1.68365" width="326" height="129.955" rx="19" stroke="#474747" stroke-width="2"/>
<path fill-rule="evenodd" clip-rule="evenodd" d="M114 54.0232V51.9304L120.319 46.0215C122.371 44.1066 124.067 42.4105 125.408 40.9332C126.748 39.456 127.746 38.0814 128.403 36.8093C129.06 35.5372 129.388 34.2583 129.388 32.9726C129.388 31.0987 128.731 29.6215 127.418 28.5409C126.119 27.4466 124.327 26.8995 122.043 26.8995C120.771 26.8995 119.54 27.091 118.35 27.474C117.173 27.857 116.216 28.4178 115.477 29.1564L114.451 27.3919C115.477 26.4892 116.66 25.8121 118.001 25.3607C119.341 24.9093 120.798 24.6837 122.371 24.6837C124.204 24.6837 125.825 25.0188 127.234 25.689C128.642 26.3592 129.744 27.3099 130.537 28.5409C131.33 29.7719 131.727 31.2355 131.727 32.9316C131.727 34.1352 131.487 35.3594 131.009 36.6041C130.53 37.8352 129.661 39.2303 128.403 40.7896C127.158 42.3353 125.38 44.175 123.069 46.3087L117.078 51.8073H132.424V54.0232H114ZM146.396 53.5103C148.215 54.2626 150.178 54.6387 152.284 54.6387C154.377 54.6387 156.326 54.2626 158.132 53.5103C159.937 52.7443 161.517 51.6843 162.871 50.3301C164.225 48.976 165.279 47.3893 166.031 45.5701C166.797 43.751 167.18 41.7813 167.18 39.6612C167.18 37.5685 166.797 35.6193 166.031 33.8138C165.279 31.9946 164.225 30.4011 162.871 29.0333C161.517 27.6655 159.937 26.5986 158.132 25.8326C156.326 25.0667 154.377 24.6837 152.284 24.6837C150.178 24.6837 148.215 25.0598 146.396 25.8121C144.591 26.5644 143.011 27.6176 141.657 28.9718C140.316 30.3259 139.27 31.9126 138.517 33.7317C137.765 35.5509 137.389 37.5274 137.389 39.6612C137.389 41.7813 137.765 43.751 138.517 45.5701C139.27 47.3893 140.316 48.976 141.657 50.3301C143.011 51.6843 144.591 52.7443 146.396 53.5103ZM151.707 52.3296C151.706 51.7354 151.704 51.0152 151.703 50.2337C151.698 47.5277 151.692 44.086 151.667 42.5921C151.659 42.1776 151.592 41.7181 151.398 41.3619C150.246 39.2517 148.3 38.041 146.209 37.0008C146.598 37.4725 147.061 37.8864 147.526 38.3015C148.515 39.1852 149.509 40.0738 149.804 41.534C148.76 41.757 147.905 41.4667 147.11 41.0192C144.918 39.7875 143.482 37.8823 142.391 35.6988C142.173 35.2612 141.997 34.8043 141.804 34.2995C141.707 34.0481 141.606 33.7849 141.493 33.5063C144.272 33.4973 146.753 33.7607 148.979 35.1465C151.338 36.6147 152.055 38.9853 152.464 41.6657C154.657 38.0574 157.68 36.1029 162.01 36.0355C161.972 36.1884 161.942 36.3234 161.915 36.4456C161.864 36.6786 161.823 36.865 161.753 37.0397C160.989 38.9404 159.885 40.6316 158.421 42.0788C157.551 42.9408 156.455 43.3838 155.216 43.4108C154.309 43.4302 153.974 42.9139 154.483 42.1746C154.814 41.694 155.296 41.3027 155.763 40.9241C155.802 40.8924 155.841 40.8607 155.88 40.8291C156.246 40.5313 156.637 40.2626 157.028 39.9938C157.218 39.8628 157.409 39.7318 157.596 39.5974C157.621 39.5801 157.636 39.5483 157.65 39.5165C157.656 39.5015 157.663 39.4866 157.671 39.4732C156.012 39.3714 153.733 41.0551 153.569 42.7582C153.432 44.1941 153.417 47.5581 153.406 50.2193C153.403 50.9932 153.4 51.7077 153.394 52.2981C154.705 52.1956 155.949 51.9089 157.126 51.4381C158.631 50.8362 159.951 49.9813 161.086 48.8734C162.222 47.7518 163.111 46.4114 163.754 44.852C164.396 43.2927 164.718 41.5625 164.718 39.6612C164.718 37.1171 164.157 34.8944 163.035 32.9931C161.928 31.0919 160.43 29.6146 158.542 28.5614C156.668 27.5082 154.582 26.9816 152.284 26.9816C150.561 26.9816 148.947 27.2825 147.442 27.8844C145.938 28.4862 144.618 29.3479 143.483 30.4695C142.347 31.5774 141.458 32.9111 140.815 34.4704C140.172 36.016 139.851 37.7463 139.851 39.6612C139.851 42.2053 140.405 44.428 141.513 46.3293C142.635 48.2305 144.132 49.7078 146.006 50.761C147.735 51.7254 149.635 52.2482 151.707 52.3296ZM169.807 52.1356V54.2284H188.231V52.0125H172.884L178.875 46.5139C181.187 44.3802 182.965 42.5404 184.21 40.9948C185.468 39.4355 186.337 38.0403 186.815 36.8093C187.294 35.5646 187.534 34.3404 187.534 33.1367C187.534 31.4407 187.137 29.9771 186.344 28.7461C185.55 27.515 184.449 26.5644 183.04 25.8942C181.631 25.224 180.011 24.8888 178.178 24.8888C176.605 24.8888 175.148 25.1145 173.808 25.5659C172.467 26.0173 171.284 26.6944 170.258 27.5971L171.284 29.3616C172.023 28.623 172.98 28.0622 174.156 27.6792C175.346 27.2962 176.577 27.1047 177.849 27.1047C180.134 27.1047 181.925 27.6518 183.225 28.7461C184.538 29.8266 185.195 31.3039 185.195 33.1778C185.195 34.4635 184.866 35.7424 184.21 37.0145C183.553 38.2866 182.555 39.6612 181.214 41.1384C179.874 42.6157 178.178 44.3118 176.126 46.2267L169.807 52.1356ZM206.737 47.827V54.2284H209.035V47.827H214V45.6112H209.035V38.4712H206.737V45.6112H194.468L205.957 25.5044H203.29L191.8 45.7753V47.827H206.737Z" fill="#474747"/>
<path d="M48.5134 85.6387V75.8387H54.5124V77.9597H50.8374V85.6387H48.5134ZM58.4186 85.8487C57.6393 85.8487 56.951 85.6784 56.3536 85.3377C55.7563 84.9924 55.2873 84.5327 54.9466 83.9587C54.6106 83.3847 54.4426 82.7547 54.4426 82.0687C54.4426 81.5694 54.5383 81.0934 54.7296 80.6407C54.9256 80.1834 55.201 79.7797 55.5556 79.4297C55.9103 79.0751 56.3303 78.7974 56.8156 78.5967C57.301 78.3914 57.8353 78.2887 58.4186 78.2887C59.198 78.2887 59.8863 78.4614 60.4836 78.8067C61.081 79.1474 61.5476 79.6047 61.8836 80.1787C62.2196 80.7527 62.3876 81.3827 62.3876 82.0687C62.3876 82.5681 62.292 83.0464 62.1006 83.5037C61.9093 83.9564 61.6363 84.3577 61.2816 84.7077C60.927 85.0577 60.507 85.3354 60.0216 85.5407C59.5363 85.7461 59.002 85.8487 58.4186 85.8487ZM58.4186 83.8747C58.7453 83.8747 59.0393 83.8024 59.3006 83.6577C59.562 83.5084 59.7673 83.2984 59.9166 83.0277C60.066 82.7571 60.1406 82.4374 60.1406 82.0687C60.1406 81.6954 60.066 81.3757 59.9166 81.1097C59.772 80.8391 59.569 80.6314 59.3076 80.4867C59.0463 80.3374 58.75 80.2627 58.4186 80.2627C58.0873 80.2627 57.791 80.3374 57.5296 80.4867C57.2683 80.6314 57.063 80.8391 56.9136 81.1097C56.7643 81.3757 56.6896 81.6954 56.6896 82.0687C56.6896 82.4374 56.7643 82.7571 56.9136 83.0277C57.0676 83.2984 57.2753 83.5084 57.5366 83.6577C57.798 83.8024 58.092 83.8747 58.4186 83.8747ZM68.7303 85.6387V80.3187H66.6793V80.8087C66.6793 81.3547 66.6326 81.8821 66.5393 82.3907C66.4459 82.8947 66.2826 83.3591 66.0493 83.7837C65.8159 84.2037 65.4939 84.5607 65.0833 84.8547C64.6773 85.1487 64.1593 85.3564 63.5293 85.4777L63.0953 83.8817C63.5106 83.7884 63.8256 83.5924 64.0403 83.2937C64.2596 82.9951 64.4066 82.6287 64.4813 82.1947C64.5559 81.7607 64.5933 81.2987 64.5933 80.8087V78.4987H71.0263V85.6387H68.7303ZM63.0953 87.7387V83.8817L64.2923 83.9657L64.6563 83.8187H72.4543V87.7387H70.3613V85.6387H65.1883V87.7387H63.0953ZM80.2389 85.8487C79.4596 85.8487 78.7713 85.6784 78.1739 85.3377C77.5766 84.9924 77.1076 84.5327 76.7669 83.9587C76.4309 83.3847 76.2629 82.7547 76.2629 82.0687C76.2629 81.5694 76.3586 81.0934 76.5499 80.6407C76.7459 80.1834 77.0213 79.7797 77.3759 79.4297C77.7306 79.0751 78.1506 78.7974 78.6359 78.5967C79.1213 78.3914 79.6556 78.2887 80.2389 78.2887C81.0183 78.2887 81.7066 78.4614 82.3039 78.8067C82.9013 79.1474 83.3679 79.6047 83.7039 80.1787C84.0399 80.7527 84.2079 81.3827 84.2079 82.0687C84.2079 82.5681 84.1123 83.0464 83.9209 83.5037C83.7296 83.9564 83.4566 84.3577 83.1019 84.7077C82.7473 85.0577 82.3273 85.3354 81.8419 85.5407C81.3566 85.7461 80.8223 85.8487 80.2389 85.8487ZM80.2389 83.8747C80.5656 83.8747 80.8596 83.8024 81.1209 83.6577C81.3823 83.5084 81.5876 83.2984 81.7369 83.0277C81.8863 82.7571 81.9609 82.4374 81.9609 82.0687C81.9609 81.6954 81.8863 81.3757 81.7369 81.1097C81.5923 80.8391 81.3893 80.6314 81.1279 80.4867C80.8666 80.3374 80.5703 80.2627 80.2389 80.2627C79.9076 80.2627 79.6113 80.3374 79.3499 80.4867C79.0886 80.6314 78.8833 80.8391 78.7339 81.1097C78.5846 81.3757 78.5099 81.6954 78.5099 82.0687C78.5099 82.4374 78.5846 82.7571 78.7339 83.0277C78.8879 83.2984 79.0956 83.5084 79.3569 83.6577C79.6183 83.8024 79.9123 83.8747 80.2389 83.8747ZM89.1786 85.8487C88.5766 85.8487 88.0283 85.7437 87.5336 85.5337C87.0436 85.3237 86.6213 85.0227 86.2666 84.6307C85.9119 84.2341 85.6389 83.7557 85.4476 83.1957C85.2563 82.6357 85.1606 82.0057 85.1606 81.3057C85.1606 80.5311 85.2283 79.8404 85.3636 79.2337C85.5036 78.6271 85.7183 78.1021 86.0076 77.6587C86.3016 77.2107 86.6773 76.8467 87.1346 76.5667C87.5966 76.2867 88.1473 76.0884 88.7866 75.9717L92.2096 75.3487L92.5456 77.2317L89.2136 77.7847C88.7656 77.8687 88.4086 77.9947 88.1426 78.1627C87.8766 78.3307 87.6759 78.5524 87.5406 78.8277C87.4099 79.1031 87.3236 79.4437 87.2816 79.8497C87.5756 79.5744 87.9163 79.3574 88.3036 79.1987C88.6956 79.0401 89.1296 78.9607 89.6056 78.9607C90.2683 78.9607 90.8539 79.1077 91.3626 79.4017C91.8713 79.6957 92.2703 80.0924 92.5596 80.5917C92.8536 81.0864 93.0006 81.6371 93.0006 82.2437C93.0006 82.7431 92.9096 83.2121 92.7276 83.6507C92.5456 84.0847 92.2866 84.4674 91.9506 84.7987C91.6146 85.1301 91.2133 85.3891 90.7466 85.5757C90.2799 85.7577 89.7573 85.8487 89.1786 85.8487ZM89.1576 83.8747C89.4563 83.8747 89.7246 83.8094 89.9626 83.6787C90.2053 83.5481 90.3966 83.3637 90.5366 83.1257C90.6813 82.8877 90.7536 82.6054 90.7536 82.2787C90.7536 81.9474 90.6836 81.6627 90.5436 81.4247C90.4036 81.1867 90.2123 81.0047 89.9696 80.8787C89.7316 80.7481 89.4609 80.6827 89.1576 80.6827C88.8543 80.6827 88.5813 80.7481 88.3386 80.8787C88.0959 81.0047 87.9046 81.1867 87.7646 81.4247C87.6246 81.6627 87.5546 81.9474 87.5546 82.2787C87.5546 82.6054 87.6246 82.8877 87.7646 83.1257C87.9093 83.3637 88.1029 83.5481 88.3456 83.6787C88.5883 83.8094 88.8589 83.8747 89.1576 83.8747ZM95.728 85.6387V78.4987H98.024V84.0287H98.976C99.3353 84.0287 99.6106 83.9494 99.802 83.7907C99.998 83.6274 100.096 83.3987 100.096 83.1047C100.096 82.8201 100.007 82.5937 99.83 82.4257C99.6573 82.2531 99.41 82.1667 99.088 82.1667H97.793V80.5777H99.277C100.266 80.5777 101.041 80.7901 101.601 81.2147C102.166 81.6347 102.448 82.2647 102.448 83.1047C102.448 83.6321 102.317 84.0847 102.056 84.4627C101.795 84.8407 101.424 85.1324 100.943 85.3377C100.462 85.5384 99.8953 85.6387 99.242 85.6387H95.728ZM93.775 80.3187V78.4987H98.024L95.728 80.3187H93.775ZM107.24 85.8487C106.456 85.8487 105.768 85.6924 105.175 85.3797C104.583 85.0624 104.121 84.6214 103.789 84.0567C103.458 83.4874 103.292 82.8224 103.292 82.0617C103.292 81.5111 103.388 81.0047 103.579 80.5427C103.775 80.0807 104.046 79.6817 104.391 79.3457C104.741 79.0097 105.152 78.7507 105.623 78.5687C106.099 78.3821 106.622 78.2887 107.191 78.2887C107.817 78.2887 108.374 78.4007 108.864 78.6247C109.354 78.8441 109.758 79.1521 110.075 79.5487C110.397 79.9407 110.619 80.4051 110.74 80.9417C110.862 81.4737 110.866 82.0524 110.754 82.6777H105.392C105.397 82.9577 105.481 83.2027 105.644 83.4127C105.808 83.6227 106.032 83.7884 106.316 83.9097C106.601 84.0264 106.932 84.0847 107.31 84.0847C107.73 84.0847 108.129 84.0311 108.507 83.9237C108.885 83.8117 109.247 83.6414 109.592 83.4127L110.313 84.9667C110.094 85.1347 109.809 85.2864 109.459 85.4217C109.114 85.5524 108.745 85.6551 108.353 85.7297C107.966 85.8091 107.595 85.8487 107.24 85.8487ZM105.532 81.1307H108.57C108.561 80.7714 108.428 80.4844 108.171 80.2697C107.915 80.0551 107.567 79.9477 107.128 79.9477C106.685 79.9477 106.316 80.0551 106.022 80.2697C105.733 80.4844 105.57 80.7714 105.532 81.1307ZM117.17 85.6387V80.3187H115.119V80.8087C115.119 81.3547 115.072 81.8821 114.979 82.3907C114.885 82.8947 114.722 83.3591 114.489 83.7837C114.255 84.2037 113.933 84.5607 113.523 84.8547C113.117 85.1487 112.599 85.3564 111.969 85.4777L111.535 83.8817C111.95 83.7884 112.265 83.5924 112.48 83.2937C112.699 82.9951 112.846 82.6287 112.921 82.1947C112.995 81.7607 113.033 81.2987 113.033 80.8087V78.4987H119.466V85.6387H117.17ZM111.535 87.7387V83.8817L112.732 83.9657L113.096 83.8187H120.894V87.7387H118.801V85.6387H113.628V87.7387H111.535ZM122.043 85.6387V78.4987H124.234V82.4187L127.314 78.4987H129.372V85.6387H127.181V81.6627L124.094 85.6387H122.043ZM131.271 85.6387V78.4987H133.567V81.0677H136.304V78.4987H138.6V85.6387H136.304V82.8877H133.567V85.6387H131.271ZM143.881 85.8487C143.097 85.8487 142.409 85.6924 141.816 85.3797C141.223 85.0624 140.761 84.6214 140.43 84.0567C140.099 83.4874 139.933 82.8224 139.933 82.0617C139.933 81.5111 140.029 81.0047 140.22 80.5427C140.416 80.0807 140.687 79.6817 141.032 79.3457C141.382 79.0097 141.793 78.7507 142.264 78.5687C142.74 78.3821 143.263 78.2887 143.832 78.2887C144.457 78.2887 145.015 78.4007 145.505 78.6247C145.995 78.8441 146.399 79.1521 146.716 79.5487C147.038 79.9407 147.26 80.4051 147.381 80.9417C147.502 81.4737 147.507 82.0524 147.395 82.6777H142.033C142.038 82.9577 142.122 83.2027 142.285 83.4127C142.448 83.6227 142.672 83.7884 142.957 83.9097C143.242 84.0264 143.573 84.0847 143.951 84.0847C144.371 84.0847 144.77 84.0311 145.148 83.9237C145.526 83.8117 145.888 83.6414 146.233 83.4127L146.954 84.9667C146.735 85.1347 146.45 85.2864 146.1 85.4217C145.755 85.5524 145.386 85.6551 144.994 85.7297C144.607 85.8091 144.236 85.8487 143.881 85.8487ZM142.173 81.1307H145.211C145.202 80.7714 145.069 80.4844 144.812 80.2697C144.555 80.0551 144.208 79.9477 143.769 79.9477C143.326 79.9477 142.957 80.0551 142.663 80.2697C142.374 80.4844 142.21 80.7714 142.173 81.1307ZM148.812 85.6387V78.4987H151.108V81.0677H153.845V78.4987H156.141V85.6387H153.845V82.8877H151.108V85.6387H148.812ZM158.041 85.6387V78.4987H160.232V82.4187L163.312 78.4987H165.37V85.6387H163.179V81.6627L160.092 85.6387H158.041ZM166.723 85.6387L169.194 81.8517L169.803 83.2447C169.257 83.2494 168.77 83.1631 168.34 82.9857C167.916 82.8037 167.58 82.5447 167.332 82.2087C167.09 81.8727 166.968 81.4667 166.968 80.9907C166.968 80.4727 167.092 80.0294 167.339 79.6607C167.587 79.2874 167.939 79.0004 168.396 78.7997C168.854 78.5991 169.395 78.4987 170.02 78.4987H173.478V85.6387H171.301V80.1087H170.286C169.946 80.1087 169.682 80.1787 169.495 80.3187C169.309 80.4541 169.215 80.6524 169.215 80.9137C169.215 81.1704 169.299 81.3734 169.467 81.5227C169.635 81.6674 169.871 81.7397 170.174 81.7397H171.511V83.2727H170.699L169.222 85.6387H166.723ZM182.005 85.8487C181.249 85.8487 180.572 85.6854 179.975 85.3587C179.382 85.0274 178.913 84.5771 178.568 84.0077C178.223 83.4337 178.05 82.7874 178.05 82.0687C178.05 81.5274 178.15 81.0281 178.351 80.5707C178.556 80.1134 178.843 79.7144 179.212 79.3737C179.581 79.0284 180.01 78.7624 180.5 78.5757C180.99 78.3844 181.522 78.2887 182.096 78.2887C182.637 78.2887 183.139 78.3634 183.601 78.5127C184.063 78.6574 184.478 78.8767 184.847 79.1707L183.839 80.8717C183.61 80.6617 183.358 80.5077 183.083 80.4097C182.812 80.3117 182.528 80.2627 182.229 80.2627C181.837 80.2627 181.499 80.3327 181.214 80.4727C180.929 80.6127 180.71 80.8181 180.556 81.0887C180.407 81.3594 180.332 81.6837 180.332 82.0617C180.332 82.6311 180.5 83.0767 180.836 83.3987C181.177 83.7161 181.643 83.8747 182.236 83.8747C182.572 83.8747 182.887 83.8141 183.181 83.6927C183.48 83.5667 183.753 83.3847 184 83.1467L184.931 84.8827C184.53 85.1814 184.07 85.4171 183.552 85.5897C183.039 85.7624 182.523 85.8487 182.005 85.8487ZM189.395 85.8487C188.616 85.8487 187.928 85.6784 187.33 85.3377C186.733 84.9924 186.264 84.5327 185.923 83.9587C185.587 83.3847 185.419 82.7547 185.419 82.0687C185.419 81.5694 185.515 81.0934 185.706 80.6407C185.902 80.1834 186.178 79.7797 186.532 79.4297C186.887 79.0751 187.307 78.7974 187.792 78.5967C188.278 78.3914 188.812 78.2887 189.395 78.2887C190.175 78.2887 190.863 78.4614 191.46 78.8067C192.058 79.1474 192.524 79.6047 192.86 80.1787C193.196 80.7527 193.364 81.3827 193.364 82.0687C193.364 82.5681 193.269 83.0464 193.077 83.5037C192.886 83.9564 192.613 84.3577 192.258 84.7077C191.904 85.0577 191.484 85.3354 190.998 85.5407C190.513 85.7461 189.979 85.8487 189.395 85.8487ZM189.395 83.8747C189.722 83.8747 190.016 83.8024 190.277 83.6577C190.539 83.5084 190.744 83.2984 190.893 83.0277C191.043 82.7571 191.117 82.4374 191.117 82.0687C191.117 81.6954 191.043 81.3757 190.893 81.1097C190.749 80.8391 190.546 80.6314 190.284 80.4867C190.023 80.3374 189.727 80.2627 189.395 80.2627C189.064 80.2627 188.768 80.3374 188.506 80.4867C188.245 80.6314 188.04 80.8391 187.89 81.1097C187.741 81.3757 187.666 81.6954 187.666 82.0687C187.666 82.4374 187.741 82.7571 187.89 83.0277C188.044 83.2984 188.252 83.5084 188.513 83.6577C188.775 83.8024 189.069 83.8747 189.395 83.8747ZM194.709 85.6387V78.4987H198.461C199.31 78.4987 199.973 78.6504 200.449 78.9537C200.93 79.2571 201.17 79.7167 201.17 80.3327C201.17 80.6687 201.084 80.9534 200.911 81.1867C200.738 81.4154 200.505 81.5997 200.211 81.7397C199.922 81.8751 199.6 81.9684 199.245 82.0197L199.21 81.5087C199.905 81.5694 200.456 81.7701 200.862 82.1107C201.273 82.4467 201.478 82.8924 201.478 83.4477C201.478 83.9051 201.364 84.2971 201.135 84.6237C200.911 84.9504 200.58 85.2024 200.141 85.3797C199.702 85.5524 199.168 85.6387 198.538 85.6387H194.709ZM196.9 84.0917H198.237C198.564 84.0917 198.811 84.0334 198.979 83.9167C199.152 83.8001 199.238 83.6344 199.238 83.4197C199.238 83.2144 199.154 83.0557 198.986 82.9437C198.823 82.8271 198.573 82.7687 198.237 82.7687H196.69V81.3057H198.062C198.37 81.3057 198.608 81.2567 198.776 81.1587C198.944 81.0561 199.028 80.8974 199.028 80.6827C199.028 80.4727 198.942 80.3141 198.769 80.2067C198.601 80.0994 198.365 80.0457 198.062 80.0457H196.9V84.0917ZM202.953 88.5787V78.4987H204.934V79.3177C205.2 79.0051 205.538 78.7554 205.949 78.5687C206.364 78.3821 206.845 78.2887 207.391 78.2887C208.072 78.2887 208.679 78.4451 209.211 78.7577C209.748 79.0704 210.17 79.5114 210.478 80.0807C210.786 80.6501 210.94 81.3127 210.94 82.0687C210.94 82.6007 210.851 83.0977 210.674 83.5597C210.501 84.0171 210.254 84.4184 209.932 84.7637C209.61 85.1044 209.23 85.3704 208.791 85.5617C208.357 85.7531 207.876 85.8487 207.349 85.8487C206.929 85.8487 206.542 85.7811 206.187 85.6457C205.837 85.5104 205.522 85.3191 205.242 85.0717V88.5787H202.953ZM206.964 83.8747C207.295 83.8747 207.592 83.8024 207.853 83.6577C208.114 83.5084 208.32 83.2984 208.469 83.0277C208.618 82.7571 208.693 82.4374 208.693 82.0687C208.693 81.6954 208.616 81.3757 208.462 81.1097C208.313 80.8391 208.107 80.6314 207.846 80.4867C207.589 80.3374 207.295 80.2627 206.964 80.2627C206.637 80.2627 206.343 80.3374 206.082 80.4867C205.821 80.6314 205.615 80.8391 205.466 81.1097C205.317 81.3757 205.242 81.6954 205.242 82.0687C205.242 82.4374 205.317 82.7571 205.466 83.0277C205.615 83.2984 205.818 83.5084 206.075 83.6577C206.336 83.8024 206.633 83.8747 206.964 83.8747ZM215.727 85.8487C214.943 85.8487 214.254 85.6924 213.662 85.3797C213.069 85.0624 212.607 84.6214 212.276 84.0567C211.944 83.4874 211.779 82.8224 211.779 82.0617C211.779 81.5111 211.874 81.0047 212.066 80.5427C212.262 80.0807 212.532 79.6817 212.878 79.3457C213.228 79.0097 213.638 78.7507 214.11 78.5687C214.586 78.3821 215.108 78.2887 215.678 78.2887C216.303 78.2887 216.861 78.4007 217.351 78.6247C217.841 78.8441 218.244 79.1521 218.562 79.5487C218.884 79.9407 219.105 80.4051 219.227 80.9417C219.348 81.4737 219.353 82.0524 219.241 82.6777H213.879C213.883 82.9577 213.967 83.2027 214.131 83.4127C214.294 83.6227 214.518 83.7884 214.803 83.9097C215.087 84.0264 215.419 84.0847 215.797 84.0847C216.217 84.0847 216.616 84.0311 216.994 83.9237C217.372 83.8117 217.733 83.6414 218.079 83.4127L218.8 84.9667C218.58 85.1347 218.296 85.2864 217.946 85.4217C217.6 85.5524 217.232 85.6551 216.84 85.7297C216.452 85.8091 216.081 85.8487 215.727 85.8487ZM214.019 81.1307H217.057C217.047 80.7714 216.914 80.4844 216.658 80.2697C216.401 80.0551 216.053 79.9477 215.615 79.9477C215.171 79.9477 214.803 80.0551 214.509 80.2697C214.219 80.4844 214.056 80.7714 214.019 81.1307ZM220.658 85.6387V78.4987H222.611H222.653L225.551 82.9087L224.571 82.9227L227.287 78.4987H229.282V85.6387H227.273L227.301 81.0117L227.749 81.1867L225.649 84.4277H224.298L222.065 81.1797L222.506 81.0047L222.548 85.6387H220.658ZM234.58 85.8487C233.796 85.8487 233.108 85.6924 232.515 85.3797C231.922 85.0624 231.46 84.6214 231.129 84.0567C230.798 83.4874 230.632 82.8224 230.632 82.0617C230.632 81.5111 230.728 81.0047 230.919 80.5427C231.115 80.0807 231.386 79.6817 231.731 79.3457C232.081 79.0097 232.492 78.7507 232.963 78.5687C233.439 78.3821 233.962 78.2887 234.531 78.2887C235.156 78.2887 235.714 78.4007 236.204 78.6247C236.694 78.8441 237.098 79.1521 237.415 79.5487C237.737 79.9407 237.959 80.4051 238.08 80.9417C238.201 81.4737 238.206 82.0524 238.094 82.6777H232.732C232.737 82.9577 232.821 83.2027 232.984 83.4127C233.147 83.6227 233.371 83.7884 233.656 83.9097C233.941 84.0264 234.272 84.0847 234.65 84.0847C235.07 84.0847 235.469 84.0311 235.847 83.9237C236.225 83.8117 236.587 83.6414 236.932 83.4127L237.653 84.9667C237.434 85.1347 237.149 85.2864 236.799 85.4217C236.454 85.5524 236.085 85.6551 235.693 85.7297C235.306 85.8091 234.935 85.8487 234.58 85.8487ZM232.872 81.1307H235.91C235.901 80.7714 235.768 80.4844 235.511 80.2697C235.254 80.0551 234.907 79.9477 234.468 79.9477C234.025 79.9477 233.656 80.0551 233.362 80.2697C233.073 80.4844 232.909 80.7714 232.872 81.1307ZM239.512 85.6387V78.4987H241.808V81.0677H244.545V78.4987H246.841V85.6387H244.545V82.8877H241.808V85.6387H239.512ZM248.74 85.6387V78.4987H251.036V81.0677H253.773V78.4987H256.069V85.6387H253.773V82.8877H251.036V85.6387H248.74ZM257.969 85.6387V78.4987H260.265V84.0287H261.147C261.506 84.0287 261.781 83.9494 261.973 83.7907C262.169 83.6274 262.267 83.3987 262.267 83.1047C262.267 82.8201 262.178 82.5937 262.001 82.4257C261.828 82.2531 261.581 82.1667 261.259 82.1667H260.034V80.5777H261.448C262.437 80.5777 263.212 80.7901 263.772 81.2147C264.336 81.6347 264.619 82.2647 264.619 83.1047C264.619 83.6321 264.488 84.0847 264.227 84.4627C263.965 84.8407 263.594 85.1324 263.114 85.3377C262.633 85.5384 262.066 85.6387 261.413 85.6387H257.969ZM265.571 85.6387V78.4987H267.867V85.6387H265.571ZM268.969 85.6597L271.538 82.1177L269.102 78.4987H272L273.141 80.5427L274.254 78.4987H277.089L274.723 82.0757L277.264 85.6387H274.324L273.064 83.6227L271.79 85.6177L268.969 85.6597ZM34.7744 106.639V101.319H32.7164V99.4987H39.1214V101.319H37.0704V106.639H34.7744ZM43.7754 106.849C42.9914 106.849 42.303 106.692 41.7104 106.38C41.1177 106.062 40.6557 105.621 40.3244 105.057C39.993 104.487 39.8274 103.822 39.8274 103.062C39.8274 102.511 39.923 102.005 40.1144 101.543C40.3104 101.081 40.581 100.682 40.9264 100.346C41.2764 100.01 41.687 99.7507 42.1584 99.5687C42.6344 99.3821 43.157 99.2887 43.7264 99.2887C44.3517 99.2887 44.9094 99.4007 45.3994 99.6247C45.8894 99.8441 46.293 100.152 46.6104 100.549C46.9324 100.941 47.154 101.405 47.2754 101.942C47.3967 102.474 47.4014 103.052 47.2894 103.678H41.9274C41.932 103.958 42.016 104.203 42.1794 104.413C42.3427 104.623 42.5667 104.788 42.8514 104.91C43.136 105.026 43.4674 105.085 43.8454 105.085C44.2654 105.085 44.6644 105.031 45.0424 104.924C45.4204 104.812 45.782 104.641 46.1274 104.413L46.8484 105.967C46.629 106.135 46.3444 106.286 45.9944 106.422C45.649 106.552 45.2804 106.655 44.8884 106.73C44.501 106.809 44.13 106.849 43.7754 106.849ZM42.0674 102.131H45.1054C45.096 101.771 44.963 101.484 44.7064 101.27C44.4497 101.055 44.102 100.948 43.6634 100.948C43.22 100.948 42.8514 101.055 42.5574 101.27C42.268 101.484 42.1047 101.771 42.0674 102.131ZM47.7858 106.66L50.3548 103.118L47.9188 99.4987H50.8168L51.9578 101.543L53.0708 99.4987H55.9058L53.5398 103.076L56.0808 106.639H53.1408L51.8808 104.623L50.6068 106.618L47.7858 106.66ZM57.1834 106.639V99.4987H59.4794V102.068H62.2164V99.4987H64.5124V106.639H62.2164V103.888H59.4794V106.639H57.1834ZM69.821 106.849C69.0416 106.849 68.3533 106.678 67.756 106.338C67.1586 105.992 66.6896 105.533 66.349 104.959C66.013 104.385 65.845 103.755 65.845 103.069C65.845 102.569 65.9406 102.093 66.132 101.641C66.328 101.183 66.6033 100.78 66.958 100.43C67.3126 100.075 67.7326 99.7974 68.218 99.5967C68.7033 99.3914 69.2376 99.2887 69.821 99.2887C70.6003 99.2887 71.2886 99.4614 71.886 99.8067C72.4833 100.147 72.95 100.605 73.286 101.179C73.622 101.753 73.79 102.383 73.79 103.069C73.79 103.568 73.6943 104.046 73.503 104.504C73.3116 104.956 73.0386 105.358 72.684 105.708C72.3293 106.058 71.9093 106.335 71.424 106.541C70.9386 106.746 70.4043 106.849 69.821 106.849ZM69.821 104.875C70.1476 104.875 70.4416 104.802 70.703 104.658C70.9643 104.508 71.1696 104.298 71.319 104.028C71.4683 103.757 71.543 103.437 71.543 103.069C71.543 102.695 71.4683 102.376 71.319 102.11C71.1743 101.839 70.9713 101.631 70.71 101.487C70.4486 101.337 70.1523 101.263 69.821 101.263C69.4896 101.263 69.1933 101.337 68.932 101.487C68.6706 101.631 68.4653 101.839 68.316 102.11C68.1666 102.376 68.092 102.695 68.092 103.069C68.092 103.437 68.1666 103.757 68.316 104.028C68.47 104.298 68.6776 104.508 68.939 104.658C69.2003 104.802 69.4943 104.875 69.821 104.875ZM75.1346 106.814L74.3926 104.784C74.8733 104.662 75.221 104.485 75.4356 104.252C75.655 104.018 75.7926 103.706 75.8486 103.314C75.9093 102.917 75.9396 102.415 75.9396 101.809V99.4987H82.2326V106.639H79.9366V101.319H78.0256V101.809C78.0256 102.537 77.9813 103.183 77.8926 103.748C77.8086 104.308 77.6593 104.793 77.4446 105.204C77.2346 105.614 76.943 105.953 76.5696 106.219C76.1963 106.485 75.718 106.683 75.1346 106.814ZM87.5397 106.849C86.7604 106.849 86.072 106.678 85.4747 106.338C84.8774 105.992 84.4084 105.533 84.0677 104.959C83.7317 104.385 83.5637 103.755 83.5637 103.069C83.5637 102.569 83.6594 102.093 83.8507 101.641C84.0467 101.183 84.322 100.78 84.6767 100.43C85.0314 100.075 85.4514 99.7974 85.9367 99.5967C86.422 99.3914 86.9564 99.2887 87.5397 99.2887C88.319 99.2887 89.0074 99.4614 89.6047 99.8067C90.202 100.147 90.6687 100.605 91.0047 101.179C91.3407 101.753 91.5087 102.383 91.5087 103.069C91.5087 103.568 91.413 104.046 91.2217 104.504C91.0304 104.956 90.7574 105.358 90.4027 105.708C90.048 106.058 89.628 106.335 89.1427 106.541C88.6574 106.746 88.123 106.849 87.5397 106.849ZM87.5397 104.875C87.8664 104.875 88.1604 104.802 88.4217 104.658C88.683 104.508 88.8884 104.298 89.0377 104.028C89.187 103.757 89.2617 103.437 89.2617 103.069C89.2617 102.695 89.187 102.376 89.0377 102.11C88.893 101.839 88.69 101.631 88.4287 101.487C88.1674 101.337 87.871 101.263 87.5397 101.263C87.2084 101.263 86.912 101.337 86.6507 101.487C86.3894 101.631 86.184 101.839 86.0347 102.11C85.8854 102.376 85.8107 102.695 85.8107 103.069C85.8107 103.437 85.8854 103.757 86.0347 104.028C86.1887 104.298 86.3964 104.508 86.6577 104.658C86.919 104.802 87.213 104.875 87.5397 104.875ZM92.8534 106.639V99.4987H97.7604V101.319H95.1494V106.639H92.8534ZM99.0194 106.639V99.4987H101.21V103.419L104.29 99.4987H106.348V106.639H104.157V102.663L101.07 106.639H99.0194ZM108.248 106.639V99.4987H110.439V103.419L113.519 99.4987H115.577V106.639H113.386V102.663L110.299 106.639H108.248ZM111.909 98.5187C111.326 98.5187 110.817 98.4091 110.383 98.1897C109.949 97.9657 109.613 97.6577 109.375 97.2657C109.142 96.8737 109.03 96.4187 109.039 95.9007H110.901C110.882 96.2414 110.964 96.5167 111.146 96.7267C111.333 96.9321 111.587 97.0347 111.909 97.0347C112.231 97.0347 112.483 96.9321 112.665 96.7267C112.847 96.5167 112.931 96.2414 112.917 95.9007H114.779C114.788 96.4094 114.672 96.8621 114.429 97.2587C114.191 97.6507 113.853 97.9587 113.414 98.1827C112.98 98.4067 112.478 98.5187 111.909 98.5187ZM120.703 106.639V99.4987H122.894V103.419L125.974 99.4987H128.032V106.639H125.841V102.663L122.754 106.639H120.703ZM135.167 106.849C134.691 106.849 134.264 106.758 133.886 106.576C133.508 106.389 133.209 106.125 132.99 105.785C132.771 105.439 132.661 105.026 132.661 104.546C132.661 104.135 132.761 103.771 132.962 103.454C133.167 103.136 133.475 102.875 133.886 102.67C134.297 102.464 134.812 102.327 135.433 102.257C136.058 102.182 136.789 102.182 137.624 102.257L137.645 103.685C137.202 103.605 136.8 103.566 136.441 103.566C136.086 103.561 135.783 103.591 135.531 103.657C135.284 103.717 135.092 103.813 134.957 103.944C134.822 104.074 134.754 104.235 134.754 104.427C134.754 104.674 134.847 104.863 135.034 104.994C135.225 105.124 135.48 105.19 135.797 105.19C136.072 105.19 136.32 105.141 136.539 105.043C136.763 104.945 136.94 104.802 137.071 104.616C137.206 104.424 137.274 104.191 137.274 103.916V102.285C137.274 102.028 137.22 101.802 137.113 101.606C137.006 101.41 136.835 101.258 136.602 101.151C136.373 101.039 136.068 100.983 135.685 100.983C135.316 100.983 134.95 101.039 134.586 101.151C134.222 101.258 133.895 101.421 133.606 101.641L133.018 100.066C133.48 99.7764 133.975 99.5641 134.502 99.4287C135.029 99.2887 135.547 99.2187 136.056 99.2187C136.728 99.2187 137.318 99.3261 137.827 99.5407C138.34 99.7554 138.742 100.087 139.031 100.535C139.32 100.983 139.465 101.557 139.465 102.257V106.639H137.484V105.883C137.255 106.191 136.94 106.429 136.539 106.597C136.138 106.765 135.68 106.849 135.167 106.849ZM141.279 106.639V99.4987H146.186V101.319H143.575V106.639H141.279ZM147.445 109.579V99.4987H149.426V100.318C149.692 100.005 150.03 99.7554 150.441 99.5687C150.856 99.3821 151.337 99.2887 151.883 99.2887C152.564 99.2887 153.171 99.4451 153.703 99.7577C154.24 100.07 154.662 100.511 154.97 101.081C155.278 101.65 155.432 102.313 155.432 103.069C155.432 103.601 155.343 104.098 155.166 104.56C154.993 105.017 154.746 105.418 154.424 105.764C154.102 106.104 153.722 106.37 153.283 106.562C152.849 106.753 152.368 106.849 151.841 106.849C151.421 106.849 151.034 106.781 150.679 106.646C150.329 106.51 150.014 106.319 149.734 106.072V109.579H147.445ZM151.456 104.875C151.787 104.875 152.084 104.802 152.345 104.658C152.606 104.508 152.812 104.298 152.961 104.028C153.11 103.757 153.185 103.437 153.185 103.069C153.185 102.695 153.108 102.376 152.954 102.11C152.805 101.839 152.599 101.631 152.338 101.487C152.081 101.337 151.787 101.263 151.456 101.263C151.129 101.263 150.835 101.337 150.574 101.487C150.313 101.631 150.107 101.839 149.958 102.11C149.809 102.376 149.734 102.695 149.734 103.069C149.734 103.437 149.809 103.757 149.958 104.028C150.107 104.298 150.31 104.508 150.567 104.658C150.828 104.802 151.125 104.875 151.456 104.875ZM160.247 106.849C159.467 106.849 158.779 106.678 158.182 106.338C157.584 105.992 157.115 105.533 156.775 104.959C156.439 104.385 156.271 103.755 156.271 103.069C156.271 102.569 156.366 102.093 156.558 101.641C156.754 101.183 157.029 100.78 157.384 100.43C157.738 100.075 158.158 99.7974 158.644 99.5967C159.129 99.3914 159.663 99.2887 160.247 99.2887C161.026 99.2887 161.714 99.4614 162.312 99.8067C162.909 100.147 163.376 100.605 163.712 101.179C164.048 101.753 164.216 102.383 164.216 103.069C164.216 103.568 164.12 104.046 163.929 104.504C163.737 104.956 163.464 105.358 163.11 105.708C162.755 106.058 162.335 106.335 161.85 106.541C161.364 106.746 160.83 106.849 160.247 106.849ZM160.247 104.875C160.573 104.875 160.867 104.802 161.129 104.658C161.39 104.508 161.595 104.298 161.745 104.028C161.894 103.757 161.969 103.437 161.969 103.069C161.969 102.695 161.894 102.376 161.745 102.11C161.6 101.839 161.397 101.631 161.136 101.487C160.874 101.337 160.578 101.263 160.247 101.263C159.915 101.263 159.619 101.337 159.358 101.487C159.096 101.631 158.891 101.839 158.742 102.11C158.592 102.376 158.518 102.695 158.518 103.069C158.518 103.437 158.592 103.757 158.742 104.028C158.896 104.298 159.103 104.508 159.365 104.658C159.626 104.802 159.92 104.875 160.247 104.875ZM165.56 106.639V99.4987H172.882V106.639H170.586V101.319H167.856V106.639H165.56ZM174.789 109.579V99.4987H176.77V100.318C177.036 100.005 177.374 99.7554 177.785 99.5687C178.2 99.3821 178.681 99.2887 179.227 99.2887C179.908 99.2887 180.515 99.4451 181.047 99.7577C181.584 100.07 182.006 100.511 182.314 101.081C182.622 101.65 182.776 102.313 182.776 103.069C182.776 103.601 182.687 104.098 182.51 104.56C182.337 105.017 182.09 105.418 181.768 105.764C181.446 106.104 181.066 106.37 180.627 106.562C180.193 106.753 179.712 106.849 179.185 106.849C178.765 106.849 178.378 106.781 178.023 106.646C177.673 106.51 177.358 106.319 177.078 106.072V109.579H174.789ZM178.8 104.875C179.131 104.875 179.428 104.802 179.689 104.658C179.95 104.508 180.156 104.298 180.305 104.028C180.454 103.757 180.529 103.437 180.529 103.069C180.529 102.695 180.452 102.376 180.298 102.11C180.149 101.839 179.943 101.631 179.682 101.487C179.425 101.337 179.131 101.263 178.8 101.263C178.473 101.263 178.179 101.337 177.918 101.487C177.657 101.631 177.451 101.839 177.302 102.11C177.153 102.376 177.078 102.695 177.078 103.069C177.078 103.437 177.153 103.757 177.302 104.028C177.451 104.298 177.654 104.508 177.911 104.658C178.172 104.802 178.469 104.875 178.8 104.875ZM187.59 106.849C186.811 106.849 186.123 106.678 185.525 106.338C184.928 105.992 184.459 105.533 184.118 104.959C183.782 104.385 183.614 103.755 183.614 103.069C183.614 102.569 183.71 102.093 183.901 101.641C184.097 101.183 184.373 100.78 184.727 100.43C185.082 100.075 185.502 99.7974 185.987 99.5967C186.473 99.3914 187.007 99.2887 187.59 99.2887C188.37 99.2887 189.058 99.4614 189.655 99.8067C190.253 100.147 190.719 100.605 191.055 101.179C191.391 101.753 191.559 102.383 191.559 103.069C191.559 103.568 191.464 104.046 191.272 104.504C191.081 104.956 190.808 105.358 190.453 105.708C190.099 106.058 189.679 106.335 189.193 106.541C188.708 106.746 188.174 106.849 187.59 106.849ZM187.59 104.875C187.917 104.875 188.211 104.802 188.472 104.658C188.734 104.508 188.939 104.298 189.088 104.028C189.238 103.757 189.312 103.437 189.312 103.069C189.312 102.695 189.238 102.376 189.088 102.11C188.944 101.839 188.741 101.631 188.479 101.487C188.218 101.337 187.922 101.263 187.59 101.263C187.259 101.263 186.963 101.337 186.701 101.487C186.44 101.631 186.235 101.839 186.085 102.11C185.936 102.376 185.861 102.695 185.861 103.069C185.861 103.437 185.936 103.757 186.085 104.028C186.239 104.298 186.447 104.508 186.708 104.658C186.97 104.802 187.264 104.875 187.59 104.875ZM192.904 106.639V99.4987H194.857H194.899L197.797 103.909L196.817 103.923L199.533 99.4987H201.528V106.639H199.519L199.547 102.012L199.995 102.187L197.895 105.428H196.544L194.311 102.18L194.752 102.005L194.794 106.639H192.904ZM203.445 106.639V99.4987H205.741V105.029H206.623C206.982 105.029 207.258 104.949 207.449 104.791C207.645 104.627 207.743 104.399 207.743 104.105C207.743 103.82 207.654 103.594 207.477 103.426C207.304 103.253 207.057 103.167 206.735 103.167H205.51V101.578H206.924C207.913 101.578 208.688 101.79 209.248 102.215C209.813 102.635 210.095 103.265 210.095 104.105C210.095 104.632 209.964 105.085 209.703 105.463C209.442 105.841 209.071 106.132 208.59 106.338C208.109 106.538 207.542 106.639 206.889 106.639H203.445ZM211.047 106.639V99.4987H213.343V106.639H211.047ZM215.244 106.639V99.4987H217.435V104.819H219.682V99.4987H221.873V104.819H224.12V99.4987H226.311V106.639H215.244ZM228.219 106.814L227.477 104.784C227.957 104.662 228.305 104.485 228.52 104.252C228.739 104.018 228.877 103.706 228.933 103.314C228.993 102.917 229.024 102.415 229.024 101.809V99.4987H235.317V106.639H233.021V101.319H231.11V101.809C231.11 102.537 231.065 103.183 230.977 103.748C230.893 104.308 230.743 104.793 230.529 105.204C230.319 105.614 230.027 105.953 229.654 106.219C229.28 106.485 228.802 106.683 228.219 106.814ZM240.596 106.849C239.812 106.849 239.123 106.692 238.531 106.38C237.938 106.062 237.476 105.621 237.145 105.057C236.813 104.487 236.648 103.822 236.648 103.062C236.648 102.511 236.743 102.005 236.935 101.543C237.131 101.081 237.401 100.682 237.747 100.346C238.097 100.01 238.507 99.7507 238.979 99.5687C239.455 99.3821 239.977 99.2887 240.547 99.2887C241.172 99.2887 241.73 99.4007 242.22 99.6247C242.71 99.8441 243.113 100.152 243.431 100.549C243.753 100.941 243.974 101.405 244.096 101.942C244.217 102.474 244.222 103.052 244.11 103.678H238.748C238.752 103.958 238.836 104.203 239 104.413C239.163 104.623 239.387 104.788 239.672 104.91C239.956 105.026 240.288 105.085 240.666 105.085C241.086 105.085 241.485 105.031 241.863 104.924C242.241 104.812 242.602 104.641 242.948 104.413L243.669 105.967C243.449 106.135 243.165 106.286 242.815 106.422C242.469 106.552 242.101 106.655 241.709 106.73C241.321 106.809 240.95 106.849 240.596 106.849ZM238.888 102.131H241.926C241.916 101.771 241.783 101.484 241.527 101.27C241.27 101.055 240.922 100.948 240.484 100.948C240.04 100.948 239.672 101.055 239.378 101.27C239.088 101.484 238.925 101.771 238.888 102.131ZM245.527 106.639V99.4987H247.823V102.068H250.56V99.4987H252.856V106.639H250.56V103.888H247.823V106.639H245.527ZM254.756 106.639V99.4987H257.052V102.068H259.789V99.4987H262.085V106.639H259.789V103.888H257.052V106.639H254.756ZM267.393 106.849C266.614 106.849 265.926 106.678 265.328 106.338C264.731 105.992 264.262 105.533 263.921 104.959C263.585 104.385 263.417 103.755 263.417 103.069C263.417 102.569 263.513 102.093 263.704 101.641C263.9 101.183 264.176 100.78 264.53 100.43C264.885 100.075 265.305 99.7974 265.79 99.5967C266.276 99.3914 266.81 99.2887 267.393 99.2887C268.173 99.2887 268.861 99.4614 269.458 99.8067C270.056 100.147 270.522 100.605 270.858 101.179C271.194 101.753 271.362 102.383 271.362 103.069C271.362 103.568 271.267 104.046 271.075 104.504C270.884 104.956 270.611 105.358 270.256 105.708C269.902 106.058 269.482 106.335 268.996 106.541C268.511 106.746 267.977 106.849 267.393 106.849ZM267.393 104.875C267.72 104.875 268.014 104.802 268.275 104.658C268.537 104.508 268.742 104.298 268.891 104.028C269.041 103.757 269.115 103.437 269.115 103.069C269.115 102.695 269.041 102.376 268.891 102.11C268.747 101.839 268.544 101.631 268.282 101.487C268.021 101.337 267.725 101.263 267.393 101.263C267.062 101.263 266.766 101.337 266.504 101.487C266.243 101.631 266.038 101.839 265.888 102.11C265.739 102.376 265.664 102.695 265.664 103.069C265.664 103.437 265.739 103.757 265.888 104.028C266.042 104.298 266.25 104.508 266.511 104.658C266.773 104.802 267.067 104.875 267.393 104.875ZM276.163 106.849C275.407 106.849 274.731 106.685 274.133 106.359C273.541 106.027 273.072 105.577 272.726 105.008C272.381 104.434 272.208 103.787 272.208 103.069C272.208 102.527 272.309 102.028 272.509 101.571C272.715 101.113 273.002 100.714 273.37 100.374C273.739 100.028 274.168 99.7624 274.658 99.5757C275.148 99.3844 275.68 99.2887 276.254 99.2887C276.796 99.2887 277.297 99.3634 277.759 99.5127C278.221 99.6574 278.637 99.8767 279.005 100.171L277.997 101.872C277.769 101.662 277.517 101.508 277.241 101.41C276.971 101.312 276.686 101.263 276.387 101.263C275.995 101.263 275.657 101.333 275.372 101.473C275.088 101.613 274.868 101.818 274.714 102.089C274.565 102.359 274.49 102.684 274.49 103.062C274.49 103.631 274.658 104.077 274.994 104.399C275.335 104.716 275.802 104.875 276.394 104.875C276.73 104.875 277.045 104.814 277.339 104.693C277.638 104.567 277.911 104.385 278.158 104.147L279.089 105.883C278.688 106.181 278.228 106.417 277.71 106.59C277.197 106.762 276.681 106.849 276.163 106.849ZM281.702 106.639V101.319H279.644V99.4987H286.049V101.319H283.998V106.639H281.702ZM287.322 106.639V99.4987H289.513V103.419L292.593 99.4987H294.651V106.639H292.46V102.663L289.373 106.639H287.322Z" fill="#474747"/>
</svg>
