<svg width="122" height="38" viewBox="0 0 122 38" fill="none" xmlns="http://www.w3.org/2000/svg">
<path fill-rule="evenodd" clip-rule="evenodd" d="M0 36.5V33.95L7.7 26.75C10.2 24.4167 12.2667 22.35 13.9 20.55C15.5333 18.75 16.75 17.075 17.55 15.525C18.35 13.975 18.75 12.4167 18.75 10.85C18.75 8.56667 17.95 6.76667 16.35 5.45C14.7667 4.11667 12.5833 3.45 9.8 3.45C8.25 3.45 6.75 3.68333 5.3 4.15C3.86667 4.61667 2.7 5.3 1.8 6.2L0.55 4.05C1.8 2.95 3.24167 2.125 4.875 1.575C6.50833 1.025 8.28333 0.75 10.2 0.75C12.4333 0.75 14.4083 1.15833 16.125 1.975C17.8417 2.79167 19.1833 3.95 20.15 5.45C21.1167 6.95 21.6 8.73333 21.6 10.8C21.6 12.2667 21.3083 13.7583 20.725 15.275C20.1417 16.775 19.0833 18.475 17.55 20.375C16.0333 22.2583 13.8667 24.5 11.05 27.1L3.75 33.8H22.45V36.5H0ZM39.4743 35.875C41.6909 36.7917 44.0826 37.25 46.6493 37.25C49.1993 37.25 51.5743 36.7917 53.7743 35.875C55.9743 34.9417 57.8993 33.65 59.5493 32C61.1993 30.35 62.4826 28.4167 63.3993 26.2C64.3326 23.9833 64.7993 21.5833 64.7993 19C64.7993 16.45 64.3326 14.075 63.3993 11.875C62.4826 9.65833 61.1993 7.71667 59.5493 6.05C57.8993 4.38333 55.9743 3.08333 53.7743 2.15C51.5743 1.21667 49.1993 0.75 46.6493 0.75C44.0826 0.75 41.6909 1.20833 39.4743 2.125C37.2743 3.04167 35.3493 4.325 33.6993 5.975C32.0659 7.625 30.7909 9.55833 29.8743 11.775C28.9576 13.9917 28.4993 16.4 28.4993 19C28.4993 21.5833 28.9576 23.9833 29.8743 26.2C30.7909 28.4167 32.0659 30.35 33.6993 32C35.3493 33.65 37.2743 34.9417 39.4743 35.875ZM45.9462 34.4363C45.9442 33.7124 45.9426 32.8349 45.9408 31.8826C45.9347 28.5854 45.9269 24.3915 45.8963 22.5713C45.8871 22.0662 45.8056 21.5063 45.5686 21.0723C44.1654 18.501 41.7938 17.0257 39.2464 15.7584C39.7204 16.333 40.2849 16.8375 40.8509 17.3432C42.0559 18.42 43.2676 19.5028 43.6266 21.282C42.3548 21.5537 41.3125 21.1999 40.3443 20.6547C37.6728 19.1539 35.9234 16.8324 34.5941 14.1718C34.3284 13.6386 34.1147 13.0818 33.8786 12.4668C33.761 12.1605 33.6379 11.8398 33.5 11.5003C36.886 11.4893 39.9092 11.8103 42.6214 13.4989C45.4964 15.2879 46.3703 18.1764 46.8683 21.4425C49.5397 17.0458 53.2238 14.6642 58.5 14.5821C58.4535 14.7684 58.4173 14.9329 58.3846 15.0818C58.3221 15.3657 58.2721 15.5928 58.1871 15.8058C57.2559 18.1217 55.91 20.1824 54.1272 21.9458C53.0664 22.9962 51.7316 23.536 50.221 23.5688C49.1157 23.5925 48.7085 22.9634 49.3286 22.0625C49.7317 21.477 50.3192 21.0002 50.8875 20.5389C50.9352 20.5002 50.9827 20.4616 51.03 20.4231C51.4768 20.0602 51.9529 19.7328 52.4291 19.4053C52.6611 19.2457 52.8932 19.086 53.122 18.9223C53.1522 18.9012 53.1696 18.8624 53.1869 18.8237C53.1951 18.8054 53.2032 18.7873 53.2127 18.7709C51.1911 18.6469 48.4141 20.6985 48.2142 22.7737C48.0472 24.5233 48.0297 28.6221 48.0159 31.8648C48.0119 32.8079 48.0082 33.6785 48.0012 34.3979C49.5989 34.2731 51.1149 33.9238 52.5493 33.35C54.3826 32.6167 55.9909 31.575 57.3743 30.225C58.7576 28.8583 59.8409 27.225 60.6243 25.325C61.4076 23.425 61.7993 21.3167 61.7993 19C61.7993 15.9 61.1159 13.1917 59.7493 10.875C58.3993 8.55833 56.5743 6.75833 54.2743 5.475C51.9909 4.19167 49.4493 3.55 46.6493 3.55C44.5493 3.55 42.5826 3.91667 40.7493 4.65C38.9159 5.38334 37.3076 6.43333 35.9243 7.8C34.5409 9.15 33.4576 10.775 32.6743 12.675C31.8909 14.5583 31.4993 16.6667 31.4993 19C31.4993 22.1 32.1743 24.8083 33.5243 27.125C34.8909 29.4417 36.7159 31.2417 38.9993 32.525C41.1053 33.7001 43.4209 34.3372 45.9462 34.4363ZM68 34.2V36.75H90.45V34.05H71.75L79.05 27.35C81.8667 24.75 84.0333 22.5083 85.55 20.625C87.0833 18.725 88.1417 17.025 88.725 15.525C89.3083 14.0083 89.6 12.5167 89.6 11.05C89.6 8.98333 89.1167 7.2 88.15 5.7C87.1833 4.2 85.8417 3.04167 84.125 2.225C82.4083 1.40833 80.4333 1 78.2 1C76.2833 1 74.5083 1.275 72.875 1.825C71.2417 2.375 69.8 3.2 68.55 4.3L69.8 6.45C70.7 5.55 71.8667 4.86667 73.3 4.4C74.75 3.93333 76.25 3.7 77.8 3.7C80.5833 3.7 82.7667 4.36667 84.35 5.7C85.95 7.01667 86.75 8.81667 86.75 11.1C86.75 12.6667 86.35 14.225 85.55 15.775C84.75 17.325 83.5333 19 81.9 20.8C80.2667 22.6 78.2 24.6667 75.7 27L68 34.2ZM112.999 28.95V36.75H115.799V28.95H121.849V26.25H115.799V17.55H112.999V26.25H98.0492L112.049 1.75H108.799L94.7992 26.45V28.95H112.999Z" fill="#262626"/>
</svg>
