<svg width="150" height="151" viewBox="0 0 150 151" fill="none" xmlns="http://www.w3.org/2000/svg">
<g clip-path="url(#clip0_5878_1896)">
<path fill-rule="evenodd" clip-rule="evenodd" d="M95.2586 1.72042C97.366 3.24258 97.7397 5.95295 96.1087 7.88574C95.773 8.28331 95.5885 8.60824 95.6983 8.60824C95.8799 8.60801 104.782 6.79058 109.109 5.87011C110.091 5.66124 111.47 5.4901 112.172 5.48963C115.795 5.48773 118.048 9.52349 116.189 12.6855C115.045 14.633 115.175 14.5908 101.968 17.2855C97.5331 18.1903 96.3481 18.5774 98.0135 18.5774C98.7071 18.5774 113.012 22.4556 117.355 23.8211C117.766 23.9502 118.49 24.4318 118.964 24.8911C121.285 27.1384 121.041 30.7782 118.444 32.654C117.619 33.25 117.141 33.4069 115.945 33.476C114.641 33.551 113.462 33.2743 106.015 31.1457L97.5643 28.7301L93.4454 28.4161C91.18 28.2435 88.4484 28.0266 87.3753 27.9342L85.4241 27.7664L87.3525 29.6399C89.5337 31.7587 90.8917 33.8793 91.897 36.7351L92.5654 38.634L92.5052 46.2294C92.4209 56.8596 92.1648 61.6739 91.628 62.7256C90.9353 64.0821 89.5882 65.303 88.2218 65.8127C86.7114 66.3764 85.7792 66.4056 84.2217 65.9382C83.2479 65.646 83.0044 65.6415 82.6961 65.9104C82.0053 66.5136 80.3076 67.2441 79.2952 67.374C78.7046 67.4499 77.8145 67.3597 77.159 67.1575C75.834 66.7493 60.08 58.0089 58.439 56.7718C57.736 56.2417 54.4896 54.7338 49.8261 52.7711C38.7813 48.123 37.9929 47.6977 32.2765 43.3028C29.4757 41.1495 29.3614 41.0275 29.4859 40.3206C29.6716 39.2675 32.8445 20.0265 33.4632 16.2039C33.7483 14.4415 34.0707 12.8949 34.1797 12.767C34.3665 12.5476 37.7213 12.3143 49.4795 11.7024C58.7301 11.2208 59.6589 11.096 67.089 9.33384C73.4338 7.82901 75.848 7.08134 81.8534 4.76118C82.508 4.5084 83.5792 4.10822 84.2339 3.87205C84.8885 3.63588 86.1203 3.17375 86.9714 2.84501C87.8224 2.51627 89.2428 1.96964 90.1281 1.63022C92.3918 0.761975 93.9701 0.789746 95.2586 1.72042ZM22.5262 5.99116C28.2369 6.95886 29.2174 7.18648 29.7271 7.66381C30.51 8.39747 30.4933 8.91443 29.4924 14.9286C29.0389 17.6534 27.7568 25.3705 26.6435 32.0777C25.3961 39.5912 24.4777 44.4872 24.2514 44.8318C23.6662 45.7221 22.8726 45.7566 18.6626 45.0746C16.4968 44.7238 13.6539 44.2729 12.3447 44.0728C11.0354 43.8727 9.59145 43.5283 9.13582 43.3075C7.85158 42.6857 7.75302 42.0671 8.3598 38.4386C8.64735 36.7185 9.95921 28.8101 11.2746 20.8643C12.5903 12.9186 13.7793 6.20715 13.9174 5.9501C14.1209 5.5708 15.5918 4.72582 15.8482 4.84093C15.8851 4.85755 18.8901 5.37522 22.5262 5.99116ZM67.4646 34.8522C64.4691 36.4778 62.9206 40.7505 64.0061 44.3948C64.481 45.9899 65.2311 46.8418 67.0404 47.8413C67.8557 48.2918 71.1122 50.1028 74.2765 51.8661L80.0302 55.0721L80.1607 53.1428C80.2326 52.0819 80.3542 48.9464 80.4311 46.1748C80.6013 40.0318 80.5263 39.7693 78.01 37.6986C74.1951 34.5598 72.9265 33.9559 70.4114 34.0817C69.1131 34.1468 68.4404 34.3227 67.4646 34.8522ZM16.0436 34.3568C13.7201 35.5548 13.8086 38.6219 16.1953 39.6162C17.9715 40.3562 20.0827 38.8937 20.0801 36.925C20.0789 35.9782 19.2496 34.7473 18.3505 34.3575C17.3562 33.9265 16.8787 33.9263 16.0436 34.3568ZM86.3762 71.1878C89.7058 71.7159 92.5566 73.0855 94.8856 75.2756C97.8918 78.1025 99.3337 81.246 99.526 85.3931C99.6731 88.5622 99.3211 90.201 97.8726 93.0863C96.1946 96.4287 93.2869 98.9494 89.4094 100.424C87.9726 100.97 87.4682 101.034 84.5909 101.033C81.6439 101.032 81.2293 100.977 79.592 100.361C76.2556 99.1065 73.8216 97.1916 71.9546 94.3516C68.9924 89.8461 68.6589 84.2908 71.0605 79.4632C72.9937 75.5779 76.5062 72.7313 80.7068 71.6459C82.2776 71.24 85.2113 71.0032 86.3762 71.1878ZM83.1627 76.3211C83.0482 77.4132 82.9994 77.4761 81.8534 78.0132C79.9322 78.9137 78.8779 80.2645 78.8779 81.8251C78.8779 82.4143 78.9129 82.4261 80.6444 82.4261H82.4107L82.5668 81.7169C82.8668 80.3559 84.5543 79.6422 85.8564 80.3255C86.5764 80.7034 86.7255 80.9873 86.7297 81.9896C86.7343 83.0724 85.8806 83.8614 84.0627 84.455C80.2707 85.6929 78.8779 87.08 78.8779 89.6185C78.8779 91.5546 80.001 92.9714 82.1053 93.6894C82.9956 93.993 83.0498 94.0684 83.1627 95.1605L83.2817 96.3114L84.311 96.3853C85.6038 96.4781 86.0192 96.1396 86.0192 94.9939C86.0192 94.1066 86.0423 94.0836 87.2839 93.7235C89.6936 93.0252 91.104 91.5159 90.9655 89.7842C90.9003 88.9674 90.8793 88.9522 89.7246 88.8794C88.1011 88.7768 87.4474 88.975 87.4474 89.5696C87.4474 89.8383 87.1344 90.3702 86.7516 90.7519C86.1637 91.3381 85.8668 91.4456 84.8363 91.4456C83.3543 91.4456 82.4485 90.7253 82.4485 89.5468C82.4485 88.4744 83.2148 87.8609 85.8035 86.8606C88.5674 85.7928 89.9429 84.7123 90.3211 83.3124C90.6437 82.118 90.4454 80.6925 89.8153 79.6761C89.3989 79.0046 87.7005 77.9506 86.4358 77.5788C86.133 77.4898 86.0192 77.2083 86.0192 76.5471C86.0192 75.3406 85.6595 75.0315 84.3541 75.1168L83.2817 75.1868L83.1627 76.3211ZM63.8404 91.2959L66.0614 91.5643L66.7095 93.2258C67.4577 95.1429 68.7205 97.1918 70.2719 99.005L71.3581 100.274L70.0595 100.129C69.3454 100.049 67.3235 99.8241 65.5662 99.629L62.3717 99.2741L56.7586 103.489C37.7387 117.773 33.8812 120.726 34.053 120.875C34.1585 120.966 35.4765 121.164 36.9822 121.314C39.7997 121.596 45.3687 122.178 53.2882 123.019C55.7757 123.283 59.7927 123.708 62.2148 123.963C64.6369 124.218 68.7075 124.647 71.2605 124.916C73.8135 125.186 77.884 125.614 80.3061 125.868C82.7282 126.122 87.7629 126.651 91.4942 127.044C95.2255 127.436 98.9428 127.824 99.7545 127.904L101.231 128.051L112.609 119.515C128.29 107.752 129.837 106.574 129.741 106.479C129.659 106.397 121.762 105.534 114.708 104.836C112.746 104.642 109.854 104.335 108.281 104.156C106.707 103.975 102.983 103.58 100.004 103.277C97.0258 102.974 94.5888 102.667 94.5888 102.596C94.5888 102.525 94.937 102.264 95.3624 102.017C96.6236 101.285 99.5048 98.37 100.552 96.7681C101.454 95.3867 101.58 95.2854 102.282 95.3732C102.699 95.4252 104.593 95.6293 106.491 95.8265C108.389 96.0238 111.978 96.3995 114.465 96.6613C116.953 96.9231 121.613 97.4109 124.82 97.7455C136.441 98.9575 138.863 99.2653 139.545 99.6171C140.373 100.044 141.434 101.252 141.61 101.967C141.68 102.251 141.707 109.265 141.67 117.555L141.602 132.627L141.047 133.404C139.308 135.834 135.487 135.605 134.164 132.991C133.63 131.937 133.628 131.89 133.628 120.344V108.755L122.023 117.472C115.641 122.266 108.949 127.298 107.154 128.653L103.889 131.117L103.821 139.903L103.753 148.69L103.085 149.262C102.225 150 101.472 149.988 100.558 149.221L99.8257 148.606V140.324V132.043L99.2901 131.929C98.9954 131.867 96.023 131.539 92.6844 131.2C89.3458 130.862 84.1505 130.323 81.1393 130.002C78.128 129.682 73.629 129.207 71.1414 128.946C68.6539 128.686 65.1725 128.317 63.405 128.126C61.6376 127.936 58.1026 127.561 55.5496 127.292C52.9966 127.024 46.3551 126.325 40.7909 125.74C35.2266 125.155 30.3643 124.676 29.9856 124.676L29.2974 124.675L29.4505 127.464C29.5345 128.998 29.6164 132.565 29.6321 135.389C29.6578 139.95 29.6126 140.607 29.2308 141.252C27.6475 143.924 23.8138 143.964 22.1682 141.325C21.641 140.48 21.6234 140.238 21.4148 130.904C21.2134 121.893 21.2261 121.293 21.6364 120.385C21.998 119.586 22.9623 118.754 27.325 115.477C30.2143 113.308 35.8455 109.075 39.8387 106.073C61.8416 89.5281 59.3447 91.3168 60.6728 91.148C61.1936 91.0818 62.619 91.1482 63.8404 91.2959ZM68.2849 107.735C68.6777 107.792 71.5164 108.109 74.5931 108.437C84.2869 109.474 97.2018 110.888 100.54 111.278C104.261 111.713 104.902 112.012 105.018 113.366C105.084 114.14 104.955 114.369 103.827 115.487C103.125 116.183 101.932 117.036 101.144 117.405C98.79 118.509 97.7383 118.568 91.9769 117.919C89.1585 117.601 84.2815 117.067 81.1393 116.731C77.9971 116.396 74.5157 116.013 73.4029 115.88C72.29 115.746 68.6246 115.336 65.2577 114.967C58.5149 114.229 57.93 114.055 57.93 112.79C57.93 111.213 59.3738 109.659 61.9613 108.452C63.2662 107.843 63.8414 107.719 65.5434 107.679C66.6584 107.652 67.8922 107.678 68.2849 107.735Z" fill="#78DA76"/>
<circle cx="84.7902" cy="86.5434" r="16.3129" fill="#78DA76"/>
<path d="M86.112 89.3411H82.8344V90.7792H88.7288V93.08H82.8344V95.6947H79.2131V93.08H77.2307V90.7792H79.2131V89.3411H77.2307V86.1775H79.2131V77.3923H86.112C87.8565 77.3923 89.3279 77.985 90.5262 79.1703C91.7421 80.3556 92.35 81.7849 92.35 83.4582C92.35 85.1316 91.7509 86.5348 90.5526 87.6678C89.3544 88.7834 87.8741 89.3411 86.112 89.3411ZM82.8344 80.7652V86.1775H86.112C86.8521 86.1775 87.4688 85.916 87.9623 85.3931C88.4733 84.8701 88.7288 84.2252 88.7288 83.4582C88.7288 82.6913 88.4733 82.0551 87.9623 81.5496C87.4688 81.0267 86.8521 80.7652 86.112 80.7652H82.8344Z" fill="white"/>
<path d="M100.982 130.057L25.2525 123.439C23.4416 123.281 21.8661 124.669 21.7949 126.486L21.2484 140.421C21.1821 142.113 22.4527 143.561 24.1394 143.715L100.416 150.683C102.28 150.853 103.888 149.385 103.888 147.513V133.227C103.888 131.577 102.627 130.2 100.982 130.057Z" fill="#78DA76"/>
</g>
<defs>
<clipPath id="clip0_5878_1896">
<rect width="150" height="150" fill="white" transform="translate(0 0.606934)"/>
</clipPath>
</defs>
</svg>
