<svg width="151" height="151" viewBox="0 0 151 151" fill="none" xmlns="http://www.w3.org/2000/svg">
<g clip-path="url(#clip0_5582_51069)">
<g clip-path="url(#clip1_5582_51069)">
<path d="M47.7512 70.5218C44.2507 72.6209 41.0018 74.5688 37.3 76.7909C38.7147 77.7257 39.7213 78.4702 40.8005 79.0971C50.4744 84.7001 60.1595 90.2808 69.8334 95.8838C71.2369 96.6954 72.456 97.3447 74.1894 96.3316C87.2408 88.6575 91.6807 86.1778 105.375 78.2407C105.929 77.9216 106.415 77.4906 107.394 76.7797C103.865 74.6527 100.589 72.6768 97.2334 70.6506C101.522 67.2361 102.456 67.4936 106.891 69.5926C112.863 72.4137 116.799 76.7853 119.439 82.7242C120.909 86.0323 122.922 89.0997 124.734 92.251C125.953 94.3725 125.478 95.9621 123.381 97.1544C122.246 97.7981 121.211 98.6993 120.003 99.1135C116.536 100.306 115.921 102.819 116.056 106.116C116.274 111.607 116.1 117.12 116.251 122.617C116.313 124.934 115.536 126.423 113.489 127.599C100.712 134.909 87.9622 142.27 75.2687 149.725C73.1214 150.991 71.4215 150.856 69.3413 149.642C56.7205 142.247 44.055 134.926 31.367 127.655C29.354 126.502 28.4649 125.086 28.5096 122.729C28.627 116.387 28.4984 110.045 28.5767 103.703C28.5991 102.007 28.107 100.921 26.5413 100.149C24.7072 99.2478 22.9849 98.1116 21.2234 97.0648C19.4117 95.9957 18.7966 94.518 19.8646 92.5925C23.0631 86.7991 26.2617 81.0058 29.5385 75.2572C29.9691 74.5072 30.819 73.9251 31.5851 73.4493C33.7995 72.0667 36.0642 70.7737 38.3177 69.4527C42.383 67.0682 43.3895 67.1578 47.7568 70.5274L47.7512 70.5218ZM75.3469 143.121C77.1475 142.102 78.5958 141.301 80.0273 140.467C87.252 136.236 94.4711 131.993 101.696 127.761C104.497 126.121 108.412 125.136 109.821 122.695C111.291 120.149 110.397 116.214 110.469 112.883C110.525 110.348 110.481 107.812 110.481 104.856C109.049 105.539 108.104 105.909 107.237 106.413C99.6771 110.807 92.1281 115.229 84.5735 119.634C81.7776 121.263 80.5753 120.927 78.9481 118.083C77.8633 116.186 76.8064 114.277 75.3469 111.674V143.115V143.121ZM32.9775 81.1569C31.0371 84.4874 29.2813 87.65 27.3633 90.7062C26.2225 92.5253 26.4742 93.5441 28.409 94.6467C39.0167 100.67 49.5573 106.821 60.1259 112.922C60.5789 113.185 61.0933 113.337 61.7196 113.6C63.9899 109.597 66.1763 105.758 68.5025 101.66C56.536 94.7531 44.8658 88.0194 32.9775 81.1569ZM83.1588 113.773C85.9826 112.133 88.471 110.678 90.9706 109.234C99.4422 104.342 107.931 99.4941 116.346 94.5124C117.129 94.0478 118.125 92.447 117.873 91.9544C116.05 88.3272 113.931 84.8456 111.795 81.1345C99.7889 88.0698 88.074 94.8427 76.2249 101.688C78.6573 105.926 80.8214 109.704 83.1532 113.773H83.1588Z" fill="#78DA76"/>
<path d="M86.1335 25.7015C85.6806 33.5155 83.0189 40.7306 77.1418 46.4959C76.3646 47.2572 75.8166 48.0296 75.4755 48.8804C74.9554 50.1679 75.0057 51.3041 75.0169 51.6456C75.0896 53.9069 75.0784 69.3894 75.0673 90.7381C75.084 90.8556 75.2574 92.2326 74.2341 93.1561C73.4848 93.8334 72.5733 93.8278 72.2713 93.8278C70.5211 93.8278 70.1744 92.3837 70.18 90.8108C70.2079 78.0319 70.1352 65.2529 70.2415 52.4796C70.2639 49.8712 69.5593 47.9905 67.686 46.0817C55.3113 33.4931 56.6533 12.6147 70.3254 1.66051C72.0253 0.294736 73.1772 0.227567 74.8604 1.66051C82.1745 7.91284 85.8763 15.8164 86.1335 25.7015Z" fill="#78DA76"/>
<path d="M84.8921 70.6146C79.0263 70.6258 78.6572 70.3571 78.249 65.7392C76.6833 48.0457 93.5875 31.8412 111.084 34.0801C113.891 34.4384 114.607 35.765 114.786 38.2166C116.089 55.675 102.367 70.581 84.8921 70.6146Z" fill="#78DA76"/>
<path d="M66.8809 63.9471C66.9256 70.2274 66.5454 70.6192 60.3943 70.608C42.534 70.5856 28.7333 55.2543 30.5115 37.4656C30.724 35.361 31.5124 34.443 33.7268 34.1463C50.9553 31.8626 66.7579 46.0073 66.8809 63.9415V63.9471Z" fill="#78DA76"/>
</g>
</g>
<defs>
<clipPath id="clip0_5582_51069">
<rect width="150" height="150" fill="white" transform="translate(0.333374 0.606934)"/>
</clipPath>
<clipPath id="clip1_5582_51069">
<rect width="106.061" height="150" fill="white" transform="translate(19.3334 0.606934)"/>
</clipPath>
</defs>
</svg>
