<svg width="151" height="151" viewBox="0 0 151 151" fill="none" xmlns="http://www.w3.org/2000/svg">
<g clip-path="url(#clip0_5582_51061)">
<path d="M96.7051 12.5806C104.984 3.93542 119.258 12.1389 116.056 23.702L112.382 36.9699C110.46 43.9103 115.249 50.909 122.381 51.5814L136.015 52.8668C147.898 53.987 150.42 70.3257 139.435 75.0172L126.831 80.4003C120.237 83.2163 117.783 91.3463 121.707 97.3737L129.209 108.896C135.746 118.938 124.618 131.109 114.122 125.396L102.079 118.841C95.779 115.412 87.9291 118.551 85.6903 125.395L81.4105 138.478C77.6806 149.88 61.2816 148.717 59.1783 136.902L56.765 123.345C55.5026 116.253 48.168 112.037 41.4522 114.544L28.6138 119.335C17.425 123.511 8.10384 109.892 15.9772 100.871L25.0113 90.5204C29.737 85.106 28.4408 76.7102 22.3051 72.9921L10.5757 65.8843C0.353321 59.6897 5.12909 43.8683 17.0502 44.4351L30.7288 45.0856C37.8841 45.4258 43.6024 39.1718 42.6671 32.0289L40.8792 18.3739C39.3209 6.47341 54.5974 0.364275 61.5894 10.0918L69.6122 21.2533C73.809 27.092 82.2358 27.6892 87.2052 22.5002L96.7051 12.5806Z" fill="#78DA76"/>
<path d="M81.422 80.1841H72.6795V84.0601H88.4018V90.2617H72.6795V97.3089H63.0204V90.2617H57.7326V84.0601H63.0204V80.1841H57.7326V71.6569H63.0204V47.978H81.422C86.0752 47.978 89.9999 49.5754 93.1961 52.7702C96.4393 55.9649 98.0609 59.8174 98.0609 64.3277C98.0609 68.8379 96.4628 72.62 93.2666 75.6738C90.0704 78.6806 86.1222 80.1841 81.422 80.1841ZM72.6795 57.069V71.6569H81.422C83.3961 71.6569 85.0412 70.9521 86.3572 69.5427C87.7203 68.1332 88.4018 66.3949 88.4018 64.3277C88.4018 62.2605 87.7203 60.5457 86.3572 59.1832C85.0412 57.7737 83.3961 57.069 81.422 57.069H72.6795Z" fill="white"/>
</g>
<defs>
<clipPath id="clip0_5582_51061">
<rect width="150" height="150" fill="white" transform="translate(0.666626 0.606934)"/>
</clipPath>
</defs>
</svg>
