<svg width="940" height="400" viewBox="0 0 940 400" fill="none" xmlns="http://www.w3.org/2000/svg">
<g clip-path="url(#clip0_2033_5528)">
<g clip-path="url(#clip1_2033_5528)">
<g clip-path="url(#clip2_2033_5528)">
<rect y="-115.854" width="5811.95" height="495.793" fill="#78DA76"/>
<path d="M927.494 476.565C783.756 505.153 636.348 495.611 490.083 485.18C377.818 477.174 265.235 468.06 153.428 474.357C102.97 477.197 51.2313 481.247 2.16529 495.001C-51.1215 509.938 -99.2301 544.773 -142.168 586.758C-245.063 687.37 -324.23 825.178 -408.17 951.574C-497.065 1085.43 -599.51 1237.72 -740.436 1269.39C-741.813 1260.69 -743.19 1252 -744.568 1243.3C-605.084 1207.87 -502.261 1060.62 -411.808 928.597C-327.132 805.004 -246.945 670.852 -144.516 571.934C-101.355 530.252 -53.3496 495.421 -0.343195 479.159C48.3823 464.21 100.454 460.499 150.789 457.691C262.69 451.454 375.378 461.445 487.72 470.253C634.029 481.729 781.618 492.313 925.301 462.72C926.036 467.361 926.464 470.062 927.494 476.565Z" fill="#45AA5B" stroke="#2E9344" stroke-width="2.86585"/>
<path d="M924.986 464.348C781.31 493.932 633.716 483.277 487.402 471.732C375.055 462.865 262.363 452.82 150.464 459.024C100.128 461.814 48.0538 465.515 -0.664666 480.469C-53.667 496.736 -101.662 531.603 -144.812 573.332C-247.211 672.363 -327.362 806.692 -412.003 930.442C-502.419 1062.63 -605.2 1210.07 -744.676 1245.5C-746.948 1231.15 -749.22 1216.81 -751.492 1202.46C-614.372 1166.38 -510.981 1027.83 -418.905 900.265C-331.973 779.83 -249.421 648.876 -145.508 553.141C-103.339 514.29 -56.9997 481.851 -6.32902 465.297C44.3644 448.739 99.1313 445.247 151.725 442.789C264.487 437.524 377.981 449.263 491.106 459.455C635.635 472.47 781.523 484.154 923.446 454.624C923.953 457.824 924.25 459.7 924.986 464.348Z" fill="#2E9344" stroke="#2E9344" stroke-width="2.86585"/>
<path d="M922.92 452.914C781.018 482.418 635.137 470.668 490.619 457.583C377.5 447.339 264.011 435.546 151.26 440.774C98.6674 443.215 43.9058 446.69 -6.77547 463.244C-57.4372 479.794 -103.763 512.246 -145.918 551.117C-249.794 646.902 -332.301 777.945 -419.189 898.459C-511.22 1026.11 -614.563 1164.75 -751.661 1200.81C-754.608 1182.22 -757.554 1163.63 -760.501 1145.04C-625.759 1110.45 -521.389 982.298 -427.292 860.813C-339.353 747.279 -255.539 624.017 -152.605 533.532C-108.064 494.377 -59.3503 461.956 -6.39776 445.882C42.8021 430.947 95.2401 427.363 146.094 425.322C259.48 420.769 373.568 434.326 487.241 446.303C632.436 461.6 779.179 475.737 921.871 446.293C922.214 448.459 922.413 449.714 922.92 452.914Z" fill="#45AA5B" stroke="#2E9344" stroke-width="2.86585"/>
<path d="M921.115 446.933C778.455 476.335 631.751 462.257 486.594 447.025C372.951 435.1 258.894 421.598 145.536 426.161C94.6944 428.206 42.2691 431.792 -6.92046 446.699C-59.862 462.744 -108.572 495.096 -153.106 534.163C-256.028 624.446 -339.838 747.422 -427.77 860.693C-521.861 981.898 -626.223 1109.75 -760.935 1144.29C-764.325 1122.93 -767.715 1101.58 -771.104 1080.22C-637.42 1048.14 -530.89 929.562 -433.717 814.523C-344.073 708.396 -257.981 593.104 -154.424 509.999C-110.656 474.873 -63.3952 446.054 -12.6851 431.091C36.8467 416.476 89.2223 412.663 140.393 411.022C254.45 407.368 369.138 422.889 483.364 436.801C629.222 454.565 776.842 471.4 920.394 442.392C920.639 443.931 920.772 444.772 921.115 446.933Z" fill="#2E9344" stroke="#2E9344" stroke-width="2.86585"/>
<path d="M919.521 439.722C776.007 468.671 628.436 451.935 482.63 434.272C368.441 420.439 253.792 405 139.77 408.676C88.6178 410.325 36.2542 414.14 -13.2652 428.719C-63.9661 443.646 -111.215 472.379 -154.977 507.397C-258.519 590.247 -344.608 705.169 -434.246 810.959C-531.413 925.632 -637.935 1043.84 -771.584 1075.85C-775.191 1053.16 -778.798 1030.48 -782.406 1007.8C-649.731 978.85 -540.941 870.432 -440.524 762.753C-350.683 666.417 -263.852 562.161 -162.154 487.007C-115.723 452.693 -65.908 424.99 -12.8785 411.31C37.3589 398.351 89.621 394.405 141.238 393.565C253.833 391.735 366.875 408.92 479.47 424.565C625.983 444.918 774.489 464.621 918.965 436.228C919.177 437.559 919.277 438.188 919.521 439.722Z" fill="#45AA5B" stroke="#2E9344" stroke-width="2.86585"/>
<path d="M918.163 434.077C773.961 462.351 625.719 442.609 479.464 422.212C367.069 406.539 254.226 389.325 141.837 391.1C90.315 391.913 38.1503 395.83 -11.9907 408.74C-64.918 422.371 -114.63 450.006 -160.964 484.237C-262.443 559.213 -349.074 663.251 -438.716 759.381C-538.907 866.829 -647.456 975.011 -779.876 1003.84C-783.486 981.198 -787.096 958.552 -790.705 935.905C-659.165 910.049 -548.425 811.549 -444.956 711.458C-353.467 622.957 -264.514 527.2 -162.37 459.548C-116.858 429.404 -68.5963 405.311 -17.8063 392.979C32.7285 380.71 84.8602 376.48 136.705 376.133C249.826 375.375 363.309 394.692 476.288 412.449C623.243 435.553 772.421 458.302 917.607 430.589C917.851 432.123 917.952 432.751 918.163 434.077Z" fill="#2E9344" stroke="#2E9344" stroke-width="2.86585"/>
<path d="M916.403 428.946C771.26 456.577 622.146 434.019 475.253 411.118C362.325 393.512 248.887 374.348 135.809 375.156C83.9827 375.525 31.8689 379.757 -18.6515 391.985C-69.4269 404.275 -117.679 428.262 -163.185 458.266C-265.311 525.606 -354.266 620.891 -445.755 708.967C-549.221 808.574 -659.954 906.601 -791.454 932.382C-794.832 911.249 -798.21 890.115 -801.588 868.986C-555.262 824.647 -383.225 565.386 -166.716 436.196C31.5094 317.914 258.851 364.109 473.651 401.117C620.674 426.445 770.142 451.591 915.685 424.456C916.027 426.593 916.16 427.423 916.403 428.946Z" fill="#45AA5B" stroke="#2E9344" stroke-width="2.86585"/>
<path d="M914.72 423.851C769.215 450.908 619.809 425.989 472.851 400.888C258.141 364.212 30.9004 318.41 -167.309 436.112C-383.796 564.669 -555.88 822.516 -802.139 866.731C-805.063 848.488 -807.988 830.249 -810.912 812.006C-567.602 769.804 -388.59 534.366 -170.565 415.804C31.6073 305.863 254.724 349.877 471.088 389.888C618.129 417.078 767.856 444.248 913.678 417.35C914.182 420.494 914.379 421.725 914.72 423.851Z" fill="#2E9344" stroke="#2E9344" stroke-width="2.86585"/>
<path d="M913.233 416.259C767.439 443.075 617.717 415.828 470.679 388.562C254.321 348.439 31.2087 304.309 -170.892 414.13C-388.844 532.563 -567.729 767.879 -810.994 809.946C-813.259 795.856 -815.524 781.765 -817.789 767.674C-577.308 724.008 -392.618 508.024 -173.762 396.275C-78.1955 347.478 22.8101 325.927 127.349 327.692C241.298 329.616 355.283 353.719 468.657 375.982C615.729 404.862 765.728 433.868 911.698 406.708C912.432 411.276 912.728 413.116 913.233 416.259Z" fill="#45AA5B" stroke="#2E9344" stroke-width="2.86585"/>
<path d="M911.251 404.94C765.299 432.031 615.271 402.783 468.169 373.664C354.775 351.216 240.763 326.926 126.809 324.875C22.2611 322.997 -78.7298 344.508 -174.256 393.352C-393.025 505.208 -577.539 721.649 -817.991 765.196C-819.374 756.61 -820.757 748.027 -822.14 739.44C-584.405 689.595 -395.54 488.349 -176.612 378.722C-80.6726 330.68 19.291 306.494 124.16 308.434C238.238 310.545 352.347 335.709 465.795 358.932C612.876 389.038 763.114 419.384 909.05 391.28C910.084 397.695 910.513 400.361 911.251 404.94Z" fill="#2E9344" stroke="#2E9344" stroke-width="2.86585"/>
<path d="M908.397 390.553C762.471 418.639 612.304 388.712 465.295 359.018C351.905 336.113 237.852 311.282 123.804 309.335C18.965 307.546 -80.9967 331.682 -176.96 379.493C-395.942 488.593 -584.963 688.597 -822.686 738.382C-823.713 732.012 -824.226 728.83 -825.253 722.461C-587.531 672.676 -398.509 472.669 -179.527 363.572C-83.7127 315.835 16.4683 291.188 121.174 293.028C235.343 295.035 349.491 320.708 462.931 344.359C609.91 375.004 760.288 405.996 906.2 376.928C906.941 381.525 907.37 384.183 908.397 390.553Z" fill="#45AA5B" stroke="#2E9344" stroke-width="2.86585"/>
<path d="M906.016 375.452C760.102 404.527 609.705 373.424 462.708 342.669C349.253 318.933 235.093 293.171 120.913 291.121C16.1982 289.239 -83.9826 313.903 -179.791 361.7C-398.758 470.937 -587.739 671.264 -825.465 721.065C-826.493 714.682 -827.007 711.494 -828.036 705.112C-590.31 655.311 -401.33 454.981 -182.362 345.747C-86.5975 297.972 13.6606 272.999 118.376 275.385C232.794 277.992 347.106 305.073 460.67 330.029C607.682 362.33 758.358 395.159 904.451 365.744C904.971 368.971 905.274 370.845 906.016 375.452Z" fill="#2E9344" stroke="#2E9344" stroke-width="2.86585"/>
<path d="M904.121 363.247C758.023 392.675 607.363 359.952 460.366 327.756C346.818 302.885 232.515 275.888 118.101 273.327C13.3905 270.986 -86.8754 295.963 -182.649 343.706C-401.644 452.871 -590.682 652.982 -828.416 702.803C-829.442 696.431 -829.955 693.248 -830.982 686.875C-593.248 637.053 -404.211 436.939 -185.216 327.777C-89.4045 280.017 10.8351 254.876 115.643 258.065C230.384 261.558 344.876 290.228 458.579 316.662C605.614 350.847 756.602 385.793 903.036 356.511C903.396 358.746 903.602 360.028 904.121 363.247Z" fill="#45AA5B" stroke="#2E9344" stroke-width="2.86585"/>
<path d="M902.712 356.941C756.272 386.245 605.299 351.405 458.278 317.326C344.59 290.972 230.11 262.385 115.37 258.946C10.5622 255.804 -89.6835 280.953 -185.505 328.691C-404.531 437.804 -593.632 637.733 -831.377 687.588C-832.402 681.224 -832.914 678.042 -833.938 671.681C-596.193 621.826 -407.093 421.893 -188.066 312.784C-92.1514 265 7.99785 239.793 112.964 244.006C228.093 248.629 342.79 279.124 456.659 307.267C603.73 343.616 755.065 381.014 901.946 352.181C902.21 353.821 902.353 354.709 902.712 356.941Z" fill="#2E9344" stroke="#2E9344" stroke-width="2.86585"/>
<path d="M901.791 350.538C754.901 379.401 603.545 341.89 456.453 305.434C342.572 277.209 227.856 246.626 112.715 241.968C7.73431 237.721 -92.4196 262.961 -188.332 310.82C-407.36 420.106 -596.445 620.401 -834.204 670.305C-835.23 663.927 -835.743 660.739 -836.768 654.365C-599.009 604.461 -409.925 404.163 -190.896 294.88C-94.8623 246.963 5.15652 221.716 110.332 227.151C225.898 233.123 340.841 265.738 454.915 295.868C602.058 334.727 753.787 374.978 901.181 346.751C901.415 348.201 901.526 348.892 901.791 350.538Z" fill="#45AA5B" stroke="#2E9344" stroke-width="2.86585"/>
<path d="M901.357 350.044C753.95 378.292 602.13 337.508 454.899 298.126C340.757 267.596 225.744 234.559 110.136 228.379C4.92332 222.754 -95.0977 248.063 -191.107 296.229C-410.081 406.085 -599.001 607.719 -836.776 657.69C-837.81 651.261 -838.326 648.046 -839.359 641.619C-601.583 591.648 -412.664 390.011 -193.69 280.158C-97.5528 231.929 2.32652 206.614 107.735 213.437C223.775 220.948 339.016 256.03 453.348 288.475C600.619 330.275 752.825 373.836 900.744 346.228C901.011 347.889 901.123 348.585 901.357 350.044Z" fill="#2E9344" stroke="#2E9344" stroke-width="2.86585"/>
<path d="M900.433 343.66C752.506 371.297 600.321 327.882 453.071 286.226C338.754 253.891 223.529 218.919 107.496 211.482C2.09182 204.723 -97.7989 230.048 -193.95 278.247C-412.963 388.037 -601.961 589.442 -839.752 639.453C-840.782 633.034 -841.298 629.824 -842.328 623.409C-604.537 573.398 -415.54 371.99 -196.526 262.203C-100.272 213.952 -0.487442 188.574 105.076 196.413C221.518 205.061 336.955 241.953 451.442 276.081C598.711 319.981 751.263 366.017 899.662 338.859C900.023 341.109 900.167 342.002 900.433 343.66Z" fill="#45AA5B" stroke="#2E9344" stroke-width="2.86585"/>
<path d="M899.51 337.282C751.101 364.462 598.535 318.356 451.253 274.392C336.756 240.212 221.308 203.261 104.857 194.596C-0.715106 186.739 -100.509 212.141 -196.764 260.443C-415.786 370.351 -604.786 571.992 -842.591 622.045C-843.622 615.618 -844.138 612.404 -845.168 605.98C-607.363 555.927 -418.364 354.284 -199.341 244.379C-103.04 196.054 -3.27367 170.497 102.388 179.205C219.194 188.83 334.822 227.472 449.458 263.204C596.726 309.109 749.636 357.52 898.419 330.486C898.94 333.732 899.148 335.026 899.51 337.282Z" fill="#2E9344" stroke="#2E9344" stroke-width="2.86585"/>
<path d="M898.099 331.005C749.309 358.062 596.424 309.811 449.177 264.055C334.562 228.437 218.949 189.923 102.151 180.371C-3.50377 171.729 -103.276 197.289 -199.593 245.575C-418.651 355.395 -607.723 556.771 -845.54 606.85C-846.568 600.435 -847.082 597.228 -848.11 590.816C-610.293 540.736 -421.222 339.357 -202.164 229.541C-105.89 181.277 -6.02959 155.41 99.6151 164.554C216.681 174.687 332.433 214.533 447.14 251.349C594.337 298.591 747.526 348.652 896.534 321.247C897.277 325.877 897.579 327.764 898.099 331.005Z" fill="#45AA5B" stroke="#2E9344" stroke-width="2.86585"/>
<path d="M896.201 318.824C747.189 346.246 594.025 296.348 446.853 249.263C332.165 212.569 216.432 172.852 99.3755 162.792C-6.26099 153.715 -106.127 179.578 -202.414 227.796C-421.503 337.51 -610.641 538.592 -848.466 588.687C-849.492 582.285 -850.005 579.083 -851.031 572.684C-613.206 522.589 -424.068 321.506 -204.979 211.793C-108.853 163.655 -8.74052 137.28 96.7487 146.401C213.958 156.532 329.777 197.107 444.492 234.529C591.573 282.51 744.985 333.56 894.007 305.131C895.032 311.531 895.461 314.206 896.201 318.824Z" fill="#2E9344" stroke="#2E9344" stroke-width="2.86585"/>
<path d="M2453.94 584.601C2308.39 592.403 2163.85 561.374 2020.56 529.619C1910.57 505.246 1800.41 479.714 1689.13 469.773C1638.91 465.284 1587.28 461.825 1537.11 468.501C1482.62 475.752 1430.82 503.741 1383.27 539.663C1269.3 625.747 1174.26 752.641 1075.88 867.38C971.706 988.892 851.886 1126.94 708.736 1138.26C708.435 1129.32 708.134 1120.38 707.833 1111.44C850.016 1096.15 969.594 963.215 1075.09 843.773C1173.85 731.957 1269.46 608.882 1382.75 524.433C1430.49 488.847 1482.19 460.847 1536.56 452.225C1586.54 444.298 1638.46 448.146 1688.56 452.649C1799.92 462.664 1910.08 489.093 2020.04 514.283C2163.25 547.094 2307.84 579.196 2453.46 570.376C2453.62 575.144 2453.71 577.919 2453.94 584.601Z" fill="#45AA5B" stroke="#2E9344" stroke-width="2.86585"/>
<path d="M2453.07 572.211C2307.45 581.028 2162.86 548.855 2019.65 515.974C1909.69 490.725 1799.52 464.241 1688.16 454.195C1638.07 449.676 1586.15 445.818 1536.17 453.752C1481.8 462.381 1430.11 490.422 1382.37 526.062C1269.08 610.639 1173.48 733.908 1074.73 845.9C969.248 965.529 849.681 1098.67 707.501 1113.97C707.004 1099.23 706.507 1084.49 706.01 1069.75C845.941 1053.46 965.028 929.325 1071.59 814.583C1172.2 706.256 1269.76 586.726 1384.14 505.679C1430.56 472.789 1480.32 446.945 1532.42 437.688C1584.55 428.43 1639.11 432.889 1691.39 438.071C1803.49 449.186 1914.24 477.487 2024.81 504.18C2166.08 538.278 2308.85 571.236 2452.73 562.22C2452.84 565.508 2452.91 567.435 2453.07 572.211Z" fill="#2E9344" stroke="#2E9344" stroke-width="2.86585"/>
<path d="M2452.67 560.772C2308.79 569.778 2166.02 536.758 2024.76 502.594C1914.19 475.851 1803.44 447.498 1691.34 436.353C1639.06 431.157 1584.5 426.685 1532.38 435.946C1480.28 445.207 1430.53 471.075 1384.11 503.999C1269.74 585.131 1172.2 704.795 1071.6 813.242C965.053 928.111 845.983 1052.38 706.058 1068.67C705.413 1049.57 704.768 1030.46 704.123 1011.35C841.539 996.19 960.346 882.614 1068.18 774.239C1168.96 672.958 1266.86 561.302 1379.65 485.359C1428.45 452.497 1480.56 427.006 1534.87 418.557C1585.33 410.707 1637.6 414.731 1688.12 420.076C1800.76 431.992 1911.89 462.205 2022.79 490.769C2164.46 527.253 2307.79 562.798 2452.44 553.967C2452.51 556.193 2452.56 557.483 2452.67 560.772Z" fill="#45AA5B" stroke="#2E9344" stroke-width="2.86585"/>
<path d="M2451.94 554.862C2307.3 563.679 2163.97 528.204 2022.32 491.795C1911.42 463.29 1800.3 433.139 1687.67 421.248C1637.15 415.914 1584.88 411.898 1534.43 419.732C1480.12 428.164 1428.01 453.602 1379.21 486.396C1266.43 562.182 1168.55 673.607 1067.78 774.68C959.947 882.831 841.15 996.171 703.744 1011.3C703 989.346 702.257 967.388 701.514 945.433C837.604 932.619 957.411 828.913 1067.53 727.407C1169.13 633.766 1268.33 530.395 1380.86 461.916C1428.42 432.972 1478.67 410.874 1530.63 403.206C1581.39 395.715 1633.64 399.495 1684.43 405.284C1797.64 418.191 1909.14 450.462 2020.37 481.049C2162.41 520.105 2306.31 558.484 2451.78 550.193C2451.83 551.776 2451.86 552.641 2451.94 554.862Z" fill="#2E9344" stroke="#2E9344" stroke-width="2.86585"/>
<path d="M2451.63 547.832C2306.17 556.099 2162.29 517.833 2020.26 478.892C1909.03 448.396 1797.55 416.216 1684.34 403.352C1633.55 397.58 1581.31 393.811 1530.55 401.28C1478.59 408.927 1428.35 430.96 1380.79 459.819C1268.27 528.097 1169.08 631.164 1067.5 724.532C957.387 825.74 837.591 929.138 701.512 941.918C700.719 918.583 699.926 895.248 699.133 871.912C833.875 862.072 954.716 768.843 1067.19 675.142C1167.81 591.311 1266.43 499.078 1376.19 438.271C1426.3 410.507 1478.95 389.883 1533.07 383.829C1584.33 378.093 1636.49 381.716 1687.64 388.369C1799.21 402.883 1908.89 436.585 2018.32 468.672C2160.72 510.421 2305.17 551.806 2451.51 544.237C2451.56 545.607 2451.58 546.254 2451.63 547.832Z" fill="#45AA5B" stroke="#2E9344" stroke-width="2.86585"/>
<path d="M2451.38 542.432C2305.29 549.957 2161.08 508.581 2018.92 466.835C1909.67 434.755 1800.16 401.059 1688.78 386.537C1637.72 379.879 1585.65 376.25 1534.47 381.964C1480.45 387.999 1427.89 408.592 1377.87 436.311C1268.31 497.026 1169.88 589.137 1069.44 672.854C957.173 766.428 836.553 859.528 702.043 869.325C701.247 846.015 700.451 822.704 699.655 799.394C832.93 792.465 954.53 709.425 1069.13 623.728C1170.47 547.956 1270.19 464.514 1379.5 411.265C1428.21 387.539 1478.9 370.3 1530.65 365.262C1582.14 360.249 1634.22 363.559 1685.54 370.733C1797.52 386.385 1907.4 422.289 2016.97 456.55C2159.5 501.122 2304.26 545.659 2451.26 538.842C2451.31 540.422 2451.34 541.068 2451.38 542.432Z" fill="#2E9344" stroke="#2E9344" stroke-width="2.86585"/>
<path d="M2450.67 537.467C2303.68 544.251 2158.93 499.932 2016.42 455.588C1906.85 421.498 1796.98 385.766 1685.01 370.192C1633.69 363.054 1581.61 359.761 1530.13 364.751C1478.39 369.766 1427.7 386.923 1379 410.535C1269.7 463.529 1169.99 546.567 1068.66 621.98C954.073 707.266 832.486 789.908 699.223 796.806C698.476 775.041 697.728 753.275 696.981 731.513C946.123 722.572 1148.16 486.49 1378.22 387.803C1588.85 297.449 1808.09 376.901 2016.06 445.288C2158.4 492.093 2303.19 539.07 2450.51 532.842C2450.59 535.044 2450.62 535.898 2450.67 537.467Z" fill="#45AA5B" stroke="#2E9344" stroke-width="2.86585"/>
<path d="M2449.99 532.523C2302.67 538.721 2157.9 492.005 2015.56 445.459C1807.61 377.452 1588.38 298.439 1377.77 388.31C1147.72 486.47 945.713 721.276 696.589 730.179C695.94 711.381 695.29 692.587 694.641 673.79C940.599 666.489 1146.71 455.254 1377.04 367.384C1590.63 285.904 1806 362.519 2015.17 434.124C2157.33 482.786 2302.15 531.817 2449.75 525.825C2449.87 529.064 2449.91 530.333 2449.99 532.523Z" fill="#2E9344" stroke="#2E9344" stroke-width="2.86585"/>
<path d="M2449.73 525.087C2302.14 531.04 2157.31 481.957 2015.15 433.243C1805.97 361.561 1590.59 284.866 1377.04 366.309C1146.73 454.14 940.674 665.374 694.728 672.609C694.224 658.086 693.719 643.562 693.214 629.039C936.602 619.79 1146.02 428.872 1376.4 347.906C1476.99 312.552 1579.62 305.432 1682.86 322.314C1795.4 340.715 1905.24 381.467 2014.7 420.277C2156.7 470.622 2301.58 521.516 2449.39 515.242C2449.56 519.951 2449.62 521.847 2449.73 525.087Z" fill="#45AA5B" stroke="#2E9344" stroke-width="2.86585"/>
<path d="M2449.37 513.774C2301.56 520.01 2156.68 468.89 2014.67 418.322C1905.2 379.341 1795.35 338.414 1682.81 319.904C1579.56 302.926 1476.94 310.028 1376.36 345.459C1146.01 426.6 936.647 618.064 693.268 627.246C692.959 618.394 692.65 609.546 692.341 600.694C933.809 584.774 1145.6 409.248 1375.83 330.378C1476.72 295.814 1578.66 285.869 1682.22 302.955C1794.87 321.544 1904.71 363.366 2014.14 403.136C2156 454.695 2300.96 506.951 2448.88 499.692C2449.11 506.305 2449.21 509.053 2449.37 513.774Z" fill="#2E9344" stroke="#2E9344" stroke-width="2.86585"/>
<path d="M2448.44 499.152C2300.52 506.408 2155.57 454.596 2013.72 403.475C1904.31 364.043 1794.48 322.574 1681.83 304.165C1578.28 287.243 1476.35 297.149 1375.45 331.487C1145.21 409.842 933.389 584.117 691.925 600.001C691.695 593.434 691.581 590.154 691.351 583.588C932.815 567.704 1144.63 393.426 1374.87 315.074C1475.62 280.789 1577.83 270.401 1681.24 287.354C1794.01 305.841 1903.83 348.172 2013.19 388.363C2154.9 440.439 2299.92 493.354 2447.95 485.105C2448.11 489.845 2448.21 492.585 2448.44 499.152Z" fill="#45AA5B" stroke="#2E9344" stroke-width="2.86585"/>
<path d="M2447.98 483.898C2299.96 492.15 2154.93 439.117 2013.22 386.925C1903.85 346.644 1794.03 304.219 1681.26 285.685C1577.84 268.685 1475.63 279.087 1374.89 313.431C1144.65 391.921 932.845 566.523 691.38 582.415C691.15 575.836 691.035 572.549 690.805 565.97C932.27 550.077 1144.08 375.472 1374.32 296.986C1475.01 262.658 1577.34 251.954 1680.7 269.462C1793.63 288.592 1903.44 332.368 2012.77 373.894C2154.3 427.646 2299.39 482.459 2447.63 473.89C2447.75 477.217 2447.82 479.149 2447.98 483.898Z" fill="#2E9344" stroke="#2E9344" stroke-width="2.86585"/>
<path d="M2447.63 471.627C2299.39 480.2 2154.3 425.491 2012.78 371.841C1903.46 330.398 1793.65 286.704 1680.72 267.616C1577.36 250.149 1475.03 260.851 1374.33 295.14C1144.09 373.541 932.26 547.904 690.793 563.807C690.563 557.237 690.449 553.956 690.22 547.386C931.687 531.484 1143.51 357.117 1373.76 278.719C1474.49 244.418 1576.82 233.548 1680.17 251.883C1793.31 271.956 1903.1 317.364 2012.38 360.405C2153.7 416.064 2298.83 473.061 2447.39 464.683C2447.47 466.987 2447.52 468.309 2447.63 471.627Z" fill="#45AA5B" stroke="#2E9344" stroke-width="2.86585"/>
<path d="M2447.01 465.312C2298.45 473.701 2153.32 416.805 2012.01 361.246C1902.73 318.282 1792.95 272.954 1679.81 252.926C1576.46 234.633 1474.13 245.503 1373.4 279.772C1143.14 358.099 931.293 532.252 689.822 548.169C689.593 541.608 689.479 538.328 689.25 531.771C930.721 515.854 1142.57 341.698 1372.82 263.375C1473.66 229.073 1575.9 218.13 1679.27 237.525C1792.65 258.802 1902.41 306.084 2011.65 350.877C2152.73 408.731 2297.9 468.256 2446.84 460.405C2446.9 462.096 2446.93 463.012 2447.01 465.312Z" fill="#2E9344" stroke="#2E9344" stroke-width="2.86585"/>
<path d="M2446.88 459.009C2297.94 466.875 2152.76 407.223 2011.68 349.249C1902.45 304.363 1792.68 256.983 1679.29 235.661C1575.91 216.22 1473.68 227.186 1372.84 261.553C1142.58 340.032 930.734 514.528 689.259 530.47C689.03 523.897 688.916 520.61 688.687 514.04C930.162 498.098 1142.01 323.598 1372.27 245.123C1473.23 210.714 1575.34 199.723 1678.76 220.388C1792.41 243.095 1902.15 292.556 2011.33 339.388C2152.17 399.791 2297.38 462.258 2446.75 455.105C2446.8 456.599 2446.82 457.311 2446.88 459.009Z" fill="#45AA5B" stroke="#2E9344" stroke-width="2.86585"/>
<path d="M2446.48 458.665C2297.11 465.821 2151.89 402.793 2011.03 341.841C1901.83 294.588 1792.07 244.685 1678.42 221.751C1574.99 200.88 1472.88 211.923 1371.93 246.573C1141.67 325.603 929.853 501.437 688.373 517.419C688.143 510.792 688.028 507.479 687.798 500.855C929.278 484.873 1141.1 309.036 1371.35 230.009C1472.44 195.314 1574.41 184.245 1677.89 206.351C1791.8 230.687 1901.53 282.685 2010.68 331.894C2151.28 395.288 2296.55 461.17 2446.34 454.733C2446.4 456.444 2446.43 457.162 2446.48 458.665Z" fill="#2E9344" stroke="#2E9344" stroke-width="2.86585"/>
<path d="M2446.34 452.369C2296.55 458.823 2151.29 393.084 2010.7 329.832C1901.55 280.73 1791.83 228.84 1677.91 204.572C1574.44 182.524 1472.46 193.592 1371.37 228.246C1141.11 307.179 929.261 482.743 687.777 498.741C687.548 492.126 687.434 488.819 687.204 482.207C928.688 466.208 1140.53 290.641 1370.8 211.711C1472 177.021 1573.87 165.883 1677.37 189.042C1791.54 214.589 1901.24 268.444 2010.33 319.376C2150.67 384.892 2295.97 453.324 2446.17 447.422C2446.25 449.741 2446.29 450.661 2446.34 452.369Z" fill="#45AA5B" stroke="#2E9344" stroke-width="2.86585"/>
<path d="M2446.21 446.076C2296 451.987 2150.7 383.477 2010.37 317.889C1901.27 266.898 1791.58 212.979 1677.41 187.407C1573.9 164.221 1472.02 175.374 1370.82 210.105C1140.55 289.132 928.701 464.902 687.213 480.922C686.984 474.299 686.869 470.987 686.64 464.368C928.128 448.348 1139.98 272.575 1370.25 193.551C1471.5 158.803 1573.37 147.491 1676.86 171.546C1791.26 198.137 1900.93 253.786 2009.97 306.36C2150.05 373.901 2295.41 444.782 2445.97 439.073C2446.08 442.418 2446.13 443.751 2446.21 446.076Z" fill="#2E9344" stroke="#2E9344" stroke-width="2.86585"/>
<path d="M2445.59 439.772C2295.03 445.497 2149.68 374.776 2009.6 307.384C1900.57 254.925 1790.9 199.405 1676.5 172.884C1573.01 148.893 1471.14 160.2 1369.89 194.898C1139.61 273.814 927.738 449.284 686.246 465.314C686.018 458.704 685.903 455.399 685.675 448.792C927.167 432.762 1139.04 257.288 1369.32 178.376C1470.52 143.694 1572.52 132.09 1675.94 156.586C1790.53 183.731 1900.17 240.613 2009.15 294.292C2148.99 363.173 2294.42 435.76 2445.24 429.718C2445.41 434.489 2445.47 436.433 2445.59 439.772Z" fill="#45AA5B" stroke="#2E9344" stroke-width="2.86585"/>
<path d="M2445.24 427.511C2294.42 433.564 2149 361.142 2009.16 292.421C1900.19 238.866 1790.55 182.116 1675.96 155.042C1572.55 130.612 1470.55 142.208 1369.34 176.836C1139.05 255.628 927.159 430.779 685.665 446.813C685.437 440.217 685.323 436.918 685.096 430.325C926.59 414.29 1138.48 239.139 1368.77 160.347C1469.81 125.776 1572.12 113.701 1675.38 138.154C1790.11 165.32 1899.73 222.947 2008.63 277.239C2148.27 346.851 2293.79 420.468 2444.75 413.403C2444.98 419.996 2445.07 422.753 2445.24 427.511Z" fill="#2E9344" stroke="#2E9344" stroke-width="2.86585"/>
<path d="M1994.05 601.737C1811.39 623.024 1627.78 601.176 1445.69 578.415C1305.93 560.944 1165.88 542.205 1025.32 540.847C961.882 540.231 896.728 540.879 833.99 552.637C765.854 565.406 702.293 600.932 644.517 644.884C506.068 750.211 393.752 899.138 276.556 1034.88C152.443 1178.63 9.59922 1342.07 -169.844 1367.05C-170.734 1357.16 -171.624 1347.28 -172.514 1337.4C5.48481 1308.1 148.318 1150.35 274.206 1008.78C392.054 876.243 505.295 731.502 643.001 628.044C701.026 584.449 764.457 548.92 832.369 534.641C894.796 521.514 960.333 521.272 1023.61 521.914C1164.28 523.347 1304.38 543.081 1444.16 561.458C1626.21 585.397 1809.94 608.43 1992.64 586.009C1993.11 591.281 1993.39 594.349 1994.05 601.737Z" fill="#45AA5B" stroke="#2E9344" stroke-width="2.86585"/>
<path d="M1991.34 583.328C1808.65 605.742 1624.93 582.752 1442.9 558.86C1303.12 540.513 1163.03 520.818 1022.36 519.399C959.089 518.76 893.55 519.013 831.13 532.13C763.22 546.4 699.789 581.896 641.763 625.448C504.061 728.803 390.811 873.394 272.959 1005.79C147.066 1147.22 4.22885 1304.81 -173.764 1334.09C-175.228 1317.84 -176.693 1301.59 -178.157 1285.33C-3.04932 1255.15 139.697 1107.56 267.223 971.444C387.624 842.935 503.554 702.308 642.834 602.76C699.356 562.363 760.481 529.464 825.499 514.699C890.546 499.93 959.435 500.113 1025.51 501.294C1167.16 503.829 1308.09 525.482 1448.71 545.373C1628.37 570.779 1809.86 594.795 1990.35 572.311C1990.68 575.937 1990.87 578.062 1991.34 583.328Z" fill="#2E9344" stroke="#2E9344" stroke-width="2.86585"/>
<path d="M1991.73 571.857C1811.25 594.318 1629.79 570.427 1450.16 545.145C1309.56 525.355 1168.65 503.808 1027.01 501.318C960.948 500.16 892.067 499.995 827.028 514.734C762.015 529.471 700.892 562.281 644.368 602.566C505.086 701.836 389.142 842.049 268.731 970.182C141.194 1105.9 -1.56426 1253.06 -176.657 1283.2C-178.548 1262.22 -180.439 1241.25 -182.33 1220.28C-10.3288 1191.6 132.702 1056.24 262.229 927.553C383.279 807.29 500.106 675.862 637.698 582.439C697.235 542.014 761.345 509.414 829.18 495.378C892.207 482.337 958.19 482.208 1022.04 483.684C1164.41 486.975 1305.9 510.536 1447.03 532.302C1627.29 560.102 1809.6 586.723 1991.05 564.388C1991.27 566.831 1991.4 568.247 1991.73 571.857Z" fill="#45AA5B" stroke="#2E9344" stroke-width="2.86585"/>
<path d="M1989.56 564.681C1808.13 586.988 1625.83 560.314 1445.59 532.464C1304.47 510.66 1162.99 487.059 1020.64 483.736C956.799 482.245 890.824 482.36 827.806 495.391C759.981 509.417 695.88 542.015 636.357 582.441C498.797 675.866 382.005 807.314 260.99 927.592C131.5 1056.29 -11.4914 1191.67 -183.468 1220.32C-185.65 1196.16 -187.831 1172 -190.013 1147.84C-19.5611 1121.87 125.248 997.027 258.003 875.457C380.471 763.306 499.377 640.63 637.04 555.289C695.223 519.219 757.169 490.468 822.096 477.488C885.514 464.809 951.45 464.435 1015.67 466.405C1158.8 470.797 1300.88 496.705 1442.53 520.777C1623.41 551.514 1806.59 581.343 1989.1 559.543C1989.25 561.284 1989.34 562.236 1989.56 564.681Z" fill="#2E9344" stroke="#2E9344" stroke-width="2.86585"/>
<path d="M1987.45 558.864C1804.97 580.619 1621.83 550.929 1440.99 520.332C1299.37 496.371 1157.32 470.576 1014.21 466.228C950.01 464.277 884.082 464.661 820.674 477.307C755.753 490.253 693.819 518.912 635.641 554.866C497.994 639.929 379.094 762.192 256.634 873.968C123.889 995.131 -20.9095 1119.55 -191.333 1145.47C-193.655 1119.8 -195.977 1094.14 -198.299 1068.48C-29.3916 1045.92 117.3 932.627 253.437 819.537C375.237 718.359 494.034 608.091 628.628 531.507C690.079 496.539 755.127 469.223 822.842 457.846C886.993 447.067 952.806 446.529 1017.51 449.42C1158.66 455.729 1298.52 483.359 1437.98 509.231C1619.44 542.892 1803.46 575.973 1987.09 554.911C1987.23 556.417 1987.29 557.129 1987.45 558.864Z" fill="#45AA5B" stroke="#2E9344" stroke-width="2.86585"/>
<path d="M1988.37 551.976C1805.01 572.954 1621.25 539.849 1440.03 506.159C1300.77 480.271 1161.1 452.622 1020.16 446.278C955.545 443.368 889.827 443.888 825.771 454.63C758.156 465.973 693.209 493.241 631.855 528.146C497.478 604.601 378.88 714.708 257.278 815.734C121.366 928.655 -25.0859 1041.78 -193.745 1064.26C-196.07 1038.62 -198.395 1012.99 -200.721 987.356C-33.4531 968.148 114.804 866.032 254.109 761.594C377.284 669.25 497.988 568.591 632.487 500.388C692.417 470 755.203 446.593 820.015 436.546C884.502 426.55 950.209 425.678 1015.18 429.133C1156.94 436.671 1297.21 466.723 1437 494.988C1618.83 531.763 1803.48 568.304 1988.02 548.028C1988.17 549.765 1988.24 550.476 1988.37 551.976Z" fill="#2E9344" stroke="#2E9344" stroke-width="2.86585"/>
<path d="M1986.2 545.524C1801.69 565.735 1617.08 529.358 1435.29 492.76C1295.53 464.624 1155.29 434.704 1013.55 427.21C948.595 423.775 882.9 424.65 818.425 434.613C753.625 444.627 690.85 467.948 630.93 498.221C496.457 566.165 375.77 666.433 252.61 758.426C113.325 862.463 -34.9086 964.187 -202.145 983.336C-204.325 959.382 -206.505 935.427 -208.684 911.476C104.197 880.041 344.882 602.025 628.649 473.204C888.454 355.259 1168.77 423.959 1434.26 481.424C1615.97 520.753 1800.77 560.06 1985.73 540.434C1985.96 542.858 1986.04 543.798 1986.2 545.524Z" fill="#45AA5B" stroke="#2E9344" stroke-width="2.86585"/>
<path d="M1984.04 538.747C1799.12 558.313 1614.36 519.294 1432.69 480.252C1167.26 423.207 887.019 354.997 627.235 472.326C343.494 600.475 102.796 876.926 -210.033 908.272C-211.921 887.594 -213.809 866.92 -215.697 846.242C93.2417 816.936 340.437 566.131 625.133 449.306C889.126 340.976 1164.37 406.875 1431.55 467.783C1613.12 509.175 1798.06 550.743 1983.37 531.379C1983.7 534.942 1983.83 536.338 1984.04 538.747Z" fill="#2E9344" stroke="#2E9344" stroke-width="2.86585"/>
<path d="M1981.92 531.352C1796.63 550.658 1611.72 509.285 1430.18 468.087C1163.04 407.464 887.838 341.872 623.873 449.785C339.204 566.162 92.0282 815.958 -216.87 845.18C-218.327 829.275 -219.784 813.369 -221.241 797.464C84.3259 766.252 336.881 538.475 622.026 429.631C746.54 382.102 875.197 365.406 1006 375.014C1148.57 385.486 1289.01 420.736 1428.87 453.887C1610.31 496.89 1795.39 540.248 1980.93 520.57C1981.4 525.727 1981.59 527.804 1981.92 531.352Z" fill="#45AA5B" stroke="#2E9344" stroke-width="2.86585"/>
<path d="M1982.47 517.927C1796.95 537.543 1611.84 493.922 1430.39 450.658C1290.52 417.307 1150.06 381.853 1007.48 371.248C876.675 361.522 748.029 378.186 623.547 425.782C338.466 534.785 86.0375 763.124 -219.506 794.231C-220.397 784.537 -221.287 774.847 -222.177 765.154C80.5815 726.813 336.97 515.766 622.031 409.267C746.952 362.595 874.573 342.869 1005.78 352.686C1148.5 363.368 1289 399.807 1428.86 434.027C1610.19 478.392 1795.45 523.255 1981.06 502.505C1981.72 509.747 1982 512.757 1982.47 517.927Z" fill="#2E9344" stroke="#2E9344" stroke-width="2.86585"/>
<path d="M1979.73 501.939C1794.13 522.671 1608.89 477.997 1427.59 433.817C1287.74 399.739 1147.26 363.451 1004.54 352.84C873.344 343.087 745.727 362.784 620.804 409.34C335.739 515.578 79.3248 726.027 -223.423 764.325C-224.087 757.102 -224.419 753.494 -225.083 746.271C77.6651 707.973 334.079 497.52 619.144 391.286C743.873 344.801 871.816 324.549 1002.84 334.348C1145.7 345.036 1286.22 382.276 1426.06 417.195C1607.23 462.439 1792.64 508.324 1978.31 486.488C1978.79 491.701 1979.07 494.716 1979.73 501.939Z" fill="#45AA5B" stroke="#2E9344" stroke-width="2.86585"/>
<path d="M1977.15 486.881C1791.47 508.723 1606.06 462.787 1424.88 417.491C1285.04 382.533 1144.52 345.252 1001.65 334.546C870.626 324.725 742.683 344.99 617.954 391.505C332.891 497.811 76.4841 708.42 -226.267 746.729C-226.931 739.499 -227.263 735.888 -227.927 728.659C74.8234 690.351 331.23 479.738 616.294 373.436C740.966 326.942 869.036 306.336 1000.01 316.721C1143.13 328.07 1283.71 366.841 1423.57 403.174C1604.61 450.203 1790.2 498.095 1976.14 475.885C1976.47 479.541 1976.67 481.664 1977.15 486.881Z" fill="#2E9344" stroke="#2E9344" stroke-width="2.86585"/>
<path d="M1977.71 471.763C1791.77 493.981 1606.21 446.36 1425.19 399.596C1285.36 363.471 1144.79 324.914 1001.68 313.676C870.713 303.395 742.634 323.99 617.952 370.375C332.855 476.432 76.3731 686.393 -226.384 724.713C-227.045 717.51 -227.375 713.913 -228.037 706.711C74.7196 668.391 331.201 458.427 616.298 352.373C741.029 305.971 869.091 285.191 1000.1 296.429C1143.52 308.731 1284.16 349.174 1424.04 387.058C1604.91 436.049 1790.67 486.182 1977.01 464.151C1977.25 466.676 1977.38 468.125 1977.71 471.763Z" fill="#45AA5B" stroke="#2E9344" stroke-width="2.86585"/>
<path d="M1975.98 465.526C1789.63 487.577 1603.84 437.124 1422.93 387.82C1283.04 349.693 1142.38 308.996 998.932 296.571C867.908 285.222 739.844 306.043 615.123 352.607C330.041 459.039 73.6117 669.877 -229.155 708.242C-229.819 701.005 -230.151 697.387 -230.814 690.154C71.9519 651.789 328.381 440.947 613.463 334.52C738.305 287.911 866.254 267.018 997.374 279.583C1141.19 293.368 1281.94 336.23 1421.88 376.382C1602.63 428.244 1788.62 481.602 1975.48 460.113C1975.65 461.978 1975.75 462.989 1975.98 465.526Z" fill="#2E9344" stroke="#2E9344" stroke-width="2.86585"/>
<path d="M1977.11 459.296C1790.25 480.811 1604.27 427.636 1423.54 375.957C1283.61 335.944 1142.87 293.23 999.058 279.529C867.938 267.038 739.983 287.937 615.132 334.491C330.019 440.796 73.5274 651.27 -229.25 689.665C-229.912 682.444 -230.243 678.834 -230.904 671.617C71.873 633.222 328.364 422.745 613.478 316.443C738.487 269.833 866.272 248.916 997.52 262.753C1141.73 277.957 1282.56 322.965 1422.55 365.126C1603.11 419.502 1789.28 475.774 1976.72 455.007C1976.87 456.649 1976.94 457.432 1977.11 459.296Z" fill="#45AA5B" stroke="#2E9344" stroke-width="2.86585"/>
<path d="M1975.66 453.017C1788.22 473.803 1602.02 417.302 1421.43 362.697C1281.43 320.365 1140.59 275.176 996.361 259.886C865.102 245.971 737.312 266.924 612.303 313.652C327.191 420.23 70.7226 631.318 -232.067 669.761C-232.731 662.517 -233.062 658.895 -233.725 651.655C69.0647 613.212 325.533 402.12 610.646 295.546C735.82 248.756 863.433 227.788 994.819 243.052C1139.46 259.856 1280.39 307.344 1420.44 351.824C1600.84 409.127 1787.25 468.754 1975.27 448.718C1975.44 450.589 1975.51 451.373 1975.66 453.017Z" fill="#2E9344" stroke="#2E9344" stroke-width="2.86585"/>
<path d="M1974.21 449.747C1786.18 469.799 1599.75 409.959 1419.33 352.454C1279.26 307.815 1138.32 260.155 993.667 243.274C862.27 227.937 734.648 248.939 609.478 295.836C324.365 402.659 67.9142 614.303 -234.888 652.79C-235.553 645.525 -235.885 641.893 -236.549 634.631C66.2533 596.144 322.704 384.497 607.817 277.677C733.12 230.73 860.615 209.66 992.107 226.219C1137.15 244.485 1278.17 294.311 1418.28 340.971C1598.5 400.992 1785.14 463.793 1973.71 444.313C1973.95 446.86 1974.04 447.871 1974.21 449.747Z" fill="#45AA5B" stroke="#2E9344" stroke-width="2.86585"/>
<path d="M1975.34 443.538C1786.76 463.046 1600.14 400.465 1419.94 340.66C1279.85 294.165 1138.84 244.509 993.803 226.345C862.316 209.877 734.811 230.946 609.497 277.829C324.353 384.509 67.8391 595.748 -234.975 634.261C-235.637 627.013 -235.968 623.39 -236.63 616.146C66.1836 577.633 322.697 366.39 607.842 259.714C733.216 212.809 860.701 191.565 992.217 208.989C1137.6 228.25 1278.68 279.807 1418.79 328.044C1598.78 390.014 1785.6 455.191 1974.64 435.874C1974.97 439.535 1975.11 440.994 1975.34 443.538Z" fill="#2E9344" stroke="#2E9344" stroke-width="2.86585"/>
<path d="M1973.61 434.336C1784.56 453.66 1597.72 388.213 1417.69 325.982C1277.57 277.54 1136.47 225.776 991.071 206.408C859.543 188.888 732.055 210.163 606.684 257.185C321.546 364.128 65.0635 575.983 -237.76 614.531C-238.424 607.26 -238.756 603.624 -239.42 596.356C63.4038 557.808 319.886 345.949 605.024 239.009C730.339 192.009 857.967 170.397 989.434 188.48C1135.11 208.52 1276.25 261.788 1416.38 311.58C1596.19 375.474 1783.24 442.972 1972.6 423.276C1973.08 428.524 1973.27 430.663 1973.61 434.336Z" fill="#45AA5B" stroke="#2E9344" stroke-width="2.86585"/>
<path d="M1971.59 425.188C1782.23 444.885 1595.15 377.053 1415.3 312.847C1275.15 262.81 1133.99 209.285 988.295 189.112C856.815 170.908 729.185 192.553 603.877 239.682C318.752 346.92 62.3153 559.478 -240.516 598.053C-241.182 590.754 -241.515 587.104 -242.181 579.809C60.6503 541.233 317.087 328.675 602.212 221.438C727.31 174.387 855.299 152.184 986.59 170.425C1132.47 190.69 1273.66 245.189 1413.77 296.049C1593.41 361.26 1780.69 430.409 1970.16 409.577C1970.83 416.873 1971.11 419.923 1971.59 425.188Z" fill="#2E9344" stroke="#2E9344" stroke-width="2.86585"/>
</g>
</g>
</g>
<defs>
<clipPath id="clip0_2033_5528">
<rect width="940" height="400" fill="white"/>
</clipPath>
<clipPath id="clip1_2033_5528">
<rect width="3760" height="400" fill="white"/>
</clipPath>
<clipPath id="clip2_2033_5528">
<rect width="3760" height="515.854" fill="white" transform="translate(0 -115.854)"/>
</clipPath>
</defs>
</svg>
