<svg width="80" height="80" viewBox="0 0 80 80" fill="none" xmlns="http://www.w3.org/2000/svg">
<path fill-rule="evenodd" clip-rule="evenodd" d="M40 4C20.1177 4 4 20.1177 4 40C4 59.8823 20.1177 76 40 76C59.8823 76 76 59.8823 76 40C76 20.1177 59.8823 4 40 4ZM40 20C41.6569 20 43 21.3431 43 23V29C43 30.6569 41.6569 32 40 32C38.3431 32 37 30.6569 37 29V23C37 21.3431 38.3431 20 40 20ZM40 40C41.6569 40 43 41.3431 43 43L43 57C43 58.6569 41.6569 60 40 60C38.3431 60 37 58.6569 37 57L37 43C37 41.3431 38.3431 40 40 40Z" fill="#FD4046"/>
</svg>
