<svg width="80" height="80" viewBox="0 0 80 80" fill="none" xmlns="http://www.w3.org/2000/svg">
<path fill-rule="evenodd" clip-rule="evenodd" d="M40 4C20.1177 4 4 20.1177 4 40C4 59.8823 20.1177 76 40 76C59.8823 76 76 59.8823 76 40C76 20.1177 59.8823 4 40 4ZM34 32C34 28.6863 36.6863 26 40 26C43.3137 26 46 28.6863 46 32C46 35.3137 43.3137 38 40 38C38.3431 38 37 39.3431 37 41V45C37 46.6569 38.3431 48 40 48C41.6569 48 43 46.6569 43 45V43.6219C48.1757 42.2898 52 37.5915 52 32C52 25.3726 46.6274 20 40 20C33.3726 20 28 25.3726 28 32C28 33.6569 29.3431 35 31 35C32.6569 35 34 33.6569 34 32ZM43 55C43 53.3431 41.6569 52 40 52C38.3431 52 37 53.3431 37 55V57C37 58.6569 38.3431 60 40 60C41.6569 60 43 58.6569 43 57V55Z" fill="#A3A3A3"/>
</svg>
