<svg width="80" height="80" viewBox="0 0 80 80" fill="none" xmlns="http://www.w3.org/2000/svg">
<path fill-rule="evenodd" clip-rule="evenodd" d="M40 4C20.1177 4 4 20.1177 4 40C4 59.8823 20.1177 76 40 76C59.8823 76 76 59.8823 76 40C76 20.1177 59.8823 4 40 4ZM55.3739 30.8343C56.3869 29.5233 56.1454 27.6392 54.8343 26.6261C53.5233 25.6131 51.6392 25.8546 50.6262 27.1657L35.8246 46.3206L29.2299 38.9931C28.1215 37.7616 26.2246 37.6617 24.9931 38.7701C23.7616 39.8785 23.6617 41.7754 24.7701 43.0069L33.7701 53.0069C34.3653 53.6682 35.2233 54.0312 36.1124 53.9979C37.0014 53.9646 37.8298 53.5383 38.3739 52.8343L55.3739 30.8343Z" fill="#78DA76"/>
</svg>
