<svg width="225" height="82" viewBox="0 0 225 82" fill="none" xmlns="http://www.w3.org/2000/svg">
<path fill-rule="evenodd" clip-rule="evenodd" d="M52.6008 12.1128L15.4855 62.1503L10.8013 59.2967L47.9166 9.25921L52.6008 12.1128Z" fill="#78DA76"/>
<path fill-rule="evenodd" clip-rule="evenodd" d="M28.1656 13.8088L33.8098 13.8089L33.8096 34.2946L50.5516 27.2762L52.9212 31.9186L28.1653 42.2965L28.1656 13.8088Z" fill="#78DA76"/>
<path fill-rule="evenodd" clip-rule="evenodd" d="M13.9647 25.4159L19.562 24.7579L22.7728 47.1885L42.9533 42.8324L44.2611 47.8082L17.982 53.4807L13.9647 25.4159Z" fill="#78DA76"/>
<path d="M20.0506 33.8923C16.416 35.165 12.3311 33.5266 10.9267 30.2327C9.52229 26.9388 11.3302 23.2369 14.9649 21.9641C18.5995 20.6914 22.6844 22.3299 24.0888 25.6237C25.4932 28.9176 23.6852 32.6196 20.0506 33.8923Z" fill="#78DA76"/>
<path d="M33.4892 19.6538C29.8546 20.9265 25.7697 19.288 24.3653 15.9942C22.9609 12.7003 24.7688 8.99835 28.4035 7.72562C32.0381 6.45289 36.123 8.09135 37.5274 11.3852C38.9318 14.6791 37.1238 18.381 33.4892 19.6538Z" fill="#78DA76"/>
<path d="M54.0506 14.8847C50.416 16.1575 46.3311 14.519 44.9267 11.2251C43.5223 7.93126 45.3302 4.22931 48.9649 2.95658C52.5995 1.68385 56.6844 3.32231 58.0888 6.61617C59.4932 9.91004 57.6852 13.612 54.0506 14.8847Z" fill="#78DA76"/>
<path d="M58.6686 33.5105C55.034 34.7832 50.9491 33.1447 49.5447 29.8509C48.1403 26.557 49.9483 22.855 53.5829 21.5823C57.2175 20.3096 61.3024 21.948 62.7068 25.2419C64.1112 28.5358 62.3033 32.2377 58.6686 33.5105Z" fill="#78DA76"/>
<path d="M51.5781 50.1003C47.9435 51.373 43.8585 49.7346 42.4541 46.4407C41.0498 43.1468 42.8577 39.4449 46.4923 38.1722C50.1269 36.8994 54.2118 38.5379 55.6162 41.8317C57.0206 45.1256 55.2127 48.8276 51.5781 50.1003Z" fill="#78DA76"/>
<path fill-rule="evenodd" clip-rule="evenodd" d="M0 28.0989H72.1251V52.5866H65.0524V34.5085H7.07272V52.5866H0V28.0989Z" fill="#262626"/>
<path fill-rule="evenodd" clip-rule="evenodd" d="M90.1142 47.7959C94.3813 47.7959 97.8405 44.661 97.8405 40.7939C97.8405 36.9269 94.3813 33.792 90.1142 33.792C85.8471 33.792 82.3879 36.9269 82.3879 40.7939C82.3879 44.661 85.8471 47.7959 90.1142 47.7959ZM90.1142 54.2056C98.2875 54.2056 104.913 48.201 104.913 40.7939C104.913 33.3869 98.2875 27.3823 90.1142 27.3823C81.9409 27.3823 75.3152 33.3869 75.3152 40.7939C75.3152 48.201 81.9409 54.2056 90.1142 54.2056Z" fill="#262626"/>
<path fill-rule="evenodd" clip-rule="evenodd" d="M216.847 40.794C216.847 44.6611 213.388 47.796 209.121 47.796C204.854 47.796 201.394 44.6611 201.394 40.794C201.394 36.9269 204.854 33.792 209.121 33.792C213.388 33.792 216.847 36.9269 216.847 40.794ZM217.114 52.083C214.809 53.4264 212.065 54.2057 209.121 54.2057C200.947 54.2057 194.322 48.2011 194.322 40.794C194.322 33.3869 200.947 27.3823 209.121 27.3823C212.065 27.3823 214.809 28.1616 217.114 29.505V28.1486L224.187 28.1486V53.9602H217.114V52.083Z" fill="#262626"/>
<path fill-rule="evenodd" clip-rule="evenodd" d="M165.966 53.2983L165.966 28.0967L173.038 28.0967L173.038 37.5793L184.337 37.5795V28.1484L191.41 28.1484V53.35H184.337V43.9891L173.038 43.989L173.038 53.2983H165.966Z" fill="#262626"/>
<path fill-rule="evenodd" clip-rule="evenodd" d="M132.823 53.4156V28.0989L117.79 28.0996L103.339 53.4156H111.302L122.094 34.509L125.75 34.5089V53.4156H132.823Z" fill="#262626"/>
<path fill-rule="evenodd" clip-rule="evenodd" d="M146.594 34.5023H155.219V40.416H146.594C144.792 40.416 143.332 39.0922 143.332 37.4592C143.332 35.8262 144.792 34.5023 146.594 34.5023ZM136.259 37.4592C136.259 32.2863 140.886 28.0928 146.594 28.0928H162.292V40.8308H162.292V53.4143H155.219V46.8256H148.461L144.7 53.4143H136.737L141.263 45.4852C138.264 43.8457 136.259 40.8647 136.259 37.4592Z" fill="#262626"/>
</svg>
