<svg width="255" height="64" viewBox="0 0 255 64" fill="none" xmlns="http://www.w3.org/2000/svg">
<path fill-rule="evenodd" clip-rule="evenodd" d="M37.8068 9.08945L11.1302 48.7743L7.76337 46.5112L34.44 6.82626L37.8068 9.08945Z" fill="#78DA76"/>
<path fill-rule="evenodd" clip-rule="evenodd" d="M20.244 10.4347L24.3007 10.4347L24.3006 26.682L36.3339 21.1157L38.0371 24.7976L20.2438 33.0284L20.244 10.4347Z" fill="#78DA76"/>
<path fill-rule="evenodd" clip-rule="evenodd" d="M10.0371 19.6404L14.0602 19.1185L16.3679 36.9082L30.8726 33.4534L31.8126 37.3998L12.9245 41.8987L10.0371 19.6404Z" fill="#78DA76"/>
<path d="M14.4114 26.3628C11.799 27.3722 8.86296 26.0727 7.85355 23.4603C6.84415 20.848 8.14361 17.9119 10.756 16.9025C13.3684 15.8931 16.3044 17.1926 17.3138 19.805C18.3232 22.4173 17.0237 25.3534 14.4114 26.3628Z" fill="#78DA76"/>
<path d="M24.0705 15.0702C21.4581 16.0796 18.522 14.7801 17.5126 12.1677C16.5032 9.55536 17.8027 6.61932 20.4151 5.60992C23.0275 4.60051 25.9635 5.89998 26.9729 8.51235C27.9823 11.1247 26.6828 14.0608 24.0705 15.0702Z" fill="#78DA76"/>
<path d="M38.8488 11.2879C36.2364 12.2973 33.3004 10.9979 32.291 8.38551C31.2816 5.77313 32.581 2.8371 35.1934 1.82769C37.8058 0.818285 40.7418 2.11775 41.7512 4.73013C42.7606 7.3425 41.4612 10.2785 38.8488 11.2879Z" fill="#78DA76"/>
<path d="M42.1681 26.0602C39.5557 27.0696 36.6197 25.7701 35.6103 23.1577C34.6009 20.5453 35.9003 17.6093 38.5127 16.5999C41.1251 15.5905 44.0611 16.89 45.0705 19.5023C46.0799 22.1147 44.7805 25.0508 42.1681 26.0602Z" fill="#78DA76"/>
<path d="M37.0717 39.2176C34.4593 40.227 31.5233 38.9275 30.5139 36.3151C29.5045 33.7028 30.8039 30.7667 33.4163 29.7573C36.0287 28.7479 38.9647 30.0474 39.9741 32.6598C40.9835 35.2721 39.6841 38.2082 37.0717 39.2176Z" fill="#78DA76"/>
<path fill-rule="evenodd" clip-rule="evenodd" d="M0 21.7681H51.8399V41.1894H46.7564V26.8516H5.08352V41.1894H0V21.7681Z" fill="#262626"/>
<path fill-rule="evenodd" clip-rule="evenodd" d="M64.7697 37.39C67.8367 37.39 70.323 34.9037 70.323 31.8368C70.323 28.7698 67.8367 26.2835 64.7697 26.2835C61.7027 26.2835 59.2164 28.7698 59.2164 31.8368C59.2164 34.9037 61.7027 37.39 64.7697 37.39ZM64.7697 42.4736C70.6442 42.4736 75.4065 37.7113 75.4065 31.8368C75.4065 25.9622 70.6442 21.2 64.7697 21.2C58.8951 21.2 54.1329 25.9622 54.1329 31.8368C54.1329 37.7113 58.8951 42.4736 64.7697 42.4736Z" fill="#262626"/>
<path fill-rule="evenodd" clip-rule="evenodd" d="M155.859 31.8368C155.859 34.9038 153.372 37.3901 150.306 37.3901C147.239 37.3901 144.752 34.9038 144.752 31.8368C144.752 28.7698 147.239 26.2835 150.306 26.2835C153.372 26.2835 155.859 28.7698 155.859 31.8368ZM156.051 40.7901C154.394 41.8556 152.422 42.4737 150.306 42.4737C144.431 42.4737 139.669 37.7114 139.669 31.8368C139.669 25.9622 144.431 21.2 150.306 21.2C152.422 21.2 154.394 21.818 156.051 22.8835V21.8077L161.134 21.8077V42.279H156.051V40.7901Z" fill="#262626"/>
<path fill-rule="evenodd" clip-rule="evenodd" d="M119.288 41.7539L119.288 21.7665L124.371 21.7665L124.371 29.2872L132.493 29.2873V21.8075L137.576 21.8075V41.795H132.493V34.3709L124.371 34.3707L124.371 41.7539H119.288Z" fill="#262626"/>
<path fill-rule="evenodd" clip-rule="evenodd" d="M95.4662 41.8469V21.7681L84.6613 21.7686L74.2745 41.8469H79.998L87.7551 26.852L90.3827 26.8518V41.8469H95.4662Z" fill="#262626"/>
<path fill-rule="evenodd" clip-rule="evenodd" d="M105.365 26.8466H111.564V31.5368H105.365C104.069 31.5368 103.02 30.4869 103.02 29.1917C103.02 27.8966 104.069 26.8466 105.365 26.8466ZM97.936 29.1917C97.936 25.0891 101.262 21.7632 105.365 21.7632H116.647V31.8658H116.647V41.8458H111.564V36.6203H106.707L104.003 41.8458H98.2798L101.533 35.5572C99.3775 34.2569 97.936 31.8926 97.936 29.1917Z" fill="#262626"/>
<path d="M244.531 41V34.88H247.747C248.475 34.88 249.043 35.01 249.451 35.27C249.863 35.53 250.069 35.924 250.069 36.452C250.069 36.74 249.995 36.984 249.847 37.184C249.699 37.38 249.499 37.538 249.247 37.658C248.999 37.774 248.723 37.854 248.419 37.898L248.389 37.46C248.985 37.512 249.457 37.684 249.805 37.976C250.157 38.264 250.333 38.646 250.333 39.122C250.333 39.514 250.235 39.85 250.039 40.13C249.847 40.41 249.563 40.626 249.187 40.778C248.811 40.926 248.353 41 247.813 41H244.531ZM246.409 39.674H247.555C247.835 39.674 248.047 39.624 248.191 39.524C248.339 39.424 248.413 39.282 248.413 39.098C248.413 38.922 248.341 38.786 248.197 38.69C248.057 38.59 247.843 38.54 247.555 38.54H246.229V37.286H247.405C247.669 37.286 247.873 37.244 248.017 37.16C248.161 37.072 248.233 36.936 248.233 36.752C248.233 36.572 248.159 36.436 248.011 36.344C247.867 36.252 247.665 36.206 247.405 36.206H246.409V39.674Z" fill="#262626"/>
<path d="M239.976 41.18C239.308 41.18 238.718 41.034 238.206 40.742C237.694 40.446 237.292 40.052 237 39.56C236.712 39.068 236.568 38.528 236.568 37.94C236.568 37.512 236.65 37.104 236.814 36.716C236.982 36.324 237.218 35.978 237.522 35.678C237.826 35.374 238.186 35.136 238.602 34.964C239.018 34.788 239.476 34.7 239.976 34.7C240.644 34.7 241.234 34.848 241.746 35.144C242.258 35.436 242.658 35.828 242.946 36.32C243.234 36.812 243.378 37.352 243.378 37.94C243.378 38.368 243.296 38.778 243.132 39.17C242.968 39.558 242.734 39.902 242.43 40.202C242.126 40.502 241.766 40.74 241.35 40.916C240.934 41.092 240.476 41.18 239.976 41.18ZM239.976 39.488C240.256 39.488 240.508 39.426 240.732 39.302C240.956 39.174 241.132 38.994 241.26 38.762C241.388 38.53 241.452 38.256 241.452 37.94C241.452 37.62 241.388 37.346 241.26 37.118C241.136 36.886 240.962 36.708 240.738 36.584C240.514 36.456 240.26 36.392 239.976 36.392C239.692 36.392 239.438 36.456 239.214 36.584C238.99 36.708 238.814 36.886 238.686 37.118C238.558 37.346 238.494 37.62 238.494 37.94C238.494 38.256 238.558 38.53 238.686 38.762C238.818 38.994 238.996 39.174 239.22 39.302C239.444 39.426 239.696 39.488 239.976 39.488Z" fill="#262626"/>
<path d="M229.004 43.52V34.88H230.702V35.582C230.93 35.314 231.22 35.1 231.572 34.94C231.928 34.78 232.34 34.7 232.808 34.7C233.392 34.7 233.912 34.834 234.368 35.102C234.828 35.37 235.19 35.748 235.454 36.236C235.718 36.724 235.85 37.292 235.85 37.94C235.85 38.396 235.774 38.822 235.622 39.218C235.474 39.61 235.262 39.954 234.986 40.25C234.71 40.542 234.384 40.77 234.008 40.934C233.636 41.098 233.224 41.18 232.772 41.18C232.412 41.18 232.08 41.122 231.776 41.006C231.476 40.89 231.206 40.726 230.966 40.514V43.52H229.004ZM232.442 39.488C232.726 39.488 232.98 39.426 233.204 39.302C233.428 39.174 233.604 38.994 233.732 38.762C233.86 38.53 233.924 38.256 233.924 37.94C233.924 37.62 233.858 37.346 233.726 37.118C233.598 36.886 233.422 36.708 233.198 36.584C232.978 36.456 232.726 36.392 232.442 36.392C232.162 36.392 231.91 36.456 231.686 36.584C231.462 36.708 231.286 36.886 231.158 37.118C231.03 37.346 230.966 37.62 230.966 37.94C230.966 38.256 231.03 38.53 231.158 38.762C231.286 38.994 231.46 39.174 231.68 39.302C231.904 39.426 232.158 39.488 232.442 39.488Z" fill="#262626"/>
<path d="M223.643 41.18C223.067 41.18 222.551 41.046 222.095 40.778C221.639 40.506 221.279 40.128 221.015 39.644C220.751 39.156 220.619 38.588 220.619 37.94C220.619 37.452 220.695 37.01 220.847 36.614C220.999 36.214 221.211 35.872 221.483 35.588C221.755 35.304 222.075 35.086 222.443 34.934C222.811 34.778 223.211 34.7 223.643 34.7C224.211 34.7 224.695 34.824 225.095 35.072C225.495 35.316 225.781 35.642 225.953 36.05L225.683 36.476V34.88H227.375V41H225.683V39.404L225.953 39.824C225.781 40.232 225.495 40.56 225.095 40.808C224.695 41.056 224.211 41.18 223.643 41.18ZM223.979 39.488C224.251 39.488 224.495 39.426 224.711 39.302C224.931 39.174 225.105 38.994 225.233 38.762C225.361 38.53 225.425 38.256 225.425 37.94C225.425 37.62 225.361 37.346 225.233 37.118C225.105 36.886 224.931 36.708 224.711 36.584C224.495 36.456 224.251 36.392 223.979 36.392C223.707 36.392 223.463 36.456 223.247 36.584C223.031 36.708 222.859 36.886 222.731 37.118C222.603 37.346 222.539 37.62 222.539 37.94C222.539 38.256 222.603 38.53 222.731 38.762C222.859 38.994 223.031 39.174 223.247 39.302C223.463 39.426 223.707 39.488 223.979 39.488Z" fill="#262626"/>
<path d="M214.039 41V34.88H217.255C217.983 34.88 218.551 35.01 218.959 35.27C219.371 35.53 219.577 35.924 219.577 36.452C219.577 36.74 219.503 36.984 219.355 37.184C219.207 37.38 219.007 37.538 218.755 37.658C218.507 37.774 218.231 37.854 217.927 37.898L217.897 37.46C218.493 37.512 218.965 37.684 219.313 37.976C219.665 38.264 219.841 38.646 219.841 39.122C219.841 39.514 219.743 39.85 219.547 40.13C219.355 40.41 219.071 40.626 218.695 40.778C218.319 40.926 217.861 41 217.321 41H214.039ZM215.917 39.674H217.063C217.343 39.674 217.555 39.624 217.699 39.524C217.847 39.424 217.921 39.282 217.921 39.098C217.921 38.922 217.849 38.786 217.705 38.69C217.565 38.59 217.351 38.54 217.063 38.54H215.737V37.286H216.913C217.177 37.286 217.381 37.244 217.525 37.16C217.669 37.072 217.741 36.936 217.741 36.752C217.741 36.572 217.667 36.436 217.519 36.344C217.375 36.252 217.173 36.206 216.913 36.206H215.917V39.674Z" fill="#262626"/>
<path d="M209.484 41.18C208.816 41.18 208.226 41.034 207.714 40.742C207.202 40.446 206.8 40.052 206.508 39.56C206.22 39.068 206.076 38.528 206.076 37.94C206.076 37.512 206.158 37.104 206.322 36.716C206.49 36.324 206.726 35.978 207.03 35.678C207.334 35.374 207.694 35.136 208.11 34.964C208.526 34.788 208.984 34.7 209.484 34.7C210.152 34.7 210.742 34.848 211.254 35.144C211.766 35.436 212.166 35.828 212.454 36.32C212.742 36.812 212.886 37.352 212.886 37.94C212.886 38.368 212.804 38.778 212.64 39.17C212.476 39.558 212.242 39.902 211.938 40.202C211.634 40.502 211.274 40.74 210.858 40.916C210.442 41.092 209.984 41.18 209.484 41.18ZM209.484 39.488C209.764 39.488 210.016 39.426 210.24 39.302C210.464 39.174 210.64 38.994 210.768 38.762C210.896 38.53 210.96 38.256 210.96 37.94C210.96 37.62 210.896 37.346 210.768 37.118C210.644 36.886 210.47 36.708 210.246 36.584C210.022 36.456 209.768 36.392 209.484 36.392C209.2 36.392 208.946 36.456 208.722 36.584C208.498 36.708 208.322 36.886 208.194 37.118C208.066 37.346 208.002 37.62 208.002 37.94C208.002 38.256 208.066 38.53 208.194 38.762C208.326 38.994 208.504 39.174 208.728 39.302C208.952 39.426 209.204 39.488 209.484 39.488Z" fill="#262626"/>
<path d="M201.745 41V36.44H199.981V34.88H205.471V36.44H203.713V41H201.745Z" fill="#262626"/>
<path d="M195.972 41.18C195.304 41.18 194.714 41.034 194.202 40.742C193.69 40.446 193.288 40.052 192.996 39.56C192.708 39.068 192.564 38.528 192.564 37.94C192.564 37.512 192.646 37.104 192.81 36.716C192.978 36.324 193.214 35.978 193.518 35.678C193.822 35.374 194.182 35.136 194.598 34.964C195.014 34.788 195.472 34.7 195.972 34.7C196.64 34.7 197.23 34.848 197.742 35.144C198.254 35.436 198.654 35.828 198.942 36.32C199.23 36.812 199.374 37.352 199.374 37.94C199.374 38.368 199.292 38.778 199.128 39.17C198.964 39.558 198.73 39.902 198.426 40.202C198.122 40.502 197.762 40.74 197.346 40.916C196.93 41.092 196.472 41.18 195.972 41.18ZM195.972 39.488C196.252 39.488 196.504 39.426 196.728 39.302C196.952 39.174 197.128 38.994 197.256 38.762C197.384 38.53 197.448 38.256 197.448 37.94C197.448 37.62 197.384 37.346 197.256 37.118C197.132 36.886 196.958 36.708 196.734 36.584C196.51 36.456 196.256 36.392 195.972 36.392C195.688 36.392 195.434 36.456 195.21 36.584C194.986 36.708 194.81 36.886 194.682 37.118C194.554 37.346 194.49 37.62 194.49 37.94C194.49 38.256 194.554 38.53 194.682 38.762C194.814 38.994 194.992 39.174 195.216 39.302C195.44 39.426 195.692 39.488 195.972 39.488Z" fill="#262626"/>
<path d="M185 43.52V34.88H186.698V35.582C186.926 35.314 187.216 35.1 187.568 34.94C187.924 34.78 188.336 34.7 188.804 34.7C189.388 34.7 189.908 34.834 190.364 35.102C190.824 35.37 191.186 35.748 191.45 36.236C191.714 36.724 191.846 37.292 191.846 37.94C191.846 38.396 191.77 38.822 191.618 39.218C191.47 39.61 191.258 39.954 190.982 40.25C190.706 40.542 190.38 40.77 190.004 40.934C189.632 41.098 189.22 41.18 188.768 41.18C188.408 41.18 188.076 41.122 187.772 41.006C187.472 40.89 187.202 40.726 186.962 40.514V43.52H185ZM188.438 39.488C188.722 39.488 188.976 39.426 189.2 39.302C189.424 39.174 189.6 38.994 189.728 38.762C189.856 38.53 189.92 38.256 189.92 37.94C189.92 37.62 189.854 37.346 189.722 37.118C189.594 36.886 189.418 36.708 189.194 36.584C188.974 36.456 188.722 36.392 188.438 36.392C188.158 36.392 187.906 36.456 187.682 36.584C187.458 36.708 187.282 36.886 187.154 37.118C187.026 37.346 186.962 37.62 186.962 37.94C186.962 38.256 187.026 38.53 187.154 38.762C187.282 38.994 187.456 39.174 187.676 39.302C187.9 39.426 188.154 39.488 188.438 39.488Z" fill="#262626"/>
<path d="M179.714 41V34.88H183.92V36.44H181.682V41H179.714Z" fill="#262626"/>
<path d="M174.354 41.18C173.778 41.18 173.262 41.046 172.806 40.778C172.35 40.506 171.99 40.128 171.726 39.644C171.462 39.156 171.33 38.588 171.33 37.94C171.33 37.452 171.406 37.01 171.558 36.614C171.71 36.214 171.922 35.872 172.194 35.588C172.466 35.304 172.786 35.086 173.154 34.934C173.522 34.778 173.922 34.7 174.354 34.7C174.922 34.7 175.406 34.824 175.806 35.072C176.206 35.316 176.492 35.642 176.664 36.05L176.394 36.476V34.88H178.086V41H176.394V39.404L176.664 39.824C176.492 40.232 176.206 40.56 175.806 40.808C175.406 41.056 174.922 41.18 174.354 41.18ZM174.69 39.488C174.962 39.488 175.206 39.426 175.422 39.302C175.642 39.174 175.816 38.994 175.944 38.762C176.072 38.53 176.136 38.256 176.136 37.94C176.136 37.62 176.072 37.346 175.944 37.118C175.816 36.886 175.642 36.708 175.422 36.584C175.206 36.456 174.962 36.392 174.69 36.392C174.418 36.392 174.174 36.456 173.958 36.584C173.742 36.708 173.57 36.886 173.442 37.118C173.314 37.346 173.25 37.62 173.25 37.94C173.25 38.256 173.314 38.53 173.442 38.762C173.57 38.994 173.742 39.174 173.958 39.302C174.174 39.426 174.418 39.488 174.69 39.488Z" fill="#262626"/>
<path d="M250.575 28.18C249.927 28.18 249.347 28.04 248.835 27.76C248.327 27.476 247.925 27.09 247.629 26.602C247.333 26.11 247.185 25.556 247.185 24.94C247.185 24.476 247.271 24.048 247.443 23.656C247.619 23.264 247.865 22.922 248.181 22.63C248.497 22.334 248.865 22.106 249.285 21.946C249.705 21.782 250.161 21.7 250.653 21.7C251.117 21.7 251.547 21.764 251.943 21.892C252.339 22.016 252.695 22.204 253.011 22.456L252.147 23.914C251.951 23.734 251.735 23.602 251.499 23.518C251.267 23.434 251.023 23.392 250.767 23.392C250.431 23.392 250.141 23.452 249.897 23.572C249.653 23.692 249.465 23.868 249.333 24.1C249.205 24.332 249.141 24.61 249.141 24.934C249.141 25.422 249.285 25.804 249.573 26.08C249.865 26.352 250.265 26.488 250.773 26.488C251.061 26.488 251.331 26.436 251.583 26.332C251.839 26.224 252.073 26.068 252.285 25.864L253.083 27.352C252.739 27.608 252.345 27.81 251.901 27.958C251.461 28.106 251.019 28.18 250.575 28.18Z" fill="#262626"/>
<path d="M239.761 28V21.88H241.639V25.24L244.279 21.88H246.043V28H244.165V24.592L241.519 28H239.761ZM242.899 21.04C242.399 21.04 241.963 20.946 241.591 20.758C241.219 20.566 240.931 20.302 240.727 19.966C240.527 19.63 240.431 19.24 240.439 18.796H242.035C242.019 19.088 242.089 19.324 242.245 19.504C242.405 19.68 242.623 19.768 242.899 19.768C243.175 19.768 243.391 19.68 243.547 19.504C243.703 19.324 243.775 19.088 243.763 18.796H245.359C245.367 19.232 245.267 19.62 245.059 19.96C244.855 20.296 244.565 20.56 244.189 20.752C243.817 20.944 243.387 21.04 242.899 21.04Z" fill="#262626"/>
<path d="M235.534 28.18C234.862 28.18 234.272 28.046 233.764 27.778C233.256 27.506 232.86 27.128 232.576 26.644C232.292 26.156 232.15 25.586 232.15 24.934C232.15 24.462 232.232 24.028 232.396 23.632C232.564 23.236 232.796 22.894 233.092 22.606C233.392 22.318 233.744 22.096 234.148 21.94C234.556 21.78 235.004 21.7 235.492 21.7C236.028 21.7 236.506 21.796 236.926 21.988C237.346 22.176 237.692 22.44 237.964 22.78C238.24 23.116 238.43 23.514 238.534 23.974C238.638 24.43 238.642 24.926 238.546 25.462H233.95C233.954 25.702 234.026 25.912 234.166 26.092C234.306 26.272 234.498 26.414 234.742 26.518C234.986 26.618 235.27 26.668 235.594 26.668C235.954 26.668 236.296 26.622 236.62 26.53C236.944 26.434 237.254 26.288 237.55 26.092L238.168 27.424C237.98 27.568 237.736 27.698 237.436 27.814C237.14 27.926 236.824 28.014 236.488 28.078C236.156 28.146 235.838 28.18 235.534 28.18ZM234.07 24.136H236.674C236.666 23.828 236.552 23.582 236.332 23.398C236.112 23.214 235.814 23.122 235.438 23.122C235.058 23.122 234.742 23.214 234.49 23.398C234.242 23.582 234.102 23.828 234.07 24.136Z" fill="#262626"/>
<path d="M224.925 28.15L224.289 26.41C224.701 26.306 224.999 26.154 225.183 25.954C225.371 25.754 225.489 25.486 225.537 25.15C225.589 24.81 225.615 24.38 225.615 23.86V21.88H231.009V28H229.041V23.44H227.403V23.86C227.403 24.484 227.365 25.038 227.289 25.522C227.217 26.002 227.089 26.418 226.905 26.77C226.725 27.122 226.475 27.412 226.155 27.64C225.835 27.868 225.425 28.038 224.925 28.15Z" fill="#262626"/>
<path d="M217.015 28V21.88H223.291V28H221.323V23.44H218.983V28H217.015Z" fill="#262626"/>
<path d="M212.198 28V23.44H210.434V21.88H215.924V23.44H214.166V28H212.198Z" fill="#262626"/>
<path d="M206.753 28.18C206.081 28.18 205.491 28.046 204.983 27.778C204.475 27.506 204.079 27.128 203.795 26.644C203.511 26.156 203.369 25.586 203.369 24.934C203.369 24.462 203.451 24.028 203.615 23.632C203.783 23.236 204.015 22.894 204.311 22.606C204.611 22.318 204.963 22.096 205.367 21.94C205.775 21.78 206.223 21.7 206.711 21.7C207.247 21.7 207.725 21.796 208.145 21.988C208.565 22.176 208.911 22.44 209.183 22.78C209.459 23.116 209.649 23.514 209.753 23.974C209.857 24.43 209.861 24.926 209.765 25.462H205.169C205.173 25.702 205.245 25.912 205.385 26.092C205.525 26.272 205.717 26.414 205.961 26.518C206.205 26.618 206.489 26.668 206.813 26.668C207.173 26.668 207.515 26.622 207.839 26.53C208.163 26.434 208.473 26.288 208.769 26.092L209.387 27.424C209.199 27.568 208.955 27.698 208.655 27.814C208.359 27.926 208.043 28.014 207.707 28.078C207.375 28.146 207.057 28.18 206.753 28.18ZM205.289 24.136H207.893C207.885 23.828 207.771 23.582 207.551 23.398C207.331 23.214 207.033 23.122 206.657 23.122C206.277 23.122 205.961 23.214 205.709 23.398C205.461 23.582 205.321 23.828 205.289 24.136Z" fill="#262626"/>
<path d="M200.696 28L198.794 24.802L200.756 21.88H202.832L200.9 24.694L203.024 28H200.696ZM196.742 28V21.88H198.71V24.082H200.576V25.642H198.71V28H196.742Z" fill="#262626"/>
<path d="M188.75 30.52V21.88H190.448V22.582C190.676 22.314 190.966 22.1 191.318 21.94C191.674 21.78 192.086 21.7 192.554 21.7C193.138 21.7 193.658 21.834 194.114 22.102C194.574 22.37 194.936 22.748 195.2 23.236C195.464 23.724 195.596 24.292 195.596 24.94C195.596 25.396 195.52 25.822 195.368 26.218C195.22 26.61 195.008 26.954 194.732 27.25C194.456 27.542 194.13 27.77 193.754 27.934C193.382 28.098 192.97 28.18 192.518 28.18C192.158 28.18 191.826 28.122 191.522 28.006C191.222 27.89 190.952 27.726 190.712 27.514V30.52H188.75ZM192.188 26.488C192.472 26.488 192.726 26.426 192.95 26.302C193.174 26.174 193.35 25.994 193.478 25.762C193.606 25.53 193.67 25.256 193.67 24.94C193.67 24.62 193.604 24.346 193.472 24.118C193.344 23.886 193.168 23.708 192.944 23.584C192.724 23.456 192.472 23.392 192.188 23.392C191.908 23.392 191.656 23.456 191.432 23.584C191.208 23.708 191.032 23.886 190.904 24.118C190.776 24.346 190.712 24.62 190.712 24.94C190.712 25.256 190.776 25.53 190.904 25.762C191.032 25.994 191.206 26.174 191.426 26.302C191.65 26.426 191.904 26.488 192.188 26.488Z" fill="#262626"/>
<path d="M183.389 28.18C182.813 28.18 182.297 28.046 181.841 27.778C181.385 27.506 181.025 27.128 180.761 26.644C180.497 26.156 180.365 25.588 180.365 24.94C180.365 24.452 180.441 24.01 180.593 23.614C180.745 23.214 180.957 22.872 181.229 22.588C181.501 22.304 181.821 22.086 182.189 21.934C182.557 21.778 182.957 21.7 183.389 21.7C183.957 21.7 184.441 21.824 184.841 22.072C185.241 22.316 185.527 22.642 185.699 23.05L185.429 23.476V21.88H187.121V28H185.429V26.404L185.699 26.824C185.527 27.232 185.241 27.56 184.841 27.808C184.441 28.056 183.957 28.18 183.389 28.18ZM183.725 26.488C183.997 26.488 184.241 26.426 184.457 26.302C184.677 26.174 184.851 25.994 184.979 25.762C185.107 25.53 185.171 25.256 185.171 24.94C185.171 24.62 185.107 24.346 184.979 24.118C184.851 23.886 184.677 23.708 184.457 23.584C184.241 23.456 183.997 23.392 183.725 23.392C183.453 23.392 183.209 23.456 182.993 23.584C182.777 23.708 182.605 23.886 182.477 24.118C182.349 24.346 182.285 24.62 182.285 24.94C182.285 25.256 182.349 25.53 182.477 25.762C182.605 25.994 182.777 26.174 182.993 26.302C183.209 26.426 183.453 26.488 183.725 26.488Z" fill="#262626"/>
<path d="M171.816 28V21.88H173.49H173.526L176.01 25.66L175.17 25.672L177.498 21.88H179.208V28H177.486L177.51 24.034L177.894 24.184L176.094 26.962H174.936L173.022 24.178L173.4 24.028L173.436 28H171.816Z" fill="#262626"/>
</svg>
