<svg width="56" height="56" viewBox="0 0 56 56" fill="none" xmlns="http://www.w3.org/2000/svg">
<g clip-path="url(#clip0_8207_8597)">
<rect width="56" height="56" fill="#78DA76"/>
<path fill-rule="evenodd" clip-rule="evenodd" d="M43.8098 26.4864C42.1149 27.1375 40.2565 26.6377 39.1008 25.3703L26.9363 31.3082L25.0003 34.2344L32.5367 32.4577C32.9387 31.33 33.8126 30.3781 35.0203 29.9141C37.2224 29.0683 39.7002 30.1649 40.5548 32.3636C41.4093 34.5623 40.317 37.0304 38.1149 37.8763C36.0871 38.6552 33.8254 37.7869 32.8129 35.9276L22.2293 38.4226L9.91352 57.0372L6.80359 55.003L17.9961 38.0861L16.5299 26.6364C15.2368 26.3034 14.1171 25.3739 13.5974 24.037C12.7429 21.8383 13.8352 19.3702 16.0373 18.5243C18.2393 17.6784 20.7172 18.7751 21.5717 20.9738C22.2975 22.8412 21.6189 24.9029 20.0488 26.0001L21.0127 33.5268L24.2349 28.6565L24.8103 16.1194C23.6293 15.7341 22.624 14.8421 22.1398 13.5964C21.2853 11.3977 22.3776 8.92957 24.5796 8.08369C26.7817 7.23781 29.2595 8.33447 30.1141 10.5332C30.8633 12.4608 30.116 14.5956 28.4363 15.6627L28.1087 22.8015L35.6215 11.4464C35.1304 11.0096 34.7329 10.4534 34.4788 9.79974C33.6243 7.60106 34.7166 5.13295 36.9186 4.28707C39.1207 3.44119 41.5985 4.53785 42.4531 6.73654C43.3076 8.93522 42.2153 11.4033 40.0132 12.2492C39.8198 12.3235 39.6243 12.3828 39.428 12.4277L30.7502 25.5438L38.0137 21.9981C38.1928 20.4803 39.1867 19.1115 40.7152 18.5243C42.9173 17.6784 45.3951 18.7751 46.2497 20.9738C47.1042 23.1724 46.0119 25.6406 43.8098 26.4864Z" fill="white"/>
<path fill-rule="evenodd" clip-rule="evenodd" d="M5.78711 22.6877L51.3464 22.6877L51.3464 35.9758L46.8788 35.9758L46.8788 27.0842L10.2547 27.0842L10.2547 35.9758L5.78711 35.9758L5.78711 22.6877Z" fill="#333333"/>
</g>
<defs>
<clipPath id="clip0_8207_8597">
<rect width="56" height="56" fill="white"/>
</clipPath>
</defs>
</svg>
