<svg width="59" height="60" viewBox="0 0 59 60" fill="none" xmlns="http://www.w3.org/2000/svg">
<g clip-path="url(#clip0_7203_2350)">
<path d="M1.0082e-08 14.0948C4.51386e-09 6.37844 6.25538 0.123047 13.9718 0.123047L45.0282 0.123047C52.7446 0.123047 59 6.37843 59 14.0948L59 45.1513C59 52.8677 52.7446 59.123 45.0282 59.123L13.9718 59.123C6.25539 59.123 3.80603e-08 52.8677 3.24922e-08 45.1513L1.0082e-08 14.0948Z" fill="#78DA76"/>
<path fill-rule="evenodd" clip-rule="evenodd" d="M41.3477 12.9461L9.34747 61.3127L6.07094 59.1696L38.0712 10.8029L41.3477 12.9461Z" fill="white"/>
<path fill-rule="evenodd" clip-rule="evenodd" d="M25.2325 14.057L29.0248 14.1854L28.318 29.588L40.1881 23.7937L41.8656 27.0868L24.2397 35.6906L25.2325 14.057Z" fill="white"/>
<path fill-rule="evenodd" clip-rule="evenodd" d="M15.4905 22.8194L19.221 22.3296L21.257 38.228L34.7163 35.055L35.5645 38.5793L18.0378 42.7112L15.4905 22.8194Z" fill="white"/>
<path d="M19.0597 29.1254C16.7397 30.0166 14.1291 28.8612 13.2287 26.5447C12.3284 24.2282 13.4793 21.6279 15.7993 20.7367C18.1193 19.8455 20.7299 21.0009 21.6302 23.3174C22.5305 25.6339 21.3797 28.2342 19.0597 29.1254Z" fill="white"/>
<path d="M28.0597 18.1254C25.7397 19.0166 23.1291 17.8612 22.2287 15.5447C21.3284 13.2282 22.4793 10.6279 24.7993 9.7367C27.1193 8.8455 29.7299 10.0009 30.6302 12.3174C31.5305 14.6339 30.3797 17.2342 28.0597 18.1254Z" fill="white"/>
<path d="M41.0597 14.1254C38.7397 15.0166 36.1291 13.8612 35.2287 11.5447C34.3284 9.22822 35.4793 6.62789 37.7993 5.7367C40.1193 4.8455 42.7299 6.00092 43.6302 8.31739C44.5305 10.6339 43.3797 13.2342 41.0597 14.1254Z" fill="white"/>
<path d="M45.0597 29.1254C42.7397 30.0166 40.1291 28.8612 39.2287 26.5447C38.3284 24.2282 39.4793 21.6279 41.7993 20.7367C44.1193 19.8455 46.7299 21.0009 47.6302 23.3174C48.5305 25.6339 47.3797 28.2342 45.0597 29.1254Z" fill="white"/>
<path d="M39.0597 41.1254C36.7397 42.0166 34.1291 40.8612 33.2287 38.5447C32.3284 36.2282 33.4793 33.6279 35.7993 32.7367C38.1193 31.8455 40.7299 33.0009 41.6302 35.3174C42.5305 37.6339 41.3797 40.2342 39.0597 41.1254Z" fill="white"/>
<path fill-rule="evenodd" clip-rule="evenodd" d="M5 25.123L53 25.123L53 39.123L48.293 39.123L48.293 29.7551L9.70697 29.7551L9.70697 39.123L5 39.123L5 25.123Z" fill="#333333"/>
</g>
<defs>
<clipPath id="clip0_7203_2350">
<rect x="59" y="0.123047" width="59" height="59" rx="14.9265" transform="rotate(90 59 0.123047)" fill="white"/>
</clipPath>
</defs>
</svg>
