<svg width="98" height="24" viewBox="0 0 98 24" fill="none" xmlns="http://www.w3.org/2000/svg">
<path fill-rule="evenodd" clip-rule="evenodd" d="M97.375 0.592933C97.375 0.592933 95.5762 0.377203 93.4507 0.377203C91.3795 0.377203 89.635 0.592933 89.635 0.592933V7.33452H97.375V0.592933Z" fill="#E4003E"/>
<path fill-rule="evenodd" clip-rule="evenodd" d="M97.375 16.5031H89.635V23.3525C89.635 23.3525 91.8156 23.5682 93.5593 23.5682C95.3038 23.5682 97.375 23.2986 97.375 23.2986V16.5031Z" fill="#E4003E"/>
<path fill-rule="evenodd" clip-rule="evenodd" d="M85.0014 0.593246H75.4626L68.8129 8.84493H65.706V0.593246H57.4755V23.4067H65.706V14.8315H68.7039L75.4083 23.4067H85.6012L75.6263 11.2719L85.0014 0.593246Z" fill="#242265"/>
<path fill-rule="evenodd" clip-rule="evenodd" d="M26.6247 0.593246H0.625V23.4067H8.96455V7.06516H18.2851V23.4067H26.6247V0.593246Z" fill="#242265"/>
<path fill-rule="evenodd" clip-rule="evenodd" d="M30.6582 6.6337L29.4591 0.59326C29.4591 0.59326 37.2535 0 42.1046 0C46.9557 0 52.788 0.59326 52.788 0.59326C52.788 0.59326 54.5867 5.23146 54.5867 11.7573C54.5867 18.2831 52.7334 23.4068 52.7334 23.4068C52.7334 23.4068 47.1738 24 42.0501 24C36.9265 24 29.4591 23.4068 29.4591 23.4068L30.6582 17.3663C30.6582 17.3663 35.8909 17.7438 40.3604 17.7438C44.83 17.7438 46.5742 17.3663 46.5742 17.3663C46.5742 17.3663 46.7922 16.2337 46.9013 14.9393H36.2179V9.11464H46.9557C46.8467 7.60452 46.6287 6.68764 46.6287 6.68764C46.6287 6.68764 42.9767 6.31011 39.8698 6.31011C36.7085 6.25618 30.6582 6.6337 30.6582 6.6337Z" fill="#242265"/>
</svg>
