<svg width="72" height="40" viewBox="0 0 72 40" fill="none" xmlns="http://www.w3.org/2000/svg">
<g clip-path="url(#clip0_7237_3817)">
<path d="M14.3221 21.9922L19.1546 25.2124V31.1871L14.2998 39.9997L14.3221 21.9922Z" fill="#62B22F"/>
<path d="M10.3138 19.4463L15.1366 22.2784L0.821289 31.091L5.49374 22.4718L10.3138 19.4463Z" fill="#974995"/>
<path d="M32.7997 11.3046L23.5871 11.258L19.15 8.55429L14.3271 0L32.7997 11.3046Z" fill="#EE7024"/>
<path d="M14.3271 0L19.1499 8.55429L19.1596 20.3415L14.2979 18.8358L14.3271 0Z" fill="#FBB61B"/>
<path d="M0.782227 8.60742L5.50897 17.3169L5.49366 22.4732L0.82121 31.0924L0.782227 8.60742Z" fill="#5A58A3"/>
<path d="M0.782227 8.60742L32.7278 28.4183L23.5736 28.4832L5.50897 17.3169L0.782227 8.60742Z" fill="#2188CB"/>
<path d="M23.5875 11.2585L32.8002 11.3051L19.1643 19.8016L19.1504 13.999L23.5875 11.2585Z" fill="#DA0954"/>
<path d="M50.1552 12.6621C51.276 11.6263 52.8103 11.1042 54.3195 11.1522C55.8969 11.1197 57.4855 11.2284 59.0546 11.0393C58.7149 12.0948 58.0257 13.0092 57.5662 14.0196C56.4357 14.0408 55.3038 13.9985 54.1747 14.038C52.7225 14.1579 51.3386 15.3503 51.1966 16.8504C52.5179 15.5154 54.5854 15.4251 56.2979 15.864C57.4451 16.2591 58.467 17.1312 58.8833 18.3052C59.2676 19.3368 59.3302 20.4699 59.0796 21.541C58.6995 23.01 57.5342 24.1473 56.1601 24.685C54.5395 25.303 52.6752 25.3355 51.0616 24.6807C49.5301 24.0485 48.4469 22.581 48.0766 20.9709C47.6714 19.5386 47.7257 17.4176 48.1406 15.9613C48.4998 14.7054 49.2057 13.5455 50.1552 12.6621ZM54.0758 18.2558C53.214 18.0823 52.2436 18.4393 51.7967 19.2069C50.985 20.6011 52.1002 22.6826 53.9199 22.4201C55.9053 22.1351 56.4218 18.8909 54.0758 18.2558ZM41.2475 14.6504C43.0324 14.2059 45.0734 14.3357 46.598 15.4632C46.094 16.2873 45.6387 17.1396 45.1765 17.9877C44.4316 17.7365 43.7076 17.3372 42.9015 17.357C42.0466 17.3301 41.1208 17.6688 40.6349 18.4139C40.117 19.2027 40.0919 20.2865 40.5959 21.0908C41.0442 21.85 41.9255 22.2014 42.7623 22.2804C43.4152 22.2056 44.0794 22.1125 44.6836 21.8317C44.8284 21.7399 44.9955 21.7442 45.1597 21.7555C45.4549 22.6106 46.1009 23.3176 46.3557 24.1826C44.7114 25.073 42.7511 25.2551 40.9509 24.812C39.7104 24.4423 38.5284 23.7226 37.8183 22.6021C36.6948 20.8552 36.7379 18.3843 38.0286 16.7389C38.8068 15.6749 39.9972 14.982 41.2475 14.6504ZM60.813 14.6956C64.2811 14.6702 67.7507 14.6687 71.2174 14.6956C71.1868 18.0343 71.2063 21.3759 71.2091 24.7146C70.0423 24.7202 68.8742 24.7231 67.7075 24.7146C67.7618 22.5231 67.6532 20.3344 67.7214 18.15C67.727 17.9793 67.688 17.8212 67.6059 17.6745C66.5408 17.6984 65.4729 17.6999 64.4078 17.6745C64.341 20.0169 64.3953 22.3651 64.3814 24.7104C63.1938 24.7315 62.0062 24.7202 60.82 24.716C60.8214 21.3759 60.8353 18.0371 60.813 14.6984V14.6956Z" fill="#333333"/>
<path d="M19.1546 31.1873L23.5737 28.4821L32.7278 28.4172L14.2998 39.9998L19.1546 31.1873Z" fill="#037F37"/>
</g>
<defs>
<clipPath id="clip0_7237_3817">
<rect width="70.4348" height="40" fill="white" transform="translate(0.782227)"/>
</clipPath>
</defs>
</svg>
